<?xml version="1.0" encoding="utf-8"?>
<!-- Generator: Adobe Illustrator 25.0.0, SVG Export Plug-In . SVG Version: 6.00 Build 0)  -->
<svg version="1.1" id="Layer_1" xmlns="http://www.w3.org/2000/svg" xmlns:xlink="http://www.w3.org/1999/xlink" x="0px" y="0px"
	 viewBox="0 0 1924.9 4396.6" style="enable-background:new 0 0 1924.9 4396.6;" xml:space="preserve">
<style type="text/css">
	@font-face {
		font-family: 'Montserrat-Black';
		src: url('/fonts/Montserrat-Black.woff2') format('woff2'),
			url('/fonts/Montserrat-Black.woff') format('woff');
		font-weight: 900;
		font-style: normal;
		font-display: swap;
	}
	@font-face {
		font-family: 'Montserrat-ExtraBold';
		src: url('/fonts/Montserrat-ExtraBold.woff2') format('woff2'),
			url('/fonts/Montserrat-ExtraBold.woff') format('woff');
		font-weight: 800;
		font-style: normal;
		font-display: swap;
	}
	@font-face {
		font-family: 'Montserrat-SemiBold';
		src: url('/fonts/Montserrat-SemiBold.woff2') format('woff2'),
			url('/fonts/Montserrat-SemiBold.woff') format('woff');
		font-weight: 600;
		font-style: normal;
		font-display: swap;
	}
	@font-face {
		font-family: 'Montserrat-Regular';
		src: url('/fonts/Montserrat-Regular.woff2') format('woff2'),
			url('/fonts/Montserrat-Regular.woff') format('woff');
		font-weight: normal;
		font-style: normal;
		font-display: swap;
	}
	@font-face {
		font-family: 'Montserrat-Medium';
		src: url('/fonts/Montserrat-Medium.woff2') format('woff2'),
			url('/fonts/Montserrat-Medium.woff') format('woff');
		font-weight: 200;
		font-style: normal;
		font-display: swap;
	}
	@font-face {
		font-family: 'Montserrat-ExtraLight';
		src: url('/fonts/Montserrat-ExtraLight.woff2') format('woff2'),
			url('/fonts/Montserrat-ExtraLight.woff') format('woff');
		font-weight: 200;
		font-style: normal;
		font-display: swap;
	}
	@font-face {
		font-family: 'Tajawal-Regular';
		src: url('/fonts/Tajawal-Regular.woff2') format('woff2'),
			url('/fonts/Tajawal-Regular.woff') format('woff');
		font-weight: normal;
		font-style: normal;
		font-display: swap;
	}
	.st0{display:none;}
	.st1{fill:#FFFFFF;stroke:#BE2318;stroke-width:4;stroke-linecap:round;stroke-linejoin:round;stroke-miterlimit:10;}
	.st2{fill:none;}
	.st3{fill:#BE210D;}
	.st4{font-family:'Montserrat-SemiBold';}
	.st5{font-size:31px;}
	.st6{enable-background:new    ;}
	.st7{font-size:38px;}
	.st8{fill:#5CA3BD;}
	.st9{font-family:'Montserrat-Black';}
	.st10{font-size:36.3902px;}
	.st11{font-size:26.201px;}
	.st12{font-family:'Tajawal-Regular';}
	.st13{font-size:26.1602px;}
	.st14{fill:#9A210D;}
	.st15{font-family:'Montserrat-Regular';}
	.st16{fill:none;stroke:#BE2318;stroke-width:4;stroke-linecap:round;stroke-linejoin:round;stroke-miterlimit:10;}
	.st17{fill:none;stroke:#000000;stroke-miterlimit:10;}
	.st18{font-size:26px;}
	.st19{fill:#BE2318;}
	.st20{font-size:70px;}
	.st21{fill:#FFFFFF;}
	.st22{font-size:30px;}
</style>
<g id="Layer_2_1_" class="st0">
</g>
<rect x="708.5" y="521" class="st1" width="507.7" height="180.5"/>
<rect x="751" y="906.2" class="st1" width="422.9" height="216.3"/>
<rect x="683.6" y="1434.5" class="st1" width="557.2" height="186.6"/>
<rect x="636.8" y="2816.6" class="st1" width="656" height="245.8"/>
<rect x="779.7" y="574.2" class="st2" width="365.4" height="89.6"/>
<text transform="matrix(1 0 0 1 823.6064 595.1196)" class="st3 st4 st5">What do we do?</text>
<text transform="matrix(1 0 0 1 747.9969 644.0557)" class="st3 st4 st5">And where can you see it?</text>
<rect x="777.6" y="958.7" class="st2" width="369.8" height="134"/>
<text transform="matrix(1 0 0 1 854.327 995.6514)" class="st6"><tspan x="0" y="0" class="st3 st4 st5">How can you </tspan><tspan x="-43.4" y="41" class="st3 st4 st5">recognize our ads?</tspan></text>
<rect x="772.8" y="1467.9" class="st2" width="379.3" height="124.5"/>
<text transform="matrix(1 0 0 1 790.4651 1499.0983)" class="st6"><tspan x="0" y="0" class="st3 st4 st5">How these ads work?</tspan><tspan x="-28" y="37.2" class="st3 st4 st5">And where is the money </tspan><tspan x="58.7" y="74.4" class="st3 st4 st5">coming from?</tspan></text>
<rect x="697.2" y="2871.7" class="st2" width="569.1" height="215.5"/>
<text transform="matrix(1 0 0 1 747.051 2949.417)" class="st3 st4 st7">Let’s save the world!</text>
<rect x="-68.6" y="1044.5" class="st2" width="584.2" height="126.8"/>
<rect x="78.2" y="1862" class="st2" width="721.2" height="279"/>
<text transform="matrix(1 0 0 1 457.0282 1811.0757)" class="st8 st9 st10">WE DONATE 50%</text>
<text transform="matrix(1 0 0 1 152.5982 1847.4657)" class="st4 st11">YOU PICK THE CHARITY, WE SEND THE MONEY</text>
<text transform="matrix(1 0 0 1 230.3873 1896.5679)" class="st6"><tspan x="0" y="0" class="st12 st13">A single Good-loop ad can support up to 3 charities. </tspan><tspan x="47" y="44" class="st12 st13">When there is more than one charity displayed, </tspan><tspan x="67" y="88" class="st12 st13">you get to choose which one gets the money. </tspan></text>
<rect x="1116.8" y="1784.7" class="st2" width="757" height="294.7"/>
<text transform="matrix(1 0 0 1 1116.7476 1811.6569)" class="st8 st9 st10">BRANDS PAYING MORE</text>
<text transform="matrix(1 0 0 1 1116.7476 1848.0469)" class="st4 st11">FOR BETTER AD PERFORMANCE</text>
<text transform="matrix(1 0 0 1 1114.4102 1893.0558)" class="st6"><tspan x="0" y="0" class="st12 st13">Advertisers/brands pay for the donations. Why?</tspan><tspan x="0" y="43" class="st12 st13">Because in exchange they get a much higher ad engagement </tspan><tspan x="0" y="86" class="st12 st13">and increase in positive brand sentiment.  </tspan></text>
<g class="st6">
</g>
<rect x="1254.4" y="1060" class="st2" width="588.6" height="296.9"/>
<text transform="matrix(1 0 0 1 1252.5234 1054.5469)" class="st8 st9 st10">GOOD-LOOP LOGO</text>
<text transform="matrix(1 0 0 1 1567.1012 1280.1301)" class="st14 st15 st10"> </text>
<text transform="matrix(1 0 0 1 1252.5227 1104.1434)" class="st6"><tspan x="0" y="0" class="st4 st11">OUR LOGO IS THE FAIRTRADE</tspan><tspan x="0" y="31.4" class="st4 st11">STAMP OF ADVERTISING</tspan></text>
<text transform="matrix(1 0 0 1 1252.5232 1187.7919)" class="st6"><tspan x="0" y="0" class="st12 st13">Whenever you see our logo we guarantee that 50% </tspan><tspan x="0" y="45" class="st12 st13">of the cost of the ad is donated to support good causes.  </tspan></text>
<g class="st6">
</g>
<g class="st6">
</g>
<text transform="matrix(1 0 0 1 260.9855 2524.8037)" class="st8 st9 st10">EVERYONE GETS SOMETHING</text>
<text transform="matrix(1 0 0 1 429.0065 2561.1938)" class="st4 st11">BUT IT ALL DEPENDS ON YOU</text>
<text transform="matrix(1 0 0 1 373.5294 2609.844)" class="st6"><tspan x="0" y="0" class="st12 st13">The 50% of the ad money is split between </tspan><tspan x="-57.6" y="44" class="st12 st13">the charities according to the number of votes </tspan><tspan x="97.5" y="88" class="st12 st13">they get from you, the ad view.er</tspan></text>
<g class="st6">
</g>
<line class="st16" x1="962.5" y1="701.5" x2="962.5" y2="906.1"/>
<line class="st16" x1="962.5" y1="1122.1" x2="962.5" y2="1431.7"/>
<line class="st16" x1="962.5" y1="1622.1" x2="962.5" y2="1941.1"/>
<line class="st16" x1="962.5" y1="2171.1" x2="962.5" y2="1941.1"/>
<rect x="636.8" y="2170.1" class="st1" width="656" height="216.3"/>
<rect x="777.6" y="2222.6" class="st2" width="369.8" height="134"/>
<text transform="matrix(1 0 0 1 774.3408 2267.0105)" class="st6"><tspan x="0" y="0" class="st3 st4 st5">How is the money split </tspan><tspan x="34.2" y="41" class="st3 st4 st5">between charities?</tspan></text>
<g>
	
		<image style="overflow:visible;" width="2559" height="1509" xlink:href="526C6E4757A95CAF.png"  transform="matrix(0.3312 0 0 0.3312 -25.7758 354.9913)">
	</image>
</g>
<image style="overflow:visible;" width="2703" height="1871" xlink:href="526C6E4757A95CAD.png"  transform="matrix(0.1814 0 0 0.1814 1205.7937 693.8448)">
</image>
<g>
	
		<image style="overflow:visible;" width="300" height="312" xlink:href="526C6E4757A95CB3.png"  transform="matrix(1 0 0 1 1358.934 2150.4753)">
	</image>
</g>
<g>
	
		<image style="overflow:visible;" width="3340" height="2362" xlink:href="526C6E4757A95CB5.png"  transform="matrix(0.173 0 0 0.173 1206.3705 1292.3425)">
	</image>
</g>
<image style="overflow:visible;" width="5244" height="6176" xlink:href="526C6E4757A95CB7.png"  transform="matrix(6.047383e-02 0 0 6.047383e-02 271.1838 2054.8267)">
</image>
<g>
	
		<image style="overflow:visible;" width="224" height="225" xlink:href="526C6E4757A95CB5.jpg"  transform="matrix(0.6227 0 0 0.6227 1092.1864 3817.5696)">
	</image>
</g>
<image style="overflow:visible;" width="279" height="266" xlink:href="526C6E4757A95CB3.jpg"  transform="matrix(0.4372 0 0 0.4372 363.0649 3647.8049)">
</image>
<image style="overflow:visible;" width="182" height="279" xlink:href="526C6E4757A95CBD.png"  transform="matrix(0.7488 0 0 0.7488 688.8261 3788.0374)">
</image>
<g>
	
		<image style="overflow:visible;" width="472" height="207" xlink:href="526C6E4757A95CBF.png"  transform="matrix(0.4239 0 0 0.4239 1426.5673 3655.1091)">
	</image>
</g>
<image style="overflow:visible;" width="3524" height="4817" xlink:href="E9ABF04FAB7A655C.png"  transform="matrix(7.385980e-05 0.1287 -0.1287 7.385980e-05 628.7729 1364.1393)">
</image>
<line class="st17" x1="431.1" y1="3532.4" x2="431.1" y2="3647.8"/>
<line class="st17" x1="764.2" y1="3704.1" x2="764.2" y2="3831.1"/>
<line class="st17" x1="1163.2" y1="3652.9" x2="1163.2" y2="3832.5"/>
<line class="st17" x1="1528.6" y1="3446.4" x2="1528.6" y2="3668.3"/>
<g>
	
		<image style="overflow:visible;" width="842" height="825" xlink:href="E9ABF04FAB7A655B.png"  transform="matrix(0.3 0 0 0.3079 312.2538 3289.3936)">
	</image>
</g>
<g>
	
		<image style="overflow:visible;" width="836" height="826" xlink:href="E9ABF04FAB7A6554.png"  transform="matrix(0.3045 0 0 0.3045 636.9147 3489.5542)">
	</image>
</g>
<g>
	
		<image style="overflow:visible;" width="824" height="801" xlink:href="E9ABF04FAB7A6557.png"  transform="matrix(0.3065 0 0 0.3065 1036.9805 3478.3264)">
	</image>
</g>
<g>
	
		<image style="overflow:visible;" width="787" height="756" xlink:href="E9ABF04FAB7A6555.png"  transform="matrix(0.3752 0 0 0.3752 1380.9751 3273.0681)">
	</image>
</g>
<rect x="594" y="4023.7" class="st2" width="351.9" height="142.7"/>
<text transform="matrix(1 0 0 1 598.4453 4040.4561)"><tspan x="0" y="0" class="st12 st18">400 personal care kits and over</tspan><tspan x="-1.1" y="41" class="st12 st18">1,000 nights of accommodation</tspan><tspan x="24.3" y="82" class="st12 st18">for homeless young people</tspan></text>
<rect x="1357.4" y="3814.8" class="st2" width="351.9" height="142.7"/>
<text transform="matrix(1 0 0 1 1399.4756 3831.5662)"><tspan x="0" y="0" class="st12 st18">250 beach clean-ups and</tspan><tspan x="-7" y="41" class="st12 st18">1,900 school programmes</tspan></text>
<rect x="987.1" y="4007.4" class="st2" width="351.9" height="142.7"/>
<text transform="matrix(1 0 0 1 1001.9159 4024.1086)"><tspan x="0" y="0" class="st12 st18">Turtle nest mapping projects,</tspan><tspan x="11.9" y="41" class="st12 st18">tree planting, and antarctic</tspan><tspan x="60.6" y="82" class="st12 st18">conservation work</tspan></text>
<rect x="247.4" y="3785.8" class="st2" width="351.9" height="142.7"/>
<text transform="matrix(1 0 0 1 342.7057 3802.5095)"><tspan x="0" y="0" class="st12 st18">School packs &amp;</tspan><tspan x="-27.9" y="41" class="st12 st18">education materials</tspan><tspan x="-42.7" y="82" class="st12 st18">for over 1,000 children</tspan></text>
<rect x="-117.5" y="910.7" class="st2" width="588.6" height="296.9"/>
<text transform="matrix(1 0 0 1 254.3477 925.7535)" class="st8 st9 st10">WE DO ETHICAL ADS</text>
<text transform="matrix(1 0 0 1 185.0634 974.0959)" class="st4 st11">YOU CAN SEE THESE ON WEBSITES</text>
<text transform="matrix(1 0 0 1 185.0634 1010.4859)" class="st4 st11">AND ON SOCIAL MEDIA CHANNELS</text>
<text transform="matrix(1 0 0 1 77.9805 1075.1129)" class="st6"><tspan x="0" y="0" class="st12 st13">Our ads convert ad money into free charity donations, </tspan><tspan x="-9.9" y="45" class="st12 st13">whilst delivering higher ad performance for the brands.</tspan></text>
<rect x="1088.7" y="2502.8" class="st2" width="627" height="267"/>
<text transform="matrix(1 0 0 1 1088.748 2529.8352)" class="st8 st9 st10">SUPPORTING GOOD CAUSES</text>
<text transform="matrix(1 0 0 1 1088.748 2566.2253)" class="st4 st11">ALL AROUND THE WORLD</text>
<text transform="matrix(1 0 0 1 1085.1278 2629.5779)" class="st6"><tspan x="0" y="0" class="st12 st13">The money we generate supports  amazing causes</tspan><tspan x="0" y="44" class="st12 st13">on a large scale all around the world. </tspan></text>
<line class="st16" x1="962.6" y1="2813.9" x2="962.6" y2="2391.9"/>
<rect x="183.5" y="203" class="st2" width="1610.6" height="152"/>
<text transform="matrix(1 0 0 1 183.4767 254.8939)" class="st19 st15 st20">Help Us Change Advertising for Good</text>
<g>
	
		<image style="overflow:visible;opacity:0.25;" width="392" height="126" xlink:href="E9ABF04FAB7A654B.png"  transform="matrix(1 0 0 1 774 3243.7295)">
	</image>
	<a xlink:href="" onclick="event.preventDefault(); window.scrollY=0; window.parent.location.href='/#involve';">
		<g>
			<g>
				<path class="st3" d="M1095.6,3347.7H829.7c-26.3,0-47.6-21.3-47.6-47.6l0,0c0-26.3,21.3-47.6,47.6-47.6h265.9
					c26.3,0,47.6,21.3,47.6,47.6l0,0C1143.1,3326.4,1121.8,3347.7,1095.6,3347.7z"/>
				<text transform="matrix(1 0 0 1 857.064 3309.4509)" class="st21 st4 st22">Get involved</text>
			</g>
		</g>
	</a>
</g>
<line class="st16" x1="964.8" y1="3252.5" x2="964.8" y2="3065.1"/>
</svg>
