<svg xmlns="http://www.w3.org/2000/svg" xmlns:xlink="http://www.w3.org/1999/xlink" width="40" height="40" viewBox="0 0 40 40"><defs><clipPath id="clip-info-circle"><rect width="40" height="40"></rect></clipPath></defs><g id="info-circle" clip-path="url(#clip-info-circle)"><g id="Ellipse_1055" transform="translate(8 8)" fill="#fff" stroke="#770f00" stroke-width="2"><circle cx="12" cy="12" r="12" stroke="none"></circle><circle cx="12" cy="12" r="11" fill="none"></circle></g><path id="Path_2069" d="M3.515-3.794h2.01c0-1.868,2.707-2.105,2.707-4.685,0-1.82-1.551-2.881-3.878-2.881A5.036,5.036,0,0,0,.064-9.429l1.535,1A2.985,2.985,0,0,1,4.179-9.65c1.219,0,1.979.6,1.979,1.488C6.158-6.58,3.515-6.137,3.515-3.794ZM4.528-.011a1.22,1.22,0,0,0,1.25-1.235,1.207,1.207,0,0,0-1.25-1.219A1.211,1.211,0,0,0,3.261-1.245,1.224,1.224,0,0,0,4.528-.011Z" transform="translate(15.725 25.918)" fill="#770f00"></path></g></svg>