<?xml version="1.0" encoding="utf-8"?>
<svg viewBox="0 0 512 512" style="enable-background:new 0 0 512 512;" xmlns="http://www.w3.org/2000/svg">
  <ellipse style="fill: rgb(255, 255, 255);" cx="256.444" cy="252.891" rx="240.458" ry="240.458"/>
  <path d="M 491.841 156.427 C 472.37 110.481 439.905 71.414 399.055 43.79 C 358.217 16.166 308.893 -0.007 256 0 C 220.746 -0.002 187.054 7.18 156.429 20.158 C 110.484 39.63 71.416 72.093 43.791 112.943 C 16.167 153.779 -0.007 203.104 0 256 C -0.002 291.255 7.181 324.948 20.159 355.573 C 39.63 401.519 72.096 440.586 112.945 468.21 C 153.783 495.834 203.107 512.007 256 512 C 291.253 512.002 324.946 504.82 355.571 491.842 C 401.516 472.371 440.584 439.907 468.209 399.057 C 495.834 358.22 512.007 308.894 512 256 C 512.002 220.744 504.819 187.052 491.841 156.427 Z M 460.413 342.257 C 443.562 382.038 415.368 415.98 379.937 439.933 C 344.494 463.886 301.917 477.859 256.001 477.866 C 225.382 477.864 196.272 471.648 169.746 460.412 C 129.965 443.561 96.022 415.368 72.069 379.937 C 48.114 344.495 34.14 301.917 34.133 256 C 34.135 225.38 40.352 196.269 51.587 169.743 C 68.438 129.962 96.632 96.019 132.063 72.067 C 167.506 48.113 210.084 34.14 256 34.133 C 286.619 34.135 315.729 40.351 342.255 51.587 C 382.036 68.437 415.979 96.631 439.932 132.062 C 463.885 167.505 477.859 210.082 477.866 256.001 C 477.864 286.62 471.648 315.731 460.413 342.257 Z"/>
  <path d="M 389.594 239.301 L 272.699 239.301 L 272.699 122.406 C 272.699 113.184 265.222 105.707 256 105.707 C 246.778 105.707 239.301 113.184 239.301 122.406 L 239.301 239.301 L 122.406 239.301 C 113.184 239.301 105.707 246.778 105.707 256 C 105.707 265.222 113.184 272.699 122.406 272.699 L 239.301 272.699 L 239.301 389.594 C 239.301 398.816 246.778 406.293 256 406.293 C 265.222 406.293 272.699 398.816 272.699 389.594 L 272.699 272.699 L 389.594 272.699 C 398.816 272.699 406.293 265.222 406.293 256 C 406.293 246.778 398.817 239.301 389.594 239.301 Z"/>
</svg>