<?xml version="1.0" encoding="UTF-8"?>
<svg width="549px" height="124px" viewBox="0 0 549 124" version="1.1" xmlns="http://www.w3.org/2000/svg" xmlns:xlink="http://www.w3.org/1999/xlink">
    <!-- Generator: Sketch 51.2 (57519) - http://www.bohemiancoding.com/sketch -->
    <title>Artboard</title>
    <desc>Created with Sketch.</desc>
    <defs></defs>
    <g id="Artboard" stroke="none" stroke-width="1" fill="none" fill-rule="evenodd">
        <g id="Herald-Masthead_AI" transform="translate(12.000000, 10.000000)" fill="#000000" fill-rule="nonzero">
            <path d="M277.5176,92.9365491 L277.5176,90.0674582 C282.873236,89.8761855 284.690327,89.2067309 284.690327,84.8074582 L284.690327,51.9085491 L258.199055,51.9085491 L258.199055,84.9030945 C258.199055,89.3980036 260.016145,89.9718218 265.371782,90.1630945 L265.371782,93.0321855 L235.533236,93.0321855 L235.533236,90.1630945 C240.888873,89.9718218 242.705964,89.3023673 242.705964,84.9030945 L242.705964,21.4961855 C242.705964,17.0012764 240.984509,16.5230945 235.533236,16.2361855 L235.533236,13.3670945 L265.371782,13.3670945 L265.371782,16.2361855 C260.016145,16.5230945 258.199055,17.0012764 258.199055,21.4961855 L258.199055,47.6049127 L284.690327,47.6049127 L284.690327,21.4961855 C284.690327,17.0012764 282.873236,16.5230945 277.5176,16.2361855 L277.5176,13.3670945 L307.356145,13.3670945 L307.356145,16.2361855 C302.000509,16.5230945 300.183418,17.0012764 300.183418,21.4961855 L300.183418,84.9030945 C300.183418,89.3980036 301.904873,89.9718218 307.356145,90.1630945 L307.356145,93.0321855 L277.5176,93.0321855" id="Shape"></path>
            <path d="M331.647782,94.8492764 C314.815782,94.8492764 305.539055,82.2252764 305.539055,64.4369127 C305.539055,50.56964 312.998691,34.3114582 330.691418,34.3114582 C346.662691,34.3114582 353.548509,48.2743673 353.548509,65.0107309 L320.362691,65.0107309 L320.362691,67.7841855 C320.362691,79.1649127 324.092509,89.8761855 335.186327,89.8761855 C340.159418,89.8761855 345.993236,87.8678218 351.348873,78.6867309 L354.122327,80.1212764 C349.340509,90.8325491 340.924509,94.8492764 331.647782,94.8492764 M330.308873,38.1369127 C324.092509,38.1369127 320.458327,48.6569127 320.458327,61.2809127 L339.489964,61.2809127 C339.489964,49.0394582 337.577236,38.1369127 330.308873,38.1369127" id="Shape"></path>
            <path d="M390.942327,50.8565491 C390.559782,44.1620036 387.116873,42.6318218 383.865236,42.6318218 C378.987782,42.6318218 374.205964,47.41364 374.205964,55.5427309 L374.205964,85.0943673 C374.205964,89.5892764 376.023055,90.1630945 381.378691,90.3543673 L381.378691,92.9365491 L352.592145,92.9365491 L352.592145,90.3543673 C357.947782,90.0674582 359.764873,89.49364 359.764873,85.0943673 L359.764873,43.9707309 C359.764873,39.4758218 358.043418,38.9020036 352.592145,38.6150945 L352.592145,36.0329127 L374.110327,36.0329127 L374.110327,43.20564 C375.640509,39.0932764 380.039782,34.4070945 388.264509,34.4070945 C390.272873,34.4070945 393.141964,34.5983673 394.385236,34.9809127 L394.385236,50.7609127 L390.942327,50.7609127" id="Shape"></path>
            <path d="M429.388145,92.9365491 C425.562691,92.9365491 423.458691,89.9718218 423.363055,87.9634582 C419.728873,92.9365491 413.129964,94.0841855 407.774327,94.0841855 C397.254327,94.0841855 389.794691,88.8241855 389.794691,77.8260036 C389.794691,64.4369127 401.749236,58.0292764 415.712145,58.2205491 C417.242327,58.2205491 420.876509,58.2205491 422.884873,58.3161855 L422.884873,47.6049127 C422.884873,40.1452764 418.389964,37.94564 413.608145,37.94564 C406.626691,37.94564 401.462327,42.0580036 400.984145,50.9521855 L397.4456,50.9521855 L397.4456,35.0765491 C401.462327,34.6940036 410.260873,34.0245491 416.3816,34.0245491 C429.770691,34.0245491 437.039055,39.4758218 437.039055,50.2827309 L437.039055,86.6245491 C437.039055,89.3023673 439.047418,90.3543673 441.533964,90.4500036 L441.533964,93.0321855 L429.388145,93.0321855 L429.388145,92.9365491 Z M422.980509,61.7590945 C421.737236,61.6634582 418.772509,61.5678218 417.146691,61.5678218 C410.260873,61.5678218 404.235782,66.0627309 404.235782,77.0609127 C404.235782,85.3812764 408.730691,89.2067309 413.512509,89.2067309 C416.094691,89.2067309 420.972145,87.6765491 422.980509,83.3729127 L422.980509,61.7590945 Z M442.490327,92.9365491 L442.490327,90.3543673 C446.602691,89.9718218 447.367782,89.1110945 447.367782,84.9987309 L447.367782,21.2092764 C447.367782,16.7143673 446.315782,16.1405491 440.864509,15.9492764 L440.864509,13.3670945 L461.713236,13.3670945 L461.713236,85.0943673 C461.713236,89.5892764 463.530327,90.1630945 467.642691,90.4500036 L467.642691,93.0321855 L441.6296,93.0321855 L442.490327,93.0321855 L442.490327,92.9365491 Z" id="Shape"></path>
            <g id="Group" transform="translate(0.554691, 12.755022)">
                <path d="M503.429818,80.2389091 L503.429818,73.4487273 C501.134545,78.7087273 497.022182,81.0996364 490.232,81.0996364 C476.460364,81.0996364 467.088,68.4756364 467.088,51.9305455 C467.088,37.1069091 475.504,21.4225455 490.423273,21.4225455 C496.352727,21.4225455 501.134545,23.4309091 503.334182,27.4476364 L503.334182,8.51163636 C503.334182,4.01672727 501.517091,3.44290909 496.161455,3.25163636 L496.161455,0.573818182 L517.775273,0.573818182 L517.775273,72.3010909 C517.775273,76.796 519.496727,77.3698182 524.948,77.5610909 L524.948,80.1432727 L503.429818,80.1432727 L503.429818,80.2389091 Z M503.429818,34.9072727 C503.047273,30.6992727 499.030545,26.4912727 494.153091,26.4912727 C487.458545,26.4912727 482.007273,34.5247273 482.007273,50.2090909 C482.007273,70.1970909 488.223636,75.9352727 493.674909,75.9352727 C498.743636,75.9352727 503.334182,72.0141818 503.334182,63.4069091 L503.334182,34.9072727 L503.429818,34.9072727 Z M57.3818182,21.6138182 C56.808,8.416 54.2258182,4.59054545 46.0967273,4.59054545 L38.4458182,4.59054545 L38.4458182,72.1098182 C38.4458182,76.6047273 40.2629091,77.1785455 45.6185455,77.3698182 L45.6185455,80.2389091 L15.78,80.2389091 L15.78,77.3698182 C21.1356364,77.1785455 22.9527273,76.5090909 22.9527273,72.1098182 L22.9527273,4.59054545 L15.5887273,4.59054545 C7.55527273,4.59054545 4.01672727,8.416 3.44290909,21.6138182 L0,21.6138182 L0,0.573818182 L60.9203636,0.573818182 L60.9203636,21.6138182 L57.3818182,21.6138182 Z" id="Shape"></path>
            </g>
            <path d="M94.9477818,92.9365491 L94.9477818,90.3543673 C100.303418,90.0674582 101.355418,89.49364 101.355418,84.9987309 L101.355418,49.9001855 C101.355418,44.3532764 98.9645091,39.2845491 92.7481455,39.2845491 C85.7666909,39.2845491 82.1325091,45.6921855 82.1325091,52.5780036 L82.1325091,85.1900036 C82.1325091,89.6849127 83.2801455,90.2587309 88.6357818,90.54564 L88.6357818,93.1278218 L61.3794182,93.1278218 L61.3794182,90.54564 C66.7350545,90.2587309 67.7870545,89.6849127 67.7870545,85.1900036 L67.7870545,21.2092764 C67.7870545,17.0969127 67.5957818,16.1405491 62.6226909,15.9492764 L62.6226909,13.3670945 L82.2281455,13.3670945 L82.2281455,41.5798218 C85.5754182,35.7460036 91.9830545,34.3114582 98.2950545,34.3114582 C110.058327,34.3114582 115.892145,42.4405491 115.892145,51.4303673 L115.892145,85.1900036 C115.892145,89.6849127 117.709236,90.2587309 123.064873,90.54564 L123.064873,93.1278218 L94.9477818,93.1278218 M147.165236,94.8492764 C130.333236,94.8492764 121.056509,82.2252764 121.056509,64.4369127 C121.056509,50.56964 128.516145,34.3114582 146.208873,34.3114582 C162.180145,34.3114582 169.065964,48.2743673 169.065964,65.0107309 L135.880145,65.0107309 L135.880145,67.7841855 C135.880145,79.1649127 139.609964,89.8761855 150.703782,89.8761855 C155.676873,89.8761855 161.606327,87.8678218 166.866327,78.6867309 L169.831055,80.2169127 C164.857964,90.8325491 156.441964,94.8492764 147.165236,94.8492764 M145.826327,38.1369127 C139.609964,38.1369127 135.975782,48.6569127 135.975782,61.2809127 L154.911782,61.2809127 C155.007418,49.0394582 153.094691,38.1369127 145.826327,38.1369127 M209.424509,62.5241855 L209.998327,64.6281855 C209.998327,64.6281855 210.476509,66.0627309 211.815418,69.8881855 C211.815418,69.8881855 212.867418,72.66164 214.110691,74.8612764 C214.110691,74.8612764 215.258327,77.1565491 217.266691,78.8780036 C217.266691,78.8780036 218.988145,75.1481855 221.7616,71.4183673 C221.857236,71.3227309 222.431055,70.4620036 222.526691,70.4620036 L224.056873,71.0358218 C223.291782,71.8965491 221.7616,73.71364 220.900873,75.2438218 C220.900873,75.2438218 218.988145,80.4081855 218.509964,83.2772764 C218.509964,83.2772764 218.127418,84.9987309 218.414327,85.6681855 L219.944509,88.3460036 C219.944509,88.3460036 223.100509,91.0238218 224.056873,90.8325491 L225.300145,90.7369127 L225.778327,91.59764 C225.778327,91.59764 226.256509,92.3627309 226.065236,92.7452764 L225.395782,93.6060036 L217.457964,93.6060036 L216.597236,92.7452764 C216.597236,92.7452764 216.597236,92.7452764 217.171055,92.3627309 L217.649236,93.0321855 L225.013236,93.0321855 L225.395782,92.3627309 L225.013236,91.5020036 L223.769964,91.6932764 C223.196145,91.6932764 221.952873,91.2150945 221.952873,91.2150945 C220.518327,90.4500036 220.135782,89.9718218 220.135782,89.9718218 C218.509964,88.1547309 217.5536,86.33764 217.5536,86.33764 C217.075418,85.1900036 217.362327,81.2689127 217.362327,81.2689127 C216.884145,80.6950945 215.640873,79.9300036 215.640873,79.9300036 L215.4496,85.1900036 L214.875782,78.7823673 C213.249964,76.1045491 211.815418,72.66164 211.815418,72.66164 L211.911055,73.2354582 C212.771782,78.3998218 212.963055,82.3209127 212.963055,82.3209127 C213.058691,83.7554582 212.963055,86.33764 212.963055,86.33764 C212.102327,88.7285491 212.580509,90.6412764 212.580509,90.6412764 L215.258327,91.1194582 C215.832145,91.5020036 216.5016,92.0758218 216.884145,92.3627309 L216.597236,93.0321855 L212.102327,93.0321855 C212.102327,93.0321855 212.102327,92.1714582 212.102327,90.8325491 C212.197964,88.9198218 212.197964,89.1110945 212.2936,88.0590945 C212.2936,88.0590945 213.441236,84.23364 212.963055,82.7034582 C212.676145,81.8427309 212.197964,82.7034582 211.815418,81.7470945 L209.424509,73.5223673 C209.424509,73.5223673 208.468145,73.3310945 206.842327,74.0005491 L204.642691,74.6700036 C204.642691,74.6700036 203.208145,72.5660036 201.7736,69.2187309 C201.7736,69.2187309 200.912873,66.6365491 200.339055,64.5325491 L204.260145,63.9587309 L203.686327,65.2020036 L204.642691,66.7321855 C204.642691,66.7321855 204.547055,67.1147309 204.068873,67.3060036 L204.738327,69.0274582 C204.738327,69.0274582 204.642691,69.6012764 204.260145,69.8881855 L204.9296,70.8445491 C204.9296,70.8445491 204.642691,71.5140036 204.260145,71.8009127 L205.025236,73.9049127 C205.025236,73.9049127 206.077236,72.4703673 205.885964,69.6012764 C205.885964,69.6012764 205.885964,68.1667309 205.312145,66.5409127 C205.312145,66.5409127 204.642691,65.2020036 204.164509,64.1500036 L209.1376,64.9150945 L206.746691,66.0627309 C206.555418,66.7321855 206.937964,67.3060036 206.937964,67.3060036 C207.607418,68.8361855 207.894327,71.60964 207.894327,71.60964 C208.372509,69.4100036 208.0856,67.3060036 208.0856,67.3060036 C208.0856,67.3060036 208.0856,65.4889127 205.025236,65.9670945 L205.120873,63.4805491 L208.755055,64.5325491 C208.755055,64.5325491 206.746691,58.6987309 205.503418,56.3078218 C205.503418,56.3078218 204.833964,55.2558218 204.260145,54.2994582 L203.781964,53.6300036 C203.781964,53.6300036 203.973236,55.82964 201.7736,56.7860036 C201.7736,56.7860036 199.095782,57.6467309 197.661236,57.5510945 C197.661236,57.5510945 197.087418,57.5510945 195.748509,57.5510945 C195.748509,57.5510945 195.365964,57.5510945 194.696509,57.3598218 L194.122691,57.0729127 C194.122691,57.0729127 194.027055,58.98564 194.313964,60.4201855 C194.313964,60.4201855 194.696509,61.9503673 196.131055,62.4285491 C196.131055,62.4285491 195.652873,61.7590945 195.557236,61.08964 C195.557236,61.08964 195.4616,60.6114582 195.4616,59.9420036 L195.4616,59.4638218 C195.4616,59.4638218 196.417964,60.9940036 197.852509,61.9503673 C198.330691,62.2372764 199.765236,62.5241855 199.765236,62.5241855 C207.416145,62.9067309 207.607418,63.9587309 208.946327,64.5325491 L207.511782,64.24564 L204.164509,64.3412764 L203.973236,64.9150945 L201.199782,64.9150945 L201.008509,64.9150945 L200.817236,64.9150945 C200.817236,64.9150945 198.904509,64.7238218 197.5656,64.5325491 C197.5656,64.5325491 196.131055,64.3412764 194.792145,63.4805491 L194.313964,63.0023673 L194.696509,68.0710945 C194.313964,67.6885491 194.218327,67.3060036 194.218327,67.3060036 C194.027055,66.8278218 193.548873,66.7321855 193.548873,66.7321855 C192.592509,66.5409127 192.783782,65.7758218 192.783782,65.7758218 L192.975055,63.8630945 C193.166327,62.7154582 193.070691,60.9940036 193.070691,60.9940036 L192.114327,59.7507309 L192.3056,59.2725491 C192.3056,59.2725491 192.688145,58.5074582 192.783782,57.5510945 C192.783782,57.5510945 192.209964,57.93364 191.636145,58.6030945 L190.775418,59.6550945 L191.2536,60.7070945 C191.2536,60.7070945 191.731782,60.2289127 192.114327,59.7507309 L193.070691,60.9940036 C192.783782,61.4721855 192.018691,63.19364 191.540509,63.5761855 C191.540509,63.5761855 190.105964,64.7238218 189.532145,63.2892764 C189.532145,63.2892764 188.480145,61.7590945 188.671418,59.3681855 C188.671418,59.3681855 188.767055,58.5074582 190.488509,57.1685491 C190.488509,57.1685491 190.010327,56.1165491 189.627782,55.3514582 L190.584145,54.8732764 L191.731782,56.4990945 C191.731782,56.4990945 192.401236,56.0209127 192.688145,55.6383673 C192.688145,55.6383673 193.070691,56.4034582 194.313964,56.5947309 C194.313964,56.5947309 195.270327,56.9772764 196.417964,56.7860036 C196.417964,56.7860036 197.469964,56.88164 198.330691,56.5947309 C198.330691,56.5947309 200.625964,56.3078218 201.486691,54.8732764 C201.7736,54.3950945 201.869236,54.2994582 202.060509,53.9169127 C202.060509,53.9169127 202.347418,53.2474582 202.156145,52.67364 L201.869236,51.7172764 C201.869236,51.7172764 201.295418,51.0478218 200.530327,50.4740036 C200.530327,50.4740036 199.765236,49.9001855 198.904509,49.1350945 C198.904509,49.1350945 197.469964,47.9874582 197.087418,46.7441855 C197.087418,46.7441855 197.5656,47.2223673 198.139418,47.5092764 C198.139418,47.5092764 197.183055,45.1183673 197.087418,43.8750945 C197.087418,43.8750945 196.609236,44.6401855 195.844145,45.9790945 C195.844145,45.9790945 195.365964,46.8398218 194.696509,47.3180036 C194.696509,47.3180036 196.131055,43.8750945 196.417964,42.8230945 C196.417964,42.8230945 194.600873,44.5445491 193.548873,45.1183673 C193.548873,45.1183673 195.079055,43.5881855 195.844145,42.3449127 C195.844145,42.3449127 196.226691,41.8667309 197.183055,39.8583673 C197.183055,39.8583673 198.426327,37.3718218 199.478327,36.4154582 C199.6696,36.2241855 199.095782,36.7980036 199.287055,36.6067309 C199.287055,36.6067309 199.382691,36.6067309 199.956509,35.7460036 C199.956509,35.7460036 200.052145,35.6503673 200.243418,35.3634582 C200.243418,35.3634582 200.530327,35.0765491 201.008509,34.8852764 L201.486691,34.78964 C201.582327,34.6940036 201.869236,34.6940036 201.869236,34.6940036 C201.869236,34.6940036 203.8776,33.9289127 206.459782,33.8332764 C206.459782,33.8332764 207.0336,33.8332764 207.894327,33.8332764 C207.894327,33.8332764 209.328873,33.8332764 209.902691,33.5463673 C209.902691,33.5463673 210.380873,33.4507309 211.145964,32.9725491 L212.484873,32.3987309 C212.484873,32.3987309 212.867418,32.3030945 214.015055,31.3467309 C214.015055,31.3467309 214.684509,30.58164 215.927782,29.7209127 C215.927782,29.7209127 218.127418,27.8081855 219.275055,27.1387309 C219.275055,27.1387309 219.561964,28.0950945 220.900873,27.0430945 C220.900873,27.0430945 221.379055,26.8518218 221.857236,26.6605491 C221.857236,26.6605491 223.004873,26.6605491 223.8656,26.6605491 L224.630691,27.0430945 L224.9176,26.2780036 C224.9176,26.2780036 224.726327,25.7041855 224.535055,25.6085491 C224.535055,25.6085491 223.961236,25.32164 223.8656,24.9390945 C223.8656,24.9390945 223.291782,24.1740036 222.8136,24.1740036 C222.8136,24.1740036 222.239782,24.0783673 221.283418,23.8870945 C221.283418,23.8870945 220.231418,23.8870945 219.370691,24.3652764 C219.370691,24.3652764 218.509964,24.7478218 216.310327,25.7041855 L216.5016,24.6521855 C217.457964,24.1740036 218.414327,23.6958218 218.414327,23.6958218 C216.979782,23.8870945 216.405964,23.9827309 216.405964,23.9827309 C215.353964,24.1740036 215.162691,24.4609127 215.162691,24.4609127 C214.493236,24.8434582 213.919418,25.2260036 213.919418,25.2260036 C213.823782,25.2260036 212.867418,25.7041855 212.867418,25.7041855 L213.3456,25.6085491 C214.3976,25.4172764 215.545236,24.9390945 215.545236,24.9390945 C216.214691,24.6521855 216.692873,24.4609127 216.884145,24.3652764 L216.692873,25.4172764 C216.692873,25.4172764 214.780145,26.37364 212.484873,26.7561855 C212.484873,26.7561855 211.719782,26.8518218 210.093964,27.2343673 C210.093964,27.2343673 209.233236,27.5212764 207.607418,28.2863673 C207.607418,28.2863673 206.651055,28.7645491 205.503418,29.0514582 C205.503418,29.0514582 204.833964,29.1470945 203.8776,29.3383673 C203.8776,29.3383673 202.443055,29.52964 201.104145,30.1990945 C201.104145,30.1990945 200.052145,30.1990945 198.904509,29.52964 C198.904509,29.52964 197.278691,28.8601855 196.131055,29.4340036 C196.131055,29.4340036 195.4616,29.7209127 194.696509,30.1990945 C194.696509,30.1990945 194.313964,30.4860036 192.975055,31.5380036 C192.975055,31.5380036 192.688145,31.7292764 191.540509,31.8249127 C191.540509,31.8249127 190.775418,31.7292764 188.480145,33.2594582 C188.480145,33.2594582 189.245236,32.3987309 189.914691,31.8249127 C189.914691,31.8249127 190.775418,31.1554582 192.401236,30.0078218 C192.401236,30.0078218 193.740145,29.2427309 194.696509,28.6689127 C194.696509,28.6689127 195.270327,28.2863673 196.226691,27.9994582 C196.226691,27.9994582 195.748509,27.7125491 195.079055,27.7125491 C195.079055,27.7125491 194.505236,27.6169127 194.122691,27.2343673 L193.644509,26.7561855 C193.644509,26.7561855 192.783782,27.1387309 192.688145,27.42564 C192.688145,27.42564 192.496873,27.8081855 192.592509,28.1907309 C192.592509,28.1907309 192.592509,28.6689127 192.975055,29.2427309 C192.975055,29.2427309 192.401236,29.0514582 192.114327,28.7645491 C192.114327,28.7645491 191.731782,28.47764 191.2536,28.0950945 L190.871055,27.9994582 C190.871055,27.9994582 189.914691,28.6689127 189.245236,30.2947309 C189.245236,30.2947309 188.862691,31.0598218 188.288873,31.3467309 C188.288873,31.3467309 187.523782,31.63364 187.141236,32.2074582 L186.376145,33.3550945 C186.089236,33.9289127 185.419782,34.2158218 185.419782,34.2158218 C184.559055,34.9809127 184.367782,35.5547309 184.367782,35.5547309 L183.985236,37.0849127 L183.698327,38.5194582 C183.698327,38.5194582 183.411418,39.7627309 183.411418,40.7190945 C183.411418,40.7190945 183.411418,42.4405491 183.985236,44.3532764 C183.985236,44.3532764 183.985236,44.6401855 184.272145,45.1183673 C184.272145,45.1183673 184.559055,45.7878218 185.706691,47.1267309 C185.706691,47.1267309 186.089236,47.6049127 187.619418,49.4220036 C187.619418,49.4220036 188.767055,50.56964 189.436509,51.5260036 C189.436509,51.5260036 190.2016,52.2910945 190.105964,53.0561855 C190.105964,53.0561855 190.010327,53.4387309 190.297236,53.9169127 L190.584145,54.3950945 L189.627782,54.9689127 C189.436509,54.5863673 189.245236,54.1081855 189.053964,53.72564 C189.053964,53.72564 188.384509,52.8649127 188.001964,52.2910945 C188.001964,52.2910945 187.236873,51.4303673 186.471782,50.0914582 L185.419782,48.6569127 C183.507055,46.0747309 183.315782,45.9790945 183.315782,45.9790945 C182.455055,44.7358218 182.263782,44.25764 182.263782,44.25764 C181.307418,42.5361855 181.498691,41.8667309 181.498691,41.8667309 C181.594327,40.4321855 182.455055,37.1805491 182.455055,37.1805491 C182.8376,36.2241855 183.028873,35.6503673 183.028873,35.6503673 C183.315782,34.2158218 184.176509,33.4507309 184.176509,33.4507309 C184.9416,32.4943673 185.802327,31.5380036 185.802327,31.5380036 L186.280509,31.0598218 L186.280509,30.7729127 C186.280509,30.3903673 186.663055,29.2427309 186.758691,28.8601855 L187.715055,28.5732764 C187.715055,28.5732764 189.053964,27.6169127 189.819055,27.2343673 C189.819055,27.2343673 190.584145,26.8518218 191.444873,26.6605491 C191.444873,26.6605491 192.018691,26.5649127 193.548873,26.0867309 C193.548873,26.0867309 194.983418,25.7998218 196.609236,24.6521855 L196.800509,24.3652764 C196.800509,24.3652764 195.939782,24.7478218 194.983418,24.9390945 C194.983418,24.9390945 194.122691,25.1303673 192.783782,25.32164 C192.783782,25.32164 190.966691,25.6085491 189.436509,26.6605491 C188.958327,27.0430945 188.480145,27.3300036 187.428145,28.5732764 L186.567418,28.9558218 C186.663055,28.6689127 186.758691,27.9038218 186.854327,27.6169127 L187.236873,27.3300036 L187.715055,27.2343673 C189.053964,26.9474582 190.010327,25.6085491 190.010327,25.6085491 C191.157964,24.4609127 192.114327,23.9827309 192.114327,23.9827309 C194.218327,22.9307309 194.4096,23.1220036 194.4096,23.1220036 L194.122691,22.9307309 C193.548873,22.5481855 192.879418,22.2612764 192.879418,22.2612764 C191.923055,21.7830945 190.966691,22.2612764 190.966691,22.2612764 C190.010327,22.8350945 189.532145,23.7914582 189.532145,23.7914582 C188.958327,25.4172764 188.862691,25.6085491 188.862691,25.6085491 C188.575782,26.37364 188.001964,26.8518218 188.001964,26.8518218 C187.810691,27.0430945 187.428145,27.3300036 187.236873,27.42564 L186.758691,27.8081855 C186.758691,27.42564 187.141236,26.7561855 187.141236,26.7561855 C187.428145,26.2780036 187.619418,25.0347309 187.619418,25.0347309 C188.001964,22.6438218 188.767055,22.0700036 188.767055,22.0700036 C189.723418,20.8267309 191.636145,20.9223673 191.636145,20.9223673 C192.401236,20.9223673 193.740145,21.3049127 193.740145,21.3049127 C194.505236,21.5918218 195.270327,21.9743673 195.270327,21.9743673 C196.035418,22.2612764 196.035418,22.3569127 196.035418,22.3569127 C196.704873,22.5481855 196.991782,22.9307309 196.991782,22.9307309 C197.374327,23.4089127 197.661236,23.9827309 197.661236,23.9827309 C198.043782,24.4609127 197.661236,24.7478218 197.661236,24.7478218 C197.183055,25.2260036 196.991782,25.7041855 196.991782,25.7041855 C196.896145,26.0867309 197.374327,26.9474582 197.374327,26.9474582 C197.469964,27.1387309 197.469964,27.42564 197.469964,27.42564 L197.278691,27.8081855 L199.765236,28.47764 C200.912873,28.47764 202.729964,27.9994582 202.729964,27.9994582 C205.407782,27.42564 208.276873,26.7561855 208.276873,26.7561855 C209.807055,26.37364 210.763418,25.8954582 210.763418,25.8954582 C211.911055,25.0347309 212.484873,24.8434582 212.484873,24.8434582 C213.441236,24.3652764 214.684509,23.5045491 214.684509,23.5045491 C214.875782,23.4089127 215.4496,23.21764 215.4496,23.21764 C216.5016,22.8350945 218.318691,22.9307309 218.318691,22.9307309 C219.370691,22.9307309 220.231418,23.21764 220.231418,23.21764 C221.665964,22.9307309 222.717964,23.4089127 222.717964,23.4089127 C223.483055,23.6001855 224.152509,24.1740036 224.152509,24.1740036 C224.535055,24.5565491 225.013236,24.7478218 225.013236,24.7478218 C225.873964,25.5129127 225.587055,26.4692764 225.587055,26.4692764 L225.108873,26.5649127 L224.630691,26.5649127 C224.630691,26.5649127 223.483055,27.1387309 222.431055,27.42564 C222.431055,27.42564 220.135782,27.6169127 217.936145,29.9121855 L217.840509,30.1990945 L215.067055,32.2074582 C215.067055,32.2074582 212.580509,33.4507309 210.285236,34.3114582 C210.285236,34.3114582 208.659418,34.8852764 207.416145,35.4590945 C207.416145,35.4590945 206.651055,35.84164 204.9296,36.7980036 L204.451418,37.1805491 C204.451418,37.1805491 203.686327,36.9892764 202.921236,37.5630945 C202.921236,37.5630945 202.634327,38.0412764 201.486691,38.1369127 C201.486691,38.1369127 200.7216,38.3281855 199.956509,38.6150945 L200.147782,37.7543673 C200.530327,37.4674582 201.869236,36.7023673 202.8256,36.4154582 C202.8256,36.4154582 204.9296,35.4590945 206.268509,34.6940036 C206.268509,34.6940036 202.729964,35.4590945 201.486691,36.2241855 L200.530327,36.7980036 L200.339055,37.7543673 L200.147782,38.6150945 L200.147782,40.4321855 L199.956509,40.6234582 C199.382691,41.1972764 199.191418,42.3449127 199.191418,42.3449127 C198.808873,43.4925491 198.808873,45.5965491 198.808873,45.5965491 C199.860873,44.6401855 201.391055,43.9707309 201.391055,43.9707309 C202.634327,43.3969127 204.738327,42.4405491 204.738327,42.4405491 C206.077236,41.5798218 207.0336,41.1972764 207.0336,41.1972764 C207.989964,40.8147309 209.233236,40.7190945 209.233236,40.7190945 L211.145964,41.9623673 C211.145964,41.9623673 210.093964,41.2929127 209.041964,41.4841855 C208.755055,41.4841855 208.468145,41.5798218 207.607418,41.8667309 C207.607418,41.8667309 206.268509,42.3449127 203.781964,44.1620036 L203.112509,44.6401855 C203.112509,44.6401855 206.077236,44.5445491 207.703055,46.4572764 C207.703055,46.4572764 206.746691,45.5009127 204.547055,45.30964 C204.547055,45.30964 203.112509,44.9270945 201.869236,45.30964 C201.869236,45.30964 200.434691,45.9790945 199.478327,46.9354582 L199.287055,47.1267309 C199.287055,47.1267309 203.303782,47.0310945 205.407782,47.7961855 C205.407782,47.7961855 207.511782,48.46564 208.946327,49.6132764 C208.946327,49.6132764 210.667782,50.8565491 213.536873,53.9169127 C213.536873,53.9169127 212.197964,51.3347309 210.954691,49.6132764 L210.093964,48.5612764 C210.093964,48.5612764 212.102327,50.1870945 212.771782,51.0478218 C212.771782,51.0478218 212.389236,49.9958218 211.911055,49.1350945 C211.911055,49.1350945 211.719782,48.6569127 211.337236,48.1787309 C211.337236,48.1787309 211.528509,48.46564 210.572145,47.0310945 C210.572145,47.0310945 211.911055,48.0830945 212.580509,48.9438218 C212.580509,48.9438218 211.432873,46.4572764 210.093964,44.7358218 C210.093964,44.7358218 211.432873,45.5965491 212.2936,46.5529127 C212.2936,46.5529127 211.911055,44.9270945 211.432873,43.20564 C210.954691,41.6754582 210.1896,41.3885491 210.1896,41.3885491 L209.233236,40.5278218 C210.1896,40.4321855 210.859055,40.8147309 210.859055,40.8147309 C211.815418,41.1972764 212.580509,43.4925491 212.580509,43.4925491 C212.580509,43.4925491 213.249964,45.1183673 213.823782,47.6049127 C213.823782,47.6049127 214.110691,48.6569127 214.206327,49.8045491 L214.493236,49.6132764 C215.067055,49.2307309 215.640873,48.9438218 215.640873,48.9438218 C216.597236,48.2743673 217.362327,47.41364 217.362327,47.41364 C217.840509,46.7441855 218.414327,47.0310945 218.414327,47.0310945 C218.796873,47.3180036 219.275055,47.7961855 219.561964,47.9874582 L218.701236,48.7525491 C218.223055,48.0830945 217.840509,48.2743673 217.840509,48.2743673 C217.744873,48.46564 217.5536,48.7525491 217.5536,48.7525491 C217.362327,49.1350945 217.075418,49.3263673 217.075418,49.3263673 C216.692873,49.51764 216.405964,49.6132764 216.405964,49.6132764 C215.353964,49.9958218 214.493236,51.0478218 214.493236,51.0478218 L214.493236,51.1434582 L214.493236,51.8129127 C214.684509,53.1518218 215.258327,54.8732764 215.258327,54.8732764 C215.736509,53.6300036 216.310327,53.1518218 216.310327,53.1518218 C216.597236,52.67364 217.649236,52.7692764 217.649236,52.7692764 C218.318691,52.7692764 218.509964,51.8129127 218.509964,51.8129127 C218.6056,51.2390945 218.414327,50.6652764 218.414327,50.6652764 C218.318691,50.1870945 218.6056,49.9001855 218.6056,49.9001855 C218.796873,49.6132764 219.083782,49.2307309 218.701236,48.8481855 L219.561964,48.0830945 C220.231418,48.5612764 220.327055,48.7525491 220.327055,48.7525491 C220.518327,49.4220036 219.848873,50.7609127 219.848873,50.7609127 C219.179418,52.8649127 218.318691,53.4387309 218.318691,53.4387309 C217.362327,54.77764 216.788509,55.4470945 216.788509,55.4470945 C216.310327,56.3078218 216.119055,56.7860036 216.119055,56.7860036 C216.119055,56.7860036 218.414327,60.8027309 219.466327,64.0543673 C219.466327,64.0543673 220.518327,66.8278218 224.439418,70.2707309 C224.439418,70.2707309 223.961236,70.7489127 223.674327,71.1314582 L222.144145,70.55764 C222.144145,70.55764 218.988145,69.8881855 218.509964,66.2540036 C218.509964,66.2540036 218.701236,65.5845491 218.414327,65.3932764 C218.414327,65.3932764 217.649236,65.29764 216.979782,64.6281855 C216.979782,64.6281855 217.362327,64.4369127 217.649236,63.3849127 L216.597236,62.8110945 L216.692873,60.8983673 L215.4496,59.8463673 C215.4496,59.8463673 215.4496,58.6030945 214.588873,56.6903673 C214.588873,56.6903673 213.919418,54.8732764 211.145964,52.0041855 C211.145964,52.0041855 209.807055,50.6652764 207.0336,49.4220036 C207.0336,49.4220036 205.503418,48.7525491 203.303782,48.7525491 L201.295418,48.8481855 C201.295418,48.8481855 203.686327,50.6652764 205.599055,53.8212764 C205.599055,53.8212764 206.555418,55.0645491 208.946327,61.8547309 C208.946327,61.8547309 209.233236,62.5241855 209.328873,62.9067309" id="Shape"></path>
            <path d="M217.457964,27.7125491 C217.457964,27.7125491 216.979782,27.9038218 216.214691,28.3820036 C216.214691,28.3820036 215.353964,28.8601855 214.015055,29.7209127 C214.015055,29.7209127 211.2416,31.0598218 210.1896,31.4423673 C210.1896,31.4423673 209.424509,31.63364 209.233236,31.9205491 C209.233236,31.9205491 209.233236,32.1118218 208.946327,32.4943673 L208.850691,32.5900036 L208.755055,32.68564 C208.755055,32.68564 208.946327,32.9725491 210.1896,32.3987309 C210.1896,32.3987309 211.145964,32.0161855 212.2936,31.3467309 C212.2936,31.3467309 213.058691,30.8685491 214.110691,30.1990945 C214.110691,30.1990945 214.971418,29.7209127 215.832145,28.9558218 C216.310327,28.5732764 216.884145,28.1907309 216.884145,28.1907309 C217.171055,27.9038218 217.457964,27.7125491 217.457964,27.7125491 M193.931418,36.4154582 C194.600873,36.2241855 195.557236,35.84164 195.557236,35.84164 C195.557236,35.84164 196.609236,35.2678218 197.469964,34.6940036 C197.469964,34.6940036 198.713236,33.73764 199.382691,32.7812764 C199.382691,32.7812764 198.235055,33.6420036 197.374327,34.2158218 C197.374327,34.2158218 196.322327,34.8852764 194.696509,35.5547309 C194.696509,35.5547309 193.548873,35.9372764 192.401236,35.84164 C192.401236,35.84164 192.018691,35.9372764 191.2536,35.5547309 L190.584145,36.6067309 C190.584145,36.6067309 191.157964,36.7980036 191.923055,36.7980036 C191.923055,36.7980036 192.688145,36.89364 193.740145,36.7023673 C193.644509,36.4154582 193.740145,36.4154582 193.931418,36.4154582" id="Shape"></path>
            <path d="M194.027055,36.5110945 L194.313964,36.89364 C194.792145,37.3718218 195.270327,37.7543673 195.270327,37.7543673 C195.652873,38.0412764 196.131055,38.1369127 196.131055,38.1369127 C196.609236,38.2325491 196.896145,38.1369127 196.896145,38.1369127 C197.278691,37.94564 197.5656,37.6587309 197.5656,37.6587309 C198.043782,37.3718218 198.235055,36.9892764 198.235055,36.9892764 C198.6176,36.4154582 199.000145,35.84164 199.000145,35.84164 C199.6696,34.5983673 200.625964,33.9289127 200.625964,33.9289127 C201.7736,32.9725491 202.347418,32.8769127 202.347418,32.8769127 C201.104145,32.9725491 200.147782,33.4507309 200.147782,33.4507309 C199.6696,33.73764 198.904509,34.3114582 198.904509,34.3114582 C198.521964,34.6940036 198.139418,34.9809127 198.139418,34.9809127 C197.661236,35.4590945 197.183055,35.6503673 197.183055,35.6503673 C196.5136,36.1285491 195.557236,36.2241855 195.557236,36.2241855 C194.696509,36.4154582 193.931418,36.5110945 194.027055,36.5110945 M187.141236,36.3198218 L187.0456,37.2761855 C186.854327,38.4238218 186.854327,40.1452764 186.854327,40.1452764 C186.854327,41.9623673 187.0456,42.5361855 187.0456,42.5361855 C187.236873,43.7794582 187.428145,45.8834582 187.428145,45.8834582 C186.854327,44.8314582 186.376145,44.0663673 186.376145,44.0663673 C185.802327,42.8230945 185.9936,41.7710945 185.9936,41.7710945 C185.9936,40.2409127 186.280509,39.4758218 186.280509,39.4758218 C186.471782,37.8500036 187.141236,36.3198218 187.141236,36.3198218 M188.384509,47.8918218 L189.245236,49.0394582 C190.010327,49.9958218 190.775418,51.8129127 190.775418,51.8129127 C191.157964,52.5780036 191.444873,53.6300036 191.444873,53.6300036 C190.775418,52.67364 190.584145,52.4823673 190.584145,52.4823673 C189.819055,51.4303673 189.627782,50.8565491 189.627782,50.8565491 C189.245236,50.0914582 188.958327,49.3263673 188.958327,49.3263673 C188.671418,48.6569127 188.384509,47.8918218 188.384509,47.8918218 M206.077236,51.5260036 L206.555418,51.62164 C208.659418,52.1954582 209.615782,53.1518218 209.615782,53.1518218 C210.572145,54.0125491 211.337236,55.1601855 211.337236,55.1601855 C212.006691,56.1165491 212.867418,56.6903673 212.867418,56.6903673 C213.249964,56.9772764 213.919418,57.1685491 213.919418,57.1685491 C212.676145,57.1685491 210.859055,55.82964 210.859055,55.82964 C211.719782,56.7860036 212.771782,58.0292764 212.771782,58.0292764 C213.3456,58.8900036 213.919418,59.0812764 213.919418,59.0812764 C212.580509,58.6987309 211.432873,57.5510945 211.432873,57.5510945 C210.859055,56.9772764 209.902691,56.0209127 209.902691,56.0209127 C209.041964,55.0645491 208.181236,54.3950945 208.181236,54.3950945 C207.320509,53.6300036 206.364145,53.3430945 206.364145,53.3430945 C208.0856,53.0561855 210.380873,55.0645491 210.380873,55.0645491 C208.946327,53.2474582 208.181236,52.7692764 208.181236,52.7692764 C207.607418,52.1954582 206.077236,51.5260036 206.077236,51.5260036 M208.563782,56.1165491 L209.520145,56.88164 C210.859055,57.93364 212.484873,59.4638218 212.484873,59.4638218 C210.859055,58.8900036 209.615782,57.7423673 209.615782,57.7423673 C209.041964,56.9772764 208.563782,56.1165491 208.563782,56.1165491 M209.902691,58.4118218 L211.337236,59.8463673 C212.197964,60.8027309 213.632509,61.8547309 213.632509,61.8547309 C212.484873,61.6634582 211.337236,60.8027309 211.337236,60.8027309 C210.572145,60.4201855 210.476509,60.03764 210.476509,60.03764 C210.093964,58.98564 209.902691,58.4118218 209.902691,58.4118218 M210.667782,60.9940036 L211.145964,61.2809127 C211.911055,61.7590945 212.771782,63.2892764 212.771782,63.2892764 C213.441236,64.1500036 214.206327,64.5325491 214.206327,64.5325491 C211.911055,63.5761855 210.954691,62.7154582 210.954691,62.7154582 C211.2416,62.4285491 211.432873,62.3329127 211.432873,62.3329127 C210.859055,61.5678218 210.667782,60.9940036 210.667782,60.9940036 M212.867418,65.1063673 L213.249964,65.4889127 C214.206327,66.2540036 215.832145,67.5929127 215.832145,67.5929127 C216.692873,68.0710945 218.031782,69.1230945 218.031782,69.1230945 C217.171055,69.1230945 216.597236,68.8361855 216.597236,68.8361855 C217.457964,69.6012764 218.031782,70.6532764 218.031782,70.6532764 C216.788509,69.7925491 215.927782,69.3143673 215.927782,69.3143673 C215.353964,69.0274582 213.919418,68.0710945 213.919418,68.0710945 C214.493236,68.2623673 215.545236,68.3580036 215.545236,68.3580036 C214.110691,67.2103673 213.441236,66.2540036 213.441236,66.2540036 C212.963055,65.4889127 212.867418,65.1063673 212.867418,65.1063673 M214.588873,68.9318218 L215.162691,69.2187309 C215.832145,69.6012764 216.692873,70.2707309 216.692873,70.2707309 C217.936145,71.1314582 218.223055,71.60964 218.223055,71.60964 C216.692873,71.1314582 216.405964,70.7489127 216.405964,70.7489127 C215.736509,69.9838218 214.588873,68.9318218 214.588873,68.9318218 M215.353964,70.0794582 L215.736509,70.55764 C216.5016,71.3227309 217.075418,71.8965491 217.075418,71.8965491 C217.936145,72.4703673 218.796873,73.1398218 218.796873,73.1398218 C217.362327,72.9485491 216.310327,72.1834582 216.310327,72.1834582 C215.736509,71.8009127 215.353964,70.0794582 215.353964,70.0794582 M215.258327,71.7052764 L215.736509,71.8965491 C216.310327,72.0878218 216.979782,72.7572764 216.979782,72.7572764 C218.223055,74.0005491 218.223055,74.4787309 218.223055,74.4787309 C217.171055,73.71364 216.597236,73.2354582 216.597236,73.2354582 C215.832145,72.66164 215.258327,71.7052764 215.258327,71.7052764 M214.780145,65.8714582 L215.736509,67.2103673 C216.023418,67.4972764 216.692873,67.6885491 216.692873,67.6885491 C217.075418,67.7841855 217.5536,68.0710945 217.5536,68.0710945 C216.5016,66.8278218 214.780145,65.8714582 214.780145,65.8714582" id="Shape"></path>
            <polyline id="Shape" points="176.621236 12.7932764 181.211782 20.2529127 218.6056 20.3485491 216.5016 19.6790945 181.498691 19.6790945 177.386327 12.7932764 199.095782 12.7932764 198.330691 12.1238218 176.621236 12.1238218 176.621236 12.7932764"></polyline>
            <polyline id="Shape" points="185.324145 20.2529127 185.324145 33.0681855 185.897964 32.3987309 185.9936 20.2529127 185.324145 20.2529127"></polyline>
            <polyline id="Shape" points="175.951782 30.6772764 185.515418 30.4860036 185.515418 29.8165491 176.5256 29.9121855 176.5256 26.9474582 185.419782 26.9474582 185.419782 26.2780036 175.856145 26.2780036 175.951782 30.6772764"></polyline>
            <polyline id="Shape" points="197.5656 26.9474582 200.243418 26.9474582 197.5656 26.9474582"></polyline>
            <polyline id="Shape" points="199.095782 20.1572764 199.191418 23.21764 200.147782 23.21764 200.147782 26.2780036 196.991782 26.2780036 197.087418 26.8518218 200.147782 26.8518218 200.243418 29.3383673 201.391055 29.1470945 201.295418 23.21764 203.303782 23.21764 203.303782 22.5481855 200.243418 22.5481855 200.243418 20.1572764 199.095782 20.1572764"></polyline>
            <polyline id="Shape" points="206.459782 22.5481855 205.312145 22.5481855 205.312145 23.21764 205.312145 26.2780036 203.303782 26.2780036 203.303782 26.8518218 208.755055 26.8518218 210.476509 26.2780036 206.555418 26.2780036 206.555418 23.21764 207.607418 23.21764 207.607418 20.2529127 206.459782 20.1572764 206.459782 22.5481855"></polyline>
            <polyline id="Shape" points="224.726327 12.69764 229.412509 12.7932764 228.264873 14.7060036 228.647418 14.9929127 230.081964 12.7932764 230.081964 12.2194582 223.578691 12.1238218 224.726327 12.69764"></polyline>
            <polyline id="Shape" points="230.081964 26.7561855 230.081964 29.7209127 218.318691 29.8165491 218.318691 30.4860036 234.003055 30.58164 234.003055 26.7561855 233.3336 26.7561855 233.3336 29.7209127 230.751418 29.7209127 230.751418 26.6605491 230.081964 26.7561855"></polyline>
            <polyline id="Shape" points="221.952873 26.9474582 234.003055 26.8518218 234.003055 26.2780036 223.674327 26.2780036 221.952873 26.9474582"></polyline>
            <polyline id="Shape" points="220.7096 30.1990945 220.7096 53.1518218 221.283418 53.6300036 221.283418 30.1990945 220.7096 30.1990945"></polyline>
            <polyline id="Shape" points="215.353964 31.2510945 215.258327 49.1350945 215.832145 49.9001855 218.318691 47.7961855 218.318691 29.7209127 215.353964 31.2510945"></polyline>
            <polyline id="Shape" points="218.701236 53.0561855 217.744873 53.72564 221.283418 53.72564 220.7096 53.0561855 218.701236 53.0561855"></polyline>
            <polyline id="Shape" points="219.6576 48.6569127 220.231418 49.2307309 223.8656 49.2307309 223.8656 57.2641855 220.996509 57.2641855 220.996509 57.8380036 223.8656 57.8380036 223.8656 61.7590945 220.7096 61.7590945 220.7096 62.3329127 224.439418 62.3329127 224.535055 48.6569127 219.6576 48.6569127"></polyline>
            <polyline id="Shape" points="185.611055 48.6569127 182.263782 48.6569127 182.168145 62.3329127 187.236873 62.3329127 186.758691 61.7590945 182.741964 61.7590945 182.741964 57.8380036 185.515418 57.8380036 185.419782 57.2641855 182.741964 57.2641855 182.8376 49.2307309 185.324145 49.2307309 185.324145 53.72564 189.532145 53.6300036 189.1496 53.0561855 185.897964 53.0561855 185.897964 48.6569127 185.611055 48.6569127"></polyline>
            <polyline id="Shape" points="220.613964 74.8612764 220.805236 84.9030945 224.630691 91.3107309 224.9176 91.2150945 225.395782 91.3107309 221.474691 84.8074582 221.283418 73.8092764 220.613964 74.8612764"></polyline>
            <path d="M191.636145,22.0700036 L191.636145,20.2529127 L188.671418,20.2529127 L188.671418,23.7914582 C189.053964,23.0263673 190.105964,22.4525491 190.105964,22.4525491 C190.871055,22.0700036 191.636145,22.0700036 191.636145,22.0700036" id="Shape"></path>
            <polyline id="Shape" points="182.646327 62.2372764 184.654691 65.2020036 185.324145 65.5845491 185.802327 65.8714582 183.411418 62.2372764 182.646327 62.2372764"></polyline>
            <path d="M188.862691,57.2641855 L185.228509,57.2641855 L185.228509,62.2372764 L189.053964,67.7841855 L191.540509,68.9318218 L191.540509,62.9067309 C190.392873,63.9587309 189.914691,63.0023673 189.914691,63.0023673 C188.384509,61.4721855 189.340873,59.7507309 189.340873,59.7507309 C190.2016,57.8380036 191.062327,57.2641855 191.062327,57.2641855 L188.862691,57.2641855" id="Shape"></path>
            <polyline id="Shape" points="223.196145 62.3329127 220.422691 66.5409127 220.518327 66.7321855 220.7096 67.1147309 223.961236 62.2372764 223.196145 62.3329127"></polyline>
            <polyline id="Shape" points="216.023418 57.2641855 217.744873 62.0460036 219.370691 65.3932764 221.379055 62.2372764 221.379055 57.2641855 216.023418 57.2641855"></polyline>
            <polyline id="Shape" points="212.197964 93.6060036 217.936145 93.6060036 217.075418 93.0321855 212.389236 92.9365491 212.197964 93.6060036"></polyline>
            <polyline id="Shape" points="225.395782 93.6060036 216.884145 93.5103673 217.5536 94.2754582 225.682691 94.2754582 225.9696 93.5103673 226.065236 92.5540036 225.395782 93.6060036"></polyline>
            <path d="M201.391055,42.15364 L201.869236,41.6754582 C202.729964,41.8667309 203.303782,41.2929127 203.303782,41.2929127 C203.973236,40.5278218 204.9296,40.8147309 204.9296,40.8147309 L205.407782,41.2929127 L204.9296,41.7710945 C204.164509,41.5798218 203.8776,41.8667309 203.8776,41.8667309 C203.495055,42.0580036 203.303782,42.3449127 203.303782,42.3449127 C202.729964,42.8230945 201.869236,42.7274582 201.869236,42.7274582 L201.391055,42.15364 M201.295418,40.1452764 L201.7736,39.6670945 C202.538691,39.8583673 203.208145,39.2845491 203.208145,39.2845491 C203.8776,38.5194582 204.833964,38.8063673 204.833964,38.8063673 L205.312145,39.2845491 L204.833964,39.7627309 C204.068873,39.5714582 203.781964,39.8583673 203.781964,39.8583673 C203.399418,40.04964 203.208145,40.3365491 203.208145,40.3365491 C202.634327,40.8147309 201.7736,40.7190945 201.7736,40.7190945 L201.295418,40.1452764 M201.391055,38.0412764 L201.869236,37.7543673 C202.634327,37.94564 203.303782,37.1805491 203.303782,37.1805491 C203.973236,36.4154582 204.9296,36.7023673 204.9296,36.7023673 L205.407782,37.1805491 L204.9296,37.6587309 C204.164509,37.4674582 203.8776,37.7543673 203.8776,37.7543673 C203.495055,37.94564 203.303782,38.2325491 203.303782,38.2325491 C202.729964,38.8063673 201.869236,38.6150945 201.869236,38.6150945 L201.391055,38.0412764 M205.407782,38.4238218 L206.842327,38.2325491 C209.233236,38.1369127 213.154327,36.9892764 213.154327,36.9892764 C214.875782,36.5110945 215.545236,36.1285491 215.545236,36.1285491 L215.545236,36.9892764 C210.476509,38.8063673 206.172873,38.9020036 206.172873,38.9020036 L205.407782,38.4238218 M221.092145,33.9289127 L221.379055,33.8332764 C222.144145,33.5463673 224.152509,32.2074582 225.491418,30.2947309 L225.873964,30.2947309 L226.065236,30.2947309 C224.248145,33.4507309 221.187782,34.78964 221.187782,34.78964 L221.092145,33.9289127 M227.308509,26.4692764 C227.308509,26.4692764 227.595418,24.9390945 227.882327,24.26964 C227.882327,24.26964 228.360509,22.2612764 230.655782,19.4878218 C230.655782,19.4878218 231.516509,18.2445491 231.133964,17.0969127 C231.133964,17.0969127 230.942691,15.7580036 228.456145,14.3234582 C228.456145,14.3234582 225.682691,12.6020036 221.187782,10.9761855 C221.187782,10.9761855 218.988145,10.1154582 216.119055,9.06345818 C216.119055,9.06345818 211.624145,7.62891273 209.1376,6.57691273 C208.659418,6.38564 202.8256,4.47291273 200.912873,1.12564 L200.434691,1.31691273 L200.434691,12.8889127 L200.530327,13.0801855 C200.530327,13.0801855 200.530327,14.5147309 204.547055,16.3318218 C205.407782,16.7143673 207.511782,17.3838218 208.372509,17.6707309 C208.372509,17.6707309 211.050327,18.8183673 215.067055,19.5834582 C215.067055,19.5834582 219.561964,20.7310945 223.8656,22.7394582 C223.8656,22.7394582 226.734691,24.1740036 226.352145,26.37364 L226.352145,26.4692764 L226.734691,26.7561855 C227.308509,25.0347309 225.9696,23.7914582 225.9696,23.7914582 C225.108873,22.7394582 221.857236,21.4961855 221.857236,21.4961855 C219.6576,20.5398218 215.353964,19.3921855 215.353964,19.3921855 C210.859055,18.2445491 208.659418,17.4794582 208.659418,17.4794582 C205.120873,16.2361855 204.547055,15.85364 203.8776,15.5667309 C200.625964,14.0365491 200.817236,12.6020036 200.817236,12.6020036 L200.817236,1.89073091 C201.486691,2.75145818 201.7736,3.42091273 203.686327,4.56854909 C203.686327,4.56854909 205.790327,6.00309455 209.902691,7.43764 C209.902691,7.43764 210.954691,7.82018545 215.545236,9.35036727 C215.545236,9.35036727 218.509964,10.3067309 221.665964,11.5500036 C221.665964,11.5500036 226.352145,13.1758218 229.316873,15.4710945 C229.316873,15.4710945 231.707782,16.8100036 229.890691,19.3921855 C229.890691,19.3921855 228.264873,21.4005491 227.595418,23.4089127 C227.595418,23.4089127 227.0216,25.0347309 226.734691,26.6605491 L226.734691,26.7561855 L227.212873,26.6605491 L227.308509,26.4692764" id="Shape"></path>
            <path d="M214.684509,19.3921855 C209.998327,18.5314582 205.599055,16.6187309 205.599055,16.6187309 C199.6696,14.1321855 200.817236,13.0801855 200.817236,13.0801855 L200.817236,8.48964 L195.079055,10.9761855 L190.679782,12.8889127 C194.696509,15.9492764 200.243418,17.3838218 200.243418,17.3838218 C207.989964,19.6790945 214.588873,19.9660036 214.588873,19.9660036 C215.353964,20.06164 216.597236,20.06164 216.597236,20.06164 L218.127418,20.2529127 L214.684509,19.3921855 M176.047418,52.2910945 C176.238691,51.4303673 176.5256,50.9521855 177.481964,49.4220036 C178.438327,47.8918218 179.585964,46.9354582 180.159782,46.4572764 C182.168145,44.6401855 183.507055,45.0227309 183.411418,45.1183673 L182.933236,44.0663673 C179.299055,45.2140036 177.195055,48.6569127 177.195055,48.6569127 C175.377964,51.62164 175.569236,53.72564 175.569236,53.72564 C175.664873,55.3514582 177.290691,57.93364 177.290691,57.93364 C179.299055,61.5678218 183.793964,64.7238218 183.793964,64.7238218 C184.750327,65.3932764 186.663055,66.6365491 187.236873,66.9234582 L189.627782,68.1667309 L194.887782,70.55764 C198.235055,72.0878218 200.912873,73.6180036 200.912873,73.6180036 C202.8256,74.76564 207.224873,77.5390945 213.3456,82.7990945 L212.580509,88.7285491 C212.197964,91.8845491 211.911055,96.3794582 212.867418,105.082367 L213.728145,105.943095 L213.058691,99.2485491 C212.389236,94.6580036 213.823782,82.2252764 213.823782,82.2252764 C209.1376,78.3998218 202.634327,74.0005491 202.634327,74.0005491 C199.287055,71.8965491 195.939782,70.4620036 191.923055,68.6449127 C189.436509,67.4972764 187.906327,66.7321855 187.141236,66.34964 C184.080873,64.6281855 181.307418,62.0460036 181.307418,62.0460036 C180.064145,60.9940036 178.820873,59.3681855 178.055782,58.3161855 C177.290691,57.1685491 176.5256,55.6383673 176.5256,55.6383673 C176.143055,54.4907309 175.951782,53.72564 175.951782,53.72564 C175.856145,53.4387309 176.047418,52.2910945 176.047418,52.2910945" id="Shape"></path>
            <path d="M178.247055,75.6263673 C177.960145,75.2438218 180.446691,79.1649127 185.132873,82.4165491 C187.906327,84.3292764 190.010327,85.7638218 190.010327,85.7638218 C192.592509,87.4852764 194.887782,89.2067309 194.887782,89.2067309 C199.478327,92.4583673 201.582327,94.2754582 201.582327,94.2754582 C206.651055,98.3878218 213.536873,105.369276 213.536873,105.369276 L213.632509,106.516913 C211.911055,104.604185 203.016873,96.4750945 203.016873,96.4750945 C201.199782,94.75364 199.095782,93.3190945 197.661236,91.9801855 L195.557236,90.4500036 C192.018691,87.8678218 183.793964,81.9383673 183.793964,81.9383673 C181.594327,80.02564 178.820873,77.3478218 177.290691,74.6700036 C175.951782,72.2790945 175.569236,70.55764 175.377964,69.1230945 C175.282327,68.3580036 175.186691,67.9754582 175.186691,67.9754582 C174.899782,66.34964 174.708509,59.2725491 174.708509,59.2725491 C174.804145,53.3430945 174.804145,52.2910945 174.804145,52.2910945 C174.804145,48.3700036 174.995418,47.1267309 174.995418,47.1267309 C175.186691,44.1620036 176.716873,41.1972764 176.716873,41.1972764 C177.099418,40.4321855 177.195055,40.1452764 177.5776,39.6670945 C177.768873,39.2845491 177.960145,39.0932764 178.533964,38.3281855 C179.203418,37.3718218 180.637964,36.0329127 181.116145,35.6503673 C182.168145,34.6940036 182.8376,34.4070945 184.080873,33.6420036 L183.411418,34.5983673 C182.741964,35.0765491 182.168145,35.2678218 181.020509,36.4154582 C179.585964,37.7543673 178.725236,38.9020036 178.342691,39.4758218 C177.290691,41.1972764 176.812509,42.3449127 176.812509,42.3449127 C175.377964,45.6921855 175.377964,50.3783673 175.377964,50.3783673 C175.4736,54.1081855 176.047418,55.2558218 176.047418,55.2558218 L175.664873,54.2994582 L175.377964,53.5343673 L175.282327,59.4638218 C175.282327,60.7070945 175.4736,65.6801855 175.4736,65.6801855 C175.664873,69.50564 176.812509,72.5660036 176.812509,72.5660036 C177.386327,74.3830945 177.768873,74.8612764 178.247055,75.6263673 M206.459782,8.29836727 C206.459782,8.29836727 205.025236,7.72454909 203.590691,6.76818545 L203.590691,7.15073091 C203.590691,7.15073091 203.781964,7.24636727 203.973236,7.43764 C203.973236,7.43764 204.260145,7.62891273 204.260145,8.10709455 L204.260145,11.9325491 C204.260145,11.9325491 204.355782,12.5063673 203.686327,12.0281855 L203.590691,11.9325491 L203.590691,12.2194582 C203.590691,12.2194582 205.120873,13.2714582 206.651055,13.74964 L206.555418,11.7412764 L206.268509,11.64564 C206.268509,11.64564 206.268509,12.1238218 206.268509,12.5063673 C206.268509,12.5063673 206.268509,13.2714582 205.694691,12.9845491 C205.120873,12.7932764 205.025236,12.69764 204.9296,12.6020036 L204.9296,10.2110945 C204.9296,10.2110945 205.216509,10.3067309 205.407782,10.4980036 C205.503418,10.4980036 205.503418,10.59364 205.599055,10.6892764 C205.599055,10.6892764 205.790327,10.8805491 205.790327,11.5500036 L205.9816,11.64564 L205.885964,9.54164 L205.694691,9.44600364 L205.694691,9.82854909 C205.694691,9.82854909 205.694691,10.3067309 205.503418,10.2110945 L204.9296,9.92418545 L204.9296,8.01145818 L205.503418,8.29836727 C206.172873,8.58527636 206.172873,8.87218545 206.172873,8.87218545 C206.268509,9.25473091 206.268509,9.54164 206.268509,9.54164 L206.459782,9.63727636 L206.459782,8.29836727 M207.703055,10.7849127 C207.703055,10.7849127 207.798691,10.9761855 208.0856,11.2630945 C208.0856,11.2630945 208.372509,11.5500036 208.563782,11.8369127 C208.563782,11.8369127 208.850691,12.1238218 208.850691,12.7932764 C208.850691,12.7932764 208.850691,13.1758218 208.659418,13.4627309 C208.659418,13.4627309 208.563782,13.6540036 208.181236,13.5583673 C208.181236,13.5583673 207.894327,13.5583673 207.607418,13.2714582 C207.607418,13.2714582 207.224873,12.9845491 207.129236,13.1758218 L207.0336,11.8369127 L207.224873,11.9325491 L207.224873,12.0281855 C207.224873,12.4107309 207.511782,12.7932764 207.511782,12.7932764 C207.798691,13.2714582 208.0856,13.2714582 208.0856,13.2714582 C208.372509,13.2714582 208.276873,12.8889127 208.276873,12.8889127 C208.276873,12.4107309 207.989964,12.0281855 207.989964,12.0281855 C207.607418,11.64564 207.511782,11.4543673 207.511782,11.4543673 C206.937964,10.7849127 207.0336,10.2110945 207.0336,10.2110945 C207.129236,9.73291273 207.416145,9.54164 207.416145,9.54164 C207.703055,9.44600364 208.0856,9.63727636 208.0856,9.63727636 C208.276873,9.82854909 208.372509,9.92418545 208.372509,9.92418545 C208.468145,9.92418545 208.563782,9.82854909 208.563782,9.82854909 L208.659418,11.1674582 L208.468145,11.0718218 C208.372509,10.4023673 207.989964,10.1154582 207.989964,10.1154582 C207.703055,9.82854909 207.511782,10.1154582 207.511782,10.1154582 C207.416145,10.3067309 207.416145,10.4980036 207.416145,10.4980036 C207.607418,10.6892764 207.703055,10.7849127 207.703055,10.7849127 M208.850691,10.4023673 L208.850691,10.4980036 L208.850691,10.59364 L209.041964,10.6892764 L209.233236,10.7849127 C209.424509,10.8805491 209.328873,11.0718218 209.328873,11.1674582 C209.328873,11.2630945 209.328873,11.3587309 209.328873,11.3587309 L209.328873,12.3150945 L209.328873,13.4627309 C209.328873,13.74964 209.424509,13.9409127 209.520145,14.0365491 C209.615782,14.1321855 209.711418,14.2278218 209.711418,14.2278218 C209.807055,14.3234582 209.998327,14.3234582 210.093964,14.3234582 C210.1896,14.3234582 210.380873,14.2278218 210.380873,14.2278218 C210.572145,14.1321855 210.572145,13.9409127 210.572145,13.74964 C210.572145,13.5583673 210.572145,13.5583673 210.572145,13.2714582 L210.476509,13.1758218 L210.380873,13.0801855 L210.380873,13.1758218 L210.380873,13.6540036 C210.380873,13.9409127 210.1896,13.9409127 210.093964,13.8452764 C209.998327,13.8452764 209.998327,13.6540036 209.998327,13.6540036 C209.998327,13.6540036 209.998327,13.5583673 209.998327,13.5583673 L209.998327,13.3670945 C209.998327,13.1758218 209.998327,12.9845491 209.998327,12.8889127 C209.998327,12.69764 209.998327,12.6020036 209.998327,12.4107309 L209.998327,11.5500036 L209.998327,10.9761855 L210.285236,11.0718218 L210.572145,11.1674582 L210.572145,10.9761855 L210.572145,10.7849127 L210.285236,10.6892764 L209.998327,10.59364 L209.998327,9.92418545 L209.998327,9.35036727 L209.807055,9.35036727 L209.711418,9.35036727 C209.711418,9.73291273 209.711418,9.73291273 209.615782,9.92418545 C209.615782,10.1154582 209.520145,10.1154582 209.520145,10.1154582 C209.520145,10.3067309 209.328873,10.3067309 209.1376,10.3067309 C209.041964,10.4023673 208.850691,10.4023673 208.850691,10.4023673 M211.624145,14.3234582 C211.624145,14.6103673 211.528509,14.80164 211.432873,14.80164 C211.337236,14.80164 211.145964,14.6103673 211.145964,14.3234582 C211.145964,14.0365491 211.2416,13.8452764 211.337236,13.8452764 C211.432873,13.8452764 211.624145,14.0365491 211.624145,14.3234582 M212.963055,11.5500036 L213.249964,11.4543673 C214.206327,10.8805491 214.588873,10.4023673 214.588873,10.4023673 L214.971418,10.4980036 C214.875782,12.4107309 214.875782,14.1321855 214.875782,15.2798218 C214.875782,15.85364 214.875782,16.1405491 214.875782,16.4274582 C214.875782,17.0012764 215.067055,17.0969127 215.736509,17.2881855 L215.736509,17.6707309 C214.301964,17.1925491 213.058691,16.8100036 213.058691,16.8100036 L212.963055,16.5230945 C213.728145,16.7143673 213.823782,16.6187309 213.823782,16.6187309 C214.110691,16.5230945 214.015055,15.3754582 214.015055,15.3754582 L214.015055,11.64564 C213.728145,11.9325491 213.249964,12.0281855 213.249964,12.0281855 L212.963055,11.5500036 M217.266691,11.64564 L217.171055,13.9409127 L217.457964,14.1321855 L217.5536,12.9845491 C218.318691,13.5583673 219.179418,13.5583673 219.179418,13.5583673 L218.318691,14.6103673 C217.5536,15.7580036 217.362327,16.4274582 217.362327,16.4274582 C217.075418,17.3838218 217.266691,17.95764 217.266691,17.95764 C217.362327,18.5314582 217.649236,18.5314582 217.649236,18.5314582 C218.031782,18.6270945 218.031782,17.95764 218.031782,17.95764 C218.031782,17.1925491 218.223055,16.5230945 218.223055,16.5230945 C218.796873,14.2278218 220.135782,12.9845491 220.135782,12.9845491 L219.466327,12.69764 C218.6056,12.4107309 217.266691,11.64564 217.266691,11.64564 M222.239782,16.0449127 L222.431055,16.4274582 C222.431055,16.4274582 223.100509,16.2361855 223.578691,15.6623673 C223.578691,15.6623673 224.056873,14.9929127 223.578691,14.2278218 C223.578691,14.2278218 223.196145,13.6540036 222.526691,13.5583673 C222.526691,13.5583673 221.7616,13.4627309 221.379055,14.2278218 C221.379055,14.2278218 220.996509,14.80164 221.283418,15.85364 C221.283418,15.85364 221.570327,16.7143673 221.7616,17.1925491 C221.7616,17.1925491 222.144145,17.95764 221.952873,18.5314582 C221.952873,18.5314582 221.857236,19.2965491 221.187782,19.2009127 C221.187782,19.2009127 220.613964,19.1052764 220.518327,18.5314582 C220.518327,18.5314582 220.422691,17.95764 220.900873,17.3838218 C220.900873,17.3838218 221.187782,17.0012764 221.665964,16.8100036 L221.474691,16.3318218 L221.092145,16.5230945 C221.092145,16.5230945 220.327055,16.90564 220.040145,17.6707309 C220.040145,17.6707309 219.6576,18.5314582 220.231418,19.2009127 C220.231418,19.2009127 220.518327,19.7747309 221.283418,19.7747309 C221.283418,19.7747309 221.857236,19.8703673 222.335418,19.3921855 C222.335418,19.3921855 222.909236,18.9140036 222.8136,18.0532764 C222.8136,18.0532764 222.8136,17.4794582 222.431055,16.5230945 L222.144145,15.9492764 C222.144145,15.9492764 221.7616,15.1841855 221.7616,14.80164 C221.7616,14.80164 221.7616,14.1321855 222.335418,14.1321855 C222.335418,14.1321855 222.717964,14.1321855 222.909236,14.4190945 C222.909236,14.4190945 223.100509,14.7060036 223.004873,15.1841855 C223.004873,15.1841855 222.909236,15.6623673 222.431055,15.9492764 C222.526691,15.85364 222.239782,16.0449127 222.239782,16.0449127 M226.352145,15.85364 C226.639055,16.0449127 226.734691,16.3318218 226.734691,16.3318218 C226.830327,17.0012764 226.543418,17.3838218 226.543418,17.3838218 C226.160873,17.8620036 225.778327,17.8620036 225.778327,17.8620036 C225.587055,17.8620036 225.300145,17.7663673 225.300145,17.7663673 L225.108873,18.2445491 C225.682691,18.6270945 225.778327,19.2009127 225.778327,19.2009127 C225.873964,19.8703673 225.395782,20.4441855 225.395782,20.4441855 C225.013236,21.0180036 224.535055,20.7310945 224.535055,20.7310945 C224.152509,20.4441855 224.248145,19.9660036 224.248145,19.9660036 C224.248145,19.6790945 224.439418,19.4878218 224.439418,19.4878218 C224.726327,19.1052764 224.535055,18.9140036 224.535055,18.9140036 C224.343782,18.6270945 224.056873,18.9140036 224.056873,18.9140036 C223.769964,19.2009127 223.769964,19.5834582 223.769964,19.5834582 C223.578691,20.2529127 224.152509,20.9223673 224.152509,20.9223673 C224.535055,21.4005491 225.013236,21.4961855 225.013236,21.4961855 C225.682691,21.5918218 226.065236,21.2092764 226.065236,21.2092764 C226.639055,20.7310945 226.639055,19.9660036 226.639055,19.9660036 C226.639055,19.2009127 226.065236,18.5314582 226.065236,18.5314582 C226.830327,18.7227309 227.212873,18.0532764 227.212873,18.0532764 C227.499782,17.6707309 227.499782,17.0012764 227.499782,17.0012764 C227.499782,16.4274582 227.212873,16.0449127 227.212873,16.0449127 C226.830327,15.5667309 226.447782,15.3754582 226.447782,15.3754582 C226.065236,15.2798218 225.778327,15.3754582 225.778327,15.3754582 C225.300145,15.5667309 225.204509,16.0449127 225.204509,16.0449127 C225.108873,16.6187309 225.395782,16.7143673 225.395782,16.7143673 C225.682691,16.90564 225.873964,16.5230945 225.873964,16.5230945 C225.9696,16.3318218 225.9696,16.0449127 225.9696,16.0449127 C225.9696,15.6623673 226.256509,15.7580036 226.256509,15.7580036 C226.256509,15.7580036 226.352145,15.85364 226.352145,15.85364" id="Shape"></path>
            <polyline id="Shape" points="214.015055 48.0830945 215.545236 49.9958218 216.119055 49.7089127 213.728145 46.8398218 214.015055 48.0830945"></polyline>
            <path d="M180.829236,70.8445491 L180.7336,70.2707309 C179.872873,69.50564 178.916509,68.2623673 178.916509,68.2623673 L179.012145,68.9318218 C179.394691,69.2187309 179.490327,70.0794582 179.490327,70.0794582 L179.6816,72.66164 C179.6816,72.66164 179.777236,73.6180036 179.490327,73.4267309 C179.490327,73.4267309 178.820873,73.5223673 178.247055,69.8881855 C177.481964,64.3412764 177.960145,62.7154582 177.960145,62.7154582 C178.247055,61.7590945 178.6296,62.7154582 178.6296,62.7154582 C179.299055,63.9587309 179.585964,66.8278218 179.585964,66.8278218 L179.872873,67.2103673 L179.777236,62.9067309 L179.490327,63.0023673 C179.107782,63.19364 178.916509,62.4285491 178.916509,62.4285491 C178.438327,61.3765491 177.960145,61.6634582 177.960145,61.6634582 C177.290691,61.9503673 177.099418,63.8630945 177.099418,63.8630945 C176.812509,67.0190945 177.673236,70.6532764 177.673236,70.6532764 C178.342691,73.6180036 179.299055,74.2874582 179.299055,74.2874582 C179.490327,74.3830945 179.6816,74.3830945 179.6816,74.3830945 C180.064145,74.5743673 180.159782,75.6263673 180.159782,75.6263673 L180.542327,76.1045491 L180.255418,71.3227309 C180.255418,70.7489127 180.542327,70.7489127 180.542327,70.7489127 C180.637964,70.6532764 180.829236,70.8445491 180.829236,70.8445491 M198.521964,82.12964 L198.521964,81.3645491 C198.521964,80.2169127 198.6176,79.0692764 198.713236,78.3998218 C198.808873,77.3478218 199.000145,76.7740036 199.000145,76.7740036 C199.382691,75.3394582 200.052145,75.4350945 200.052145,75.4350945 C200.339055,75.5307309 200.625964,75.7220036 200.912873,76.1045491 C201.199782,76.5827309 201.486691,77.2521855 201.486691,77.2521855 C202.443055,79.5474582 202.8256,83.2772764 202.8256,83.2772764 C203.208145,86.5289127 202.8256,89.1110945 202.8256,89.1110945 C202.443055,91.3107309 201.869236,91.6932764 201.869236,91.6932764 C201.295418,92.1714582 200.625964,91.3107309 200.625964,91.3107309 C199.860873,90.3543673 199.478327,88.5372764 199.478327,88.5372764 C199.095782,86.6245491 198.904509,85.3812764 198.904509,85.3812764 L198.808873,84.7118218 L198.713236,83.9467309 L199.573964,83.7554582 L199.6696,84.8074582 L199.765236,85.28564 C200.052145,87.6765491 200.339055,88.6329127 200.339055,88.6329127 C200.530327,89.3023673 200.625964,89.7805491 200.7216,90.0674582 C201.104145,90.8325491 201.391055,90.8325491 201.391055,90.8325491 C201.582327,90.8325491 201.7736,90.7369127 201.869236,90.4500036 C202.060509,90.1630945 202.156145,89.5892764 202.156145,89.5892764 C202.443055,87.6765491 202.251782,85.5725491 202.251782,85.5725491 C202.060509,81.8427309 201.295418,78.5910945 201.295418,78.5910945 C201.104145,77.92164 201.008509,77.4434582 200.817236,77.0609127 C200.530327,76.4870945 200.434691,76.3914582 200.434691,76.3914582 C200.339055,76.2001855 200.052145,76.2001855 199.956509,76.2958218 C199.765236,76.3914582 199.6696,76.7740036 199.6696,76.7740036 C199.573964,77.2521855 199.478327,77.6347309 199.382691,78.0172764 C199.287055,78.8780036 199.287055,79.7387309 199.287055,79.7387309 C199.287055,81.2689127 199.573964,83.9467309 199.573964,83.9467309 L198.713236,84.0423673 C198.521964,83.2772764 198.521964,82.12964 198.521964,82.12964 M202.634327,77.5390945 L203.303782,78.0172764 C204.451418,78.97364 205.120873,79.6430945 205.120873,79.6430945 L205.216509,80.4081855 C204.355782,79.7387309 204.451418,80.3125491 204.451418,80.3125491 L204.451418,80.8863673 L205.599055,90.3543673 L206.077236,84.3292764 C206.172873,82.5121855 206.172873,80.4081855 206.172873,80.4081855 L206.746691,80.8863673 L208.0856,93.6060036 L208.659418,85.1900036 C208.755055,84.0423673 208.563782,83.7554582 208.563782,83.7554582 C208.372509,83.18164 207.894327,82.8947309 207.894327,82.8947309 L207.798691,82.0340036 C208.946327,82.9903673 210.1896,84.3292764 210.1896,84.3292764 L210.1896,85.0943673 C209.1376,84.1380036 209.1376,84.9987309 209.1376,84.9987309 L208.563782,90.8325491 L208.181236,97.8140036 L207.703055,97.2401855 L207.320509,94.1798218 C206.937964,90.7369127 206.268509,86.5289127 206.268509,86.5289127 L205.694691,93.0321855 C205.694691,93.7972764 205.599055,95.2318218 205.599055,95.2318218 L205.216509,94.75364 L204.547055,88.5372764 C204.260145,85.3812764 203.399418,79.9300036 203.399418,79.9300036 C203.399418,79.6430945 203.303782,79.4518218 203.303782,79.2605491 C203.208145,78.7823673 202.634327,78.4954582 202.634327,78.4954582 L202.634327,77.5390945 M184.750327,79.8343673 L185.132873,80.2169127 C185.611055,80.6950945 186.376145,81.1732764 186.376145,81.1732764 L186.280509,80.5038218 C185.897964,80.3125491 185.706691,79.8343673 185.706691,79.8343673 C185.515418,79.5474582 185.706691,78.4954582 185.706691,78.4954582 L185.897964,76.3914582 C186.184873,76.7740036 187.236873,77.3478218 187.236873,77.3478218 L188.001964,80.7907309 C188.0976,81.3645491 188.001964,81.2689127 188.001964,81.2689127 C187.810691,81.4601855 187.236873,80.9820036 187.236873,80.9820036 L187.236873,81.5558218 C188.288873,82.4165491 189.819055,83.2772764 189.819055,83.2772764 L189.819055,82.6078218 C189.053964,82.3209127 188.958327,81.2689127 188.958327,81.2689127 L188.001964,76.9652764 L188.001964,76.7740036 C188.001964,76.7740036 187.619418,76.6783673 187.236873,76.4870945 C186.376145,76.0089127 185.9936,75.6263673 185.9936,75.6263673 L186.280509,71.60964 L186.663055,73.71364 L186.854327,74.5743673 L187.141236,76.0089127 L187.236873,76.6783673 L188.001964,77.0609127 L186.758691,70.0794582 L186.280509,67.9754582 L185.897964,67.6885491 C185.802327,69.6012764 185.802327,70.8445491 185.802327,70.8445491 C185.706691,73.5223673 185.419782,77.4434582 185.419782,77.4434582 C185.228509,79.1649127 185.132873,79.1649127 185.132873,79.1649127 C184.845964,79.2605491 184.654691,79.0692764 184.654691,79.0692764 L184.750327,79.8343673 M190.010327,76.7740036 C190.392873,78.1129127 191.444873,80.2169127 191.444873,80.2169127 C192.114327,81.6514582 192.401236,82.7990945 192.401236,82.7990945 C192.783782,84.3292764 192.3056,84.6161855 192.3056,84.6161855 C191.540509,85.0943673 190.966691,83.2772764 190.966691,83.2772764 C190.584145,82.3209127 190.105964,79.9300036 190.105964,79.9300036 L189.819055,79.6430945 L190.297236,83.9467309 L190.488509,83.7554582 C190.679782,83.4685491 190.871055,83.8510945 190.871055,83.8510945 C191.349236,84.9987309 191.827418,85.1900036 191.827418,85.1900036 C192.496873,85.5725491 192.879418,84.9030945 192.879418,84.9030945 C193.166327,84.6161855 193.166327,83.9467309 193.166327,83.9467309 C193.261964,83.0860036 193.070691,82.2252764 193.070691,82.2252764 C193.070691,82.2252764 192.783782,80.5038218 191.731782,78.1129127 C191.731782,78.1129127 191.444873,77.4434582 190.775418,76.0089127 C190.775418,76.0089127 190.105964,74.6700036 190.010327,72.66164 C190.010327,72.66164 189.914691,70.9401855 190.775418,71.1314582 C190.775418,71.1314582 191.349236,71.4183673 191.636145,72.66164 C191.636145,72.66164 192.114327,74.2874582 192.3056,76.1045491 L192.592509,76.2958218 L192.496873,71.60964 L192.114327,71.7052764 C192.114327,71.7052764 191.827418,71.8965491 191.636145,71.4183673 C191.540509,71.2270945 191.349236,70.9401855 191.2536,70.8445491 C191.2536,70.8445491 190.679782,70.0794582 190.105964,70.6532764 C190.105964,70.6532764 189.532145,71.1314582 189.532145,72.4703673 C189.532145,72.4703673 189.436509,73.5223673 189.914691,75.4350945 C189.819055,76.1045491 190.010327,76.7740036 190.010327,76.7740036 M195.270327,84.9987309 L194.983418,83.18164 C194.696509,81.4601855 194.600873,79.6430945 194.600873,79.6430945 C194.313964,76.0089127 194.600873,74.5743673 194.600873,74.5743673 C194.792145,73.4267309 194.983418,73.4267309 194.983418,73.4267309 C195.365964,73.3310945 195.844145,74.8612764 195.844145,74.8612764 C196.322327,76.1045491 196.609236,78.2085491 196.609236,78.2085491 L196.896145,78.3998218 L196.609236,73.5223673 C196.417964,73.8092764 196.131055,73.9049127 196.131055,73.9049127 C196.035418,73.9049127 195.844145,73.71364 195.748509,73.6180036 C195.652873,73.4267309 195.557236,73.2354582 195.557236,73.2354582 C195.174691,72.66164 194.887782,72.66164 194.887782,72.66164 C194.792145,72.66164 194.696509,72.66164 194.600873,72.66164 C194.027055,72.9485491 193.931418,73.6180036 193.931418,73.6180036 C193.453236,75.2438218 193.548873,78.3998218 193.548873,78.3998218 C193.548873,81.3645491 194.4096,84.3292764 194.4096,84.3292764 C194.792145,85.9550945 195.365964,86.9114582 195.365964,86.9114582 C195.939782,87.7721855 196.417964,87.4852764 196.417964,87.4852764 C196.609236,87.4852764 196.609236,87.4852764 196.800509,87.38964 C196.991782,87.38964 197.087418,87.4852764 197.087418,87.4852764 C197.278691,87.5809127 197.278691,87.7721855 197.374327,87.9634582 C197.5656,88.3460036 197.661236,88.6329127 197.661236,88.6329127 L198.043782,88.9198218 L197.469964,83.18164 C197.374327,82.5121855 198.043782,82.8947309 198.043782,82.8947309 L198.043782,82.3209127 C196.991782,81.6514582 195.844145,80.6950945 195.844145,80.6950945 L195.939782,81.4601855 C196.131055,81.6514582 196.322327,81.7470945 196.417964,81.9383673 C196.704873,82.5121855 196.704873,82.9903673 196.704873,82.9903673 C196.800509,84.5205491 196.896145,85.5725491 196.896145,85.5725491 C196.991782,86.5289127 196.704873,86.7201855 196.704873,86.7201855 C196.417964,87.1027309 195.939782,86.6245491 195.939782,86.6245491 C195.557236,86.1463673 195.270327,84.9987309 195.270327,84.9987309 M180.637964,63.7674582 L181.116145,64.24564 C181.689964,64.8194582 181.7856,65.0107309 183.220145,66.1583673 L183.220145,66.6365491 L182.8376,66.4452764 C182.359418,66.0627309 182.359418,66.6365491 182.359418,66.6365491 L182.8376,77.4434582 L183.124509,77.7303673 C183.793964,78.3998218 183.8896,77.5390945 183.8896,77.5390945 C184.176509,76.6783673 183.985236,74.8612764 183.985236,74.8612764 L184.367782,75.2438218 L184.559055,79.6430945 C182.933236,78.3998218 181.307418,76.1045491 181.307418,76.1045491 L181.307418,75.5307309 C181.594327,76.0089127 182.072509,76.3914582 182.072509,76.3914582 C182.263782,76.5827309 182.168145,75.7220036 182.168145,75.7220036 L181.689964,67.2103673 C181.689964,65.9670945 181.498691,65.6801855 181.498691,65.6801855 C181.498691,65.1063673 180.829236,64.5325491 180.829236,64.5325491 L180.637964,63.7674582" id="Shape"></path>
            <polyline id="Shape" points="185.324145 85.5725491 181.116145 92.9365491 181.116145 93.5103673 195.748509 93.5103673 195.748509 92.8409127 192.401236 87.7721855 188.575782 85.3812764 188.575782 85.4769127 184.272145 92.9365491 181.689964 92.9365491 185.9936 85.5725491 185.897964 83.0860036 185.324145 82.7034582 185.324145 85.5725491"></polyline>
            <polyline id="Shape" points="215.258327 23.9827309 218.318691 23.0263673 218.318691 20.2529127 215.162691 20.1572764 215.258327 23.9827309"></polyline>
            <polyline id="Shape" points="220.7096 23.3132764 223.291782 23.6001855 225.395782 25.2260036 225.587055 26.4692764 226.639055 26.4692764 226.543418 25.2260036 226.352145 24.4609127 225.587055 23.6958218 224.726327 22.9307309 223.769964 22.4525491 220.613964 21.0180036 220.7096 23.3132764"></polyline>
        </g>
    </g>
</svg>