<svg xmlns="http://www.w3.org/2000/svg" xmlns:xlink="http://www.w3.org/1999/xlink" width="2000" height="1000" viewBox="0 0 2000 1000"><defs><linearGradient id="linear-gradient" x1="0.5" y1="0.145" x2="0.5" y2="1" gradientUnits="objectBoundingBox"><stop offset="0" stop-color="#54a0c0"></stop><stop offset="0.399" stop-color="#7ebac2"></stop><stop offset="1" stop-color="#f8f2f2"></stop></linearGradient><linearGradient id="linear-gradient-2" x1="0.19" x2="0.543" y2="1.124" gradientUnits="objectBoundingBox"><stop offset="0" stop-color="#4885a1"></stop><stop offset="0.771" stop-color="#53a3b8" stop-opacity="0"></stop><stop offset="1" stop-color="#dce5e8" stop-opacity="0"></stop><stop offset="1" stop-color="#faf3f2" stop-opacity="0"></stop></linearGradient><clipPath id="clip-our-mission-background-lg"><rect width="2000" height="1000"></rect></clipPath></defs><g id="our-mission-background-lg" clip-path="url(#clip-our-mission-background-lg)"><rect width="2000" height="1000" fill="#fff"></rect><g id="sky"><g id="bottom_layer"><rect id="Rectangle_2421" width="2015" height="1128.323" rx="5" transform="translate(0 0)" fill="url(#linear-gradient)"></rect></g><g id="top_layer" transform="translate(-0.001 -0.001)"><rect id="Rectangle_2421-2" width="2015" height="1128.323" rx="5" transform="translate(0 0)" fill="url(#linear-gradient-2)"></rect></g></g><g id="stars"><g id="Group_1612" transform="translate(30.969 -173.746)"><g id="Group_1555" transform="translate(0 185.516)" opacity="0.275"><path id="Path_2185" d="M-141.448-12560.758c-.716-.9,2.032-3.6,3.664-3.6s3.78,2.7,2.864,3.6S-140.732-12559.86-141.448-12560.758Z" transform="translate(502.851 12598.736)" fill="#fff"></path><path id="Path_2186" d="M-141.511-12561.952c-.327-.6.928-2.4,1.672-2.4s1.725,1.8,1.307,2.4S-141.185-12561.351-141.511-12561.952Z" transform="translate(495.893 12587.142)" fill="#fff"></path><path id="Path_2187" d="M-140.089-12560.738c-.716-.9.314-3.6,1.946-3.6.545,0,1.414-.518,1.976,1.008,1.009-1.151,1.063,1.99.452,2.59l-2.429-.493Z" transform="translate(513.516 12584.28)" fill="#fff" opacity="0.775"></path><path id="Path_2188" d="M-141.448-12560.758c-.716-.9,2.032-3.6,3.664-3.6s3.78,2.7,2.864,3.6S-140.732-12559.86-141.448-12560.758Z" transform="translate(144.996 12761.19)" fill="#fff"></path><path id="Path_2189" d="M-141.511-12561.952c-.327-.6.928-2.4,1.672-2.4s1.725,1.8,1.307,2.4S-141.185-12561.351-141.511-12561.952Z" transform="translate(167.375 12722.54)" fill="#fff"></path><path id="Path_2190" d="M-140.089-12560.738c-.716-.9.314-3.6,1.946-3.6.545,0,1.414-.518,1.976,1.008,1.009-1.151,1.063,1.99.452,2.59l-2.429-.493Z" transform="translate(184.998 12719.68)" fill="#fff" opacity="0.66"></path><path id="Path_2191" d="M-141.448-12560.758c-.716-.9,2.032-3.6,3.664-3.6s3.78,2.7,2.864,3.6S-140.732-12559.86-141.448-12560.758Z" transform="translate(141.565 12638.801)" fill="#fff"></path><path id="Path_2192" d="M-141.448-12560.758c-.716-.9,2.032-3.6,3.664-3.6s3.78,2.7,2.864,3.6S-140.732-12559.86-141.448-12560.758Z" transform="translate(499.419 12725.393)" fill="#fff"></path><path id="Path_2193" d="M-141.448-12560.758c-.716-.9,2.032-3.6,3.664-3.6s3.78,2.7,2.864,3.6S-140.732-12559.86-141.448-12560.758Z" transform="translate(346.232 12564.354)" fill="#fff" opacity="0.542"></path></g><g id="Group_1555-2" transform="translate(328.518 0)" opacity="0.275"><path id="Path_2185-2" d="M-141.448-12560.758c-.716-.9,2.032-3.6,3.664-3.6s3.78,2.7,2.864,3.6S-140.732-12559.86-141.448-12560.758Z" transform="translate(502.851 12598.736)" fill="#fff"></path><path id="Path_2186-2" d="M-141.511-12561.952c-.327-.6.928-2.4,1.672-2.4s1.725,1.8,1.307,2.4S-141.185-12561.351-141.511-12561.952Z" transform="translate(495.893 12587.142)" fill="#fff"></path><path id="Path_2187-2" d="M-140.089-12560.738c-.716-.9.314-3.6,1.946-3.6.545,0,1.414-.518,1.976,1.008,1.009-1.151,1.063,1.99.452,2.59l-2.429-.493Z" transform="translate(513.516 12584.28)" fill="#fff" opacity="0.775"></path><path id="Path_2188-2" d="M-141.448-12560.758c-.716-.9,2.032-3.6,3.664-3.6s3.78,2.7,2.864,3.6S-140.732-12559.86-141.448-12560.758Z" transform="translate(144.996 12761.19)" fill="#fff"></path><path id="Path_2189-2" d="M-141.511-12561.952c-.327-.6.928-2.4,1.672-2.4s1.725,1.8,1.307,2.4S-141.185-12561.351-141.511-12561.952Z" transform="translate(167.375 12722.54)" fill="#fff"></path><path id="Path_2190-2" d="M-140.089-12560.738c-.716-.9.314-3.6,1.946-3.6.545,0,1.414-.518,1.976,1.008,1.009-1.151,1.063,1.99.452,2.59l-2.429-.493Z" transform="translate(184.998 12719.68)" fill="#fff" opacity="0.66"></path><path id="Path_2191-2" d="M-141.448-12560.758c-.716-.9,2.032-3.6,3.664-3.6s3.78,2.7,2.864,3.6S-140.732-12559.86-141.448-12560.758Z" transform="translate(141.565 12638.801)" fill="#fff"></path><path id="Path_2192-2" d="M-141.448-12560.758c-.716-.9,2.032-3.6,3.664-3.6s3.78,2.7,2.864,3.6S-140.732-12559.86-141.448-12560.758Z" transform="translate(499.419 12725.393)" fill="#fff"></path><path id="Path_2193-2" d="M-141.448-12560.758c-.716-.9,2.032-3.6,3.664-3.6s3.78,2.7,2.864,3.6S-140.732-12559.86-141.448-12560.758Z" transform="translate(346.232 12564.354)" fill="#fff" opacity="0.542"></path></g><g id="Group_1614" transform="translate(0.001 185.516)" opacity="0.275"><path id="Path_2185-3" d="M-141.448-12560.758c-.716-.9,2.032-3.6,3.664-3.6s3.78,2.7,2.864,3.6S-140.732-12559.86-141.448-12560.758Z" transform="translate(502.851 12598.736)" fill="#fff"></path><path id="Path_2186-3" d="M-141.511-12561.952c-.327-.6.928-2.4,1.672-2.4s1.725,1.8,1.307,2.4S-141.185-12561.351-141.511-12561.952Z" transform="translate(495.893 12587.142)" fill="#fff"></path><path id="Path_2187-3" d="M-140.089-12560.738c-.716-.9.314-3.6,1.946-3.6.545,0,1.414-.518,1.976,1.008,1.009-1.151,1.063,1.99.452,2.59l-2.429-.493Z" transform="translate(513.516 12584.28)" fill="#fff" opacity="0.775"></path><path id="Path_2188-3" d="M-141.448-12560.758c-.716-.9,2.032-3.6,3.664-3.6s3.78,2.7,2.864,3.6S-140.732-12559.86-141.448-12560.758Z" transform="translate(144.996 12761.19)" fill="#fff"></path><path id="Path_2189-3" d="M-141.511-12561.952c-.327-.6.928-2.4,1.672-2.4s1.725,1.8,1.307,2.4S-141.185-12561.351-141.511-12561.952Z" transform="translate(167.375 12722.54)" fill="#fff"></path><path id="Path_2190-3" d="M-140.089-12560.738c-.716-.9.314-3.6,1.946-3.6.545,0,1.414-.518,1.976,1.008,1.009-1.151,1.063,1.99.452,2.59l-2.429-.493Z" transform="translate(184.998 12719.68)" fill="#fff" opacity="0.66"></path><path id="Path_2191-3" d="M-141.448-12560.758c-.716-.9,2.032-3.6,3.664-3.6s3.78,2.7,2.864,3.6S-140.732-12559.86-141.448-12560.758Z" transform="translate(141.565 12638.801)" fill="#fff"></path><path id="Path_2192-3" d="M-141.448-12560.758c-.716-.9,2.032-3.6,3.664-3.6s3.78,2.7,2.864,3.6S-140.732-12559.86-141.448-12560.758Z" transform="translate(499.419 12725.393)" fill="#fff"></path><path id="Path_2193-3" d="M-141.448-12560.758c-.716-.9,2.032-3.6,3.664-3.6s3.78,2.7,2.864,3.6S-140.732-12559.86-141.448-12560.758Z" transform="translate(346.232 12564.354)" fill="#fff" opacity="0.542"></path></g></g><g id="Group_1615" transform="translate(108.828 -483.855)" opacity="0.275"><path id="Path_2185-4" d="M-141.345-12557.582c-1.348-1.691,3.826-6.771,6.9-6.771s7.117,5.08,5.392,6.771S-140-12555.891-141.345-12557.582Z" transform="translate(855.811 13207.047)" fill="#fff"></path><path id="Path_2186-4" d="M-141.464-12559.828c-.615-1.129,1.746-4.525,3.149-4.525s3.249,3.4,2.461,4.525S-140.849-12558.7-141.464-12559.828Z" transform="translate(842.709 13185.213)" fill="#fff"></path><path id="Path_2187-4" d="M-139.885-12557.488c-1.348-1.691.591-6.771,3.664-6.771,1.026,0,2.662-.973,3.721,1.9,1.9-2.166,2,3.746.852,4.875l-4.573-.924Z" transform="translate(876.99 13179.769)" fill="#fff" opacity="0.775"></path><path id="Path_2188-4" d="M-141.345-12557.582c-1.348-1.691,3.826-6.771,6.9-6.771s7.117,5.08,5.392,6.771S-140-12555.891-141.345-12557.582Z" transform="translate(182.026 13512.922)" fill="#fff"></path><path id="Path_2189-4" d="M-141.464-12559.828c-.615-1.129,1.746-4.525,3.149-4.525s3.249,3.4,2.461,4.525S-140.849-12558.7-141.464-12559.828Z" transform="translate(224.162 13440.148)" fill="#fff"></path><path id="Path_2190-4" d="M-139.885-12557.488c-1.348-1.691.591-6.771,3.664-6.771,1.026,0,2.662-.973,3.721,1.9,1.9-2.166,2,3.746.852,4.875l-4.573-.924Z" transform="translate(258.442 13434.704)" fill="#fff" opacity="0.66"></path><path id="Path_2191-4" d="M-141.345-12557.582c-1.348-1.691,3.826-6.771,6.9-6.771s7.117,5.08,5.392,6.771S-140-12555.891-141.345-12557.582Z" transform="translate(175.565 13282.482)" fill="#fff"></path><path id="Path_2192-4" d="M-141.345-12557.582c-1.348-1.691,3.826-6.771,6.9-6.771s7.117,5.08,5.392,6.771S-140-12555.891-141.345-12557.582Z" transform="translate(849.349 13445.521)" fill="#fff"></path><path id="Path_2193-4" d="M-141.345-12557.582c-1.348-1.691,3.826-6.771,6.9-6.771s7.117,5.08,5.392,6.771S-140-12555.891-141.345-12557.582Z" transform="translate(560.921 13142.312)" fill="#fff" opacity="0.542"></path></g><g id="Group_1616" transform="translate(1106 -323.391)" opacity="0.275"><path id="Path_2185-5" d="M-141.385-12558.807c-1.1-1.386,3.134-5.547,5.651-5.547s5.83,4.161,4.417,5.547S-140.28-12557.421-141.385-12558.807Z" transform="translate(732.814 13195.342)" fill="#fff"></path><path id="Path_2186-5" d="M-141.482-12560.646c-.5-.925,1.431-3.707,2.58-3.707s2.661,2.782,2.016,3.707S-140.978-12559.721-141.482-12560.646Z" transform="translate(722.082 13177.456)" fill="#fff"></path><path id="Path_2187-5" d="M-139.963-12558.741c-1.1-1.386.484-5.548,3-5.548.841,0,2.18-.8,3.048,1.554,1.556-1.774,1.639,3.069.7,3.994l-3.746-.757Z" transform="translate(749.939 13173.008)" fill="#fff" opacity="0.775"></path><path id="Path_2188-5" d="M-141.385-12558.807c-1.1-1.386,3.134-5.547,5.651-5.547s5.83,4.161,4.417,5.547S-140.28-12557.421-141.385-12558.807Z" transform="translate(180.858 13445.911)" fill="#fff"></path><path id="Path_2189-5" d="M-141.482-12560.646c-.5-.925,1.431-3.707,2.58-3.707s2.661,2.782,2.016,3.707S-140.978-12559.721-141.482-12560.646Z" transform="translate(215.375 13386.296)" fill="#fff"></path><path id="Path_2190-5" d="M-139.963-12558.741c-1.1-1.386.484-5.548,3-5.548.841,0,2.18-.8,3.048,1.554,1.556-1.774,1.639,3.069.7,3.994l-3.746-.757Z" transform="translate(243.232 13381.848)" fill="#fff" opacity="0.66"></path><path id="Path_2191-5" d="M-141.385-12558.807c-1.1-1.386,3.134-5.547,5.651-5.547s5.83,4.161,4.417,5.547S-140.28-12557.421-141.385-12558.807Z" transform="translate(175.565 13257.138)" fill="#fff"></path><path id="Path_2192-5" d="M-141.385-12558.807c-1.1-1.386,3.134-5.547,5.651-5.547s5.83,4.161,4.417,5.547S-140.28-12557.421-141.385-12558.807Z" transform="translate(727.521 13390.697)" fill="#fff"></path><path id="Path_2193-5" d="M-141.385-12558.807c-1.1-1.386,3.134-5.547,5.651-5.547s5.83,4.161,4.417,5.547S-140.28-12557.421-141.385-12558.807Z" transform="translate(491.244 13142.312)" fill="#fff" opacity="0.542"></path></g><g id="Group_1658" transform="translate(1036 184.566)" opacity="0.342"><path id="Path_2185-6" d="M-131.158-12558.807c1.1-1.386-3.134-5.547-5.651-5.547s-5.83,4.161-4.417,5.547S-132.262-12557.421-131.158-12558.807Z" transform="translate(157.062 12617.384)" fill="#fff"></path><path id="Path_2186-6" d="M-136.814-12560.646c.5-.925-1.431-3.707-2.58-3.707s-2.661,2.782-2.016,3.707S-137.318-12559.721-136.814-12560.646Z" transform="translate(173.549 12599.498)" fill="#fff"></path><path id="Path_2187-6" d="M-132.962-12558.741c1.1-1.386-.484-5.548-3-5.548-.841,0-2.18-.8-3.048,1.554-1.556-1.774-1.639,3.069-.7,3.994l3.746-.757Z" transform="translate(140.32 12595.05)" fill="#fff" opacity="0.775"></path><path id="Path_2188-6" d="M-131.158-12558.807c1.1-1.386-3.134-5.547-5.651-5.547s-5.83,4.161-4.417,5.547S-132.262-12557.421-131.158-12558.807Z" transform="translate(709.018 12867.955)" fill="#fff"></path><path id="Path_2189-6" d="M-136.814-12560.646c.5-.925-1.431-3.707-2.58-3.707s-2.661,2.782-2.016,3.707S-137.318-12559.721-136.814-12560.646Z" transform="translate(680.256 12808.34)" fill="#fff"></path><path id="Path_2190-6" d="M-132.962-12558.741c1.1-1.386-.484-5.548-3-5.548-.841,0-2.18-.8-3.048,1.554-1.556-1.774-1.639,3.069-.7,3.994l3.746-.757Z" transform="translate(647.027 12803.892)" fill="#fff" opacity="0.66"></path><path id="Path_2191-6" d="M-131.158-12558.807c1.1-1.386-3.134-5.547-5.651-5.547s-5.83,4.161-4.417,5.547S-132.262-12557.421-131.158-12558.807Z" transform="translate(714.312 12679.181)" fill="#fff"></path><path id="Path_2192-6" d="M-131.158-12558.807c1.1-1.386-3.134-5.547-5.651-5.547s-5.83,4.161-4.417,5.547S-132.262-12557.421-131.158-12558.807Z" transform="translate(162.355 12812.741)" fill="#fff"></path><path id="Path_2193-6" d="M-131.158-12558.807c1.1-1.386-3.134-5.547-5.651-5.547s-5.83,4.161-4.417,5.547S-132.262-12557.421-131.158-12558.807Z" transform="translate(398.632 12564.354)" fill="#fff" opacity="0.542"></path></g></g></g></svg>