<?xml version="1.0" encoding="UTF-8"?>
<svg id="Layer_1" data-name="Layer 1" xmlns="http://www.w3.org/2000/svg" viewBox="0 0 600 530">
  <defs>
    <style>
      .cls-1 {
        stroke-width: 0px;
      }
    </style>
  </defs>
  <path class="cls-1" d="m300,334.84c90.22,0,163.62-73.4,163.62-163.62S390.22,7.61,300,7.61s-163.62,73.4-163.62,163.62,73.4,163.62,163.62,163.62Zm0-304.15c77.49,0,140.53,63.04,140.53,140.53s-63.04,140.53-140.53,140.53-140.53-63.04-140.53-140.53S222.51,30.69,300,30.69Z"/>
  <path class="cls-1" d="m304.43,270.35v-24.63c-35.65,0-64.65-29-64.65-64.65v-7.69h-24.63v7.69c0,49.23,40.05,89.28,89.28,89.28Z"/>
  <path class="cls-1" d="m288.51,197.33c33.62,0,60.87-27.25,60.87-60.87,0-13.5-4.4-25.96-11.83-36.05h25.48v-24.63h-69.91c-1.52-.11-3.05-.19-4.61-.19-33.62,0-60.87,27.25-60.87,60.87s27.25,60.87,60.87,60.87Zm0-97.12c1.09,0,2.17.06,3.23.15v.04h.5c18.24,1.87,32.52,17.33,32.52,36.05,0,19.99-16.26,36.25-36.25,36.25s-36.25-16.26-36.25-36.25,16.26-36.25,36.25-36.25Z"/>
  <rect class="cls-1" x="288.95" y="449.56" width="41.09" height="17.49"/>
  <path class="cls-1" d="m41.16,468.51h19.39v.71c-.95,12.37-8.09,19.75-18.8,19.75-13.68,0-22.13-11.3-22.13-30.69,0-18.32,8.21-30.57,22.36-30.57,10.23,0,17.01,6.07,18.8,17.61l12.61-4.04c-2.62-14.99-13.08-25.81-30.93-25.81-22.36,0-37.47,16.42-37.47,43.42s14.27,42.11,33.67,42.11c13.56,0,21.41-7.61,24.39-17.49v15.7h10.71v-41.64h-32.59v10.94Z"/>
  <path class="cls-1" d="m111.94,439.12c-15.94,0-28.07,11.54-28.07,30.69s12.02,30.69,28.07,30.69,28.31-11.3,28.31-30.69-12.25-30.69-28.31-30.69Zm0,50.91c-8.8,0-14.28-7.02-14.28-20.22s5.47-20.1,14.28-20.1,14.39,7.02,14.39,20.1-5.47,20.22-14.39,20.22Z"/>
  <path class="cls-1" d="m175.7,439.12c-15.94,0-28.07,11.54-28.07,30.69s12.01,30.69,28.07,30.69,28.31-11.3,28.31-30.69-12.25-30.69-28.31-30.69Zm0,50.91c-8.8,0-14.27-7.02-14.27-20.22s5.47-20.1,14.27-20.1,14.4,7.02,14.4,20.1-5.47,20.22-14.4,20.22Z"/>
  <path class="cls-1" d="m254.56,451.97c-2.86-6.9-8.92-12.49-18.68-12.49-14.39,0-24.39,11.66-24.39,30.57s9.99,30.57,23.79,30.57c9.64,0,16.3-5.23,19.51-12.61v11.18h13.44v-81.96h-13.68v34.74Zm-14.51,38.54c-9.28,0-14.75-7.14-14.75-20.58s5.59-20.34,14.87-20.34,14.63,7.61,14.63,20.46-5.59,20.46-14.75,20.46Z"/>
  <polygon class="cls-1" points="365.06 417.23 350.79 417.23 350.79 499.2 403.01 499.2 403.01 486.47 365.06 486.47 365.06 417.23"/>
  <path class="cls-1" d="m435.84,439.12c-15.94,0-28.07,11.54-28.07,30.69s12.01,30.69,28.07,30.69,28.31-11.3,28.31-30.69-12.25-30.69-28.31-30.69Zm0,50.91c-8.8,0-14.27-7.02-14.27-20.22s5.47-20.1,14.27-20.1,14.4,7.02,14.4,20.1-5.47,20.22-14.4,20.22Z"/>
  <path class="cls-1" d="m499.6,439.12c-15.94,0-28.07,11.54-28.07,30.69s12.01,30.69,28.07,30.69,28.31-11.3,28.31-30.69-12.25-30.69-28.31-30.69Zm0,50.91c-8.8,0-14.27-7.02-14.27-20.22s5.47-20.1,14.27-20.1,14.4,7.02,14.4,20.1-5.47,20.22-14.4,20.22Z"/>
  <path class="cls-1" d="m571.57,439.6c-9.99,0-16.89,5.59-19.99,13.2v-11.9h-13.21v81.49h13.56v-34.14c2.98,6.9,9.16,12.37,18.92,12.37,14.16,0,24.15-11.66,24.15-30.69s-9.87-30.33-23.43-30.33Zm-5,51.03c-9.04,0-14.87-7.73-14.87-20.58,0-12.13,5.71-20.46,14.99-20.46s14.51,7.38,14.51,20.7-5.59,20.34-14.63,20.34Z"/>
</svg>