<?xml version="1.0" encoding="UTF-8"?>
<svg id="Layer_1" data-name="Layer 1" xmlns="http://www.w3.org/2000/svg" viewBox="0 0 1000 290">
  <defs>
    <style>
      .cls-1 {
        stroke-width: 0px;
        fill: #fafaf5;
      }
    </style>
  </defs>
  <path class="cls-1" d="m130.91,70.08c-27.13,0-49.13,22-49.13,49.13s21.99,49.13,49.13,49.13,49.13-22,49.13-49.13c0-11.11-3.69-21.35-9.9-29.58h20.92v-19.57h-60.14Zm29.56,49.13c0,16.3-13.26,29.56-29.56,29.56s-29.56-13.26-29.56-29.56,13.26-29.56,29.56-29.56,29.56,13.26,29.56,29.56Z"/>
  <path class="cls-1" d="m91.52,148.68h-19.57c0,44.82,33.8,78.62,78.62,78.62v-19.57c-33.67,0-59.05-25.39-59.05-59.05Z"/>
  <path class="cls-1" d="m142.11,7.89C66.51,7.89,5,69.4,5,145s61.51,137.11,137.11,137.11,137.11-61.51,137.11-137.11S217.72,7.89,142.11,7.89Zm0,254.66c-64.82,0-117.55-52.73-117.55-117.55S77.3,27.45,142.11,27.45s117.55,52.73,117.55,117.55-52.73,117.55-117.55,117.55Z"/>
  <rect class="cls-1" x="654.15" y="135.99" width="45.77" height="19.48"/>
  <path class="cls-1" d="m378.18,157.09h21.6v.8c-1.06,13.78-9.01,21.99-20.93,21.99-15.24,0-24.64-12.59-24.64-34.18,0-20.4,9.14-34.05,24.91-34.05,11.39,0,18.95,6.76,20.93,19.61l14.04-4.5c-2.91-16.69-14.57-28.75-34.45-28.75-24.91,0-41.73,18.28-41.73,48.36s15.9,46.9,37.49,46.9c15.1,0,23.85-8.48,27.16-19.47v17.49h11.92v-46.37h-36.3v12.19Z"/>
  <path class="cls-1" d="m457.01,124.37c-17.75,0-31.27,12.85-31.27,34.18s13.38,34.18,31.27,34.18,31.53-12.59,31.53-34.18-13.65-34.18-31.53-34.18Zm0,56.7c-9.81,0-15.9-7.82-15.9-22.52s6.09-22.39,15.9-22.39,16.03,7.82,16.03,22.39-6.09,22.52-16.03,22.52Z"/>
  <path class="cls-1" d="m528.01,124.37c-17.75,0-31.27,12.85-31.27,34.18s13.38,34.18,31.27,34.18,31.53-12.59,31.53-34.18-13.65-34.18-31.53-34.18Zm0,56.7c-9.8,0-15.9-7.82-15.9-22.52s6.09-22.39,15.9-22.39,16.03,7.82,16.03,22.39-6.09,22.52-16.03,22.52Z"/>
  <path class="cls-1" d="m615.85,138.68c-3.18-7.68-9.94-13.91-20.8-13.91-16.03,0-27.16,12.98-27.16,34.05s11.13,34.05,26.5,34.05c10.73,0,18.15-5.83,21.73-14.04v12.45h14.97v-91.28h-15.24v38.69Zm-16.16,42.93c-10.33,0-16.43-7.95-16.43-22.92s6.23-22.65,16.56-22.65,16.3,8.48,16.3,22.79-6.23,22.79-16.43,22.79Z"/>
  <polygon class="cls-1" points="738.92 99.99 723.02 99.99 723.02 191.27 781.18 191.27 781.18 177.1 738.92 177.1 738.92 99.99"/>
  <path class="cls-1" d="m817.74,124.37c-17.75,0-31.26,12.85-31.26,34.18s13.38,34.18,31.26,34.18,31.53-12.59,31.53-34.18-13.65-34.18-31.53-34.18Zm0,56.7c-9.8,0-15.9-7.82-15.9-22.52s6.09-22.39,15.9-22.39,16.03,7.82,16.03,22.39-6.09,22.52-16.03,22.52Z"/>
  <path class="cls-1" d="m888.75,124.37c-17.75,0-31.26,12.85-31.26,34.18s13.38,34.18,31.26,34.18,31.53-12.59,31.53-34.18-13.65-34.18-31.53-34.18Zm0,56.7c-9.8,0-15.9-7.82-15.9-22.52s6.09-22.39,15.9-22.39,16.03,7.82,16.03,22.39-6.09,22.52-16.03,22.52Z"/>
  <path class="cls-1" d="m968.9,124.9c-11.13,0-18.81,6.23-22.26,14.71v-13.25h-14.71v90.75h15.1v-38.02c3.31,7.68,10.2,13.78,21.07,13.78,15.77,0,26.89-12.98,26.89-34.18s-11-33.78-26.1-33.78Zm-5.57,56.84c-10.07,0-16.56-8.61-16.56-22.92,0-13.51,6.36-22.79,16.69-22.79s16.16,8.21,16.16,23.05-6.23,22.65-16.3,22.65Z"/>
</svg>
