<?xml version="1.0" encoding="UTF-8"?>
<svg id="a" data-name="Layer 1" xmlns="http://www.w3.org/2000/svg" width="420mm" height="85.836mm" viewBox="0 0 1190.551 243.316">
  <g>
    <g>
      <g>
        <path d="M506.91,120.139h17.993v29.408c-8.334,5.889-19.741,9.032-30.23,9.032-22.937,0-39.685-15.318-39.685-36.922s16.748-36.922,40.091-36.922c13.473,0,24.367,4.564,31.466,12.987l-12.952,11.557c-4.944-5.368-10.594-7.902-17.481-7.902-12.343,0-20.562,8.008-20.562,20.28,0,11.972,8.22,20.288,20.359,20.288,3.805,0,7.398-.706,11.001-2.331v-19.476Z" fill="#1d1d1b"/>
        <path d="M534.2,121.658c0-21.295,16.969-36.922,39.994-36.922s39.994,15.627,39.994,36.922-16.96,36.922-39.994,36.922-39.994-15.618-39.994-36.922m59.426,0c0-12.272-8.529-20.288-19.432-20.288s-19.432,8.016-19.432,20.288,8.537,20.288,19.432,20.288,19.432-8.016,19.432-20.288" fill="#1d1d1b"/>
        <path d="M621.234,121.658c0-21.295,16.969-36.922,39.994-36.922s39.994,15.627,39.994,36.922-16.96,36.922-39.994,36.922-39.994-15.618-39.994-36.922m59.426,0c0-12.272-8.529-20.288-19.432-20.288s-19.432,8.016-19.432,20.288,8.529,20.288,19.432,20.288,19.432-8.016,19.432-20.288" fill="#1d1d1b"/>
        <path d="M711.971,86.156h34.035c23.846,0,40.197,13.693,40.197,35.5s-16.351,35.5-40.197,35.5h-34.035V86.156Zm33.214,54.976c12.228,0,20.447-7.204,20.447-19.476s-8.22-19.467-20.447-19.467h-12.863v38.943h12.863Z" fill="#1d1d1b"/>
      </g>
      <polygon points="865.347 86.16 885.697 86.16 885.697 141.242 920.041 141.242 920.041 157.16 865.347 157.16 865.347 86.16" fill="#1d1d1b"/>
      <g>
        <path d="M923.268,121.658c0-21.295,16.969-36.922,39.994-36.922s39.994,15.627,39.994,36.922-16.96,36.922-39.994,36.922-39.994-15.618-39.994-36.922m59.426,0c0-12.272-8.529-20.288-19.432-20.288s-19.432,8.016-19.432,20.288,8.537,20.288,19.432,20.288,19.432-8.016,19.432-20.288" fill="#1d1d1b"/>
        <path d="M1010.304,121.658c0-21.295,16.969-36.922,39.994-36.922s39.994,15.627,39.994,36.922-16.96,36.922-39.994,36.922-39.994-15.618-39.994-36.922m59.426,0c0-12.272-8.529-20.288-19.432-20.288s-19.432,8.016-19.432,20.288,8.529,20.288,19.432,20.288,19.432-8.016,19.432-20.288" fill="#1d1d1b"/>
        <path d="M1165.916,112.431c0,16.121-12.343,26.168-31.978,26.168h-12.546v18.558h-20.35V86.156h32.896c19.635,0,31.978,10.047,31.978,26.274m-20.562,0c0-6.595-4.22-10.453-12.652-10.453h-11.31v20.8h11.31c8.431,0,12.652-3.858,12.652-10.347" fill="#1d1d1b"/>
      </g>
      <rect x="803.486" y="110.222" width="38.096" height="20.933" fill="#1d1d1b"/>
    </g>
    <g>
      <path d="M313.179,155.99l-.198-31.572-15.043,25.337h-10.293l-15.043-24.247v30.482h-21.279V86.71h19.201l22.566,36.915,21.972-36.915h19.201l.197,69.28h-21.279Z" fill="#ae1f09"/>
      <path d="M393.132,130.85v25.14h-23.357v-25.435l-26.129-43.845h24.644l14.153,23.951,14.252-23.951h22.565l-26.128,44.14Z" fill="#ae1f09"/>
      <path d="M411.119,144.114c0-7.621,5.641-12.668,13.064-12.668s13.064,5.047,13.064,12.668c0,7.521-5.641,12.865-13.064,12.865s-13.064-5.345-13.064-12.865Z" fill="#ae1f09"/>
    </g>
  </g>
  <g>
    <path d="M211.863,117.145c-.469-9.716-2.403-19.014-5.577-27.691-4.079-2.6-9.71-5.34-16.998-7.109,1.859,2.121,3.219,4.85,3.96,6.555,4.019,9.248,6.302,18.993,6.783,28.964,2.176,45.126-32.766,83.611-77.892,85.788-1.364,.065-2.726,.098-4.08,.098-21.266,0-41.271-8.057-56.718-22.935-1.94-1.869-1.998-4.957-.129-6.896,.235-.244,.488-.457,.757-.642,1.869-1.284,4.443-1.123,6.141,.512,14.473,13.941,33.497,21.086,53.56,20.117,39.753-1.918,70.535-35.82,68.617-75.573-.424-8.79-2.438-17.384-5.985-25.545-.269-.619-.555-1.198-.837-1.719-.207,1.528-.387,3.673-.5,6.676-.037,.994-.072,1.783-.12,2.257l-.136,1.387c-1.216,12.489-4.048,41.55-23.915,41.551-.223,0-.447-.003-.674-.011-5.017-.163-9.007-1.84-11.857-4.984-.445-.493-.859-1.014-1.24-1.566-4.906,7.575-12.522,11.62-20.65,10.592-4.074-.516-7.215-2.208-9.339-5.026-4.146-5.502-3.058-13.405-1.869-21.126,.033-.214,.066-.428,.099-.641,.699-4.517,1.655-10.706,.412-12.629-.607-.938-2.062-1.59-3.62-1.62-6.195-.162-10.557,5.642-12.417,10.611-1.305,3.484-2.277,7.371-3.001,11.268-.125,1.738-.255,3.466-.387,5.161-.832,10.703-1.725,19.967-1.736,20.086-.25,2.574-2.471,4.49-5.048,4.404-2.584-.102-4.639-2.202-4.685-4.788-.008-.442-.08-5.585,.462-12.584,.315-4.067,.836-8.758,1.702-13.527,.084-1.18,.165-2.36,.243-3.532,.355-5.38-.361-9.22-2.069-11.105-.651-.719-1.872-1.686-4.943-1.786-4.794-.188-8.519,4.161-11.103,12.821-2.889,9.678-3.918,20.339-4.724,30.435l-.004,.048c-.095,1.198-.183,2.397-.261,3.596-.012,.184-.035,.366-.067,.547-.534,2.96-2.282,5.26-4.796,6.308-.717,.3-1.462,.47-2.217,.54-1.884,.175-3.834-.345-5.585-1.549-.651-.447-1.253-1.009-1.819-1.62-6.101,1.359-11.01,.734-15.718-3.439,14.784,35.321,50.478,59.344,90.937,57.392,51.671-2.492,91.538-46.401,89.045-98.071Z" fill="#770f00"/>
    <path d="M113.791,28.1C62.12,30.592,22.253,74.5,24.746,126.171c.541,11.212,3.037,21.865,7.134,31.653,4.708,4.173,9.618,4.798,15.718,3.439-1.999-2.157-3.461-5.06-4.237-6.847-4.02-9.247-6.302-18.993-6.783-28.965-2.176-45.125,32.766-83.609,77.892-85.787,21.688-1.058,42.555,6.375,58.713,20.897,2.003,1.802,2.168,4.886,.367,6.889-.235,.261-.493,.487-.766,.685-1.823,1.323-4.381,1.247-6.123-.318-14.234-12.794-32.601-19.324-51.722-18.409-39.753,1.918-70.535,35.82-68.617,75.573,.423,8.79,2.437,17.384,5.985,25.545,.133,.308,.271,.606,.41,.89,.835-10.258,1.962-21.059,5.003-31.249,4.996-16.742,14.032-19.999,20.769-19.781,5.018,.163,9.006,1.84,11.856,4.984,.453,.499,.872,1.03,1.258,1.592,4.495-6.847,11.349-10.981,18.639-10.787,4.879,.094,9.224,2.365,11.623,6.076,2.106,3.257,2.391,7.329,2.028,11.793-.199,2.447-.586,5.006-.991,7.623-.83,5.365-1.861,12.042-.08,14.405,.179,.238,.722,.96,2.772,1.218,6.642,.845,11.267-4.881,13.376-10.514,1.304-3.486,2.277-7.375,3.002-11.272,.331-4.613,.7-9.178,1.036-13.138,.589-6.946,1.078-12.017,1.086-12.105,.249-2.575,2.439-4.515,5.048-4.404,2.584,.102,4.639,2.202,4.685,4.788,.005,.272,.033,2.335-.071,5.501-.163,4.97-.654,12.68-2.092,20.605-.084,1.181-.165,2.364-.243,3.537-.355,5.38,.361,9.22,2.069,11.105,.651,.719,1.871,1.686,4.943,1.786,11.284,.344,13.599-22.827,14.564-32.736l.139-1.413c.035-.347,.05-.924,.078-1.65,.164-4.38,.45-8.571,1.505-11.881,.864-2.709,2.242-4.83,4.504-5.967,.565-.285,1.371-.58,2.352-.692,1.509-.173,3.441,.098,5.616,1.592,.756,.519,1.454,1.181,2.096,1.912,7.288,1.769,12.919,4.509,16.998,7.109-13.704-37.473-50.54-63.378-92.495-61.354Z" fill="#ae1f09"/>
    <path d="M200.031,117.864c-.481-9.971-2.764-19.716-6.783-28.964-.741-1.705-2.101-4.434-3.96-6.555-.641-.732-1.34-1.393-2.096-1.912-2.175-1.494-4.107-1.765-5.616-1.592-.98,.112-1.786,.408-2.352,.692-2.263,1.137-3.641,3.258-4.504,5.967-1.055,3.31-1.341,7.501-1.505,11.881-.027,.725-.043,1.302-.078,1.65l-.139,1.413c-.965,9.908-3.28,33.08-14.564,32.736-3.072-.099-4.293-1.067-4.943-1.786-1.709-1.885-2.424-5.725-2.069-11.105,.078-1.173,.159-2.356,.243-3.537,1.438-7.925,1.929-15.635,2.092-20.605,.104-3.165,.076-5.229,.071-5.501-.046-2.586-2.101-4.686-4.685-4.788-2.609-.11-4.799,1.829-5.048,4.404-.008,.088-.497,5.158-1.086,12.105-.336,3.961-.704,8.526-1.036,13.138-.725,3.897-1.697,7.786-3.002,11.272-2.11,5.633-6.734,11.359-13.376,10.514-2.05-.259-2.593-.98-2.772-1.218-1.781-2.363-.749-9.04,.08-14.405,.405-2.617,.792-5.177,.991-7.623,.363-4.464,.078-8.537-2.028-11.793-2.399-3.71-6.745-5.982-11.623-6.076-7.29-.193-14.144,3.94-18.639,10.787-.387-.562-.806-1.093-1.258-1.592-2.85-3.144-6.838-4.821-11.856-4.984-6.736-.218-15.773,3.039-20.769,19.781-3.041,10.19-4.168,20.991-5.003,31.249-.139-.284-.277-.582-.41-.89-3.548-8.161-5.562-16.756-5.985-25.545-1.918-39.753,28.864-73.655,68.617-75.573,19.121-.915,37.488,5.616,51.722,18.409,1.742,1.565,4.3,1.641,6.123,.318,.273-.198,.531-.424,.766-.685,1.801-2.003,1.637-5.088-.367-6.889-16.159-14.522-37.025-21.955-58.713-20.897-45.127,2.178-80.069,40.662-77.892,85.787,.48,9.972,2.763,19.719,6.783,28.965,.777,1.787,2.238,4.69,4.237,6.847,.566,.611,1.169,1.173,1.819,1.62,1.751,1.204,3.7,1.724,5.585,1.549,.755-.07,1.5-.24,2.217-.54,2.513-1.048,4.261-3.348,4.796-6.308,.033-.181,.055-.363,.067-.547,.078-1.199,.166-2.398,.261-3.596l.004-.048c.805-10.096,1.835-20.757,4.724-30.435,2.584-8.66,6.31-13.009,11.103-12.821,3.071,.099,4.292,1.067,4.943,1.786,1.709,1.885,2.424,5.724,2.069,11.105-.078,1.172-.159,2.352-.243,3.532-.865,4.769-1.387,9.459-1.702,13.527-.542,6.999-.47,12.142-.462,12.584,.046,2.586,2.101,4.686,4.685,4.788,2.577,.086,4.798-1.831,5.048-4.404,.011-.119,.904-9.383,1.736-20.086,.132-1.696,.262-3.424,.387-5.161,.724-3.897,1.696-7.784,3.001-11.268,1.86-4.969,6.222-10.773,12.417-10.611,1.558,.03,3.013,.682,3.62,1.62,1.243,1.923,.286,8.112-.412,12.629-.033,.213-.066,.427-.099,.641-1.19,7.721-2.277,15.625,1.869,21.126,2.124,2.819,5.266,4.51,9.339,5.026,8.128,1.029,15.744-3.016,20.65-10.592,.381,.553,.795,1.074,1.24,1.566,2.85,3.144,6.839,4.821,11.857,4.984,.227,.008,.451,.011,.674,.011,19.868-.001,22.699-29.062,23.915-41.551l.136-1.387c.048-.474,.083-1.263,.12-2.257,.113-3.002,.293-5.147,.5-6.676,.282,.521,.568,1.1,.837,1.719,3.547,8.161,5.561,16.756,5.985,25.545,1.918,39.753-28.864,73.655-68.617,75.573-20.063,.969-39.087-6.176-53.56-20.117-1.698-1.635-4.272-1.796-6.141-.512-.268,.184-.522,.398-.757,.642-1.869,1.939-1.811,5.028,.129,6.896,15.446,14.877,35.451,22.935,56.718,22.935,1.354,0,2.717-.033,4.08-.098,45.127-2.178,80.069-40.662,77.892-85.788Z" fill="#fff"/>
  </g>
</svg>