<svg version="1.1" viewBox="0 0 253.8 389.20001" xmlns="http://www.w3.org/2000/svg">
  <g id="g54" transform="translate(-204.4,-141.4)" style="fill:#fff">
    <path d="m 236.4,154 c -0.6,-0.9 -1.3,-1.7 -2.1,-2.4 -0.9,-0.7 -1.8,-1.2 -2.9,-1.6 -1.1,-0.4 -2.2,-0.6 -3.4,-0.6 -2.2,0 -4,0.4 -5.5,1.3 -1.5,0.8 -2.7,2 -3.7,3.4 -0.9,1.4 -1.6,3 -2,4.8 -0.4,1.8 -0.6,3.6 -0.6,5.6 0,1.8 0.2,3.6 0.6,5.4 0.4,1.7 1.1,3.3 2,4.7 0.9,1.4 2.2,2.5 3.7,3.3 1.5,0.8 3.3,1.3 5.5,1.3 2.9,0 5.2,-0.9 6.9,-2.7 1.7,-1.8 2.7,-4.2 3,-7.1 h 9.3 c -0.2,2.7 -0.9,5.2 -1.9,7.4 -1,2.2 -2.4,4.1 -4,5.6 -1.7,1.5 -3.6,2.7 -5.9,3.5 -2.2,0.8 -4.7,1.2 -7.4,1.2 -3.3,0 -6.4,-0.6 -9,-1.7 -2.7,-1.2 -4.9,-2.8 -6.8,-4.8 -1.8,-2 -3.2,-4.4 -4.2,-7.2 -1,-2.7 -1.5,-5.7 -1.5,-8.9 0,-3.3 0.5,-6.3 1.5,-9.1 1,-2.8 2.4,-5.2 4.2,-7.3 1.8,-2.1 4.1,-3.7 6.8,-4.9 2.7,-1.2 5.7,-1.8 9,-1.8 2.4,0 4.7,0.3 6.8,1 2.1,0.7 4.1,1.7 5.7,3 1.7,1.3 3.1,3 4.2,4.9 1.1,2 1.8,4.2 2.1,6.7 h -9.3 c -0.2,-1.1 -0.5,-2.1 -1.1,-3"/>
    <path d="m 260.8,178.4 c 1.3,1.3 3.2,1.9 5.6,1.9 1.8,0 3.3,-0.4 4.5,-1.3 1.3,-0.9 2,-1.8 2.3,-2.8 h 7.6 c -1.2,3.8 -3.1,6.5 -5.6,8.1 -2.5,1.6 -5.6,2.4 -9.2,2.4 -2.5,0 -4.7,-0.4 -6.7,-1.2 -2,-0.8 -3.7,-1.9 -5.1,-3.4 -1.4,-1.5 -2.5,-3.2 -3.2,-5.3 -0.8,-2 -1.1,-4.3 -1.1,-6.7 0,-2.4 0.4,-4.6 1.2,-6.6 0.8,-2 1.9,-3.8 3.3,-5.3 1.4,-1.5 3.1,-2.7 5.1,-3.5 2,-0.9 4.2,-1.3 6.6,-1.3 2.7,0 5,0.5 7,1.6 2,1 3.6,2.4 4.9,4.2 1.3,1.8 2.2,3.8 2.8,6 0.6,2.2 0.8,4.6 0.6,7 h -22.8 c 0.2,2.9 0.9,4.9 2.2,6.2 m 9.9,-16.6 c -1,-1.1 -2.6,-1.7 -4.7,-1.7 -1.4,0 -2.5,0.2 -3.5,0.7 -0.9,0.5 -1.6,1.1 -2.2,1.7 -0.5,0.7 -0.9,1.4 -1.2,2.2 -0.2,0.8 -0.4,1.5 -0.4,2.1 h 14.1 c -0.4,-2.2 -1.1,-3.9 -2.1,-5"/>
    <path d="m 293.7,154.4 v 5.9 h 0.1 c 0.4,-1 1,-1.9 1.6,-2.7 0.7,-0.8 1.5,-1.5 2.4,-2.1 0.9,-0.6 1.9,-1 2.9,-1.4 1,-0.3 2.1,-0.5 3.2,-0.5 0.6,0 1.2,0.1 1.9,0.3 v 8.1 c -0.4,-0.1 -0.9,-0.2 -1.5,-0.2 -0.6,-0.1 -1.1,-0.1 -1.6,-0.1 -1.6,0 -2.9,0.3 -4,0.8 -1.1,0.5 -2,1.3 -2.7,2.2 -0.7,0.9 -1.2,2 -1.4,3.2 -0.3,1.2 -0.4,2.5 -0.4,4 V 186 h -8.7 v -31.6 z"/>
    <path d="m 329,154.4 v 5.8 h -6.4 v 15.7 c 0,1.5 0.2,2.4 0.7,2.9 0.5,0.5 1.5,0.7 2.9,0.7 0.5,0 1,0 1.4,-0.1 0.4,0 0.9,-0.1 1.3,-0.2 v 6.7 c -0.7,0.1 -1.6,0.2 -2.4,0.2 -0.9,0 -1.8,0.1 -2.6,0.1 -1.3,0 -2.6,-0.1 -3.8,-0.3 -1.2,-0.2 -2.3,-0.5 -3.2,-1.1 -0.9,-0.5 -1.6,-1.3 -2.2,-2.3 -0.5,-1 -0.8,-2.3 -0.8,-3.8 V 160 h -5.3 v -5.8 h 5.3 v -9.5 h 8.7 v 9.5 h 6.4 z"/>
    <path d="m 333.4,142.3 h 8.7 v 7.2 h -8.7 z m 8.7,43.7 h -8.7 v -31.6 h 8.7 z"/>
    <path d="m 345.7,160.2 v -5.8 h 5.2 V 152 c 0,-2.8 0.9,-5.1 2.6,-6.9 1.8,-1.8 4.4,-2.7 8,-2.7 0.8,0 1.5,0 2.3,0.1 0.8,0.1 1.5,0.1 2.3,0.2 v 6.5 c -1,-0.1 -2.1,-0.2 -3.2,-0.2 -1.2,0 -2,0.3 -2.5,0.8 -0.5,0.5 -0.8,1.5 -0.8,2.8 v 1.9 h 6 v 5.8 h -6 V 186 h -8.7 v -25.8 z"/>
    <path d="m 370.8,142.3 h 8.7 v 7.2 h -8.7 z m 8.7,43.7 h -8.7 v -31.6 h 8.7 z"/>
    <path d="m 393.2,178.4 c 1.3,1.3 3.2,1.9 5.6,1.9 1.8,0 3.3,-0.4 4.5,-1.3 1.3,-0.9 2,-1.8 2.3,-2.8 h 7.6 c -1.2,3.8 -3.1,6.5 -5.6,8.1 -2.5,1.6 -5.6,2.4 -9.2,2.4 -2.5,0 -4.7,-0.4 -6.7,-1.2 -2,-0.8 -3.7,-1.9 -5.1,-3.4 -1.4,-1.5 -2.5,-3.2 -3.2,-5.3 -0.8,-2 -1.1,-4.3 -1.1,-6.7 0,-2.4 0.4,-4.6 1.2,-6.6 0.8,-2 1.9,-3.8 3.3,-5.3 1.4,-1.5 3.1,-2.7 5.1,-3.5 2,-0.9 4.2,-1.3 6.6,-1.3 2.7,0 5,0.5 7,1.6 2,1 3.6,2.4 4.9,4.2 1.3,1.8 2.2,3.8 2.8,6 0.6,2.2 0.8,4.6 0.6,7 H 391 c 0.2,2.9 0.9,4.9 2.2,6.2 m 9.8,-16.6 c -1,-1.1 -2.6,-1.7 -4.7,-1.7 -1.4,0 -2.5,0.2 -3.5,0.7 -0.9,0.5 -1.7,1.1 -2.2,1.7 -0.6,0.7 -0.9,1.4 -1.2,2.2 -0.2,0.8 -0.4,1.5 -0.4,2.1 h 14.1 c -0.3,-2.2 -1.1,-3.9 -2.1,-5"/>
    <path d="m 440.2,181.9 c -1,1.7 -2.4,2.9 -4,3.7 -1.7,0.8 -3.5,1.1 -5.6,1.1 -2.4,0 -4.4,-0.5 -6.2,-1.4 -1.8,-0.9 -3.3,-2.2 -4.4,-3.7 -1.2,-1.6 -2,-3.4 -2.6,-5.4 -0.6,-2 -0.9,-4.2 -0.9,-6.4 0,-2.1 0.3,-4.2 0.9,-6.1 0.6,-2 1.5,-3.7 2.6,-5.2 1.2,-1.5 2.6,-2.7 4.4,-3.6 1.8,-0.9 3.8,-1.4 6.1,-1.4 1.9,0 3.7,0.4 5.3,1.2 1.7,0.8 3,2 4,3.5 h 0.1 v -15.9 h 8.7 V 186 h -8.3 v -4 h -0.1 z m -0.4,-15.6 c -0.2,-1.2 -0.7,-2.3 -1.3,-3.2 -0.6,-0.9 -1.4,-1.7 -2.3,-2.2 -0.9,-0.6 -2.1,-0.9 -3.5,-0.9 -1.4,0 -2.6,0.3 -3.6,0.9 -1,0.6 -1.8,1.3 -2.4,2.3 -0.6,0.9 -1,2 -1.3,3.2 -0.3,1.2 -0.4,2.5 -0.4,3.8 0,1.2 0.1,2.4 0.4,3.7 0.3,1.2 0.8,2.3 1.4,3.3 0.6,1 1.4,1.7 2.4,2.3 1,0.6 2.1,0.9 3.5,0.9 1.4,0 2.6,-0.3 3.6,-0.9 1,-0.6 1.7,-1.3 2.3,-2.3 0.6,-1 1,-2 1.2,-3.3 0.2,-1.2 0.4,-2.5 0.4,-3.8 0,-1.3 -0.1,-2.6 -0.4,-3.8"/>
    <path d="m 275.5,257 h 50.6 c 12.3,0 28.5,0 36.9,5.1 9.2,5.5 16.4,15.4 16.4,29.1 0,14.8 -7.8,26 -20.7,31.3 v 0.4 c 17.2,3.5 26.6,16.4 26.6,33.6 0,20.5 -14.7,40.1 -42.4,40.1 h -67.4 z m 18.6,60 h 37.2 c 21.1,0 29.7,-7.6 29.7,-22.3 0,-19.4 -13.7,-22.1 -29.7,-22.1 h -37.2 z m 0,63.9 h 46.5 c 16,0 26.2,-9.8 26.2,-25 0,-18.2 -14.7,-23.3 -30.3,-23.3 h -42.4 z"/>
    <path d="m 432.8,326.8 c 0,58.6 -47.5,106.1 -106.2,106.1 -58.6,0 -106.1,-47.5 -106.1,-106.1 0,-58.6 47.5,-106.1 106.1,-106.1 58.7,0 106.2,47.5 106.2,106.1 M 326.7,204.5 c -67.5,0 -122.3,54.7 -122.3,122.3 0,67.5 54.7,122.3 122.3,122.3 67.5,0 122.3,-54.7 122.3,-122.3 0,-67.6 -54.8,-122.3 -122.3,-122.3"/>
    <path d="m 227,475.4 c -0.4,-3.1 -3.4,-5.4 -6.8,-5.4 -6.1,0 -8.4,5.2 -8.4,10.6 0,5.1 2.3,10.3 8.4,10.3 4.2,0 6.5,-2.9 7,-6.9 h 6.6 c -0.7,7.7 -6,12.6 -13.6,12.6 -9.6,0 -15.2,-7.1 -15.2,-16.1 0,-9.2 5.6,-16.3 15.2,-16.3 6.8,0 12.5,4 13.3,11.1 H 227 Z"/>
    <path d="m 248,473 c 7.1,0 11.6,4.7 11.6,11.8 0,7.1 -4.5,11.8 -11.6,11.8 -7,0 -11.6,-4.7 -11.6,-11.8 0.1,-7.2 4.6,-11.8 11.6,-11.8 m 0,18.9 c 4.2,0 5.5,-3.6 5.5,-7.1 0,-3.6 -1.3,-7.2 -5.5,-7.2 -4.2,0 -5.4,3.6 -5.4,7.2 0,3.5 1.3,7.1 5.4,7.1"/>
    <path d="m 263.2,473.6 h 5.8 v 4.2 h 0.1 c 1.1,-2.8 4.2,-4.8 7.1,-4.8 0.4,0 0.9,0.1 1.3,0.2 v 5.7 c -0.6,-0.1 -1.5,-0.2 -2.2,-0.2 -4.5,0 -6.1,3.2 -6.1,7.2 V 496 h -6.1 v -22.4 z"/>
    <path d="m 280.9,473.6 h 5.8 v 2.9 h 0.1 c 1.5,-2.4 3.9,-3.5 6.7,-3.5 7,0 10.2,5.7 10.2,12 0,6 -3.3,11.6 -9.8,11.6 -2.7,0 -5.2,-1.2 -6.7,-3.4 H 287 v 10.7 h -6.1 z m 16.6,11.2 c 0,-3.6 -1.4,-7.2 -5.4,-7.2 -4,0 -5.3,3.6 -5.3,7.2 0,3.6 1.4,7.1 5.4,7.1 4,0 5.3,-3.4 5.3,-7.1"/>
    <path d="m 318.2,473 c 7.1,0 11.6,4.7 11.6,11.8 0,7.1 -4.6,11.8 -11.6,11.8 -7,0 -11.6,-4.7 -11.6,-11.8 0,-7.2 4.6,-11.8 11.6,-11.8 m 0,18.9 c 4.2,0 5.5,-3.6 5.5,-7.1 0,-3.6 -1.3,-7.2 -5.5,-7.2 -4.2,0 -5.4,3.6 -5.4,7.2 0,3.5 1.2,7.1 5.4,7.1"/>
    <path d="m 333.9,473.6 h 5.8 v 4.2 h 0.1 c 1.1,-2.8 4.2,-4.8 7.1,-4.8 0.4,0 1,0.1 1.3,0.2 v 5.7 c -0.6,-0.1 -1.5,-0.2 -2.2,-0.2 -4.5,0 -6.1,3.2 -6.1,7.2 V 496 h -6.1 v -22.4 z"/>
    <path d="m 350.5,480.5 c 0.4,-5.8 5.5,-7.5 10.5,-7.5 4.5,0 9.8,1 9.8,6.4 V 491 c 0,2 0.2,4.1 0.8,5 h -6.2 c -0.2,-0.7 -0.4,-1.4 -0.4,-2.2 -1.9,2 -4.8,2.8 -7.5,2.8 -4.2,0 -7.6,-2.1 -7.6,-6.7 0,-5.1 3.8,-6.3 7.6,-6.8 3.8,-0.6 7.3,-0.4 7.3,-2.9 0,-2.6 -1.8,-3 -4,-3 -2.3,0 -3.9,0.9 -4.1,3.4 h -6.2 z m 14.2,4.5 c -1,0.9 -3.2,1 -5.1,1.3 -1.9,0.4 -3.6,1 -3.6,3.3 0,2.3 1.8,2.9 3.8,2.9 4.8,0 5,-3.8 5,-5.1 V 485 Z"/>
    <path d="m 383.4,473.6 h 4.5 v 4.1 h -4.5 v 11.1 c 0,2.1 0.5,2.6 2.6,2.6 0.7,0 1.3,0 1.9,-0.2 v 4.8 c -1,0.2 -2.4,0.2 -3.6,0.2 -3.8,0 -7,-0.9 -7,-5.3 v -13.2 h -3.7 v -4.1 h 3.7 v -6.7 h 6.1 z"/>
    <path d="M 397.1,470.1 H 391 V 465 h 6.1 z m -6.1,3.5 h 6.1 V 496 H 391 Z"/>
    <path d="m 412,473 c 7.1,0 11.6,4.7 11.6,11.8 0,7.1 -4.6,11.8 -11.6,11.8 -7,0 -11.5,-4.7 -11.5,-11.8 C 400.4,477.6 405,473 412,473 m 0,18.9 c 4.2,0 5.5,-3.6 5.5,-7.1 0,-3.6 -1.2,-7.2 -5.5,-7.2 -4.2,0 -5.4,3.6 -5.4,7.2 0,3.5 1.2,7.1 5.4,7.1"/>
    <path d="m 427.5,473.6 h 5.8 v 3.1 h 0.1 c 1.6,-2.5 4.2,-3.7 6.8,-3.7 6.5,0 8.2,3.7 8.2,9.2 V 496 h -6.1 v -12.6 c 0,-3.7 -1.1,-5.5 -3.9,-5.5 -3.3,0 -4.8,1.9 -4.8,6.4 V 496 h -6.1 z"/>
    <path d="M204.9 515H448.6V530.6H204.9z"/>
    <path d="m 452.1,464.1 h -1.4 V 468 H 450 v -3.9 h -1.4 v -0.6 h 3.6 v 0.6 z m 6,3.9 h -0.7 v -3.8 0 l -1.5,3.8 h -0.5 l -1.5,-3.8 v 0 3.8 h -0.8 v -4.5 h 1.2 l 1.4,3.4 1.3,-3.4 h 1.2 v 4.5 z"/>
  </g>
</svg>
