<svg viewBox="0 0 621.57855 269.8667" xmlns="http://www.w3.org/2000/svg">
  <path style="fill:#fff" d="m 279.20477,239.73352 c -73.91329,2.4e-4 -133.83179,59.91874 -133.83203,133.83203 v 134 h 50.30078 v -134 c 4.7e-4,-46.13253 37.39872,-83.52991 83.53125,-83.5293 46.13176,4.7e-4 83.52883,37.39754 83.5293,83.5293 l 5.4e-4,134.00024 50.30219,-2.4e-4 v -134 C 413.03656,299.65226 353.11806,239.73376 279.20477,239.73352 Z" transform="translate(-145.37274,-238.3324)"/>
  <g style="fill:#009444">
    <path d="M279.205 457.097c-29.677-23.163-56.797-49.338-78.615-79.081 29.547 22.194 56.647 49.167 78.615 79.081zM279.565 417.333c-25.537-19.895-44.437-38.353-66.488-66.096 28.135 22.466 46.535 40.103 66.488 66.096zM280.218 378.765c-20.399-15.211-37.941-33.151-49.933-50.473 17.377 12.277 35.579 27.992 49.933 50.473zM280.059 336.295c-13.825-8.999-26.38-20.695-33.066-33.085 12.707 7.28 23.499 18.105 33.066 33.085z" transform="translate(-145.37274,-238.3324)"/>
    <path d="M279.205 239.734c-73.913 0-133.832 59.919-133.832 133.832 0 73.913 59.919 133.832 133.832 133.832V457.097c-46.133.001-83.532-37.398-83.531-83.531 0-46.133 37.399-83.53 83.531-83.529zM362.735 373.567c0 46.132-37.398 83.53-83.53 83.53V290.037c46.132 0 83.53 37.398 83.53 83.53z" transform="translate(-145.37274,-238.3324)"/>
  </g>
  <path d="M279.205 457.097c-29.677-23.163-56.797-49.338-78.615-79.081 29.547 22.194 56.647 49.167 78.615 79.081zM279.565 417.333c-25.537-19.895-44.437-38.353-66.488-66.096 28.135 22.466 46.535 40.103 66.488 66.096zM280.218 378.765c-20.399-15.211-37.941-33.151-49.933-50.473 17.377 12.277 35.579 27.992 49.933 50.473zM280.059 336.295c-13.825-8.999-26.38-20.695-33.066-33.085 12.707 7.28 23.499 18.105 33.066 33.085z" transform="translate(-145.37274,-238.3324) matrix(-1,0,0,1,558.40954,0)" style="fill:#fff"/>
  <g style="fill:#fff">
    <path d="m494.842 296.712-9.996-22.344q-1.26-2.772-2.52-5.544-1.176-2.856-2.268-5.376-1.092-2.604-1.932-4.704-.756-2.016-1.176-3.192.168 1.596.252 3.612.084 2.1.168 4.284.084 2.184.084 4.368.084 2.1.084 3.948l.336 24.948h-11.34v-58.38h13.02l11.172 23.352q2.184 4.704 3.78 9.072 1.68 4.284 2.604 7.476-.168-1.68-.336-3.78-.168-2.184-.336-4.368-.084-2.268-.168-4.284-.084-2.1-.084-3.612l-.252-23.856h11.172v58.38zM527.956 278.736v.336q0 5.04 2.352 7.728 2.352 2.688 6.72 2.688 5.712 0 10.92-4.284l4.368 6.72q-7.308 5.964-16.212 5.964-4.62 0-8.4-1.596-3.78-1.596-6.468-4.452-2.604-2.94-4.032-7.056-1.428-4.116-1.428-9.156 0-5.796 1.26-9.828 1.26-4.032 4.116-7.224 2.688-2.94 5.964-4.368 3.276-1.428 7.56-1.428 3.78 0 7.056 1.176 3.276 1.176 5.376 3.36 2.94 3.024 4.284 7.56 1.428 4.452 1.428 11.256v2.604zm13.188-8.736q0-2.436-.336-3.864-.252-1.428-1.008-2.604-1.68-2.52-4.956-2.52-3.192 0-4.956 2.436-1.764 2.352-1.764 6.888v.168h13.02zM581.734 295.788q-4.704 1.932-9.156 1.932-4.284 0-7.476-1.68-3.108-1.764-4.116-4.62-.252-.672-.42-1.26-.168-.588-.252-1.26 0-.672-.084-1.596 0-1.008 0-2.52v-23.352h-4.284v-7.728h4.284q0-3.192 0-5.46.084-2.268.42-4.704l11.424-2.856q-.336 2.94-.504 6.384-.168 3.36-.168 6.636h10.08l-2.856 7.728h-7.224v21.588q0 4.116.924 5.544 1.008 1.344 3.948 1.344.756 0 1.596-.168.924-.252 2.436-.672zM506.942 389.089q-3.5 2.833-7.333 4.167-3.75 1.25-8.75 1.25-11.917 0-18.917-8-7-7.833-7-20.75 0-10.667 3.917-18 3.417-6.333 9.25-9.833 5.833-3.583 12.917-3.583 4.333 0 8.25 1.25 4 1.25 6.417 3.333l-5.25 7.917q-4.417-3.25-9.25-3.25-2.917 0-5.583 1.333-2.667 1.333-4.25 3.667-3.25 4.833-3.25 14.917 0 6 .5 9.583.583 3.5 1.917 5.917 3.583 6.5 11.167 6.5 2.583 0 4.917-.833 2.417-.833 5-2.917zM541.066 395.673q-1.917-.833-3.583-2.167-1.583-1.333-2.417-3-.667.667-1.333 1.25-.583.583-1.25 1-3.25 2.333-8.583 2.333-7.167 0-10.917-3.417-3.75-3.5-3.75-9.917 0-7.583 5.083-11.083 5.167-3.583 15.417-3.583h1.25q.583 0 1.25.083v-1.75q0-3.583-1-4.917-.917-1.417-4-1.417-2.667 0-5.75 1.25-3.083 1.25-6.583 3.583l-4.75-8q1.667-1.083 3.167-1.833 1.5-.75 3.75-1.667 3.167-1.333 5.917-1.917 2.833-.583 5.75-.583 5.417 0 8.917 1.917 3.583 1.917 4.833 5.5.25.667.333 1.333.167.583.25 1.417.167.833.167 2v2.917l-.25 14.333q0 1.75.083 3.083.083 1.25.5 2.333.417 1.083 1.167 2.083.833.917 2.25 2zm-9.5-20.833q-5.833 0-8.167 1.333-2.25 1.333-2.25 5.167 0 2.5 1.333 4.083 1.417 1.5 3.583 1.5 1.583 0 3.083-.75 1.5-.75 2.75-2.167l.167-9.167zM575.439 360.589q-1.583-.833-3.25-.833-3.75 0-6.833 3.583v30.167h-11.167v-28.5q0-4.333-.5-7.5-.417-3.167-1.083-5l10-2.667q1.5 2.667 1.75 6.083 1.833-2.417 4.333-4.25 2.5-1.833 5.667-1.833 1.25 0 2 .167.833.167 2.167.75zM619.312 371.423q0 6.5-2 11.5-1.917 4.917-5.917 8.083-2.167 1.75-4.417 2.5-2.25.833-4.917.833-3.167 0-5.417-.917-2.25-1-4.083-3-.25 1.167-.417 1.667-.167.5-.75 1.417h-10q.333-.75.5-1.417.25-.667.333-1.583.167-1 .167-2.417.083-1.417.083-3.667v-39.5q0-4-.167-6.333-.167-2.333-.583-4.167l11.417-2.667q.25 2.167.333 3.833.083 1.583.083 3.75v10.083q0 .917-.083 2.083 0 1.167-.167 1.667 3.167-3.417 9.083-3.417 3.917 0 7 1.5 3.167 1.5 5.333 4.333 2.25 2.833 3.417 6.833 1.167 4 1.167 9zm-12.667.25q0-2.917-.083-4.333-.083-1.5-.417-2.917-.667-2.75-2.333-4.083-1.583-1.333-3.75-1.333-2.167 0-3.75 1.167-1.5 1.083-2.583 2.25v19.667q1.167 1 2.583 1.917 1.417.833 3.667.833 4.083 0 5.417-3.333.75-1.75 1-3.833.25-2.083.25-6zM663.519 372.006q0 5.5-1.333 9.417-1.25 3.917-4 7.083-2.417 2.75-5.75 4.333-3.333 1.583-8.333 1.583-4.333 0-7.917-1.583-3.5-1.583-6-4.417-2.5-2.917-3.917-7-1.333-4.083-1.333-9.083 0-5 1.333-9.083 1.417-4.167 3.917-7.083 2.5-3 6-4.583 3.583-1.583 7.917-1.583 9.083 0 14.5 6.417 2.583 3 3.75 6.667 1.167 3.667 1.167 8.917zm-12.167-.083q0-8.5-2.25-11.417-1.75-2.25-4.833-2.25-2 0-3.583 1.167-1.5 1.167-2.167 3.167-.583 1.667-.917 4-.25 2.333-.25 5.5 0 7.417 1.417 10.75.75 1.75 2.333 2.667 1.667.833 3.333.833 3.667 0 5.25-3.417 1.667-3.417 1.667-11zM694.309 393.506v-27.75q0-3.667-.833-4.917-.75-1.333-2.917-1.333-1.667 0-3.75 1.083-2.083 1-4 2.75v30.167h-11.167v-30.917q0-2.75-.417-5.25-.333-2.583-1.083-4.75l9.917-2.833q1.583 2.75 1.583 5.333 1.25-.917 2.333-1.667 1.167-.75 2.583-1.5 1.667-.917 3.667-1.333 2.083-.5 4-.5 3.583 0 6.417 1.75 2.833 1.667 3.833 4.417.833 2.25.833 6.083v31.167zM495.255 491.866l-9.917-22.167q-1.25-2.75-2.5-5.5-1.167-2.833-2.25-5.333-1.083-2.583-1.917-4.667-.75-2-1.167-3.167.167 1.583.25 3.583.083 2.083.167 4.25.083 2.167.083 4.333.083 2.083.083 3.917l.333 24.75h-11.25v-57.917h12.917l11.083 23.167q2.167 4.667 3.75 9 1.667 4.25 2.583 7.417-.167-1.667-.333-3.75-.167-2.167-.333-4.333-.083-2.25-.167-4.25-.083-2.083-.083-3.583l-.25-23.667h11.083v57.917zM528.045 474.032v.333q0 5 2.333 7.667 2.333 2.667 6.667 2.667 5.667 0 10.833-4.25l4.333 6.667q-7.25 5.917-16.083 5.917-4.583 0-8.333-1.583-3.75-1.583-6.417-4.417-2.583-2.917-4-7-1.417-4.083-1.417-9.083 0-5.75 1.25-9.75 1.25-4 4.083-7.167 2.667-2.917 5.917-4.333 3.25-1.417 7.5-1.417 3.75 0 7 1.167 3.25 1.167 5.333 3.333 2.917 3 4.25 7.5 1.417 4.417 1.417 11.167v2.583zm13.083-8.667q0-2.417-.333-3.833-.25-1.417-1-2.583-1.667-2.5-4.917-2.5-3.167 0-4.917 2.417-1.75 2.333-1.75 6.833v.167h12.917zM602.252 453.866q-1.833 1.667-3.667 2.417-1.833.75-4.167.75-.833 0-1.667-.083-.75-.083-1.25-.167 1.25 1.5 1.833 3.167.667 1.667.667 3.833 0 2.75-1.167 5.083-1.167 2.333-3.333 4-2.083 1.667-5 2.667-2.833.917-6.25.917h-.75q-.25 0-.917-.083-2.167 1-3.333 1.833-1.083.75-1.083 1.667 0 1 1.833 1l6 .083q4.833.083 7.75.917 2.917.833 5.167 2.917 3.667 3.417 3.667 9.083 0 5.167-3.417 8.833-2.833 3-7.333 4.25-4.5 1.25-9.5 1.25-4.583 0-8.917-1-4.333-.917-7.25-3.583-3.5-3.25-3.5-7.583 0-1.75.333-2.75.333-.917.667-1.583h10.333q-.333.75-.417 1.25-.083.583-.083 1.5 0 2.583 2 3.917 2.083 1.333 6 1.333 2.167 0 3.917-.333 1.75-.25 3.083-1.083 1.25-.75 2-1.917.75-1.083.75-2.417 0-2.917-2.25-3.917-2.25-1.083-5.583-1.167l-4.75-.083q-7.333-.083-10.25-1.333-1.5-.583-2.417-2-.833-1.417-.833-3.583 0-1 .25-2 .25-1 1-1.917.833-.917 2.333-1.75 1.583-.833 4.25-1.5-9.167-2.333-9.167-11.833 0-3.25 1.25-5.917 1.333-2.667 3.667-4.5 2.333-1.917 5.667-2.917 3.333-1.083 7.417-1.083 1.833 0 3.583.25 1.75.25 4.083.833 1.75.417 2.917.667 1.25.25 2.333.25 2.333 0 4.583-.917 2.333-1 4.25-2.75zm-19.75 9.083q0-3-1.833-4.667-1.75-1.667-4.917-1.667-3.167 0-4.917 1.667-1.75 1.667-1.75 4.667 0 3.25 1.833 4.667 1.833 1.417 4.75 1.417 6.833 0 6.833-6.083zM633.542 494.032q-1.917-.833-3.583-2.167-1.583-1.333-2.417-3-.667.667-1.333 1.25-.583.583-1.25 1-3.25 2.333-8.583 2.333-7.167 0-10.917-3.417-3.75-3.5-3.75-9.917 0-7.583 5.083-11.083 5.167-3.583 15.417-3.583h1.25q.583 0 1.25.083v-1.75q0-3.583-1-4.917-.917-1.417-4-1.417-2.667 0-5.75 1.25-3.083 1.25-6.583 3.583l-4.75-8q1.667-1.083 3.167-1.833 1.5-.75 3.75-1.667 3.167-1.333 5.917-1.917 2.833-.583 5.75-.583 5.417 0 8.917 1.917 3.583 1.917 4.833 5.5.25.667.333 1.333.167.583.25 1.417.167.833.167 2v2.917l-.25 14.333q0 1.75.083 3.083.083 1.25.5 2.333.417 1.083 1.167 2.083.833.917 2.25 2zm-9.5-20.833q-5.833 0-8.167 1.333-2.25 1.333-2.25 5.167 0 2.5 1.333 4.083 1.417 1.5 3.583 1.5 1.583 0 3.083-.75 1.5-.75 2.75-2.167l.167-9.167zM667.998 490.949q-4.667 1.917-9.083 1.917-4.25 0-7.417-1.667-3.083-1.75-4.083-4.583-.25-.667-.417-1.25-.167-.583-.25-1.25 0-.667-.083-1.583 0-1 0-2.5V456.866h-4.25v-7.667h4.25q0-3.167 0-5.417.083-2.25.417-4.667l11.333-2.833q-.333 2.917-.5 6.333-.167 3.333-.167 6.583h10l-2.833 7.667h-7.167v21.417q0 4.083.917 5.5 1 1.333 3.917 1.333.75 0 1.583-.167.917-.25 2.417-.667zM674.455 491.866v-41.917l11.167-1.75v43.667zm12.5-54.417q0 2.917-2 4.917-2 2-4.917 2-2.833 0-4.833-2-2-2-2-4.917 0-2.917 2-4.917 2.083-2 5-2 2.833 0 4.75 2 2 2 2 4.917zM713.912 491.866h-9.25l-15.5-42 11.417-1.417 6.167 19.25q.333 1.083.667 2.417.417 1.333.75 2.75.417 1.417.75 2.75l.583 2.333q.25-1.917.917-4.75.667-2.917 1.667-6.083l5.75-17.917h11.667zM742.285 474.032v.333q0 5 2.333 7.667 2.333 2.667 6.667 2.667 5.667 0 10.833-4.25l4.333 6.667q-7.25 5.917-16.083 5.917-4.583 0-8.333-1.583-3.75-1.583-6.417-4.417-2.583-2.917-4-7-1.417-4.083-1.417-9.083 0-5.75 1.25-9.75 1.25-4 4.083-7.167 2.667-2.917 5.917-4.333 3.25-1.417 7.5-1.417 3.75 0 7 1.167 3.25 1.167 5.333 3.333 2.917 3 4.25 7.5 1.417 4.417 1.417 11.167v2.583zm13.083-8.667q0-2.417-.333-3.833-.25-1.417-1-2.583-1.667-2.5-4.917-2.5-3.167 0-4.917 2.417-1.75 2.333-1.75 6.833v.167h12.917z" transform="translate(-145.37274,-238.3324)"/>
  </g>
</svg>
