<svg xmlns="http://www.w3.org/2000/svg" xmlns:xlink="http://www.w3.org/1999/xlink" width="700" height="700" viewBox="0 0 700 700"><defs><radialGradient id="radial-gradient" cx="0.732" cy="0.883" r="0.979" gradientTransform="matrix(-0.31, -0.951, 1.047, -0.342, 0.034, 1.881)" gradientUnits="objectBoundingBox"><stop offset="0" stop-color="#eee9ea"></stop><stop offset="1" stop-color="#f7e8e4"></stop></radialGradient><radialGradient id="radial-gradient-2" cx="0.5" cy="0.5" r="0.5" gradientUnits="objectBoundingBox"><stop offset="0" stop-color="#57959f"></stop><stop offset="0.182" stop-color="#50939c"></stop><stop offset="0.36" stop-color="#2b8594"></stop><stop offset="0.516" stop-color="#2b8694"></stop><stop offset="0.798" stop-color="#235d70"></stop><stop offset="1" stop-color="#224f62"></stop></radialGradient><radialGradient id="radial-gradient-3" cx="0.821" cy="0.815" r="1.192" gradientTransform="matrix(-0.334, -0.943, 1.011, -0.358, 0.271, 1.88)" xlink:href="#radial-gradient-2"></radialGradient><clipPath id="clip-newsletter-background"><rect width="700" height="700"></rect></clipPath></defs><g id="newsletter-background" clip-path="url(#clip-newsletter-background)"><rect id="background" width="570" height="605" rx="270" transform="translate(65 48)" fill="url(#radial-gradient)"></rect><path id="wave3" d="M1915-14995h-30a271.707,271.707,0,0,1-54.416-5.485,268.3,268.3,0,0,1-50.681-15.732,270.153,270.153,0,0,1-45.866-24.894,272.173,272.173,0,0,1-39.956-32.97,272.151,272.151,0,0,1-32.73-39.605c10.107-1.3,20.2-3.019,29.988-5.095,10.153-2.153,20.223-4.739,29.932-7.684,10.078-3.054,20.088-6.581,29.752-10.484,9.958-4.018,19.86-8.558,29.432-13.494,9.827-5.07,19.574-10.694,28.971-16.718,9.655-6.194,19.2-12.977,28.38-20.157,9.424-7.377,18.728-15.388,27.655-23.81,9.182-8.665,18.2-17.974,26.792-27.667,9.926-11.2,20.461-21.968,31.312-32.01,10.535-9.762,21.672-19.116,33.1-27.8,11.068-8.418,22.719-16.44,34.629-23.845,11.5-7.155,23.575-13.93,35.89-20.134,11.817-5.961,24.227-11.571,36.887-16.675,12.232-4.926,24.891-9.454,37.624-13.459,12.38-3.9,25.195-7.432,38.088-10.5,12.47-2.968,25.355-5.585,38.3-7.778.524,2.273,1.007,4.486,1.434,6.58A272.06,272.06,0,0,1,2185-15330v65a272,272,0,0,1-5.485,54.416,268.818,268.818,0,0,1-15.732,50.682,269.656,269.656,0,0,1-24.893,45.862,271.99,271.99,0,0,1-32.97,39.96,271.6,271.6,0,0,1-39.96,32.97,269.9,269.9,0,0,1-45.862,24.894,268.386,268.386,0,0,1-50.685,15.732A271.627,271.627,0,0,1,1915-14995Z" transform="translate(-1550 15648)" fill="#488ca0" opacity="0.063"></path><path id="wave2" d="M1869.887-15080.475h-231.77c-1.48-.6-2.9-1.187-4.212-1.746a269.513,269.513,0,0,1-45.862-24.889,271.545,271.545,0,0,1-39.96-32.971,272.258,272.258,0,0,1-32.45-39.191,301.083,301.083,0,0,0,39.1,8.388,289.469,289.469,0,0,0,41.56,3.015,295.606,295.606,0,0,0,50.642-4.425c8.73-1.527,17.616-3.48,26.41-5.8,9.016-2.391,18.135-5.229,27.1-8.436,9.223-3.3,18.566-7.085,27.77-11.249,9.45-4.283,19.009-9.076,28.412-14.243,9.632-5.3,19.4-11.16,29.03-17.419,9.811-6.376,19.777-13.366,29.621-20.776,8.969-6.751,18.078-13.142,27.076-19,8.783-5.715,17.73-11.089,26.591-15.973,8.706-4.8,17.482-9.206,26.083-13.1,8.484-3.854,17.084-7.349,25.559-10.386a300.641,300.641,0,0,1,49.459-13.216,273.54,273.54,0,0,1,47.123-4.141c7.193,0,14.515.3,21.765.891a271.884,271.884,0,0,1-5.422,48.562,268.6,268.6,0,0,1-15.733,50.681,270.447,270.447,0,0,1-24.9,45.866,272.172,272.172,0,0,1-32.966,39.956,271.816,271.816,0,0,1-39.96,32.971,269.411,269.411,0,0,1-45.866,24.889c-1.131.485-2.39,1.007-4.208,1.746h0Z" transform="translate(-1404 15714)" opacity="0.085" fill="url(#radial-gradient-2)"></path><path id="wave1" d="M2013-15022h-30a271.9,271.9,0,0,1-54.414-5.484,268.506,268.506,0,0,1-50.678-15.733,269.853,269.853,0,0,1-45.864-24.894,271.707,271.707,0,0,1-39.961-32.972,271.931,271.931,0,0,1-32.968-39.957,270.92,270.92,0,0,1-17.672-30.214l-.035-1.218a61.882,61.882,0,0,0,5.21,10.318,95.439,95.439,0,0,0,7.48,10.577,105.557,105.557,0,0,0,11.59,12.125,120.516,120.516,0,0,0,38.089,22.7,154.339,154.339,0,0,0,27.789,7.481,201.367,201.367,0,0,0,34.479,2.838,267.419,267.419,0,0,0,30.9-1.88,350.126,350.126,0,0,0,35.365-6.085c12.843-2.865,26.339-6.553,40.114-10.959,14.467-4.626,29.655-10.179,45.144-16.5,14.257-5.821,28.428-10.94,42.12-15.217,13.081-4.085,26.07-7.506,38.606-10.169a353.829,353.829,0,0,1,35.2-5.687,297.311,297.311,0,0,1,31.9-1.771,246.563,246.563,0,0,1,45.661,4.132,209.3,209.3,0,0,1,37.465,10.706c-3.608,6.419-7.518,12.751-11.621,18.822a271.984,271.984,0,0,1-32.968,39.957,271.714,271.714,0,0,1-39.961,32.972,269.671,269.671,0,0,1-45.864,24.894,268.506,268.506,0,0,1-50.678,15.733A271.918,271.918,0,0,1,2013-15022Z" transform="translate(-1648 15675)" opacity="0.087" fill="url(#radial-gradient-3)"></path><path id="trees2" d="M1979.44-15022.022a271.784,271.784,0,0,1-50.855-5.461,269.109,269.109,0,0,1-34.618-9.542c.193-5.743,1.59-14.3,4.038-24.745l5.835-1.6-4.37-4.386c1.269-4.957,2.652-9.905,4.11-14.709l3.9-1.063-2.723-2.734c1.5-4.743,2.989-9.077,4.421-12.881l3.42-.937-2.2-2.207c2.8-7,5.1-11.16,6.639-12.029a1.056,1.056,0,0,1,.52-.134c2.216,0,5.528,6.557,7.916,12.057l-1.832,2.455,3.022.374c1.466,3.59,2.968,7.605,4.464,11.936l-2.77,3.723,4.208.521c1.652,4.991,3.224,10.128,4.673,15.269l-3.692,4.964,5.225.643c1.995,7.558,3.5,14.395,4.358,19.772.017.094.032.188.047.295l0,.027c1.161-3.508,2.319-6.82,3.44-9.846l4.346-1.206-2.8-2.856c3.568-9.061,6.487-14.437,8.44-15.548a1.329,1.329,0,0,1,.666-.178c2.815,0,7.024,8.476,10.059,15.587l-2.325,3.176,3.838.481c1.041,2.591,2.128,5.44,3.231,8.471.174-7.431,1.955-18.687,5.15-32.554l7.419-2.064-5.556-5.666c1.579-6.283,3.335-12.679,5.221-19.011l4.961-1.38-3.463-3.534c1.877-6.031,3.768-11.634,5.623-16.651l4.35-1.209-2.8-2.853c3.563-9.058,6.482-14.434,8.44-15.549a1.311,1.311,0,0,1,.662-.177c2.818,0,7.026,8.476,10.059,15.587l-2.325,3.176,3.838.481c1.846,4.587,3.756,9.777,5.678,15.43l-3.522,4.811,5.351.67c2.095,6.449,4.092,13.091,5.938,19.74l-4.693,6.415,6.643.835c1.364,5.259,2.556,10.276,3.542,14.914l3.006-.836-2.8-2.853c3.561-9.056,6.479-14.432,8.44-15.548a1.325,1.325,0,0,1,.662-.178c2.822,0,7.03,8.477,10.063,15.588l-2.325,3.176,3.837.48c1.1,2.72,2.252,5.759,3.436,9.035a179.2,179.2,0,0,1,3.613-19.426l5.835-1.6-4.37-4.381c1.248-4.875,2.631-9.823,4.11-14.709l3.9-1.067-2.723-2.731c1.51-4.77,3-9.1,4.425-12.88l3.42-.937-2.2-2.211c2.8-7,5.1-11.162,6.639-12.025a1.046,1.046,0,0,1,.52-.134c2.216,0,5.528,6.557,7.916,12.057l-1.832,2.459,3.022.37c1.446,3.536,2.949,7.551,4.468,11.935l-2.774,3.724,4.208.521c1.649,4.982,3.221,10.119,4.673,15.268l-3.692,4.961,5.225.646c1.68,6.372,3.034,12.312,3.917,17.175.616-2.186,1.262-4.412,1.919-6.619l4.961-1.379-3.463-3.534c1.893-6.087,3.785-11.688,5.623-16.651l4.346-1.21-2.8-2.853c3.566-9.059,6.485-14.435,8.44-15.548a1.324,1.324,0,0,1,.662-.178c2.822,0,7.03,8.477,10.063,15.588l-2.325,3.176,3.838.48c1.849,4.6,3.76,9.787,5.678,15.43l-3.522,4.812,5.347.669c.823,2.528,1.635,5.1,2.416,7.655a270.04,270.04,0,0,1-28.307,13.988c-3.482,1.473-7.058,2.9-10.629,4.229l-2.078-2.121c-1.411,2.1-4.356,3.934-8.515,5.3a55.115,55.115,0,0,1-16.545,2.367,46.816,46.816,0,0,1-14.981-2.19,22.347,22.347,0,0,1-2.628-1.1c1,3.211,1.97,6.446,2.885,9.616a272.269,272.269,0,0,1-46.668,5.056c.51-2.016.937-3.668,1.344-5.2a72.313,72.313,0,0,1-17.888,2.14,58.6,58.6,0,0,1-19.043-2.833,23.257,23.257,0,0,1-6.844-3.652,1.118,1.118,0,0,0-.087-.071c1.036,3.188,2.052,6.438,3.021,9.66Zm-35.532-10.618h0c-.027.31-.055.54-.091.748l.646-.181Zm29.339-2.979h0l-2.242,3.058,5.138.646a11.45,11.45,0,0,1-2.9-3.7Zm83.41-8.621h0l-1.017,1.391,1.332.17a11.263,11.263,0,0,1-.315-1.561Zm43.253,7.947v0l0-.008c.047-.205.094-.409.141-.616l7.381-2.056c-2.53.944-5.062,1.845-7.523,2.681Zm-214.558-3.905h0c-2.469-.957-4.973-1.972-7.443-3.017a270.32,270.32,0,0,1-28.4-14.041c1.266-3.855,2.527-7.487,3.749-10.794l4.35-1.209-2.8-2.854c3.563-9.057,6.482-14.433,8.44-15.548a1.31,1.31,0,0,1,.662-.177c2.818,0,7.026,8.476,10.059,15.587l-2.325,3.176,3.838.48c1.841,4.575,3.752,9.767,5.682,15.431l-3.526,4.811,5.351.674c.8,2.466,1.6,4.982,2.362,7.479Z" transform="translate(-1648 15675)" fill="#80b58e"></path><path id="trees1" d="M2013-15022h-30c-1.467,0-2.9-.011-4.274-.033a17.5,17.5,0,0,1-1.636-1.172,11,11,0,0,1-3.743-5.253,12.274,12.274,0,0,1-.343-1.457l-3.026,4.129,4.89.61c.328,1.009.659,2.045.988,3.082a271.869,271.869,0,0,1-47.269-5.391,268.9,268.9,0,0,1-35.661-9.908c.506-2.484,1.075-5.1,1.693-7.783l6.781-1.888-5.079-5.177c1.448-5.754,3.055-11.6,4.775-17.377l4.531-1.261-3.164-3.227c1.723-5.538,3.452-10.657,5.138-15.217l3.976-1.107-2.561-2.608c3.259-8.274,5.926-13.187,7.715-14.208a1.228,1.228,0,0,1,.607-.162c2.578,0,6.422,7.746,9.193,14.244l-2.124,2.9,3.507.438c1.68,4.177,3.426,8.922,5.189,14.1l-3.219,4.4,4.886.615c1.926,5.919,3.753,11.987,5.433,18.038l-4.295,5.863,6.072.76c.977,3.753,1.872,7.45,2.663,10.989,1.038-3.124,2.066-6.062,3.054-8.731l3.976-1.1-2.557-2.608c3.255-8.274,5.922-13.187,7.711-14.208a1.224,1.224,0,0,1,.607-.161c2.579,0,6.422,7.745,9.192,14.243l-2.124,2.9,3.507.438c1.541,3.822,3.155,8.183,4.8,12.959a66.8,66.8,0,0,1,.739-14.676c.849-6.319,2.284-13.883,4.265-22.48l7.419-2.061-5.552-5.666c1.58-6.293,3.337-12.688,5.221-19.011l4.961-1.383-3.463-3.531c1.9-6.1,3.79-11.7,5.623-16.65l4.346-1.21-2.8-2.856c3.561-9.053,6.479-14.429,8.44-15.548a1.373,1.373,0,0,1,.666-.178c2.815,0,7.024,8.476,10.059,15.587l-2.325,3.181,3.838.48c1.833,4.551,3.743,9.74,5.678,15.426l-3.522,4.814,5.347.67c2.087,6.41,4.086,13.051,5.942,19.736l-4.7,6.419,6.643.831c1.549,5.966,2.856,11.532,3.885,16.545l2.084-.579-2.8-2.856c3.563-9.058,6.482-14.434,8.44-15.548a1.326,1.326,0,0,1,.662-.178c2.818,0,7.028,8.476,10.063,15.587l-2.325,3.176,3.838.481c1.4,3.475,2.854,7.356,4.33,11.536.529-2.6,1.125-5.341,1.82-8.368l7.419-2.065-5.556-5.666c1.587-6.314,3.345-12.711,5.225-19.011l4.957-1.379-3.459-3.534c1.894-6.089,3.786-11.691,5.623-16.651l4.346-1.21-2.8-2.853c3.561-9.056,6.479-14.432,8.44-15.548a1.306,1.306,0,0,1,.662-.178c2.825,0,7.03,8.477,10.059,15.588l-2.325,3.176,3.838.48c1.837,4.565,3.749,9.756,5.682,15.43l-3.526,4.811,5.351.67c1.856,5.711,3.642,11.592,5.307,17.479l4.8-1.335-3.463-3.535c1.9-6.1,3.789-11.7,5.623-16.65l4.346-1.21-2.8-2.853c3.568-9.06,6.487-14.436,8.44-15.548a1.326,1.326,0,0,1,.662-.178c2.822,0,7.03,8.477,10.063,15.588l-2.325,3.176,3.838.48c1.847,4.59,3.757,9.781,5.678,15.43l-3.523,4.811,5.347.67c.421,1.295.833,2.58,1.225,3.822a270.349,270.349,0,0,1-28.7,14.212,268.468,268.468,0,0,1-50.679,15.733A271.992,271.992,0,0,1,2013-15022Zm43.354-11.536-.713.973.536.071c.059-.347.118-.693.177-1.044Zm50.773-21.041-2.309,3.156,1.375.173C2106.538-15052.492,2106.844-15053.581,2107.126-15054.576Zm-228.381,11.713h0l-.717-.3-.059-.025-.062-.026a270.618,270.618,0,0,1-26.412-12.92c.592-1.7,1.185-3.353,1.762-4.913l4.35-1.21-2.8-2.856c3.562-9.054,6.48-14.428,8.44-15.544a1.31,1.31,0,0,1,.662-.177c2.819,0,7.026,8.476,10.059,15.587l-2.325,3.176,3.838.48c1.825,4.53,3.736,9.72,5.682,15.426l-2.42,3.3Z" transform="translate(-1648 15675)" fill="#6aa279"></path><g id="stars"><g id="stars-2" transform="translate(374.952 331.5)" opacity="0.419"><path id="Path_2185" d="M-141.415-12559.34c-.92-1.25,2.61-5.012,4.707-5.012s4.856,3.762,3.679,5.012S-140.495-12558.086-141.415-12559.34Z" transform="translate(341.276 12606.768)" fill="#fff"></path><path id="Path_2186" d="M-141.5-12561c-.42-.833,1.192-3.351,2.148-3.351s2.216,2.518,1.679,3.351S-141.076-12560.168-141.5-12561Z" transform="translate(332.337 12596.124)" fill="#fff"></path><path id="Path_2187" d="M-140.023-12559.288c-.92-1.254.4-5.015,2.5-5.015.7,0,1.816-.72,2.539,1.405,1.3-1.6,1.365,2.772.581,3.609l-3.12-.686Z" transform="translate(355.331 12592.107)" fill="#fff" opacity="0.775"></path><path id="Path_2188" d="M-141.415-12559.34c-.92-1.25,2.61-5.012,4.707-5.012s4.856,3.762,3.679,5.012S-140.495-12558.086-141.415-12559.34Z" transform="translate(145.973 12748.01)" fill="#fff"></path><path id="Path_2189" d="M-141.5-12561c-.42-.833,1.192-3.351,2.148-3.351s2.216,2.518,1.679,3.351S-141.076-12560.168-141.5-12561Z" transform="translate(174.721 12712.47)" fill="#fff"></path><path id="Path_2190" d="M-140.023-12559.288c-.92-1.254.4-5.015,2.5-5.015.7,0,1.816-.72,2.539,1.405,1.3-1.6,1.365,2.772.581,3.609l-3.12-.686Z" transform="translate(194.55 12709.499)" fill="#fff" opacity="0.66"></path><path id="Path_2191" d="M-141.415-12559.34c-.92-1.25,2.61-5.012,4.707-5.012s4.856,3.762,3.679,5.012S-140.495-12558.086-141.415-12559.34Z" transform="translate(141.565 12633.814)" fill="#fff"></path><path id="Path_2192" d="M-141.415-12559.34c-.92-1.25,2.61-5.012,4.707-5.012s4.856,3.762,3.679,5.012S-140.495-12558.086-141.415-12559.34Z" transform="translate(336.867 12703.847)" fill="#fff"></path><path id="Path_2193" d="M-141.415-12559.34c-.92-1.25,2.61-5.012,4.707-5.012s4.856,3.762,3.679,5.012S-140.495-12558.086-141.415-12559.34Z" transform="translate(258.753 12564.352)" fill="#fff" opacity="0.542"></path></g><g id="stars-3" transform="translate(107.952 175.5)" opacity="0.515"><path id="Path_2185-2" d="M-141.415-12559.34c-.92-1.25,2.61-5.012,4.707-5.012s4.856,3.762,3.679,5.012S-140.495-12558.086-141.415-12559.34Z" transform="translate(341.276 12606.768)" fill="#fff"></path><path id="Path_2186-2" d="M-141.5-12561c-.42-.833,1.192-3.351,2.148-3.351s2.216,2.518,1.679,3.351S-141.076-12560.168-141.5-12561Z" transform="translate(332.337 12596.124)" fill="#fff"></path><path id="Path_2187-2" d="M-140.023-12559.288c-.92-1.254.4-5.015,2.5-5.015.7,0,1.816-.72,2.539,1.405,1.3-1.6,1.365,2.772.581,3.609l-3.12-.686Z" transform="translate(355.331 12592.107)" fill="#fff" opacity="0.775"></path><path id="Path_2188-2" d="M-141.415-12559.34c-.92-1.25,2.61-5.012,4.707-5.012s4.856,3.762,3.679,5.012S-140.495-12558.086-141.415-12559.34Z" transform="translate(145.973 12748.01)" fill="#fff"></path><path id="Path_2189-2" d="M-141.5-12561c-.42-.833,1.192-3.351,2.148-3.351s2.216,2.518,1.679,3.351S-141.076-12560.168-141.5-12561Z" transform="translate(174.721 12712.47)" fill="#fff"></path><path id="Path_2190-2" d="M-140.023-12559.288c-.92-1.254.4-5.015,2.5-5.015.7,0,1.816-.72,2.539,1.405,1.3-1.6,1.365,2.772.581,3.609l-3.12-.686Z" transform="translate(194.55 12709.499)" fill="#fff" opacity="0.66"></path><path id="Path_2191-2" d="M-141.415-12559.34c-.92-1.25,2.61-5.012,4.707-5.012s4.856,3.762,3.679,5.012S-140.495-12558.086-141.415-12559.34Z" transform="translate(141.565 12633.814)" fill="#fff"></path><path id="Path_2192-2" d="M-141.415-12559.34c-.92-1.25,2.61-5.012,4.707-5.012s4.856,3.762,3.679,5.012S-140.495-12558.086-141.415-12559.34Z" transform="translate(336.867 12703.847)" fill="#fff"></path><path id="Path_2193-2" d="M-141.415-12559.34c-.92-1.25,2.61-5.012,4.707-5.012s4.856,3.762,3.679,5.012S-140.495-12558.086-141.415-12559.34Z" transform="translate(258.753 12564.352)" fill="#fff" opacity="0.542"></path></g></g></g></svg>