<svg xmlns="http://www.w3.org/2000/svg" xmlns:xlink="http://www.w3.org/1999/xlink" width="4637" height="1717" viewBox="0 0 4637 1717"><defs><linearGradient id="linear-gradient" x1="0.5" x2="0.5" y2="0.573" gradientUnits="objectBoundingBox"><stop offset="0" stop-color="#bbd6e2"></stop><stop offset="1" stop-color="#edcec7"></stop></linearGradient><linearGradient id="linear-gradient-2" x1="0.5" y1="1" x2="0.5" gradientUnits="objectBoundingBox"><stop offset="0" stop-color="#5aa6c0"></stop><stop offset="1" stop-color="#ffe3df"></stop></linearGradient><clipPath id="clip-mydata-background"><rect width="4637" height="1717"></rect></clipPath></defs><g id="mydata-background" clip-path="url(#clip-mydata-background)"><rect id="background" width="4637" height="1980.911" transform="translate(0 -73.619)" fill="url(#linear-gradient)"></rect><path id="curve" d="M3466.769,0c-12.058,1.851-24.3,3.852-36.388,5.951-42.524,7.383-84.178,16.165-123.813,26.1-38.8,9.733-76.865,20.859-113.15,33.09-35.353,11.906-70.093,25.213-103.256,39.553-32.247,13.955-63.913,29.272-94.111,45.543-29.313,15.783-58.165,32.952-85.742,51.011-26.673,17.476-52.948,36.314-78.121,56.006-24.25,18.967-48.221,39.316-71.253,60.482-22.144,20.351-44.069,42.043-65.165,64.466-20.163,21.438-40.288,44.3-59.816,67.961-36.051,43.666-70.939,90.89-106.661,144.378-66.648,99.792-125.548,205.835-182.5,308.379l-.132.229-.038.07-.009.015-1.036,1.869-.038.057-.021.042c-31.577,56.862-64.22,115.658-97.924,172.934-18.1,30.774-34.973,58.508-51.558,84.8-18.666,29.567-36.532,56.642-54.649,82.761-19.435,28.005-39.21,54.936-58.78,80.022-20.933,26.842-42.446,52.616-63.928,76.626-22.777,25.444-46.363,49.85-70.129,72.544-24.972,23.863-51,46.667-77.346,67.792-27.5,22.058-56.309,43.034-85.591,62.351-30.458,20.08-62.385,39-94.9,56.233-33.642,17.838-69.044,34.475-105.206,49.443-37.267,15.432-76.489,29.552-116.558,41.977-41.259,12.788-84.649,24.168-128.954,33.816-45.494,9.923-93.394,18.334-142.371,25.012-50.155,6.832-102.914,12.044-156.816,15.489-55.108,3.531-113.084,5.322-172.306,5.322-42.957,0-87.725-.943-133.078-2.809-45.76-1.877-93.489-4.769-141.86-8.589V1803.98H0V.833H593.572V0Z" transform="translate(4623.131 1719.83) rotate(180)" opacity="0.597" fill="url(#linear-gradient-2)"></path><rect id="foreground" width="4689" height="1787" transform="translate(0 -37)" fill="#fff" opacity="0.602"></rect></g></svg>