<svg xmlns="http://www.w3.org/2000/svg" xmlns:xlink="http://www.w3.org/1999/xlink" width="400" height="600" viewBox="0 0 400 600"><defs><filter id="Rectangle_2595" x="64" y="57.859" width="272.486" height="490.282" filterUnits="userSpaceOnUse"><feOffset dy="3"></feOffset><feGaussianBlur stdDeviation="3" result="blur"></feGaussianBlur><feFlood flood-opacity="0.161"></feFlood><feComposite operator="in" in2="blur"></feComposite><feComposite in="SourceGraphic"></feComposite></filter><clipPath id="clip-phone-placeholder"><rect width="400" height="600"></rect></clipPath></defs><g id="phone-placeholder" clip-path="url(#clip-phone-placeholder)"><g id="Group_1577" transform="translate(0.243)"><g id="Rectangle_2599" transform="translate(72.757 63.859)" fill="#fff" stroke="#fff" stroke-width="15"><rect width="254.486" height="472.282" rx="39" stroke="none"></rect><rect x="7.5" y="7.5" width="239.486" height="457.282" rx="31.5" fill="none"></rect></g><g transform="matrix(1, 0, 0, 1, -0.24, 0)" filter="url(#Rectangle_2595)"><g id="Rectangle_2595-2" transform="translate(73 63.86)" fill="none" stroke="#286984" stroke-width="15"><rect width="254.486" height="472.282" rx="39" stroke="none"></rect><rect x="7.5" y="7.5" width="239.486" height="457.282" rx="31.5" fill="none"></rect></g></g><g id="Rectangle_2596" transform="translate(171.744 83.375)" fill="#2d7a9a" stroke="#707070" stroke-width="1"><rect width="61.67" height="12.49" stroke="none"></rect><rect x="0.5" y="0.5" width="60.67" height="11.49" fill="none"></rect></g><path id="Exclusion_2" d="M129.514,31.226H11a11,11,0,0,1-11-11V0H140.513V20.225a11,11,0,0,1-11,11ZM49.57,17.174a2.732,2.732,0,0,0,0,5.465H91.724a2.732,2.732,0,0,0,0-5.465Z" transform="translate(129.743 69.324)" fill="#286984"></path></g></g></svg>