<svg xmlns="http://www.w3.org/2000/svg" xmlns:xlink="http://www.w3.org/1999/xlink" width="2560" height="1080" viewBox="0 0 2560 1080">
  <defs>
    <linearGradient id="linear-gradient" x1="0.5" x2="0.5" y2="1" gradientUnits="objectBoundingBox">
      <stop offset="0" stop-color="#2a6680"/>
      <stop offset="0.502" stop-color="#3992b7"/>
      <stop offset="1" stop-color="#bbd6e2"/>
    </linearGradient>
    <clipPath id="clip-path">
      <path id="Subtraction_107" data-name="Subtraction 107" d="M16.857,65.307h0a40.1,40.1,0,0,1-5.608-.379A26.367,26.367,0,0,1,6.27,63.764a12.983,12.983,0,0,1-3.8-1.991,5.978,5.978,0,0,1-2.081-2.86c-.51-1.628-.515-4.508-.015-8.559A128.291,128.291,0,0,1,2.869,37.1L6.992,35.98,3.905,32.893c.88-3.433,1.857-6.918,2.9-10.36l2.756-.752L7.641,19.856c1.053-3.319,2.105-6.372,3.126-9.074l2.417-.659L11.627,8.567C13.607,3.634,15.229.7,16.318.1a.749.749,0,0,1,.368-.1c1.568,0,3.907,4.619,5.593,8.493l-1.292,1.731,2.133.262c1.02,2.485,2.082,5.313,3.157,8.407l-1.958,2.623,2.973.365c1.163,3.507,2.275,7.125,3.3,10.756l-2.611,3.5,3.694.453c1.41,5.329,2.475,10.145,3.08,13.927a45.534,45.534,0,0,1,.573,5.134,9.721,9.721,0,0,1-.269,3.267A5.7,5.7,0,0,1,32.8,61.63a16.138,16.138,0,0,1-4.252,2.007A32.879,32.879,0,0,1,23,64.88,43.985,43.985,0,0,1,16.857,65.307Z" transform="translate(0 0)" fill="#2e5c4c" opacity="0.746"/>
    </clipPath>
    <clipPath id="clip-path-3">
      <path id="Subtraction_109" data-name="Subtraction 109" d="M12.475,48.33h0a29.674,29.674,0,0,1-4.15-.28,19.513,19.513,0,0,1-3.685-.861,9.608,9.608,0,0,1-2.814-1.473A4.424,4.424,0,0,1,.286,43.6c-.378-1.2-.381-3.336-.011-6.334a94.94,94.94,0,0,1,1.849-9.807l3.051-.832L2.89,24.342c.651-2.54,1.375-5.12,2.149-7.667l2.04-.556L5.654,14.694c.78-2.456,1.558-4.715,2.313-6.715l1.789-.488L8.6,6.34C10.07,2.689,11.27.521,12.076.071A.554.554,0,0,1,12.349,0c1.16,0,2.891,3.418,4.139,6.285l-.956,1.281,1.579.194c.754,1.839,1.541,3.932,2.336,6.222L18,15.922l2.2.27c.861,2.6,1.683,5.273,2.444,7.96L20.709,26.74l2.733.336c1.044,3.944,1.832,7.508,2.279,10.306a33.7,33.7,0,0,1,.424,3.8,7.194,7.194,0,0,1-.2,2.418,4.22,4.22,0,0,1-1.675,2.01,11.943,11.943,0,0,1-3.146,1.485,24.333,24.333,0,0,1-4.1.92A32.552,32.552,0,0,1,12.475,48.33Z" transform="translate(0 0)" fill="#2e5c4c" opacity="0.746"/>
    </clipPath>
    <clipPath id="clip-path-7">
      <path id="Subtraction_113" data-name="Subtraction 113" d="M10.069,39.007h0a23.951,23.951,0,0,1-3.349-.226,15.749,15.749,0,0,1-2.974-.695A7.754,7.754,0,0,1,1.474,36.9,3.571,3.571,0,0,1,.231,35.189a13.853,13.853,0,0,1-.009-5.112,76.627,76.627,0,0,1,1.492-7.915l2.463-.672L2.332,19.647c.526-2.05,1.109-4.132,1.735-6.188l1.646-.449-1.15-1.15c.629-1.982,1.258-3.806,1.867-5.42l1.444-.394-.93-.929C8.127,2.17,9.1.421,9.747.058A.447.447,0,0,1,9.967,0C10.9,0,12.3,2.759,13.307,5.073l-.771,1.034,1.274.156c.609,1.484,1.244,3.174,1.886,5.022l-1.17,1.567,1.776.218c.695,2.095,1.359,4.256,1.973,6.424l-1.56,2.089,2.206.271c.842,3.183,1.478,6.059,1.84,8.318a27.2,27.2,0,0,1,.342,3.066,5.806,5.806,0,0,1-.161,1.952,3.406,3.406,0,0,1-1.352,1.622,9.639,9.639,0,0,1-2.54,1.2,19.639,19.639,0,0,1-3.312.743A26.272,26.272,0,0,1,10.069,39.007Z" transform="translate(0 0)" fill="#2e5c4c" opacity="0.746"/>
    </clipPath>
    <clipPath id="clip-path-9">
      <path id="Subtraction_116" data-name="Subtraction 116" d="M22.806,88.353h0a54.247,54.247,0,0,1-7.586-.512,35.672,35.672,0,0,1-6.736-1.574,17.564,17.564,0,0,1-5.145-2.693A8.088,8.088,0,0,1,.523,79.7c-.69-2.2-.7-6.1-.021-11.579A173.565,173.565,0,0,1,3.882,50.2L9.46,48.677,5.283,44.5c1.191-4.644,2.513-9.36,3.929-14.016l3.729-1.017-2.6-2.6c1.425-4.49,2.848-8.62,4.229-12.277l3.27-.891-2.106-2.1C18.409,4.916,20.6.953,22.076.131a1.014,1.014,0,0,1,.5-.131c2.121,0,5.286,6.248,7.567,11.49l-1.747,2.341,2.886.354c1.379,3.362,2.817,7.188,4.271,11.374L32.9,29.108l4.022.494C38.5,34.347,40,39.242,41.391,44.154l-3.533,4.731,5,.613c1.908,7.21,3.348,13.725,4.167,18.841a61.6,61.6,0,0,1,.775,6.945,13.151,13.151,0,0,1-.364,4.42,7.714,7.714,0,0,1-3.062,3.675,21.833,21.833,0,0,1-5.752,2.715,44.482,44.482,0,0,1-7.5,1.682A59.508,59.508,0,0,1,22.806,88.353Z" transform="translate(0 0)" fill="#2e5c4c" opacity="0.746"/>
    </clipPath>
    <clipPath id="clip-path-10">
      <path id="Subtraction_117" data-name="Subtraction 117" d="M8.267,32.028h0a19.666,19.666,0,0,1-2.75-.186,12.931,12.931,0,0,1-2.442-.571A6.367,6.367,0,0,1,1.21,30.3a2.932,2.932,0,0,1-1.02-1.4,11.374,11.374,0,0,1-.008-4.2,62.916,62.916,0,0,1,1.225-6.5l2.022-.551L1.915,16.131c.432-1.684.911-3.393,1.424-5.081l1.352-.369-.944-.944C4.264,8.11,4.78,6.613,5.28,5.288l1.185-.323L5.7,4.2C6.673,1.782,7.469.346,8,.047A.367.367,0,0,1,8.183,0c.769,0,1.916,2.265,2.743,4.165l-.633.849,1.046.128c.5,1.219,1.021,2.606,1.548,4.123l-.96,1.286,1.458.179c.571,1.72,1.116,3.494,1.62,5.275L13.724,17.72l1.811.222c.692,2.613,1.214,4.975,1.511,6.83a22.331,22.331,0,0,1,.281,2.518,4.767,4.767,0,0,1-.132,1.6,2.8,2.8,0,0,1-1.11,1.332A7.914,7.914,0,0,1,14,31.209a16.125,16.125,0,0,1-2.719.61A21.571,21.571,0,0,1,8.267,32.028Z" transform="translate(0 0)" fill="#2e5c4c" opacity="0.746"/>
    </clipPath>
    <clipPath id="clip-path-13">
      <path id="Subtraction_120" data-name="Subtraction 120" d="M6.784,26.284h0a16.139,16.139,0,0,1-2.257-.152,10.612,10.612,0,0,1-2-.468,5.225,5.225,0,0,1-1.531-.8,2.406,2.406,0,0,1-.837-1.151,9.335,9.335,0,0,1-.006-3.445,51.633,51.633,0,0,1,1.006-5.333l1.659-.453L1.572,13.238c.354-1.382.748-2.784,1.169-4.17l1.109-.3-.775-.775c.424-1.336.847-2.564,1.258-3.652l.973-.265L4.68,3.448C5.476,1.462,6.129.284,6.567.039A.3.3,0,0,1,6.716,0c.631,0,1.572,1.859,2.251,3.418l-.52.7.858.105c.41,1,.838,2.138,1.271,3.384L9.788,8.659l1.2.147c.468,1.411.916,2.868,1.329,4.329l-1.051,1.407,1.487.182c.568,2.145,1,4.083,1.24,5.605a18.327,18.327,0,0,1,.231,2.066,3.912,3.912,0,0,1-.108,1.315A2.3,2.3,0,0,1,13.2,24.8a6.5,6.5,0,0,1-1.711.808,13.233,13.233,0,0,1-2.232.5A17.7,17.7,0,0,1,6.784,26.284Z" transform="translate(0 0)" fill="#2e5c4c" opacity="0.746"/>
    </clipPath>
    <clipPath id="clip-background-0">
      <rect width="2560" height="1080"/>
    </clipPath>
  </defs>
  <g id="background-0" clip-path="url(#clip-background-0)">
    <rect id="background-pink" width="2560" height="1080" fill="#f7e8e3"/>
    <path id="sky-dk-blue" d="M6385,8266.965V8106.859h687.795q13.907-3.016,27.358-6.353c22.385-5.554,44.352-11.909,65.286-18.886,20.394-6.794,40.437-14.389,59.573-22.576,18.6-7.964,36.873-16.708,54.3-25.992,16.917-9.009,33.559-18.808,49.469-29.117,15.391-9.976,30.556-20.729,45.072-31.962,13.992-10.827,27.825-22.441,41.115-34.522,12.774-11.615,25.423-23.994,37.6-36.8,11.635-12.235,23.247-25.284,34.513-38.786a1005.462,1005.462,0,0,0,61.544-82.406c38.451-56.957,72.433-117.478,105.3-176.006l.075-.135.02-.036.007-.012.6-1.062.022-.039.014-.02c18.216-32.452,37.054-66.008,56.5-98.7,10.447-17.565,20.178-33.4,29.75-48.4,10.765-16.879,21.08-32.329,31.532-47.233,11.211-15.989,22.62-31.356,33.909-45.679,12.08-15.316,24.49-30.028,36.888-43.731,13.138-14.522,26.75-28.454,40.459-41.4,14.412-13.62,29.425-26.639,44.625-38.695,15.871-12.585,32.486-24.558,49.388-35.583,17.571-11.461,35.991-22.259,54.749-32.1,19.416-10.182,39.839-19.676,60.7-28.217,21.5-8.807,44.133-16.867,67.253-23.958,23.8-7.3,48.837-13.8,74.4-19.306,26.249-5.659,53.886-10.459,82.141-14.271,28.94-3.9,59.383-6.876,90.484-8.841,31.793-2.014,65.244-3.038,99.415-3.038,24.782,0,50.614.539,76.779,1.6,26.4,1.075,53.944,2.724,81.853,4.9v9.674h342.473V8118.323H8944.5v148.642Z" transform="translate(-6384.5 -7183.464)" fill="url(#linear-gradient)"/>
    <path id="hill-shadow" d="M10628.649,6088.907l292.4-118.137-.8-2.091s512.972,398.6,1189.394-132.48,1265.545,83.388,1265.545,83.388v545.056l-2266.727-4.44-283.523,114.551Z" transform="translate(-10759.228 -5274.319)" fill="#4a7f76" opacity="0.591"/>
    <path id="hiil-front" d="M11042.291,6489l-45.347-153.835-250.24,76.5-118.7-388.26,256.767-78.5c4.67-1.931,14.854-5,21.968,1.168,83.341,72.207,565.474,377.032,1173.625-99.874,621.694-487.531,1195.285-47.135,1242.5,31.781,4.054,6.773,0,174.947,0,174.947v407.732L13014.645,6489Z" transform="translate(-10730.332 -5251.617)" fill="#6db2ca" opacity="0.62"/>
    <g id="city" transform="translate(462.5 -28.927)" opacity="0.528">
      <g id="building_4" data-name="building 4" transform="translate(1448 383.178)" opacity="0.51">
        <path id="Path_1098" data-name="Path 1098" d="M2.077,0H31.159V37.391H0V2.077A2.077,2.077,0,0,1,2.077,0Z" transform="translate(0 0)" opacity="0.503"/>
        <rect id="Rectangle_174" data-name="Rectangle 174" width="19.388" height="37.391" transform="translate(11.771 0)" fill="#fff"/>
      </g>
      <g id="tv_tower" data-name="tv tower" transform="translate(1479.159 284.52)" opacity="0.507">
        <circle id="Ellipse_55" data-name="Ellipse 55" cx="7.453" cy="7.453" r="7.453" transform="translate(0 51.662)" fill="#fff"/>
        <g id="Group_109" data-name="Group 109" transform="translate(0.247)">
          <path id="Path_1093" data-name="Path 1093" d="M16690.9,2241.284s1.367-112.872,1.322-120.661,1.563-30.165,2.908,0,2.539,120.661,2.539,120.661Z" transform="translate(-16686.643 -2105.313)" fill="#fff"/>
          <path id="Path_1092" data-name="Path 1092" d="M16693.576,2188.886a3.933,3.933,0,0,0,0,2.373c.1.113.348.464.717.375a8.871,8.871,0,0,1,2.691-.88,6.155,6.155,0,0,1,2.434.88c.189.056.408-.274.475-.375a4.187,4.187,0,0,0,.156-2.373c-.258-.341-1.371-.694-3.064-.694A7.027,7.027,0,0,0,16693.576,2188.886Z" transform="translate(-16689.322 -2121.139)" opacity="0.502"/>
          <path id="Path_1094" data-name="Path 1094" d="M16693.621,2190.7a40.6,40.6,0,0,0,0,8.566c.121.407.432,1.675.895,1.355.734-.509,1.59-.541,3.354-.621a6.249,6.249,0,0,1,3.033.621,9.952,9.952,0,0,0,.588-1.355,43,43,0,0,0,.2-8.566,3.794,3.794,0,0,0-3.82-2.5A5.008,5.008,0,0,0,16693.621,2190.7Z" transform="translate(-16690.408 -2148.108)" opacity="0.496"/>
          <path id="Path_1091" data-name="Path 1091" d="M8.833,0c4.116,0,7.338,1.409,7.338,4.055,0,1.249-1.73,3.207-2.194,3.551A8.837,8.837,0,0,1,8.833,9.583,6.445,6.445,0,0,1,4.189,7.912C3.128,7.1,1.627,5.232,1.627,4.055,1.627,1.409,4.716,0,8.833,0Z" transform="translate(-1.627 56.986)" opacity="0.507"/>
        </g>
      </g>
      <g id="bridge" transform="translate(1537.323 391.487)" opacity="0.261">
        <path id="Path_1095" data-name="Path 1095" d="M15674.3,2714.533h36.326v-14.011s-9.332,6.483-18.414,6.483-17.912-6.483-17.912-6.483Z" transform="translate(-15674.302 -2700.522)" fill="none" stroke="#000" stroke-width="2"/>
        <line id="Line_32" data-name="Line 32" x1="0.111" y2="9.859" transform="translate(8.098 4.483)" fill="none" stroke="#000" stroke-width="2"/>
        <line id="Line_33" data-name="Line 33" y2="8.521" transform="translate(12.017 5.822)" fill="none" stroke="#000" stroke-width="2"/>
        <line id="Line_34" data-name="Line 34" y2="7.839" transform="translate(15.937 6.504)" fill="none" stroke="#000" stroke-width="2"/>
        <line id="Line_35" data-name="Line 35" y2="7.839" transform="translate(19.857 6.504)" fill="none" stroke="#000" stroke-width="2"/>
        <line id="Line_36" data-name="Line 36" y2="8.818" transform="translate(23.776 5.524)" fill="none" stroke="#000" stroke-width="2"/>
        <line id="Line_37" data-name="Line 37" y2="9.694" transform="translate(27.695 4.483)" fill="none" stroke="#000" stroke-width="2"/>
        <line id="Line_38" data-name="Line 38" y2="11.759" transform="translate(4.178 2.584)" fill="none" stroke="#000" stroke-width="2"/>
        <line id="Line_39" data-name="Line 39" y2="11.759" transform="translate(31.615 2.584)" fill="none" stroke="#000" stroke-width="2"/>
      </g>
      <g id="building" transform="translate(1522.09 326.398)">
        <path id="Rectangle_164" data-name="Rectangle 164" d="M6,0H9.694a0,0,0,0,1,0,0V89.324a0,0,0,0,1,0,0H0a0,0,0,0,1,0,0V6A6,6,0,0,1,6,0Z" transform="translate(2.077 18.003)" fill="#f5f5f5"/>
        <path id="Rectangle_163" data-name="Rectangle 163" d="M6,0h5.771a0,0,0,0,1,0,0V83.092a0,0,0,0,1,0,0H0a0,0,0,0,1,0,0V6A6,6,0,0,1,6,0Z" transform="translate(0 24.235)" fill="#f5f5f5"/>
        <rect id="Rectangle_165" data-name="Rectangle 165" width="11.079" height="107.327" transform="translate(10.386 0)" fill="#f5f5f5"/>
        <rect id="Rectangle_166" data-name="Rectangle 166" width="9.694" height="94.863" transform="translate(19.388 12.464)" fill="#f5f5f5"/>
        <rect id="Rectangle_167" data-name="Rectangle 167" width="5.539" height="107.327" transform="translate(10.386 0)" fill="#777" opacity="0.497"/>
        <path id="Building-2" data-name="Building" d="M6,0H25.62a0,0,0,0,1,0,0V60.241a0,0,0,0,1,0,0H0a0,0,0,0,1,0,0V6A6,6,0,0,1,6,0Z" transform="translate(0 47.085)" fill="#fafafa"/>
        <path id="Rectangle_169" data-name="Rectangle 169" d="M5.539,0h0a0,0,0,0,1,0,0V60.241a0,0,0,0,1,0,0H0a0,0,0,0,1,0,0V5.539A5.539,5.539,0,0,1,5.539,0Z" transform="translate(0 47.085)" fill="#777" opacity="0.5"/>
      </g>
      <g id="building-3" data-name="building" transform="translate(1489.546 363.097)" opacity="0.512">
        <path id="Rectangle_161" data-name="Rectangle 161" d="M6,0H18.235a6,6,0,0,1,6,6V63.011a0,0,0,0,1,0,0H0a0,0,0,0,1,0,0V6A6,6,0,0,1,6,0Z" transform="translate(0 0)" opacity="0.501"/>
        <path id="Rectangle_162" data-name="Rectangle 162" d="M0,0H3A6,6,0,0,1,9,6V63.011a0,0,0,0,1,0,0H0a0,0,0,0,1,0,0V0A0,0,0,0,1,0,0Z" transform="translate(16.618 0)" fill="#fff"/>
      </g>
      <g id="building_" data-name="building " transform="translate(1636.341 401.873)" opacity="0.51">
        <path id="Path_1100" data-name="Path 1100" d="M2.077,0H31.159V37.391H0V2.077A2.077,2.077,0,0,1,2.077,0Z" transform="translate(0 0)" opacity="0.502"/>
        <rect id="Rectangle_174-2" data-name="Rectangle 174" width="25.62" height="37.391" transform="translate(5.539 0)" fill="#fff"/>
      </g>
      <path id="Path_1097" data-name="Path 1097" d="M16690.9,2223.569s.945-98.166.918-104.94,1.08-26.235,2.016,0,1.758,104.94,1.758,104.94Z" transform="translate(-15107.719 -1803.078)" fill="#fff"/>
      <g id="building-4" data-name="building" transform="translate(1571.253 326.398)">
        <rect id="Rectangle_172" data-name="Rectangle 172" width="16.618" height="108.712" transform="translate(5.539 0)" fill="#737373" opacity="0.596"/>
        <path id="Path_1096" data-name="Path 1096" d="M0,0H13.849V98.325H0Z" transform="translate(0 10.386)" fill="#f5f5f5"/>
        <rect id="Rectangle_171" data-name="Rectangle 171" width="13.849" height="90.708" transform="translate(18.003 18.003)" fill="#f5f5f5"/>
      </g>
      <g id="building_2" data-name="building " transform="translate(1549.787 415.722)" opacity="0.51">
        <path id="Rectangle_173" data-name="Rectangle 173" d="M3,0H31.159a0,0,0,0,1,0,0V37.391a0,0,0,0,1,0,0H0a0,0,0,0,1,0,0V3A3,3,0,0,1,3,0Z" transform="translate(0 0)" opacity="0.5"/>
        <rect id="Rectangle_174-3" data-name="Rectangle 174" width="19.388" height="37.391" transform="translate(11.771 0)" fill="#fff"/>
      </g>
      <g id="building_3" data-name="building " transform="translate(1598.257 384.562)">
        <path id="Path_1099" data-name="Path 1099" d="M2.077,0H31.159V61.626H0V2.077A2.077,2.077,0,0,1,2.077,0Z" transform="translate(0 0)" fill="#737373" opacity="0.498"/>
        <rect id="Rectangle_174-4" data-name="Rectangle 174" width="19.388" height="61.626" transform="translate(11.771 0)" fill="#f5f5f5"/>
      </g>
      <path id="Rectangle_175" data-name="Rectangle 175" d="M2.77,0h0a2.77,2.77,0,0,1,2.77,2.77V6.924a0,0,0,0,1,0,0H0a0,0,0,0,1,0,0V2.77A2.77,2.77,0,0,1,2.77,0Z" transform="translate(1582.332 319.474)" fill="#fff"/>
    </g>
    <g id="Group_720" data-name="Group 720" transform="translate(309 4.042)" opacity="0.528">
      <g id="tree" transform="translate(1225.885 479.032)" opacity="0.559" clip-path="url(#clip-path)">
        <rect id="Rectangle_697" data-name="Rectangle 697" width="59.37" height="85.121" transform="translate(-12.625 -5.642)" fill="#2e5c4c"/>
      </g>
      <g id="tree-2" data-name="tree" transform="translate(1284.049 471.318)" opacity="0.364" clip-path="url(#clip-path)">
        <rect id="Rectangle_698" data-name="Rectangle 698" width="59.37" height="85.121" transform="translate(-12.625 -5.642)" fill="#2e5c4c"/>
      </g>
      <g id="tree-3" data-name="tree" transform="translate(1328.316 422.988)" opacity="0.559" clip-path="url(#clip-path-3)">
        <rect id="Rectangle_699" data-name="Rectangle 699" width="43.937" height="62.993" transform="translate(-9.344 -4.176)" fill="#2e5c4c"/>
      </g>
      <g id="tree-4" data-name="tree" transform="translate(1356.293 445.193)" opacity="0.559" clip-path="url(#clip-path-3)">
        <rect id="Rectangle_700" data-name="Rectangle 700" width="43.937" height="62.993" transform="translate(-9.344 -4.176)" fill="#2e5c4c"/>
      </g>
      <g id="tree-5" data-name="tree" transform="translate(1384.27 446.379)" opacity="0.414" clip-path="url(#clip-path)">
        <rect id="Rectangle_701" data-name="Rectangle 701" width="59.37" height="85.121" transform="translate(-12.625 -5.642)" fill="#2e5c4c"/>
      </g>
      <g id="tree-6" data-name="tree" transform="translate(1414.807 414.404)" opacity="0.376" clip-path="url(#clip-path-3)">
        <rect id="Rectangle_702" data-name="Rectangle 702" width="43.937" height="62.993" transform="translate(-9.344 -4.176)" fill="#2e5c4c"/>
      </g>
      <g id="tree-7" data-name="tree" transform="translate(1440.967 388.117)" opacity="0.559" clip-path="url(#clip-path-7)">
        <rect id="Rectangle_703" data-name="Rectangle 703" width="35.462" height="50.843" transform="translate(-7.541 -3.37)" fill="#2e5c4c"/>
      </g>
      <g id="tree-8" data-name="tree" transform="translate(1466.002 401.525)" opacity="0.559" clip-path="url(#clip-path-7)">
        <rect id="Rectangle_704" data-name="Rectangle 704" width="35.462" height="50.843" transform="translate(-7.541 -3.37)" fill="#2e5c4c"/>
      </g>
      <g id="tree-9" data-name="tree" transform="translate(1171.246 502.011)" opacity="0.559" clip-path="url(#clip-path-9)">
        <rect id="Rectangle_706" data-name="Rectangle 706" width="80.322" height="115.161" transform="translate(-17.081 -7.633)" fill="#2e5c4c"/>
      </g>
      <g id="tree-10" data-name="tree" transform="translate(1363.156 388.117)" opacity="0.559" clip-path="url(#clip-path-10)">
        <rect id="Rectangle_707" data-name="Rectangle 707" width="29.116" height="41.745" transform="translate(-6.192 -2.767)" fill="#2e5c4c"/>
      </g>
      <g id="tree-11" data-name="tree" transform="translate(1384.609 375.592)" opacity="0.559" clip-path="url(#clip-path-10)">
        <rect id="Rectangle_708" data-name="Rectangle 708" width="29.116" height="41.745" transform="translate(-6.192 -2.767)" fill="#2e5c4c"/>
      </g>
      <g id="tree-12" data-name="tree" transform="translate(1410.949 372.102)" opacity="0.559" clip-path="url(#clip-path-10)">
        <rect id="Rectangle_709" data-name="Rectangle 709" width="29.116" height="41.745" transform="translate(-6.192 -2.767)" fill="#2e5c4c"/>
      </g>
      <g id="tree-13" data-name="tree" transform="translate(1459.223 354.846)" opacity="0.559" clip-path="url(#clip-path-13)">
        <rect id="Rectangle_710" data-name="Rectangle 710" width="23.895" height="34.259" transform="translate(-5.082 -2.271)" fill="#2e5c4c"/>
      </g>
    </g>
    <g id="Group_799" data-name="Group 799">
      <circle id="Ellipse_267" data-name="Ellipse 267" cx="166.5" cy="166.5" r="166.5" transform="translate(1614.467 232.008)" fill="#fff" opacity="0.846"/>
      <path id="Path_1776" data-name="Path 1776" d="M49.11,22h2.277V7.9h5.52v-2H43.59v2h5.52Zm18.262.184A8.157,8.157,0,0,0,75.9,13.95a8.157,8.157,0,0,0-8.533-8.234c-4.945,0-8.579,3.519-8.579,8.234S62.427,22.184,67.372,22.184Zm0-2.047a6.056,6.056,0,0,1-6.279-6.187,6.256,6.256,0,0,1,12.512,0A6.045,6.045,0,0,1,67.372,20.137ZM91.5,19.1a6.814,6.814,0,0,1-3.772,1.035,6.112,6.112,0,0,1-6.394-6.187A6.092,6.092,0,0,1,87.75,7.763a6.383,6.383,0,0,1,4.669,1.863L93.845,8.2a8.07,8.07,0,0,0-6.187-2.484c-4.991,0-8.625,3.473-8.625,8.234s3.634,8.234,8.579,8.234a9.515,9.515,0,0,0,6.1-2.047V13.858H91.5Zm9.821.9V14.8h8.073V12.846H101.32V7.9h9.062v-2H99.02V22H110.7V20Zm17.227,2h2.277V7.9h5.52v-2H113.027v2h5.52Zm22.77-16.1v6.923h-9.246V5.9h-2.3V22h2.3V14.824h9.246V22h2.3V5.9ZM151.667,20V14.8h8.073V12.846h-8.073V7.9h9.062v-2H149.367V22h11.684V20Zm27.3,2-3.818-5.405a5.081,5.081,0,0,0,3.542-5.083c0-3.5-2.53-5.612-6.716-5.612H165.7V22H168V17.1h3.979c.345,0,.69-.023,1.012-.046L176.46,22Zm-7.061-6.854H168V7.9h3.91c2.944,0,4.485,1.311,4.485,3.611S174.85,15.146,171.906,15.146ZM42.7,45.9,38.265,59.056,33.826,45.9H31.71L27.179,58.987,22.832,45.9H20.463L25.845,62h2.461L32.7,49.143,37.092,62h2.415l5.382-16.1ZM50.915,60V54.8h8.073V52.846H50.915V47.9h9.062v-2H48.615V62H60.3V60Zm14.26-15.2a1.5,1.5,0,0,0-1.541,1.564,1.463,1.463,0,0,0,.966,1.426l-.851,3.427H65.2l1.1-3.22a4.49,4.49,0,0,0,.368-1.633A1.481,1.481,0,0,0,65.175,44.8Zm18.331,1.1L77.664,59.125,71.868,45.9H69.384L76.468,62h2.277l7.061-16.1ZM91.073,60V54.8h8.073V52.846H91.073V47.9h9.062v-2H88.773V62h11.684V60Zm34.408,2-3.818-5.4a5.081,5.081,0,0,0,3.542-5.083c0-3.5-2.53-5.612-6.716-5.612H112.21V62h2.3V57.1h3.979c.345,0,.69-.023,1.012-.046L122.974,62Zm-7.061-6.854h-3.91V47.9h3.91c2.944,0,4.485,1.311,4.485,3.611S121.364,55.146,118.42,55.146ZM141.88,62h2.415l-7.314-16.1H134.7L127.413,62h2.369l1.771-4.025h8.556Zm-9.522-5.865,3.473-7.889,3.473,7.889ZM147.607,62h2.3V45.9h-2.3Zm12.742.184c4.255,0,6.233-2.116,6.233-4.577,0-5.911-9.752-3.45-9.752-7.383,0-1.4,1.173-2.553,3.91-2.553a8.315,8.315,0,0,1,4.416,1.311l.759-1.84a9.472,9.472,0,0,0-5.175-1.426c-4.232,0-6.164,2.116-6.164,4.6,0,5.98,9.752,3.5,9.752,7.429,0,1.4-1.2,2.484-3.979,2.484a8.286,8.286,0,0,1-5.313-1.863l-.851,1.794A9.557,9.557,0,0,0,160.349,62.184ZM173.16,60V54.8h8.073V52.846H173.16V47.9h9.062v-2H170.86V62h11.684V60Zm14.03,2h6.785c5.175,0,8.694-3.266,8.694-8.05s-3.519-8.05-8.694-8.05H187.19Zm2.3-2V47.9h4.347c3.979,0,6.532,2.438,6.532,6.049S197.816,60,193.837,60ZM33.907,94.893h5.819V93.007H33.907V91.926c0-2.369,1.38-3.634,4-3.634a6.773,6.773,0,0,1,3.749.9l.943-2.438a8.477,8.477,0,0,0-4.531-1.081c-4.554,0-7.153,2.461-7.153,6.279v1.058H28.5v1.886h2.415v4.6H28.5V102H42.209V99.493h-8.3Zm17.572-2.346,3.91-4.646v-2H44.417v2.507h7.314l-3.657,4.347V94.8h1.472c2.438,0,3.5.943,3.5,2.392,0,1.5-1.265,2.438-3.4,2.438a7.507,7.507,0,0,1-4.715-1.587l-1.288,2.323a10.115,10.115,0,0,0,6.049,1.863c4.324,0,6.371-2.346,6.371-5.06C56.056,94.755,54.514,92.938,51.479,92.547Zm9.246,9.614a1.871,1.871,0,0,0,1.886-1.909,1.886,1.886,0,1,0-3.772,0A1.871,1.871,0,0,0,60.725,102.161ZM70.891,85.67C67.6,85.67,65,87.694,65,90.891c0,3.013,2.369,4.945,5.543,4.945a5.5,5.5,0,0,0,4.3-1.679v.023c0,3.657-1.909,5.543-4.945,5.543a5.475,5.475,0,0,1-3.059-.782l-1.1,2.254a8.071,8.071,0,0,0,4.232,1.035c4.669,0,7.889-3.036,7.889-8.556C77.859,88.5,75.284,85.67,70.891,85.67Zm.23,7.82c-1.955,0-3.22-1.058-3.22-2.737s1.288-2.737,3.151-2.737c2.139,0,3.335,1.2,3.335,2.714C74.386,92.317,73.052,93.49,71.12,93.49ZM106.84,102l-.023-16.1h-2.461L98.076,96.572,91.683,85.9H89.222V102h2.852V91.466l5.29,8.694H98.7l5.29-8.832L104.01,102Zm5.267,0h2.99V85.9h-2.99Zm8.257,0h11.408V99.47h-8.418V85.9h-2.99Zm14.7,0h11.408V99.47H138.05V85.9h-2.99Zm14.7,0h2.99V85.9h-2.99Zm15.778.23c4.991,0,8.671-3.5,8.671-8.28s-3.68-8.28-8.671-8.28-8.671,3.519-8.671,8.28S160.545,102.23,165.536,102.23Zm0-2.622a5.658,5.658,0,1,1,5.658-5.658A5.487,5.487,0,0,1,165.536,99.608Zm24.1-13.708V96.8l-8.878-10.9H178.3V102h2.967V91.1l8.878,10.9h2.461V85.9ZM26.018,142h2.415l-7.314-16.1H18.842L11.551,142H13.92l1.771-4.025h8.556ZM16.5,136.135l3.473-7.889,3.473,7.889ZM43.291,125.9v12.006L33.631,125.9H31.745V142h2.3V129.994L43.7,142H45.59V125.9Zm8.05,16.1h6.785c5.175,0,8.694-3.266,8.694-8.05s-3.519-8.05-8.694-8.05H51.341Zm2.3-2V127.9h4.347c3.979,0,6.532,2.438,6.532,6.049S61.967,140,57.988,140Zm31.924,2.185a7.989,7.989,0,0,0,6.141-2.53l-1.495-1.449a5.987,5.987,0,0,1-4.531,1.932,6.189,6.189,0,1,1,0-12.374,5.966,5.966,0,0,1,4.531,1.909l1.495-1.449a7.956,7.956,0,0,0-6.118-2.507c-4.9,0-8.533,3.473-8.533,8.234A8.138,8.138,0,0,0,85.564,142.184Zm17.273,0a8.239,8.239,0,1,0,0-16.468c-4.945,0-8.579,3.519-8.579,8.234S97.893,142.184,102.838,142.184Zm0-2.047a6.187,6.187,0,1,1,6.233-6.187A6.056,6.056,0,0,1,102.838,140.137Zm19.642,2.047c4.255,0,6.808-2.461,6.808-7.13V125.9h-2.231v9.062c0,3.565-1.656,5.175-4.554,5.175s-4.531-1.61-4.531-5.175V125.9h-2.3v9.154C115.672,139.723,118.247,142.184,122.479,142.184ZM146.469,125.9v12.006l-9.66-12.006h-1.886V142h2.3V129.994L146.883,142h1.886V125.9ZM157.715,142h2.277V127.9h5.52v-2H152.2v2h5.52Zm11.224,0h2.3V125.9h-2.3Zm19.6-16.1v12.006l-9.66-12.006H176.99V142h2.3V129.994L188.95,142h1.886V125.9Zm19.205,13.2a6.814,6.814,0,0,1-3.772,1.035,6.191,6.191,0,1,1,.023-12.374,6.383,6.383,0,0,1,4.669,1.863l1.426-1.426a8.07,8.07,0,0,0-6.187-2.484c-4.991,0-8.625,3.473-8.625,8.234s3.634,8.234,8.579,8.234a9.515,9.515,0,0,0,6.1-2.047v-6.279h-2.208Z" transform="translate(1669.217 324.998)" fill="#2b6983"/>
    </g>
  </g>
</svg>
