<svg xmlns="http://www.w3.org/2000/svg" xmlns:xlink="http://www.w3.org/1999/xlink" width="1000" height="1600" viewBox="0 0 1000 1600"><defs><linearGradient id="linear-gradient" x1="0.5" x2="0.5" y2="0.426" gradientUnits="objectBoundingBox"><stop offset="0" stop-color="#bbd6e2"></stop><stop offset="1" stop-color="#edcec7"></stop></linearGradient><linearGradient id="linear-gradient-2" x1="0.5" x2="0.5" y2="1" gradientUnits="objectBoundingBox"><stop offset="0" stop-color="#2a6680"></stop><stop offset="0.502" stop-color="#3992b7"></stop><stop offset="1" stop-color="#bbd6e2"></stop></linearGradient><clipPath id="clip-background-mobile"><rect width="1000" height="1600"></rect></clipPath></defs><g id="background-mobile" clip-path="url(#clip-background-mobile)"><rect width="1000" height="1600" fill="#fff"></rect><rect id="background-sky" width="1014" height="1217" transform="translate(-4 -110.896)" fill="url(#linear-gradient)"></rect><rect id="sky-pink" width="1014" height="1217" transform="translate(-4 -110.896)" fill="#fceae7" style="mix-blend-mode: color-burn;isolation: isolate"></rect><path id="background-sea" d="M994.779-21531.332v510.434l2049.544-22.58,21.783-533.229s-685.8-355.174-1098.651,102.924S994.779-21531.332,994.779-21531.332Z" transform="translate(-1550.57 21736.746)" fill="#488ca0" opacity="0.169"></path><g id="Group_1386" transform="translate(-555.795 -8.138)"><path id="night-sky" d="M0,685.607c4.512-.693,9.094-1.441,13.616-2.227,15.911-2.762,31.5-6.048,46.328-9.768,14.517-3.642,28.761-7.8,42.338-12.381,13.228-4.455,26.227-9.434,38.636-14.8,12.066-5.222,23.915-10.953,35.214-17.041,10.968-5.906,21.764-12.33,32.083-19.087,9.98-6.539,19.812-13.588,29.231-20.956,9.073-7.1,18.043-14.711,26.661-22.631,8.286-7.615,16.489-15.731,24.383-24.121,7.545-8.021,15.075-16.576,22.382-25.429a658.435,658.435,0,0,0,39.91-54.022c24.938-37.34,46.977-77.018,68.286-115.387l.049-.086.014-.026,0-.006.388-.7.014-.021.008-.016c11.815-21.276,24.03-43.276,36.64-64.707,6.774-11.515,13.086-21.892,19.292-31.73,6.984-11.063,13.669-21.194,20.448-30.967,7.272-10.479,14.671-20.556,21.994-29.942,7.833-10.044,15.882-19.688,23.92-28.671,8.523-9.52,17.348-18.652,26.241-27.144,9.344-8.929,19.081-17.462,28.941-25.366,10.291-8.254,21.069-16.1,32.026-23.33,11.4-7.513,23.343-14.591,35.508-21.041,12.588-6.675,25.834-12.9,39.365-18.5,13.944-5.774,28.62-11.057,43.613-15.707,15.438-4.785,31.673-9.043,48.251-12.653,17.023-3.713,34.946-6.86,53.272-9.359,18.767-2.556,38.508-4.507,58.677-5.8C928.349.67,950.042,0,972.2,0c16.073,0,32.824.353,49.794,1.051,17.122.7,34.981,1.784,53.08,3.214v6.342h222.1V685.3h-222.1v.312Z" transform="translate(497.158 0.001)" fill="url(#linear-gradient-2)"></path><path id="Subtraction_128" d="M1567.5,497.592H0L19.315,0c.111.167,13.824,21.442,39.531,53.127C73.855,71.621,89.923,89.943,106.6,107.576c20.819,22.015,42.667,43.011,64.95,62.422,56.658,49.353,116.238,88.676,177.079,116.871a587.923,587.923,0,0,0,109.921,38.513,536.319,536.319,0,0,0,59.828,10.789,522.313,522.313,0,0,0,62.883,3.819,532.98,532.98,0,0,0,91.321-7.983,588.3,588.3,0,0,0,96.5-25.677A702.736,702.736,0,0,0,870.4,260.345a894.885,894.885,0,0,0,105.777-68.88,820.048,820.048,0,0,1,96.786-63.07A646.383,646.383,0,0,1,1166.1,86.022a543.312,543.312,0,0,1,89.2-23.843,493.718,493.718,0,0,1,84.974-7.461,485.429,485.429,0,0,1,60.912,3.86,501.954,501.954,0,0,1,58.243,10.947A561.744,561.744,0,0,1,1567.5,109.045V497.592h0Z" transform="translate(0.001 317.077)" fill="#286984" opacity="0.523"></path></g><path id="foreground" d="M1.352,1179.887V484.665H0V121.359c4.7,2.082,9.371,4.017,13.9,5.744A329.574,329.574,0,0,0,73.784,143.51a425.276,425.276,0,0,0,74.311,6.236,567.792,567.792,0,0,0,66.591-4.123,747.693,747.693,0,0,0,76.22-13.353c27.425-6.215,56.511-14.3,86.453-24.046,31.132-10.126,63.876-22.308,97.3-36.188,30.575-12.735,61.115-23.965,90.773-33.392,28.347-9,56.338-16.493,83.18-22.293A750.362,750.362,0,0,1,724.486,3.865,629.816,629.816,0,0,1,793.24,0a539.835,539.835,0,0,1,67.184,4.1,475.862,475.862,0,0,1,59.286,11.25,424.527,424.527,0,0,1,96.082,37.474l-.01,407.487h.01v719.577Z" transform="translate(-5.444 516.27)" fill="#286984"></path></g></svg>