<svg xmlns="http://www.w3.org/2000/svg" xmlns:xlink="http://www.w3.org/1999/xlink" width="2000" height="1000" viewBox="0 0 2000 1000"><defs><linearGradient id="linear-gradient" x1="0.5" x2="0.5" y2="1" gradientUnits="objectBoundingBox"><stop offset="0" stop-color="#cbcfd5"></stop><stop offset="1" stop-color="#edcac1"></stop></linearGradient><linearGradient id="linear-gradient-2" x1="0.5" x2="0.649" y2="1.402" gradientUnits="objectBoundingBox"><stop offset="0" stop-color="#23687b"></stop><stop offset="0.283" stop-color="#3c98ac"></stop><stop offset="1" stop-color="#68aeb8"></stop></linearGradient><radialGradient id="radial-gradient" cx="0.5" cy="0.5" r="0.5" gradientUnits="objectBoundingBox"><stop offset="0" stop-color="#57959f"></stop><stop offset="0.182" stop-color="#50939c"></stop><stop offset="0.36" stop-color="#2b8594"></stop><stop offset="0.516" stop-color="#2b8694"></stop><stop offset="0.798" stop-color="#235d70"></stop><stop offset="1" stop-color="#224f62"></stop></radialGradient><radialGradient id="radial-gradient-2" cx="0.955" cy="0.949" r="1.192" gradientTransform="matrix(-0.334, -0.943, 1.011, -0.358, 0.271, 1.88)" xlink:href="#radial-gradient"></radialGradient><clipPath id="clip-splash-screen_bground-lg"><rect width="2000" height="1000"></rect></clipPath></defs><g id="splash-screen_bground-lg" clip-path="url(#clip-splash-screen_bground-lg)"><rect width="2000" height="1000" fill="#fff"></rect><rect id="background" width="2000" height="1050" transform="translate(0 -50)" fill="url(#linear-gradient)"></rect><g id="Group_1605" transform="translate(197 -109)"><path id="curve-3" d="M994.779-21415.7v844.539l3391.08-37.371,36.04-882.242s-1134.691-587.656-1817.777,170.285S994.779-21415.7,994.779-21415.7Z" transform="translate(-1958.949 21640.27)" fill="#488ca0" opacity="0.171"></path><path id="curve-2" d="M0,1134.379c7.464-1.148,15.046-2.385,22.53-3.682,26.325-4.572,52.114-10.01,76.65-16.161,24.017-6.026,47.586-12.919,70.052-20.484,21.886-7.372,43.389-15.61,63.921-24.492,19.964-8.637,39.566-18.119,58.265-28.19,18.147-9.777,36.009-20.4,53.081-31.586,16.512-10.82,32.786-22.482,48.363-34.671,15.013-11.742,29.854-24.339,44.114-37.443,13.708-12.6,27.279-26.027,40.343-39.912,12.48-13.273,24.943-27.429,37.028-42.071a1090.153,1090.153,0,0,0,66.04-89.384c41.258-61.786,77.718-127.43,112.981-190.916l.081-.145.024-.04,0-.012.641-1.152.024-.04.016-.024c19.545-35.2,39.759-71.6,60.618-107.064,11.211-19.05,21.652-36.222,31.924-52.5,11.549-18.309,22.619-35.066,33.833-51.236,12.029-17.342,24.27-34.011,36.383-49.544C869.878,297.021,883.2,281.061,896.5,266.2c14.1-15.755,28.705-30.865,43.413-44.911,15.465-14.776,31.574-28.895,47.884-41.971,17.032-13.652,34.861-26.639,52.992-38.6,18.856-12.431,38.619-24.145,58.744-34.816,20.834-11.042,42.748-21.342,65.137-30.607,23.074-9.551,47.352-18.3,72.162-25.986,25.539-7.92,52.4-14.965,79.832-20.939,28.162-6.143,57.818-11.352,88.135-15.481,31.054-4.23,63.719-7.46,97.089-9.6C1536,1.108,1571.894,0,1608.563,0c26.587,0,54.305.584,82.382,1.74,28.331,1.164,57.882,2.953,87.824,5.317V17.551h367.475V1133.859H1778.77v.52Z" transform="translate(-141.603 -366.918)" opacity="0.903" fill="url(#linear-gradient-2)"></path><path id="curve-1" d="M-10500.525-18644.494l-31.951,823.291h3201.586v-59.891s-656.864-1146.215-1586.446-446.627S-10500.525-18644.494-10500.525-18644.494Z" transform="translate(9568.307 18802.189)" opacity="0.523" fill="url(#radial-gradient)"></path><path id="foreground" d="M0,8.081S159.814,463.208,1002.34,119.212,2136.1,285.065,2136.1,285.065V801.936H22.582Z" transform="translate(-253.015 500.705)" fill="url(#radial-gradient-2)"></path></g><rect id="Rectangle_2607" width="778" height="414" transform="translate(1179 264.923)" fill="none"></rect><g id="Stars"><g id="Group_1555" transform="translate(1492.377 99.106)" opacity="0.168"><path id="Path_2186" d="M-141.458-12559.551c-.653-1.2,1.854-4.807,3.343-4.807s3.449,3.609,2.613,4.807S-140.8-12558.351-141.458-12559.551Z" transform="translate(353.115 12689.284)" fill="#fff"></path><path id="Path_2187" d="M-139.858-12557.062c-1.431-1.8.628-7.19,3.891-7.19,1.09,0,2.826-1.032,3.951,2.014,2.016-2.3,2.124,3.979.9,5.177l-4.855-.981Z" transform="translate(376.008 12685.103)" fill="#fff" opacity="0.775"></path><path id="Path_2188" d="M-141.331-12557.167c-1.431-1.8,4.062-7.19,7.325-7.19s7.557,5.393,5.726,7.19S-139.9-12555.373-141.331-12557.167Z" transform="translate(148.426 12833.494)" fill="#fff"></path><path id="Path_2189" d="M-141.458-12559.551c-.653-1.2,1.854-4.807,3.343-4.807s3.449,3.609,2.613,4.807S-140.8-12558.351-141.458-12559.551Z" transform="translate(193.165 12781.36)" fill="#fff"></path><path id="Path_2190" d="M-139.858-12557.062c-1.431-1.8.628-7.19,3.891-7.19,1.09,0,2.826-1.032,3.951,2.014,2.016-2.3,2.124,3.979.9,5.177l-4.855-.981Z" transform="translate(229.641 12777.002)" fill="#fff" opacity="0.66"></path><path id="Path_2191" d="M-141.331-12557.167c-1.431-1.8,4.062-7.19,7.325-7.19s7.557,5.393,5.726,7.19S-139.9-12555.373-141.331-12557.167Z" transform="translate(141.565 12666.149)" fill="#fff"></path><path id="Path_2192" d="M-141.331-12557.167c-1.431-1.8,4.062-7.19,7.325-7.19s7.557,5.393,5.726,7.19S-139.9-12555.373-141.331-12557.167Z" transform="translate(608.977 12781.123)" fill="#fff"></path><path id="Path_2193" d="M-141.331-12557.167c-1.431-1.8,4.062-7.19,7.325-7.19s7.557,5.393,5.726,7.19S-139.9-12555.373-141.331-12557.167Z" transform="translate(408.891 12564.357)" fill="#fff" opacity="0.542"></path></g><g id="Group_1592" transform="translate(653.671 42)" opacity="0.161"><path id="Path_2186-2" d="M-141.494-12561.167c-.434-.8,1.232-3.19,2.221-3.19s2.291,2.395,1.736,3.19S-141.06-12560.369-141.494-12561.167Z" transform="translate(334.72 12685.285)" fill="#fff"></path><path id="Path_2187-2" d="M-140.013-12559.533c-.951-1.193.417-4.775,2.584-4.775.724,0,1.877-.687,2.624,1.336,1.339-1.526,1.411,2.644.6,3.439l-3.225-.65Z" transform="translate(356.54 12681.465)" fill="#fff" opacity="0.775"></path><path id="Path_2188-2" d="M-141.41-12559.58c-.951-1.191,2.7-4.777,4.865-4.777s5.02,3.586,3.8,4.777S-140.459-12558.389-141.41-12559.58Z" transform="translate(141.565 12825.739)" fill="#fff"></path><path id="Path_2189-2" d="M-141.494-12561.167c-.434-.8,1.232-3.19,2.221-3.19s2.291,2.395,1.736,3.19S-141.06-12560.369-141.494-12561.167Z" transform="translate(171.282 12774.414)" fill="#fff"></path><path id="Path_2190-2" d="M-140.013-12559.533c-.951-1.193.417-4.775,2.584-4.775.724,0,1.877-.687,2.624,1.336,1.339-1.526,1.411,2.644.6,3.439l-3.225-.65Z" transform="translate(419.204 12582.407)" fill="#fff" opacity="0.437"></path><path id="Path_2192-2" d="M-141.41-12559.58c-.951-1.191,2.7-4.777,4.865-4.777s5.02,3.586,3.8,4.777S-140.459-12558.389-141.41-12559.58Z" transform="translate(575.863 12778.205)" fill="#fff"></path><path id="Path_2193-2" d="M-141.41-12559.58c-.951-1.191,2.7-4.777,4.865-4.777s5.02,3.586,3.8,4.777S-140.459-12558.389-141.41-12559.58Z" transform="translate(388.001 12564.357)" fill="#fff" opacity="0.542"></path><path id="Path_2206" d="M-140.013-12559.533c-.951-1.193.417-4.775,2.584-4.775.724,0,1.877-.687,2.624,1.336,1.339-1.526,1.411,2.644.6,3.439l-3.225-.65Z" transform="translate(487.635 12635.442)" fill="#fff" opacity="0.699"></path></g><g id="Group_1606" transform="translate(1019.671 389.281)" opacity="0.161"><path id="Path_2186-3" d="M-141.494-12561.167c-.434-.8,1.232-3.19,2.221-3.19s2.291,2.395,1.736,3.19S-141.06-12560.369-141.494-12561.167Z" transform="translate(334.72 12685.285)" fill="#fff"></path><path id="Path_2187-3" d="M-140.013-12559.533c-.951-1.193.417-4.775,2.584-4.775.724,0,1.877-.687,2.624,1.336,1.339-1.526,1.411,2.644.6,3.439l-3.225-.65Z" transform="translate(356.54 12681.465)" fill="#fff" opacity="0.775"></path><path id="Path_2188-3" d="M-141.41-12559.58c-.951-1.191,2.7-4.777,4.865-4.777s5.02,3.586,3.8,4.777S-140.459-12558.389-141.41-12559.58Z" transform="translate(141.565 12825.739)" fill="#fff"></path><path id="Path_2189-3" d="M-141.494-12561.167c-.434-.8,1.232-3.19,2.221-3.19s2.291,2.395,1.736,3.19S-141.06-12560.369-141.494-12561.167Z" transform="translate(171.282 12774.414)" fill="#fff"></path><path id="Path_2190-3" d="M-140.013-12559.533c-.951-1.193.417-4.775,2.584-4.775.724,0,1.877-.687,2.624,1.336,1.339-1.526,1.411,2.644.6,3.439l-3.225-.65Z" transform="translate(419.204 12582.407)" fill="#fff" opacity="0.437"></path><path id="Path_2192-3" d="M-141.41-12559.58c-.951-1.191,2.7-4.777,4.865-4.777s5.02,3.586,3.8,4.777S-140.459-12558.389-141.41-12559.58Z" transform="translate(575.863 12778.205)" fill="#fff"></path><path id="Path_2193-3" d="M-141.41-12559.58c-.951-1.191,2.7-4.777,4.865-4.777s5.02,3.586,3.8,4.777S-140.459-12558.389-141.41-12559.58Z" transform="translate(388.001 12564.357)" fill="#fff" opacity="0.542"></path><path id="Path_2206-2" d="M-140.013-12559.533c-.951-1.193.417-4.775,2.584-4.775.724,0,1.877-.687,2.624,1.336,1.339-1.526,1.411,2.644.6,3.439l-3.225-.65Z" transform="translate(487.635 12635.442)" fill="#fff" opacity="0.699"></path></g><g id="Group_1607" transform="translate(1450.309 656.334)" opacity="0.168"><path id="Path_2186-4" d="M-141.416-12557.662c-.91-1.668,2.583-6.7,4.657-6.7s4.8,5.027,3.64,6.7S-140.506-12555.99-141.416-12557.662Z" transform="translate(343.169 12679.024)" fill="#fff"></path><path id="Path_2187-4" d="M-139.676-12554.172c-1.994-2.5.875-10.016,5.419-10.016,1.518,0,3.937-1.437,5.5,2.8,2.809-3.2,2.959,5.543,1.26,7.211l-6.763-1.367Z" transform="translate(364.105 12674.842)" fill="#fff" opacity="0.775"></path><path id="Path_2189-4" d="M-141.416-12557.662c-.91-1.668,2.583-6.7,4.657-6.7s4.8,5.027,3.64,6.7S-140.506-12555.99-141.416-12557.662Z" transform="translate(213.441 12763.538)" fill="#fff"></path><path id="Path_2190-4" d="M-139.676-12554.172c-1.994-2.5.875-10.016,5.419-10.016,1.518,0,3.937-1.437,5.5,2.8,2.809-3.2,2.959,5.543,1.26,7.211l-6.763-1.367Z" transform="translate(225.13 12758.927)" fill="#fff" opacity="0.66"></path><path id="Path_2191-2" d="M-141.24-12554.342c-1.994-2.5,5.659-10.016,10.2-10.016s10.526,7.512,7.976,10.016S-139.246-12551.842-141.24-12554.342Z" transform="translate(141.565 12657.281)" fill="#fff"></path><path id="Path_2192-4" d="M-141.24-12554.342c-1.994-2.5,5.659-10.016,10.2-10.016s10.526,7.512,7.976,10.016S-139.246-12551.842-141.24-12554.342Z" transform="translate(583.72 12762.238)" fill="#fff"></path><path id="Path_2193-4" d="M-141.24-12554.342c-1.994-2.5,5.659-10.016,10.2-10.016s10.526,7.512,7.976,10.016S-139.246-12551.842-141.24-12554.342Z" transform="translate(394.446 12564.357)" fill="#fff" opacity="0.542"></path></g><g id="Group_1612" transform="translate(27.969 711.254)"><g id="Group_1555-2" transform="translate(0 185.516)" opacity="0.275"><path id="Path_2185" d="M-141.448-12560.758c-.716-.9,2.032-3.6,3.664-3.6s3.78,2.7,2.864,3.6S-140.732-12559.86-141.448-12560.758Z" transform="translate(502.851 12598.736)" fill="#fff"></path><path id="Path_2186-5" d="M-141.511-12561.952c-.327-.6.928-2.4,1.672-2.4s1.725,1.8,1.307,2.4S-141.185-12561.351-141.511-12561.952Z" transform="translate(495.893 12587.142)" fill="#fff"></path><path id="Path_2187-5" d="M-140.089-12560.738c-.716-.9.314-3.6,1.946-3.6.545,0,1.414-.518,1.976,1.008,1.009-1.151,1.063,1.99.452,2.59l-2.429-.493Z" transform="translate(513.516 12584.28)" fill="#fff" opacity="0.775"></path><path id="Path_2188-4" d="M-141.448-12560.758c-.716-.9,2.032-3.6,3.664-3.6s3.78,2.7,2.864,3.6S-140.732-12559.86-141.448-12560.758Z" transform="translate(144.996 12761.19)" fill="#fff"></path><path id="Path_2189-5" d="M-141.511-12561.952c-.327-.6.928-2.4,1.672-2.4s1.725,1.8,1.307,2.4S-141.185-12561.351-141.511-12561.952Z" transform="translate(167.375 12722.54)" fill="#fff"></path><path id="Path_2190-5" d="M-140.089-12560.738c-.716-.9.314-3.6,1.946-3.6.545,0,1.414-.518,1.976,1.008,1.009-1.151,1.063,1.99.452,2.59l-2.429-.493Z" transform="translate(184.998 12719.68)" fill="#fff" opacity="0.66"></path><path id="Path_2191-3" d="M-141.448-12560.758c-.716-.9,2.032-3.6,3.664-3.6s3.78,2.7,2.864,3.6S-140.732-12559.86-141.448-12560.758Z" transform="translate(141.565 12638.801)" fill="#fff"></path><path id="Path_2192-5" d="M-141.448-12560.758c-.716-.9,2.032-3.6,3.664-3.6s3.78,2.7,2.864,3.6S-140.732-12559.86-141.448-12560.758Z" transform="translate(499.419 12725.393)" fill="#fff"></path><path id="Path_2193-5" d="M-141.448-12560.758c-.716-.9,2.032-3.6,3.664-3.6s3.78,2.7,2.864,3.6S-140.732-12559.86-141.448-12560.758Z" transform="translate(346.232 12564.354)" fill="#fff" opacity="0.542"></path></g><g id="Group_1555-3" transform="translate(328.518 0)" opacity="0.275"><path id="Path_2185-2" d="M-141.448-12560.758c-.716-.9,2.032-3.6,3.664-3.6s3.78,2.7,2.864,3.6S-140.732-12559.86-141.448-12560.758Z" transform="translate(502.851 12598.736)" fill="#fff"></path><path id="Path_2186-6" d="M-141.511-12561.952c-.327-.6.928-2.4,1.672-2.4s1.725,1.8,1.307,2.4S-141.185-12561.351-141.511-12561.952Z" transform="translate(495.893 12587.142)" fill="#fff"></path><path id="Path_2187-6" d="M-140.089-12560.738c-.716-.9.314-3.6,1.946-3.6.545,0,1.414-.518,1.976,1.008,1.009-1.151,1.063,1.99.452,2.59l-2.429-.493Z" transform="translate(513.516 12584.28)" fill="#fff" opacity="0.775"></path><path id="Path_2188-5" d="M-141.448-12560.758c-.716-.9,2.032-3.6,3.664-3.6s3.78,2.7,2.864,3.6S-140.732-12559.86-141.448-12560.758Z" transform="translate(144.996 12761.19)" fill="#fff"></path><path id="Path_2189-6" d="M-141.511-12561.952c-.327-.6.928-2.4,1.672-2.4s1.725,1.8,1.307,2.4S-141.185-12561.351-141.511-12561.952Z" transform="translate(167.375 12722.54)" fill="#fff"></path><path id="Path_2190-6" d="M-140.089-12560.738c-.716-.9.314-3.6,1.946-3.6.545,0,1.414-.518,1.976,1.008,1.009-1.151,1.063,1.99.452,2.59l-2.429-.493Z" transform="translate(184.998 12719.68)" fill="#fff" opacity="0.66"></path><path id="Path_2191-4" d="M-141.448-12560.758c-.716-.9,2.032-3.6,3.664-3.6s3.78,2.7,2.864,3.6S-140.732-12559.86-141.448-12560.758Z" transform="translate(141.565 12638.801)" fill="#fff"></path><path id="Path_2192-6" d="M-141.448-12560.758c-.716-.9,2.032-3.6,3.664-3.6s3.78,2.7,2.864,3.6S-140.732-12559.86-141.448-12560.758Z" transform="translate(499.419 12725.393)" fill="#fff"></path><path id="Path_2193-6" d="M-141.448-12560.758c-.716-.9,2.032-3.6,3.664-3.6s3.78,2.7,2.864,3.6S-140.732-12559.86-141.448-12560.758Z" transform="translate(346.232 12564.354)" fill="#fff" opacity="0.542"></path></g><g id="Group_1614" transform="translate(0.001 185.516)" opacity="0.275"><path id="Path_2185-3" d="M-141.448-12560.758c-.716-.9,2.032-3.6,3.664-3.6s3.78,2.7,2.864,3.6S-140.732-12559.86-141.448-12560.758Z" transform="translate(502.851 12598.736)" fill="#fff"></path><path id="Path_2186-7" d="M-141.511-12561.952c-.327-.6.928-2.4,1.672-2.4s1.725,1.8,1.307,2.4S-141.185-12561.351-141.511-12561.952Z" transform="translate(495.893 12587.142)" fill="#fff"></path><path id="Path_2187-7" d="M-140.089-12560.738c-.716-.9.314-3.6,1.946-3.6.545,0,1.414-.518,1.976,1.008,1.009-1.151,1.063,1.99.452,2.59l-2.429-.493Z" transform="translate(513.516 12584.28)" fill="#fff" opacity="0.775"></path><path id="Path_2188-6" d="M-141.448-12560.758c-.716-.9,2.032-3.6,3.664-3.6s3.78,2.7,2.864,3.6S-140.732-12559.86-141.448-12560.758Z" transform="translate(144.996 12761.19)" fill="#fff"></path><path id="Path_2189-7" d="M-141.511-12561.952c-.327-.6.928-2.4,1.672-2.4s1.725,1.8,1.307,2.4S-141.185-12561.351-141.511-12561.952Z" transform="translate(167.375 12722.54)" fill="#fff"></path><path id="Path_2190-7" d="M-140.089-12560.738c-.716-.9.314-3.6,1.946-3.6.545,0,1.414-.518,1.976,1.008,1.009-1.151,1.063,1.99.452,2.59l-2.429-.493Z" transform="translate(184.998 12719.68)" fill="#fff" opacity="0.66"></path><path id="Path_2191-5" d="M-141.448-12560.758c-.716-.9,2.032-3.6,3.664-3.6s3.78,2.7,2.864,3.6S-140.732-12559.86-141.448-12560.758Z" transform="translate(141.565 12638.801)" fill="#fff"></path><path id="Path_2192-7" d="M-141.448-12560.758c-.716-.9,2.032-3.6,3.664-3.6s3.78,2.7,2.864,3.6S-140.732-12559.86-141.448-12560.758Z" transform="translate(499.419 12725.393)" fill="#fff"></path><path id="Path_2193-7" d="M-141.448-12560.758c-.716-.9,2.032-3.6,3.664-3.6s3.78,2.7,2.864,3.6S-140.732-12559.86-141.448-12560.758Z" transform="translate(346.232 12564.354)" fill="#fff" opacity="0.542"></path></g></g><g id="Group_1625" transform="translate(861 -257.391)" opacity="0.275"><path id="Path_2185-4" d="M-141.385-12558.807c-1.1-1.386,3.134-5.547,5.651-5.547s5.83,4.161,4.417,5.547S-140.28-12557.421-141.385-12558.807Z" transform="translate(732.814 13195.342)" fill="#fff"></path><path id="Path_2186-8" d="M-141.482-12560.646c-.5-.925,1.431-3.707,2.58-3.707s2.661,2.782,2.016,3.707S-140.978-12559.721-141.482-12560.646Z" transform="translate(722.082 13177.456)" fill="#fff"></path><path id="Path_2187-8" d="M-139.963-12558.741c-1.1-1.386.484-5.548,3-5.548.841,0,2.18-.8,3.048,1.554,1.556-1.774,1.639,3.069.7,3.994l-3.746-.757Z" transform="translate(749.939 13173.008)" fill="#fff" opacity="0.775"></path><path id="Path_2188-7" d="M-141.385-12558.807c-1.1-1.386,3.134-5.547,5.651-5.547s5.83,4.161,4.417,5.547S-140.28-12557.421-141.385-12558.807Z" transform="translate(180.858 13445.911)" fill="#fff"></path><path id="Path_2189-8" d="M-141.482-12560.646c-.5-.925,1.431-3.707,2.58-3.707s2.661,2.782,2.016,3.707S-140.978-12559.721-141.482-12560.646Z" transform="translate(215.375 13386.296)" fill="#fff"></path><path id="Path_2190-8" d="M-139.963-12558.741c-1.1-1.386.484-5.548,3-5.548.841,0,2.18-.8,3.048,1.554,1.556-1.774,1.639,3.069.7,3.994l-3.746-.757Z" transform="translate(243.232 13381.848)" fill="#fff" opacity="0.66"></path><path id="Path_2191-6" d="M-141.385-12558.807c-1.1-1.386,3.134-5.547,5.651-5.547s5.83,4.161,4.417,5.547S-140.28-12557.421-141.385-12558.807Z" transform="translate(175.565 13257.138)" fill="#fff"></path><path id="Path_2192-8" d="M-141.385-12558.807c-1.1-1.386,3.134-5.547,5.651-5.547s5.83,4.161,4.417,5.547S-140.28-12557.421-141.385-12558.807Z" transform="translate(727.521 13390.697)" fill="#fff"></path><path id="Path_2193-8" d="M-141.385-12558.807c-1.1-1.386,3.134-5.547,5.651-5.547s5.83,4.161,4.417,5.547S-140.28-12557.421-141.385-12558.807Z" transform="translate(491.244 13142.312)" fill="#fff" opacity="0.542"></path></g><g id="Group_1653" transform="translate(765 82.851)" opacity="0.275"><path id="Path_2185-5" d="M-134.359-12560.514c.765-.959-2.17-3.841-3.913-3.841s-4.037,2.882-3.058,3.841S-135.124-12559.554-134.359-12560.514Z" transform="translate(152.295 12601.07)" fill="#fff"></path><path id="Path_2186-9" d="M-138.276-12561.787c.349-.641-.991-2.567-1.786-2.567s-1.843,1.927-1.4,2.567S-138.625-12561.146-138.276-12561.787Z" transform="translate(163.71 12588.688)" fill="#fff"></path><path id="Path_2187-9" d="M-135.226-12560.488c.765-.959-.335-3.842-2.078-3.842-.582,0-1.51-.551-2.11,1.076-1.077-1.229-1.135,2.125-.483,2.766l2.594-.523Z" transform="translate(140.32 12585.627)" fill="#fff" opacity="0.775"></path><path id="Path_2188-8" d="M-134.359-12560.514c.765-.959-2.17-3.841-3.913-3.841s-4.037,2.882-3.058,3.841S-135.124-12559.554-134.359-12560.514Z" transform="translate(534.452 12774.558)" fill="#fff"></path><path id="Path_2189-9" d="M-138.276-12561.787c.349-.641-.991-2.567-1.786-2.567s-1.843,1.927-1.4,2.567S-138.625-12561.146-138.276-12561.787Z" transform="translate(514.538 12733.281)" fill="#fff"></path><path id="Path_2190-9" d="M-135.226-12560.488c.765-.959-.335-3.842-2.078-3.842-.582,0-1.51-.551-2.11,1.076-1.077-1.229-1.135,2.125-.483,2.766l2.594-.523Z" transform="translate(491.148 12730.222)" fill="#fff" opacity="0.66"></path><path id="Path_2191-7" d="M-134.359-12560.514c.765-.959-2.17-3.841-3.913-3.841s-4.037,2.882-3.058,3.841S-135.124-12559.554-134.359-12560.514Z" transform="translate(538.117 12643.856)" fill="#fff"></path><path id="Path_2192-9" d="M-134.359-12560.514c.765-.959-2.17-3.841-3.913-3.841s-4.037,2.882-3.058,3.841S-135.124-12559.554-134.359-12560.514Z" transform="translate(155.96 12736.328)" fill="#fff"></path><path id="Path_2193-9" d="M-134.359-12560.514c.765-.959-2.17-3.841-3.913-3.841s-4.037,2.882-3.058,3.841S-135.124-12559.554-134.359-12560.514Z" transform="translate(319.55 12564.354)" fill="#fff" opacity="0.542"></path></g><g id="Group_1654" transform="translate(956 51.851)" opacity="0.234"><path id="Path_2185-6" d="M-134.359-12560.514c.765-.959-2.17-3.841-3.913-3.841s-4.037,2.882-3.058,3.841S-135.124-12559.554-134.359-12560.514Z" transform="translate(152.295 12601.07)" fill="#fff"></path><path id="Path_2186-10" d="M-138.276-12561.787c.349-.641-.991-2.567-1.786-2.567s-1.843,1.927-1.4,2.567S-138.625-12561.146-138.276-12561.787Z" transform="translate(163.71 12588.688)" fill="#fff"></path><path id="Path_2187-10" d="M-135.226-12560.488c.765-.959-.335-3.842-2.078-3.842-.582,0-1.51-.551-2.11,1.076-1.077-1.229-1.135,2.125-.483,2.766l2.594-.523Z" transform="translate(140.32 12585.627)" fill="#fff" opacity="0.775"></path><path id="Path_2188-9" d="M-134.359-12560.514c.765-.959-2.17-3.841-3.913-3.841s-4.037,2.882-3.058,3.841S-135.124-12559.554-134.359-12560.514Z" transform="translate(534.452 12774.558)" fill="#fff"></path><path id="Path_2189-10" d="M-138.276-12561.787c.349-.641-.991-2.567-1.786-2.567s-1.843,1.927-1.4,2.567S-138.625-12561.146-138.276-12561.787Z" transform="translate(514.538 12733.281)" fill="#fff"></path><path id="Path_2190-10" d="M-135.226-12560.488c.765-.959-.335-3.842-2.078-3.842-.582,0-1.51-.551-2.11,1.076-1.077-1.229-1.135,2.125-.483,2.766l2.594-.523Z" transform="translate(491.148 12730.222)" fill="#fff" opacity="0.66"></path><path id="Path_2191-8" d="M-134.359-12560.514c.765-.959-2.17-3.841-3.913-3.841s-4.037,2.882-3.058,3.841S-135.124-12559.554-134.359-12560.514Z" transform="translate(538.117 12643.856)" fill="#fff"></path><path id="Path_2192-10" d="M-134.359-12560.514c.765-.959-2.17-3.841-3.913-3.841s-4.037,2.882-3.058,3.841S-135.124-12559.554-134.359-12560.514Z" transform="translate(155.96 12736.328)" fill="#fff"></path><path id="Path_2193-10" d="M-134.359-12560.514c.765-.959-2.17-3.841-3.913-3.841s-4.037,2.882-3.058,3.841S-135.124-12559.554-134.359-12560.514Z" transform="translate(319.55 12564.354)" fill="#fff" opacity="0.542"></path></g><g id="Group_1651" transform="translate(1021.354 -557.312)" opacity="0.161"><path id="Path_2186-11" d="M-141.521-12562.386c-.268-.491.76-1.969,1.371-1.969s1.414,1.478,1.071,1.969S-141.253-12561.894-141.521-12562.386Z" transform="translate(296.992 13216.944)" fill="#fff"></path><path id="Path_2187-11" d="M-140.13-12561.4c-.587-.736.257-2.948,1.595-2.948.447,0,1.159-.424,1.62.825.827-.941.871,1.631.371,2.123l-1.99-.4Z" transform="translate(309.982 13214.612)" fill="#fff" opacity="0.775"></path><path id="Path_2188-10" d="M-141.469-12561.407c-.587-.734,1.665-2.947,3-2.947s3.1,2.213,2.347,2.947S-140.882-12560.672-141.469-12561.407Z" transform="translate(177.784 13303.627)" fill="#fff"></path><path id="Path_2189-11" d="M-141.521-12562.386c-.268-.491.76-1.969,1.371-1.969s1.414,1.478,1.071,1.969S-141.253-12561.894-141.521-12562.386Z" transform="translate(196.124 13271.951)" fill="#fff"></path><path id="Path_2190-11" d="M-140.13-12561.4c-.587-.736.257-2.948,1.595-2.948.447,0,1.159-.424,1.62.825.827-.941.871,1.631.371,2.123l-1.99-.4Z" transform="translate(348.655 13153.479)" fill="#fff" opacity="0.437"></path><path id="Path_2192-11" d="M-141.469-12561.407c-.587-.734,1.665-2.947,3-2.947s3.1,2.213,2.347,2.947S-140.882-12560.672-141.469-12561.407Z" transform="translate(445.815 13274.29)" fill="#fff"></path><path id="Path_2193-11" d="M-141.469-12561.407c-.587-.734,1.665-2.947,3-2.947s3.1,2.213,2.347,2.947S-140.882-12560.672-141.469-12561.407Z" transform="translate(329.875 13142.313)" fill="#fff" opacity="0.542"></path><path id="Path_2206-3" d="M-140.13-12561.4c-.587-.736.257-2.948,1.595-2.948.447,0,1.159-.424,1.62.825.827-.941.871,1.631.371,2.123l-1.99-.4Z" transform="translate(390.888 13186.209)" fill="#fff" opacity="0.699"></path></g><g id="Group_1652" transform="translate(1351.354 -557.312)" opacity="0.289"><path id="Path_2186-12" d="M-141.521-12562.386c-.268-.491.76-1.969,1.371-1.969s1.414,1.478,1.071,1.969S-141.253-12561.894-141.521-12562.386Z" transform="translate(296.992 13216.944)" fill="#fff"></path><path id="Path_2187-12" d="M-140.13-12561.4c-.587-.736.257-2.948,1.595-2.948.447,0,1.159-.424,1.62.825.827-.941.871,1.631.371,2.123l-1.99-.4Z" transform="translate(309.982 13214.612)" fill="#fff" opacity="0.775"></path><path id="Path_2188-11" d="M-141.469-12561.407c-.587-.734,1.665-2.947,3-2.947s3.1,2.213,2.347,2.947S-140.882-12560.672-141.469-12561.407Z" transform="translate(177.784 13303.627)" fill="#fff"></path><path id="Path_2189-12" d="M-141.521-12562.386c-.268-.491.76-1.969,1.371-1.969s1.414,1.478,1.071,1.969S-141.253-12561.894-141.521-12562.386Z" transform="translate(196.124 13271.951)" fill="#fff"></path><path id="Path_2190-12" d="M-140.13-12561.4c-.587-.736.257-2.948,1.595-2.948.447,0,1.159-.424,1.62.825.827-.941.871,1.631.371,2.123l-1.99-.4Z" transform="translate(348.655 13153.479)" fill="#fff" opacity="0.437"></path><path id="Path_2192-12" d="M-141.469-12561.407c-.587-.734,1.665-2.947,3-2.947s3.1,2.213,2.347,2.947S-140.882-12560.672-141.469-12561.407Z" transform="translate(445.815 13274.29)" fill="#fff"></path><path id="Path_2193-12" d="M-141.469-12561.407c-.587-.734,1.665-2.947,3-2.947s3.1,2.213,2.347,2.947S-140.882-12560.672-141.469-12561.407Z" transform="translate(329.875 13142.313)" fill="#fff" opacity="0.542"></path><path id="Path_2206-4" d="M-140.13-12561.4c-.587-.736.257-2.948,1.595-2.948.447,0,1.159-.424,1.62.825.827-.941.871,1.631.371,2.123l-1.99-.4Z" transform="translate(390.888 13186.209)" fill="#fff" opacity="0.699"></path></g></g></g></svg>