<svg xmlns="http://www.w3.org/2000/svg" xmlns:xlink="http://www.w3.org/1999/xlink" width="2000" height="1000" viewBox="0 0 2000 1000"><defs><linearGradient id="linear-gradient" x1="0.5" x2="0.5" y2="0.573" gradientUnits="objectBoundingBox"><stop offset="0" stop-color="#bbd6e2"></stop><stop offset="1" stop-color="#edcec7"></stop></linearGradient><clipPath id="clip-path"><path id="Subtraction_3" d="M15.7,52.155h0a35.726,35.726,0,0,1-9.858-1.232C2.852,50.026.958,48.686.36,47.049c-.907-2.482-.085-8.668,2.313-17.417l3.839-.9L3.636,26.268c.82-2.745,1.73-5.528,2.7-8.273l2.567-.6L7.114,15.857c.98-2.648,1.959-5.085,2.91-7.247l2.251-.526L10.827,6.842C12.671,2.9,14.181.563,15.194.077A.787.787,0,0,1,15.537,0c1.156,0,2.956,2.346,5.208,6.783l-1.2,1.381,1.985.209c.95,1.986,1.939,4.245,2.94,6.715l-1.823,2.095,2.768.291c1.087,2.808,2.121,5.7,3.076,8.59l-2.43,2.792,3.438.362A104.538,104.538,0,0,1,32.365,40.34c.625,3.35.72,5.607.283,6.709-.606,1.528-2.7,2.832-6.067,3.772A41.872,41.872,0,0,1,15.7,52.155Z" transform="translate(0 0)" fill="#2e5c4c" opacity="0.746"></path></clipPath><clipPath id="clip-path-2"><path id="Subtraction_5" d="M11.821,39.278h0A26.9,26.9,0,0,1,4.4,38.35C2.148,37.675.721,36.666.271,35.433c-.683-1.869-.064-6.528,1.742-13.117L4.9,21.64,2.739,19.783c.618-2.068,1.3-4.164,2.036-6.231L6.708,13.1,5.358,11.943C6.1,9.949,6.834,8.113,7.55,6.485l1.694-.4-1.09-.935c1.389-2.968,2.527-4.73,3.29-5.1A.592.592,0,0,1,11.7,0c.87,0,2.226,1.767,3.921,5.109l-.906,1.041,1.5.157c.715,1.495,1.46,3.2,2.214,5.057l-1.373,1.577,2.084.219c.818,2.115,1.6,4.291,2.316,6.469l-1.831,2.1,2.59.273a78.743,78.743,0,0,1,2.161,8.376c.471,2.523.543,4.222.214,5.052-.457,1.15-2.037,2.133-4.57,2.841A31.537,31.537,0,0,1,11.821,39.278Z" transform="translate(0 0)" fill="#2e5c4c" opacity="0.746"></path></clipPath><linearGradient id="linear-gradient-2" x1="0.5" x2="0.5" y2="1" gradientUnits="objectBoundingBox"><stop offset="0" stop-color="#2a6680"></stop><stop offset="0.502" stop-color="#3992b7"></stop><stop offset="1" stop-color="#bbd6e2"></stop></linearGradient><clipPath id="clip-svg-bg-lg"><rect width="2000" height="1000"></rect></clipPath></defs><g id="svg-bg-lg" clip-path="url(#clip-svg-bg-lg)"><rect width="2000" height="1000" fill="#fff"></rect><rect id="background-sky" width="2057.472" height="1153.855" transform="translate(-52.934 -75.855)" fill="url(#linear-gradient)"></rect><rect id="background-sky-2" width="2057.472" height="1153.855" transform="translate(-52.934 -75.855)" fill="#edcec7" style="mix-blend-mode: color-burn;isolation: isolate"></rect><path id="background-sea" d="M994.779-21503.752v590.143l2369.612-26.1,25.184-616.5s-792.9-410.635-1270.222,119S994.779-21503.752,994.779-21503.752Z" transform="translate(-1065.213 21730.207)" fill="#488ca0" opacity="0.641"></path><path id="background-mid-green" d="M9659.462-23056.633h2160.313v-191.1s-521.042-647.035-1101.86-192.328-1058.453-238.387-1058.453-238.387Z" transform="translate(-9755.462 23850.691)" fill="#488ca0"></path><g id="trees" transform="translate(228.561 564.657)" opacity="0.119"><g id="tree" transform="translate(288.103 1.777)" clip-path="url(#clip-path)"><rect id="Rectangle_143" width="55.284" height="67.979" transform="translate(-11.756 -4.506)" fill="#2e5c4c"></rect></g><g id="tree-2" transform="translate(331.675 27.854)" clip-path="url(#clip-path-2)"><rect id="Rectangle_144" width="41.634" height="51.195" transform="translate(-8.854 -3.393)" fill="#2e5c4c"></rect></g><g id="tree-3" transform="translate(244.531 14.977)" clip-path="url(#clip-path)"><rect id="Rectangle_145" width="55.284" height="67.979" transform="translate(-11.756 -4.506)" fill="#2e5c4c"></rect></g><g id="tree-4" transform="translate(375.247 33.363)" clip-path="url(#clip-path)"><rect id="Rectangle_146" width="55.284" height="67.979" transform="translate(-11.756 -4.506)" fill="#2e5c4c"></rect></g><g id="tree-5" transform="translate(288.103 116.232)" clip-path="url(#clip-path)"><rect id="Rectangle_147" width="55.284" height="67.979" transform="translate(-11.756 -4.506)" fill="#2e5c4c"></rect></g><g id="tree-6" transform="translate(375.247 90.155)" clip-path="url(#clip-path)"><rect id="Rectangle_148" width="55.284" height="67.979" transform="translate(-11.756 -4.506)" fill="#2e5c4c"></rect></g><g id="tree-7" transform="translate(213.15 12.877)" clip-path="url(#clip-path-2)"><rect id="Rectangle_149" width="41.634" height="51.195" transform="translate(-8.854 -3.393)" fill="#2e5c4c"></rect></g><g id="tree-8" transform="translate(173.845 41.054)" opacity="0.996" clip-path="url(#clip-path)"><rect id="Rectangle_150" width="55.284" height="67.979" transform="translate(-11.756 -4.506)" fill="#2e5c4c"></rect></g><g id="tree-9" transform="translate(221.48 67.131)" clip-path="url(#clip-path)"><rect id="Rectangle_151" width="55.284" height="67.979" transform="translate(-11.756 -4.506)" fill="#2e5c4c"></rect></g><g id="tree-10" transform="translate(86.702 52.154)" clip-path="url(#clip-path)"><rect id="Rectangle_152" width="55.284" height="67.979" transform="translate(-11.756 -4.506)" fill="#2e5c4c"></rect></g><g id="tree-11" transform="translate(340.006 67.131)" clip-path="url(#clip-path)"><rect id="Rectangle_154" width="55.284" height="67.979" transform="translate(-11.756 -4.506)" fill="#2e5c4c"></rect></g><g id="tree-12" transform="translate(265.54 67.131)" clip-path="url(#clip-path-2)"><rect id="Rectangle_155" width="41.634" height="51.195" transform="translate(-8.854 -3.393)" fill="#2e5c4c"></rect></g><g id="tree-13" transform="translate(414.268 67.131)" clip-path="url(#clip-path-2)"><rect id="Rectangle_156" width="41.634" height="51.195" transform="translate(-8.854 -3.393)" fill="#2e5c4c"></rect></g><g id="tree-14" transform="translate(130.274 0)" opacity="0.996" clip-path="url(#clip-path)"><rect id="Rectangle_309" width="55.284" height="67.979" transform="translate(-11.756 -4.506)" fill="#2e5c4c"></rect></g><g id="tree-15" transform="translate(0 0)" opacity="0.996" clip-path="url(#clip-path)"><rect id="Rectangle_446" width="55.284" height="67.979" transform="translate(-11.756 -4.506)" fill="#2e5c4c"></rect></g><g id="tree-16" transform="translate(265.539 67.132)" clip-path="url(#clip-path-2)"><rect id="Rectangle_447" width="41.634" height="51.195" transform="translate(-8.854 -3.393)" fill="#2e5c4c"></rect></g></g><path id="night-sky" d="M0,792.678c5.216-.8,10.514-1.666,15.742-2.574,18.4-3.194,36.416-6.993,53.563-11.293,16.784-4.21,33.252-9.024,48.949-14.315,15.294-5.151,30.323-10.907,44.669-17.111,13.95-6.037,27.649-12.663,40.713-19.7,12.681-6.828,25.162-14.255,37.093-22.068,11.539-7.56,22.906-15.71,33.8-24.229,10.49-8.205,20.861-17.008,30.824-26.165,9.58-8.8,19.064-18.188,28.191-27.888,8.723-9.274,17.429-19.165,25.877-29.4a761.275,761.275,0,0,0,46.142-62.459c28.833-43.171,54.313-89.046,78.95-133.407l.057-.1.016-.03,0-.006.448-.808.016-.025.009-.018c13.66-24.6,27.782-50.035,42.362-74.812,7.832-13.313,15.13-25.311,22.3-36.685,8.075-12.791,15.8-24.5,23.641-35.8,8.408-12.115,16.962-23.766,25.428-34.618,9.056-11.612,18.362-22.762,27.656-33.149,9.854-11.007,20.057-21.565,30.339-31.383,10.8-10.324,22.061-20.189,33.46-29.327,11.9-9.543,24.36-18.617,37.027-26.974,13.176-8.687,26.988-16.87,41.053-24.327,14.554-7.717,29.869-14.914,45.513-21.389,16.122-6.676,33.089-12.784,50.424-18.16C882.117,28.92,900.888,24,920.054,19.823c19.681-4.293,40.4-7.931,61.591-10.82,21.7-2.956,44.521-5.21,67.84-6.7,23.84-1.528,48.921-2.3,74.541-2.3,18.584,0,37.951.408,57.57,1.215,19.8.812,40.444,2.063,61.37,3.716v7.332H1499.75V792.318H1242.966v.36Z" transform="translate(504.357 -20.44)" fill="url(#linear-gradient-2)"></path><path id="Union_248" d="M2499.433,25484.492v-219.2H2429l22.328-575.3s456.722,710.211,1106.295,221.35,1108.572,312.1,1108.572,312.1v41.848H4506.431v219.2Z" transform="translate(-2499.434 -24359.492)" fill="#286984"></path><g id="stars-moon" transform="translate(1326.869 65.92)" opacity="0.303"><g id="stars" transform="translate(0 0)"><path id="star" d="M4.744,6.178C4.791,5.923,3.425,1.073,3.721.987S7.763,4.54,7.992,4.555,13.159-.084,13.338,0s-2.47,5.776-2.383,5.983S15.308,8.42,15.3,8.719s-5.783.162-6.117.437S6.9,15.671,6.61,15.68s-.721-6.271-.886-6.417S.143,9.682,0,9.442,4.7,6.434,4.744,6.178Z" transform="translate(54.78 126.39) rotate(28)" fill="#fff" opacity="0.43"></path><path id="star-2" d="M4.744,6.178C4.791,5.923,3.425,1.073,3.721.987S7.763,4.54,7.992,4.555,13.159-.084,13.338,0s-2.47,5.776-2.383,5.983S15.308,8.42,15.3,8.719s-5.783.162-6.117.437S6.9,15.671,6.61,15.68s-.721-6.271-.886-6.417S.143,9.682,0,9.442,4.7,6.434,4.744,6.178Z" transform="translate(7.362 90.668) rotate(28)" fill="#fff"></path><path id="star-3" d="M5.872,7.2C5.916,6.887,3.839.72,4.213.632s5.425,4.709,5.72,4.742S16.257-.118,16.492,0s-2.784,7.085-2.659,7.35,5.752,3.329,5.759,3.7-7.415-.162-7.825.163S9.277,19.243,8.9,19.236s-1.344-7.908-1.566-8.1S.2,11.307,0,11,5.829,7.522,5.872,7.2Z" transform="matrix(0.966, -0.259, 0.259, 0.966, 90.951, 124.785)" fill="#fff"></path><path id="star-4" d="M4.744,6.178C4.791,5.923,3.425,1.073,3.721.987S7.763,4.54,7.992,4.555,13.159-.084,13.338,0s-2.47,5.776-2.383,5.983S15.308,8.42,15.3,8.719s-5.783.162-6.117.437S6.9,15.671,6.61,15.68s-.721-6.271-.886-6.417S.143,9.682,0,9.442,4.7,6.434,4.744,6.178Z" transform="translate(264.546 77.273) rotate(28)" fill="#fff" opacity="0.259"></path><path id="star-5" d="M4.744,6.178C4.791,5.923,3.425,1.073,3.721.987S7.763,4.54,7.992,4.555,13.159-.084,13.338,0s-2.47,5.776-2.383,5.983S15.308,8.42,15.3,8.719s-5.783.162-6.117.437S6.9,15.671,6.61,15.68s-.721-6.271-.886-6.417S.143,9.682,0,9.442,4.7,6.434,4.744,6.178Z" transform="translate(330.45 11.826) rotate(28)" fill="#fff"></path><path id="star-6" d="M5.872,7.2C5.916,6.887,3.839.72,4.213.632s5.425,4.709,5.72,4.742S16.257-.118,16.492,0s-2.784,7.085-2.659,7.35,5.752,3.329,5.759,3.7-7.415-.162-7.825.163S9.277,19.243,8.9,19.236s-1.344-7.908-1.566-8.1S.2,11.307,0,11,5.829,7.522,5.872,7.2Z" transform="matrix(0.966, -0.259, 0.259, 0.966, 573.047, 5.071)" fill="#fff"></path><path id="star-7" d="M3.184,3.907c.024-.172-1.1-3.516-.9-3.564s2.942,2.553,3.1,2.57S8.815-.065,8.942,0,7.432,3.842,7.5,3.987s3.118,1.8,3.122,2.007-4.02-.086-4.242.088S5.03,10.432,4.827,10.428,4.1,6.142,3.978,6.037.108,6.131,0,5.963,3.16,4.078,3.184,3.907Z" transform="matrix(0.966, -0.259, 0.259, 0.966, 540.084, 117.553)" fill="#fff" opacity="0.501"></path><path id="star-8" d="M3.184,3.907c.024-.172-1.1-3.516-.9-3.564s2.942,2.553,3.1,2.57S8.815-.065,8.942,0,7.432,3.842,7.5,3.987s3.118,1.8,3.122,2.007-4.02-.086-4.242.088S5.03,10.432,4.827,10.428,4.1,6.142,3.978,6.037.108,6.131,0,5.963,3.16,4.078,3.184,3.907Z" transform="matrix(0.966, -0.259, 0.259, 0.966, 566.569, 139.676)" fill="#fff"></path></g><path id="moon" d="M42.847,0c1.919,0,16.581,6.874,16.581,15.353S44.765,30.706,42.847,30.706s10.329-6.874,10.329-15.353S40.928,0,42.847,0Z" transform="translate(162.541 15.229)" fill="#fff"></path></g></g></svg>