<svg xmlns="http://www.w3.org/2000/svg" xmlns:xlink="http://www.w3.org/1999/xlink" width="1920" height="506" viewBox="0 0 1920 506"><defs><radialGradient id="radial-gradient" cx="1" cy="0.719" r="1.569" gradientTransform="matrix(0.338, -0.941, 0.79, 0.284, 0.094, 1.456)" gradientUnits="objectBoundingBox"><stop offset="0" stop-color="#89c4bb"></stop><stop offset="0.203" stop-color="#5eb6ac"></stop><stop offset="0.424" stop-color="#35aba7"></stop><stop offset="0.585" stop-color="#278b91"></stop><stop offset="0.696" stop-color="#235d70"></stop><stop offset="1" stop-color="#1e222e"></stop></radialGradient><clipPath id="clip-our_impact-header-background"><rect width="1920" height="506"></rect></clipPath></defs><g id="our_impact-header-background" clip-path="url(#clip-our_impact-header-background)"><rect width="1920" height="506" fill="#fff"></rect><g id="Group_1672" transform="translate(0.09 -319.709)"><path id="foreground" d="M165-789H2085v510.069H165Z" transform="translate(-165.091 1104.64)" fill="url(#radial-gradient)"></path><g id="stars" transform="translate(37.017 225.561)" opacity="0.275"><path id="Path_2185" d="M-141.363-12558.152c-1.235-1.547,3.5-6.2,6.319-6.2s6.519,4.652,4.939,6.2S-140.129-12556.6-141.363-12558.152Z" transform="translate(409.678 12616.82)" fill="#fff"></path><path id="Path_2186" d="M-141.473-12560.211c-.564-1.031,1.6-4.145,2.884-4.145s2.976,3.113,2.254,4.145S-140.909-12559.176-141.473-12560.211Z" transform="translate(397.678 12603.653)" fill="#fff"></path><path id="Path_2187" d="M-139.921-12558.072c-1.235-1.551.542-6.2,3.356-6.2.94,0,2.438-.891,3.408,1.738,1.739-1.984,1.832,3.43.78,4.465l-4.189-.848Z" transform="translate(428.974 12598.671)" fill="#fff" opacity="0.775"></path><path id="Path_2188" d="M-141.363-12558.152c-1.235-1.547,3.5-6.2,6.319-6.2s6.519,4.652,4.939,6.2S-140.129-12556.6-141.363-12558.152Z" transform="translate(147.483 12791.539)" fill="#fff"></path><path id="Path_2189" d="M-141.473-12560.211c-.564-1.031,1.6-4.145,2.884-4.145s2.976,3.113,2.254,4.145S-140.909-12559.176-141.473-12560.211Z" transform="translate(186.078 12747.574)" fill="#fff"></path><path id="Path_2190" d="M-139.921-12558.072c-1.235-1.551.542-6.2,3.356-6.2.94,0,2.438-.891,3.408,1.738,1.739-1.984,1.832,3.43.78,4.465l-4.189-.848Z" transform="translate(213.123 12743.886)" fill="#fff" opacity="0.66"></path><path id="Path_2191" d="M-141.363-12558.152c-1.235-1.547,3.5-6.2,6.319-6.2s6.519,4.652,4.939,6.2S-140.129-12556.6-141.363-12558.152Z" transform="translate(141.565 12650.278)" fill="#fff"></path><path id="Path_2192" d="M-141.363-12558.152c-1.235-1.547,3.5-6.2,6.319-6.2s6.519,4.652,4.939,6.2S-140.129-12556.6-141.363-12558.152Z" transform="translate(403.76 12736.909)" fill="#fff"></path><path id="Path_2193" d="M-141.363-12558.152c-1.235-1.547,3.5-6.2,6.319-6.2s6.519,4.652,4.939,6.2S-140.129-12556.6-141.363-12558.152Z" transform="translate(298.891 12564.352)" fill="#fff" opacity="0.542"></path></g><g id="stars-2" transform="translate(52.188 500.102)" opacity="0.275"><path id="Path_2185-2" d="M-129.928-12558.152c1.235-1.547-3.5-6.2-6.319-6.2s-6.519,4.652-4.939,6.2S-131.163-12556.6-129.928-12558.152Z" transform="translate(158.893 12616.82)" fill="#fff"></path><path id="Path_2186-2" d="M-136.253-12560.211c.564-1.031-1.6-4.145-2.884-4.145s-2.976,3.113-2.254,4.145S-136.817-12559.176-136.253-12560.211Z" transform="translate(177.327 12603.653)" fill="#fff"></path><path id="Path_2187-2" d="M-132.093-12558.072c1.235-1.551-.542-6.2-3.356-6.2-.94,0-2.438-.891-3.408,1.738-1.739-1.984-1.832,3.43-.78,4.465l4.189-.848Z" transform="translate(140.32 12598.671)" fill="#fff" opacity="0.775"></path><path id="Path_2188-2" d="M-129.928-12558.152c1.235-1.547-3.5-6.2-6.319-6.2s-6.519,4.652-4.939,6.2S-131.163-12556.6-129.928-12558.152Z" transform="translate(272.442 12791.539)" fill="#fff"></path><path id="Path_2189-2" d="M-136.253-12560.211c.564-1.031-1.6-4.145-2.884-4.145s-2.976,3.113-2.254,4.145S-136.817-12559.176-136.253-12560.211Z" transform="translate(240.281 12747.574)" fill="#fff"></path><path id="Path_2190-2" d="M-132.093-12558.072c1.235-1.551-.542-6.2-3.356-6.2-.94,0-2.438-.891-3.408,1.738-1.739-1.984-1.832,3.43-.78,4.465l4.189-.848Z" transform="translate(245.015 12743.886)" fill="#fff" opacity="0.66"></path><path id="Path_2191-2" d="M-129.928-12558.152c1.235-1.547-3.5-6.2-6.319-6.2s-6.519,4.652-4.939,6.2S-131.163-12556.6-129.928-12558.152Z" transform="translate(278.36 12650.278)" fill="#fff"></path><path id="Path_2192-2" d="M-129.928-12558.152c1.235-1.547-3.5-6.2-6.319-6.2s-6.519,4.652-4.939,6.2S-131.163-12556.6-129.928-12558.152Z" transform="translate(164.812 12736.909)" fill="#fff"></path><path id="Path_2193-2" d="M-129.928-12558.152c1.235-1.547-3.5-6.2-6.319-6.2s-6.519,4.652-4.939,6.2S-131.163-12556.6-129.928-12558.152Z" transform="translate(202.963 12564.352)" fill="#fff" opacity="0.542"></path></g></g><path id="Union_258" d="M1487.374,557.068v-8.9H1242.965v.247H0c5.215-.553,10.513-1.153,15.741-1.779,18.4-2.211,36.418-4.84,53.563-7.813,16.785-2.914,33.25-6.244,48.95-9.9,15.294-3.565,30.32-7.546,44.669-11.838,13.948-4.179,27.647-8.761,40.713-13.631,12.68-4.725,25.16-9.864,37.091-15.268,11.539-5.231,22.907-10.869,33.8-16.764,10.491-5.676,20.859-11.768,30.825-18.1,9.577-6.091,19.063-12.585,28.19-19.3,8.722-6.415,17.427-13.258,25.875-20.341a594.065,594.065,0,0,0,46.143-43.212c28.833-29.869,54.313-61.608,78.951-92.3l.055-.068.018-.021,0,0,.45-.56.014-.017.011-.012c13.662-17.02,27.781-34.618,42.364-51.762,7.833-9.21,15.129-17.512,22.3-25.378,8.076-8.852,15.806-16.954,23.642-24.771,8.409-8.383,16.964-16.443,25.429-23.95,9.055-8.036,18.361-15.749,27.654-22.937,9.855-7.615,20.059-14.919,30.341-21.712,10.8-7.142,22.058-13.969,33.46-20.29,11.9-6.6,24.359-12.88,37.025-18.663,13.179-6.01,26.992-11.672,41.056-16.829,14.553-5.341,29.867-10.32,45.512-14.8,16.122-4.619,33.089-8.844,50.424-12.564,17.85-3.827,36.62-7.233,55.786-10.12,19.681-2.971,40.4-5.489,61.592-7.487,21.7-2.043,44.522-3.605,67.838-4.635C1073.324.535,1098.406,0,1124.026,0c18.582,0,37.95.281,57.569.84,19.794.561,40.444,1.428,61.369,2.571V8.482h256.784v2.71h278.625V557.068Z" transform="translate(252.627 -25.999)" fill="#fff" opacity="0.066"></path></g></svg>