<svg xmlns="http://www.w3.org/2000/svg" xmlns:xlink="http://www.w3.org/1999/xlink" viewBox="0 0 901.08 500">
  <defs>
    <linearGradient id="d">
      <stop stop-color="#3964ae" offset="0"/>
      <stop stop-opacity=".63" stop-color="#3964ae" offset=".39"/>
      <stop stop-opacity="0" stop-color="#3964ae" offset="1"/>
    </linearGradient>
    <linearGradient id="c">
      <stop stop-opacity="0" stop-color="#a2a2a2" offset="0"/>
      <stop stop-opacity=".91" stop-color="#a2a2a2" offset=".52"/>
      <stop stop-opacity="0" stop-color="#a2a2a2" offset="1"/>
    </linearGradient>
    <linearGradient id="b">
      <stop stop-opacity="0" stop-color="#a2a2a2" offset="0"/>
      <stop stop-color="#a2a2a2" offset=".04"/>
      <stop stop-color="#a2a2a2" offset=".95"/>
      <stop stop-opacity=".17" stop-color="#a2a2a2" offset="1"/>
    </linearGradient>
    <linearGradient id="a">
      <stop stop-opacity="0" stop-color="#fff" offset="0"/>
      <stop stop-color="#fff" offset=".05"/>
      <stop stop-color="#fff" offset=".95"/>
      <stop stop-opacity="0" stop-color="#fff" offset="1"/>
    </linearGradient>
    <linearGradient gradientTransform="matrix(1.9983 0 0 1.9879 -522.31 -1031.55)" gradientUnits="userSpaceOnUse" y2="538.27" x2="699.11" y1="538.27" x1="271.42" id="g" xlink:href="#a"/>
    <linearGradient gradientTransform="matrix(1.9983 0 0 1.9879 -522.31 -1275.1)" gradientUnits="userSpaceOnUse" y2="873.98" x2="701.33" y1="873.98" x1="271.9" id="h" xlink:href="#a"/>
    <linearGradient gradientTransform="matrix(1.9983 0 0 1.9879 -522.31 -1031.55)" gradientUnits="userSpaceOnUse" y2="539.63" x2="265.41" y1="749.64" x1="265.41" id="e" xlink:href="#a"/>
    <linearGradient gradientTransform="matrix(1.9983 0 0 1.9879 -522.31 -1031.55)" gradientUnits="userSpaceOnUse" y2="751.71" x2="697.16" y1="751.71" x1="270.23" id="j" xlink:href="#b"/>
    <linearGradient gradientTransform="matrix(1.9983 0 0 1.9879 -522.31 -1031.55)" gradientUnits="userSpaceOnUse" y2="535.21" x2="696.34" y1="535.21" x1="270.86" id="i" xlink:href="#b"/>
    <linearGradient gradientTransform="matrix(1.9983 0 0 1.9879 -623.26 -1275.1)" gradientUnits="userSpaceOnUse" y2="679.48" x2="752.14" y1="854.01" x1="752.14" id="l" xlink:href="#c"/>
    <linearGradient gradientTransform="matrix(1.9983 0 0 1.9879 -522.31 -1275.1)" gradientUnits="userSpaceOnUse" y2="679.48" x2="267.5" y1="854.01" x1="267.5" id="k" xlink:href="#c"/>
    <linearGradient y2="870.04" x2="751.7" y1="664.62" x1="751.7" gradientTransform="matrix(1.9983 0 0 1.9879 -642.76 -1275.1)" gradientUnits="userSpaceOnUse" id="f" xlink:href="#a"/>
    <radialGradient gradientUnits="userSpaceOnUse" gradientTransform="matrix(1.9983 0 0 2.37474 -521.9 -2236.45)" r="2.38" fy="1018.15" fx="280.9" cy="1018.15" cx="280.9" id="m" xlink:href="#d"/>
  </defs>
  <path d="M872.08 27.2h-39.7v450.65h39.7zM63.91 27.2H28.39v450.65h35.52z" fill="#606060"/>
  <ellipse cx="40.48" cy="179.77" rx="6.71" ry="6.68" fill="#1e1e1e"/>
  <rect width="117.58" height="24.1" x="229.61" ry="2.73" fill="#505050"/>
  <path d="M136.45 500h34.3a2.73 2.73 0 002.73-2.73v-18.64a2.73 2.73 0 00-2.74-2.73h-34.3a2.73 2.73 0 00-2.73 2.73v18.64a2.73 2.73 0 002.74 2.73zm71.9 0h69.45a2.73 2.73 0 002.74-2.73v-18.64a2.73 2.73 0 00-2.74-2.73h-69.44a2.73 2.73 0 00-2.74 2.73v18.64a2.73 2.73 0 002.74 2.73zm91.43 0h69.45a2.73 2.73 0 002.74-2.73v-18.64a2.73 2.73 0 00-2.74-2.73h-69.45a2.73 2.73 0 00-2.74 2.73v18.64a2.73 2.73 0 002.74 2.73z" fill="#505050"/>
  <path d="M74.58 4.02C33.26 4.02 0 37.1 0 78.2v343.2c0 41.1 33.26 74.18 74.58 74.18H826.5c41.32 0 74.58-33.09 74.58-74.19V78.2c0-41.1-33.26-74.18-74.58-74.18zM73.4 34.08h754.3A43.94 43.94 0 01871.85 78v344.43a43.94 43.94 0 01-44.15 43.92H73.4a43.93 43.93 0 01-44.14-43.92v-46.38a4.9 4.9 0 015-4.97h4.24a25.29 25.29 0 0025.41-25.28V154.69c0-14-11.33-25.28-25.4-25.28h-4.26c-2.58 0-5-2.4-5-4.97V78A43.93 43.93 0 0173.4 34.08z" fill="#2d2d2d"/>
  <path d="M21.45 30.92a64.97 64.97 0 00-19.3 46.35v345.25a64.97 64.97 0 0019.33 46.39A58.45 58.45 0 015.9 429.05V70.75c0-15.4 5.89-29.37 15.55-39.83z" fill="url(#e)"/>
  <path d="M876.21 30.92a64.97 64.97 0 0119.3 46.35v345.25a64.97 64.97 0 01-19.33 46.39 58.45 58.45 0 0015.58-39.86V70.75c0-15.4-5.89-29.37-15.55-39.83z" fill="url(#f)"/>
  <path d="M68.63 8.09c-31.06 0-56.05 24.87-56.05 55.76v5.03c0-31.48 25.47-56.82 57.12-56.82h757.04c31.65 0 57.12 25.34 57.12 56.82v-5.03c0-30.9-25-55.76-56.05-55.76z" fill="url(#g)"/>
  <path d="M70.59 492.68c-31.06 0-56.05-24.87-56.05-55.76v-5.04c0 31.48 25.47 56.83 57.12 56.83H826.1c31.65 0 57.12-25.35 57.12-56.83v5.04c0 30.89-25 55.76-56.05 55.76z" fill="url(#h)"/>
  <path d="M70.32 18a59.89 59.89 0 00-51.36 28.77 52.41 52.41 0 0143.87-23.5h769.72c18.17 0 34.13 9.1 43.54 22.98A59.88 59.88 0 00825.06 18z" fill="url(#i)"/>
  <path d="M65.3 27.16a43.68 43.68 0 00-43.9 43.66v357.01a43.68 43.68 0 0043.9 43.66h768.83a43.68 43.68 0 0043.89-43.66v-357a43.68 43.68 0 00-43.9-43.67zm8.1 6.92h754.05A43.94 43.94 0 01871.59 78v344.43a43.94 43.94 0 01-44.14 43.92H73.4a43.93 43.93 0 01-44.14-43.92v-46.38a4.9 4.9 0 015-4.97h4.24a25.29 25.29 0 0025.41-25.28V154.69c0-14-11.33-25.28-25.4-25.28h-4.26c-2.58 0-5-2.4-5-4.97V78A43.93 43.93 0 0173.4 34.08z"/>
  <path d="M14.15 442.33a61.24 61.24 0 0057.97 40.86h748.85a61.24 61.24 0 0057.97-40.86 51.28 51.28 0 01-47.98 32.7H62.13a51.28 51.28 0 01-47.98-32.7z" fill="url(#j)"/>
  <rect width="7.34" height="346.94" x="12.24" y="75.64" ry=".43" fill="url(#k)"/>
  <rect ry=".43" y="75.64" x="879.75" height="346.94" width="7.34" fill="url(#l)"/>
  <path d="M137.66 499.37c-1.6 0-2.43-1.06-2.43-2.36v-2.34h36.82v2.34c0 1.35-1.1 2.36-2.43 2.36zm71.91 0c-1.65 0-2.43-.95-2.43-2.36v-2.3h71.79v2.3c0 1.35-1.1 2.36-2.43 2.36zm91.42 0c-1.84 0-2.43-.94-2.43-2.36v-2.3h71.8v2.3c0 1.35-1.11 2.36-2.44 2.36zM235.07.63c-1.73 0-2.43.97-2.43 2.36V5.9h111.09V2.99c0-1.35-1.1-2.36-2.43-2.36z" fill="#fff"/>
  <rect width="8.83" height="60.79" x="36.6" y="221.59" ry="4.39" fill="#1e1e1e"/>
  <rect width="8.83" height="10.63" x="35.01" y="176.08" ry="4.04" fill="url(#m)"/>
  <g aria-label="12:34" style="line-height:1.25;-inkscape-font-specification:'Montserrat SemiBold, '" font-weight="400" font-size="17.11" font-family="Montserrat SemiBold" letter-spacing="0" word-spacing="0" fill="silver" stroke-width=".43">
    <path d="M45.95 431.52h11.97v2.22h-10.1v2.54h-1.87zM56.04 420.47h1.88v8.83h-1.49l-4.51-4.76q-.77-.8-1.34-1.07-.58-.3-1.14-.3-.84 0-1.29.57-.44.56-.44 1.66 0 1.83 1.25 2.8l-1.2 1.56q-.94-.7-1.45-1.88-.53-1.2-.53-2.67 0-1.95.92-3.11.92-1.17 2.51-1.17.98 0 1.83.42.86.4 1.95 1.57l3.05 3.2zM51.52 417.86q0 .58-.39.99-.41.4-1.03.4-.63 0-1.02-.39-.4-.4-.4-1t.4-1q.4-.4 1.02-.4t1.03.4q.4.41.4 1zm6.52 0q0 .58-.4.99-.4.4-1.02.4-.63 0-1.03-.39-.39-.4-.39-1t.4-1q.39-.4 1.02-.4.62 0 1.03.4.4.41.4 1zM50.9 409.92q.2-1.66 1.12-2.54.92-.87 2.3-.87 1.05 0 1.9.53.86.53 1.38 1.61.5 1.06.5 2.6 0 1.28-.37 2.48-.37 1.18-1.02 2.02l-1.73-.96q.55-.65.87-1.57.3-.94.3-1.94 0-1.18-.47-1.84-.5-.69-1.33-.69-.84 0-1.3.65-.48.64-.48 1.95v1.1h-1.53l-3.23-2.72v5.44h-1.86V407h1.49zM55.2 394.38v2.12h2.72v2.16H55.2v6.57h-1.54l-7.71-5.9v-2.38l7.37 5.56v-3.92h-2.41v-2.09h2.41v-2.12z"/>
  </g>
  <path d="M46.47 113.76h12.61v-3.95h-12.6zm2.8 5.46h9.81v-3.95h-9.82zm2.66 5.62h7.15v-3.95h-7.15zm1.93 5.17h5.22v-3.94h-5.22zM45.68 95.3c0 3.63 1.5 7.09 4.13 9.57l1.85-1.85a10.56 10.56 0 01-.07-15.38l-1.84-1.84a13.18 13.18 0 00-4.07 9.5zm4.52 0a8.65 8.65 0 002.81 6.37l1.64-1.64a6.33 6.33 0 01-.06-9.4L52.95 89a8.65 8.65 0 00-2.75 6.3zm4.13 0c0 1.33.58 2.6 1.6 3.46l3.39-3.4-3.46-3.45a4.53 4.53 0 00-1.53 3.4zM45.16 76.2a4.63 4.63 0 004.64 4.65h4.53a4.63 4.63 0 004.64-4.64V59.26a4.63 4.63 0 00-4.64-4.64h-.06v-1.83h-4.6v1.84a4.63 4.63 0 00-4.51 4.63zm1.14-.06v-16.8c0-2.01 1.61-3.62 3.61-3.62h4.3c2 0 3.6 1.61 3.6 3.61v16.8c0 2-1.6 3.62-3.6 3.62h-4.3a3.6 3.6 0 01-3.6-3.61zm1.11-.76a2.74 2.74 0 002.75 2.75h3.8a2.74 2.74 0 002.75-2.75v-15.3a2.74 2.74 0 00-2.75-2.75h-3.8a2.74 2.74 0 00-2.75 2.75zM853.47 150c3.32 0 6 2.68 6 6v188c0 3.32-2.68 6-6 6-3.33 0-6-2.68-6-6V156c0-3.32 2.67-6 6-6z" fill="silver"/>
</svg>
