<svg xmlns="http://www.w3.org/2000/svg" xmlns:xlink="http://www.w3.org/1999/xlink" width="420" height="416" viewBox="0 0 420 416"><defs><clipPath id="clip-About-t4g-blob"><rect width="420" height="416"></rect></clipPath></defs><g id="About-t4g-blob" clip-path="url(#clip-About-t4g-blob)"><g id="Path_2256" transform="translate(5 -3.048)" fill="#fff"><path d="M 204.9033203125 410.3735046386719 C 154.4824829101562 410.3735046386719 103.4983749389648 390.9349670410156 65.02384948730469 357.0421752929688 C 55.40184783935547 348.5660400390625 46.6484260559082 339.2451782226562 39.00679397583008 329.3385620117188 C 31.16400527954102 319.171142578125 24.41905784606934 308.2896728515625 18.95937347412109 296.9964599609375 C 13.31637287139893 285.3240966796875 8.97747802734375 273.0658569335938 6.063162326812744 260.5622253417969 C 3.03526759147644 247.5712432861328 1.500004529953003 234.1145629882812 1.500004529953003 220.5660858154297 C 1.500004529953003 206.5731353759766 2.475478172302246 192.80029296875 4.399267673492432 179.6300811767578 C 6.361372947692871 166.1976013183594 9.340004920959473 153.1906585693359 13.25237274169922 140.9704437255859 C 21.43310928344727 115.4182434082031 33.70995330810547 93.02861022949219 49.74174118041992 74.42355346679688 C 58.0982666015625 64.72571563720703 67.55668640136719 55.99497604370117 77.85427093505859 48.47392272949219 C 88.51421356201172 40.68824005126953 100.303955078125 34.03129196166992 112.8960571289062 28.68803024291992 C 125.9531631469727 23.1474494934082 140.1704254150391 18.89376640319824 155.1529998779297 16.04508209228516 C 170.6996307373047 13.08913421630859 187.4388427734375 11.57639789581299 204.9056854248047 11.54887104034424 C 205.0626831054688 11.54860782623291 205.2383728027344 11.54850292205811 205.3952178955078 11.54850292205811 C 222.8177947998047 11.54850292205811 239.5165863037109 13.04108238220215 255.0277404785156 15.98481845855713 C 269.9718933105469 18.82097625732422 284.154541015625 23.06834602355957 297.1817016601562 28.60897636413574 C 309.7413635253906 33.95076751708984 321.5023803710938 40.61118698120117 332.1380004882812 48.40518569946289 C 342.4092102050781 55.93213272094727 351.8446960449219 64.67218780517578 360.1822814941406 74.38255310058594 C 376.1724853515625 93.00555419921875 388.4195251464844 115.4152374267578 396.5831604003906 140.9891815185547 C 400.4857482910156 153.2147674560547 403.4570617675781 166.2240295410156 405.4145812988281 179.6555480957031 C 407.3335876464844 192.8232421875 408.306640625 206.5875091552734 408.306640625 220.5660858154297 C 408.306640625 234.1145629882812 406.7713623046875 247.5712432861328 403.7434692382812 260.5622253417969 C 400.8291625976562 273.0658569335938 396.4902648925781 285.3240966796875 390.8473205566406 296.9964599609375 C 385.3875732421875 308.2896728515625 378.6427001953125 319.171142578125 370.7998352050781 329.3385620117188 C 363.158203125 339.2451782226562 354.4048461914062 348.5660400390625 344.7828369140625 357.0421752929688 C 306.3083190917969 390.9349670410156 255.3241577148438 410.3735046386719 204.9033203125 410.3735046386719 Z" stroke="none"></path><path d="M 205.3953247070312 13.04849243164062 C 205.2393188476562 13.04849243164062 205.0644836425781 13.04861450195312 204.9080505371094 13.04885864257812 C 187.5341644287109 13.07623291015625 170.888427734375 14.58013916015625 155.4332122802734 17.51864624023438 C 140.5553588867188 20.34744262695312 126.4409484863281 24.56991577148438 113.4820556640625 30.06887817382812 C 100.9955444335938 35.36727905273438 89.30633544921875 41.96725463867188 78.739013671875 49.685302734375 C 68.53375244140625 57.13888549804688 59.16000366210938 65.79150390625 50.87811279296875 75.4027099609375 C 34.97842407226562 93.85440063476562 22.79995727539062 116.0684509277344 14.68093872070312 141.4278564453125 C 10.79364013671875 153.5697021484375 7.833740234375 166.4957733154297 5.883544921875 179.8468780517578 C 3.97015380859375 192.9454956054688 3 206.6454010009766 3 220.5660247802734 C 3 234.0000762939453 4.5220947265625 247.3421936035156 7.524017333984375 260.2217102050781 C 10.4132080078125 272.6176147460938 14.7149658203125 284.770751953125 20.30978393554688 296.343505859375 C 25.72457885742188 307.5438232421875 32.41473388671875 318.3367309570312 40.19448852539062 328.42236328125 C 47.77774047851562 338.2532348632812 56.46511840820312 347.503662109375 66.01531982421875 355.9166259765625 C 104.2197265625 389.5714111328125 154.8424224853516 408.8734436035156 204.9033203125 408.8734436035156 C 254.9641571044922 408.8734436035156 305.5869140625 389.5714111328125 343.7913208007812 355.9166259765625 C 353.3415222167969 347.503662109375 362.0289001464844 338.2532348632812 369.6121520996094 328.42236328125 C 377.3919067382812 318.3367309570312 384.0820617675781 307.5438232421875 389.4968566894531 296.343505859375 C 395.0916748046875 284.770751953125 399.3934326171875 272.6176147460938 402.2826232910156 260.2217102050781 C 405.2845458984375 247.3421936035156 406.806640625 234.0000762939453 406.806640625 220.5660247802734 C 406.806640625 206.6596069335938 405.8388977050781 192.9681396484375 403.9302673339844 179.8718719482422 C 401.9845886230469 166.5213928222656 399.0318908691406 153.5928649902344 395.1542053222656 141.4453430175781 C 387.0520629882812 116.0638732910156 374.9028930664062 93.82943725585938 359.0442810058594 75.35971069335938 C 350.7812194824219 65.73617553710938 341.4303588867188 57.074462890625 331.25146484375 49.61514282226562 C 320.7086791992188 41.88912963867188 309.0484619140625 35.28607177734375 296.5947265625 29.98934936523438 C 283.6661987304688 24.49066162109375 269.5870056152344 20.27471923828125 254.7481689453125 17.45855712890625 C 239.3290100097656 14.5322265625 222.7242736816406 13.04849243164062 205.3953247070312 13.04849243164062 M 205.3953094482422 10.04849243164062 C 348.6470031738281 10.04849243164062 409.806640625 108.8277282714844 409.806640625 220.5660247802734 C 409.806640625 332.4273071289062 307.3549499511719 411.8734436035156 204.9033203125 411.8734436035156 C 102.4516296386719 411.8734436035156 0 332.4273071289062 0 220.5660247802734 C 0 108.704833984375 61.31338500976562 10.27523803710938 204.9033203125 10.04885864257812 C 205.0610656738281 10.04861450195312 205.2377471923828 10.04849243164062 205.3953094482422 10.04849243164062 Z" stroke="none" fill="#fff"></path></g></g></svg>