<svg xmlns="http://www.w3.org/2000/svg" xmlns:xlink="http://www.w3.org/1999/xlink" width="2560" height="1080" viewBox="0 0 2560 1080">
  <defs>
    <clipPath id="clip-t4g-splash-screen-background">
      <rect width="2560" height="1080"/>
    </clipPath>
  </defs>
  <g id="t4g-splash-screen-background" clip-path="url(#clip-t4g-splash-screen-background)">
    <path id="pink-background" d="M-21940.5,11723.463h-.5l0-1080h1624.611c-10.658,6.138-21.229,12.62-31.418,19.268-16.906,11.027-33.521,23-49.387,35.583-15.229,12.078-30.242,25.1-44.625,38.693-13.73,12.975-27.342,26.905-40.461,41.4-12.434,13.747-24.844,28.461-36.889,43.733-11.3,14.333-22.705,29.7-33.908,45.675-10.445,14.9-20.76,30.349-31.529,47.234-9.549,14.971-19.279,30.8-29.752,48.4-19.5,32.782-38.307,66.292-56.5,98.7l-.012.022-.021.038-.6,1.063-.01.011-.018.033-.076.138-.029.052c-32.85,58.507-66.82,119.007-105.266,175.957a1006.064,1006.064,0,0,1-61.545,82.4c-11.275,13.512-22.887,26.56-34.516,38.781-12.148,12.779-24.795,25.16-37.592,36.8-13.291,12.08-27.125,23.7-41.117,34.521-14.508,11.228-29.672,21.982-45.07,31.965-15.92,10.314-32.562,20.109-49.471,29.112-17.359,9.254-35.627,18-54.3,26-19.178,8.2-39.221,15.8-59.574,22.577-20.965,6.987-42.93,13.34-65.285,18.882-8.836,2.2-18.039,4.333-27.355,6.354h-687.8Z" transform="translate(21941 -10643.465)" fill="#f7e8e3"/>
    <path id="hill-shadow" d="M13370.328,1647.652s512.975,398.6,1189.395-132.48,1265.545,83.387,1265.545,83.387v545.055L13558,2139.174Z" transform="translate(-13209.301 -953.291)" fill="#4a7f76" opacity="0.603"/>
    <path id="hill-front" d="M13398.09,1596.251s14.979-8.234,24.482,0c83.342,72.208,565.473,377.034,1173.624-99.875,621.7-487.53,1195.288-47.133,1242.5,31.782,4.053,6.773,0,174.946,0,174.946v407.731l-308.216,28.338H13558.128Z" transform="translate(-13246.17 -901.791)" fill="#6db2ca" opacity="0.2"/>
    <path id="foreground-curve-white" d="M13314.5,1284.528s356.72,665.074,1297.3,296.564,1468.515,280.543,1468.515,280.543v221.17H13314.5Z" transform="translate(-13314.497 -795.783)" fill="#fff" opacity="0.999"/>
  </g>
</svg>
