<svg xmlns="http://www.w3.org/2000/svg" xmlns:xlink="http://www.w3.org/1999/xlink" width="67" height="67" viewBox="0 0 67 67"><defs><clipPath id="clip-donation-icon_1"><rect width="67" height="67"></rect></clipPath></defs><g id="donation-icon_1" clip-path="url(#clip-donation-icon_1)"><g id="Group_3078" transform="translate(4 3.559)"><g id="Group_3008"><g id="Ellipse_1834" transform="translate(0 0.441)" fill="#426772" stroke="#426772" stroke-width="1"><circle cx="29.5" cy="29.5" r="29.5" stroke="none"></circle><circle cx="29.5" cy="29.5" r="29" fill="none"></circle></g></g><path id="Subtraction_212" d="M23.264,27.911h0a4.692,4.692,0,0,0-1.351-1.7c-.348-.3-.88-.4-2.03-.4-.8,0-1.79.052-2.655.1l-.331.019c-.68.038-1.383.078-1.763.078h-.1c-.189-.1-.591-.392-.831-.566a7.943,7.943,0,0,0-1.381-.873,7.441,7.441,0,0,0-2.782-.253,18.186,18.186,0,0,0-3.12.212c-.219.06-.625.172-3.074,1.879a16,16,0,1,1,27.1-4.7c-.073,0-.149,0-.227,0a4.471,4.471,0,0,0-4.056,2.469,6.883,6.883,0,0,0-.689,1.933l-1.57,1.507-1.142.3Z" transform="translate(16.315 9.314)" fill="#426772" stroke="#fff" stroke-width="2"></path><g id="Group_3009" transform="translate(17.314 8.844)"><path id="Path_3281" d="M8484.3,667.841a19.169,19.169,0,0,1-.582-12.1,17.773,17.773,0,0,1,7.2-9.654" transform="translate(-8476.5 -645.514)" fill="none" stroke="#fff" stroke-width="2"></path><path id="Path_3283" d="M8491.286,646.028v23.38" transform="translate(-8476.5 -646.028)" fill="none" stroke="#fff" stroke-width="2"></path><line id="Line_490" x2="30" transform="translate(0 15.472)" fill="none" stroke="#fff" stroke-width="2"></line><path id="Path_3284" d="M8479.487,652.065a35.184,35.184,0,0,0,11.645,2.345,38.713,38.713,0,0,0,12.006-2.345" transform="translate(-8476.5 -646.028)" fill="none" stroke="#fff" stroke-width="2"></path><path id="Path_3285" d="M8488.724,669.584s3.38-7.324,1.476-13.847a17.773,17.773,0,0,0-7.2-9.654" transform="translate(-8467.5 -645.272)" fill="none" stroke="#fff" stroke-width="2"></path></g><path id="Path_3288" d="M8521.072,1037.225l5.48-3.747h5.657l1.7,1.812,6.845-.414,2.132,2.349,2.563-1.935,1.461-2.974,2.031-1.519h4.678" transform="translate(-8503 -1000)" fill="none" stroke="#426772" stroke-width="3"></path><g id="Group_3010" transform="translate(11.129 31.207)"><path id="Path_3273" d="M9.07,40.05l4.912-1.927,5.04,11.806-2.867,1.682" transform="translate(-9.07 -31.578)" fill="none" stroke="#fff" stroke-linecap="round" stroke-width="2"></path><path id="Path_3278" d="M8420.253,672.577l2.158-.559,2-1.918s.571-5.276,5.734-3.542c.8.921-1.482,4.708-1.679,5.461a27.686,27.686,0,0,1-2.731,4.828c-.464.472-7.715,4.658-8.482,4.686s-12.142-.174-12.835,0a4.253,4.253,0,0,0-1.406.778" transform="translate(-8391.07 -666.207)" fill="none" stroke="#fff" stroke-width="2"></path><path id="Path_3279" d="M8399.558,672.416a51.566,51.566,0,0,1,5.129-3.426,19.839,19.839,0,0,1,5.25,0c.613.257,1.849,1.343,2.343,1.494s6.016-.456,6.5,0c1.624,1.256,2.075,3.767,0,5.023-1.26.283-8.3,0-8.3,0" transform="translate(-8391.07 -666.207)" fill="none" stroke="#fff" stroke-linecap="round" stroke-width="2"></path></g></g></g></svg>