<?xml version="1.0" encoding="UTF-8" standalone="no"?>
<!-- Generator: Adobe Illustrator 26.0.1, SVG Export Plug-In . SVG Version: 6.00 Build 0)  -->

<svg
   version="1.1"
   id="Layer_1"
   x="0px"
   y="0px"
   width="445"
   height="519.38605"
   viewBox="0 0 445 519.38605"
   xml:space="preserve"
   sodipodi:docname="Good-Loop_CarbonNeutralAd_Logo_Final-05.svg"
   inkscape:version="1.2.2 (732a01da63, 2022-12-09, custom)"
   xmlns:inkscape="http://www.inkscape.org/namespaces/inkscape"
   xmlns:sodipodi="http://sodipodi.sourceforge.net/DTD/sodipodi-0.dtd"
   xmlns="http://www.w3.org/2000/svg"
   xmlns:svg="http://www.w3.org/2000/svg"><defs
   id="defs3372" /><sodipodi:namedview
   id="namedview3370"
   pagecolor="#ffffff"
   bordercolor="#666666"
   borderopacity="1.0"
   inkscape:showpageshadow="2"
   inkscape:pageopacity="0.0"
   inkscape:pagecheckerboard="0"
   inkscape:deskcolor="#d1d1d1"
   showgrid="false"
   inkscape:zoom="1.2334437"
   inkscape:cx="222.54765"
   inkscape:cy="296.32483"
   inkscape:window-width="1920"
   inkscape:window-height="948"
   inkscape:window-x="0"
   inkscape:window-y="0"
   inkscape:window-maximized="1"
   inkscape:current-layer="Layer_1" />
<style
   type="text/css"
   id="style3243">
	.st0{fill:url(#SVGID_1_);}
	.st1{fill:url(#SVGID_00000098186803203900320940000000232616398009020858_);}
	.st2{fill:url(#SVGID_00000059989508008689244710000016901472164613611183_);}
	.st3{fill:url(#SVGID_00000024718949749909630260000010771153272329694389_);}
	.st4{fill:url(#SVGID_00000086660312817578267030000014191246022574220445_);}
	.st5{fill:url(#SVGID_00000075864153681760424160000010468208364652261523_);}
	.st6{fill:url(#SVGID_00000127744602130151591540000004010082595476082833_);}
	.st7{fill:url(#SVGID_00000162326711294442765950000016025248007296429186_);}
	.st8{fill:url(#SVGID_00000003087414368852541970000016000704577375089821_);}
	.st9{fill:url(#SVGID_00000062875332559645820720000011489382889961777289_);}
	.st10{fill:url(#SVGID_00000078763022879036234930000017043545472376346761_);}
	.st11{fill:url(#SVGID_00000083073058612088807370000005410409581271993784_);}
	.st12{fill:url(#SVGID_00000116923505882111842940000005740968165591175821_);}
	.st13{fill:url(#SVGID_00000134961387913813100320000005823041234713999242_);}
	.st14{fill:url(#SVGID_00000066497784223294425760000009940880283185224605_);}
	.st15{fill:url(#SVGID_00000088833985988470991030000008443493002955767695_);}
	.st16{fill:url(#SVGID_00000078008873134204393410000013563306545749227179_);}
	.st17{fill:url(#SVGID_00000145756427598660329110000012279581953281326484_);}
	.st18{fill:url(#SVGID_00000059300370512436835110000007467087222212835712_);}
	.st19{fill:url(#SVGID_00000098904805901017603410000009478872803129655205_);}
	.st20{fill:url(#SVGID_00000160172931984455248930000013872013302164526748_);}
	.st21{fill:url(#SVGID_00000063624384799182987340000001573380075142797236_);}
	.st22{fill:url(#SVGID_00000139251334917842907120000012836058337030249376_);}
	.st23{fill:url(#SVGID_00000178922337922890486470000006762478908345094043_);}
	.st24{fill:url(#SVGID_00000124860430225072700310000008422814537025428881_);}
	.st25{fill:url(#SVGID_00000004529738828601587550000017492362528953605527_);}
	.st26{fill:url(#SVGID_00000163765793935257773000000000918462615015169703_);}
	.st27{fill:url(#SVGID_00000131353206944723606370000012607878731843468207_);}
	.st28{fill:#FFFFFF;}
	.st29{fill:url(#SVGID_00000178200385859014671850000002467537946107590825_);}
	.st30{fill:url(#SVGID_00000127028500844271520040000013199853696356971452_);}
	.st31{fill:url(#SVGID_00000053525242480544943110000001163023863696311226_);}
	.st32{fill:url(#SVGID_00000028306146563793602330000016455032126806910858_);}
	.st33{fill:url(#SVGID_00000148641531179222899140000006227901562245137045_);}
	.st34{fill:url(#SVGID_00000145018273688650435480000016154169290814277793_);}
	.st35{fill:url(#SVGID_00000010306150719822200200000002603886922818245265_);}
	.st36{fill:url(#SVGID_00000070085941832083920600000010982946124864758973_);}
	.st37{fill:url(#SVGID_00000038389191850065852510000014072958656291027094_);}
	.st38{fill:url(#SVGID_00000129898998928921270850000001959117476860496023_);}
	.st39{fill:url(#SVGID_00000114774525036426798850000005895935429586039199_);}
	.st40{fill:url(#SVGID_00000088815113476738925840000013214790486479016611_);}
	.st41{fill:url(#SVGID_00000116202287722502840980000002132602648956646325_);}
	.st42{fill:url(#SVGID_00000023982559777956730300000013097731259707306673_);}
	.st43{fill:url(#SVGID_00000172407684829980471650000010274524592912795791_);}
	.st44{fill:url(#SVGID_00000097500397039007022830000017738662171611783843_);}
	.st45{fill:url(#SVGID_00000081607462056072805420000005560816948623594931_);}
	.st46{fill:url(#SVGID_00000072964125126360471160000008864358687205518482_);}
	.st47{fill:url(#SVGID_00000142871184112830563380000011525306089718678174_);}
	.st48{fill:url(#SVGID_00000026870909882066452170000009898986208159848892_);}
	.st49{fill:url(#SVGID_00000142890561273280865980000009761591043942396861_);}
	.st50{fill:url(#SVGID_00000031168143478901418970000017170274559922746247_);}
	.st51{fill:url(#SVGID_00000137836366915007289120000010870571046477944466_);}
	.st52{fill:url(#SVGID_00000165950805869519744230000007379948130525682338_);}
	.st53{fill:url(#SVGID_00000088097364059636874100000006905168678403695492_);}
	.st54{fill:url(#SVGID_00000055692216087500177820000016989207470411212988_);}
	.st55{fill:url(#SVGID_00000089549740289117138800000016179281669413318050_);}
	.st56{fill:url(#SVGID_00000078016784930600120530000014548729408496309935_);}
	.st57{fill:url(#SVGID_00000126282468770298219350000008513850294478833588_);}
	.st58{fill:url(#SVGID_00000041286052021534338230000017746420996995806135_);}
	.st59{fill:url(#SVGID_00000007392633924761579150000011026031743502039188_);}
	.st60{fill:url(#SVGID_00000076581465272874946470000017662602921070917555_);}
	.st61{fill:url(#SVGID_00000015334871052377567150000006191484744308637570_);}
	.st62{fill:url(#SVGID_00000046338009326040640920000001674639894610409122_);}
</style>
<linearGradient
   id="SVGID_1_"
   gradientUnits="userSpaceOnUse"
   x1="462.83691"
   y1="109.8366"
   x2="509.50769"
   y2="109.8366"
   gradientTransform="translate(-79.5,-5.713979)">
	<stop
   offset="0"
   style="stop-color:#336249"
   id="stop3245" />
	<stop
   offset="5.000000e-05"
   style="stop-color:#336249"
   id="stop3247" />
	<stop
   offset="0.9977"
   style="stop-color:#78B857"
   id="stop3249" />
	<stop
   offset="1"
   style="stop-color:#78B857"
   id="stop3251" />
</linearGradient>
<path
   class="st0"
   d="m 383.3,40.086021 c 0,0 37,12 44.8,55.6 7.7,43.599999 -10.3,72.399999 -10.3,72.399999 0,0 -14.8,-22.5 -10.8,-35.8 4,-13.3 10.4,-39.799999 -2.3,-59.399999 -12.7,-19.5 -21.4,-32.8 -21.4,-32.8 z"
   id="path3254"
   style="fill:url(#SVGID_1_)" />
<linearGradient
   id="SVGID_00000109751195005383977720000009461377152899179446_"
   gradientUnits="userSpaceOnUse"
   x1="448.3718"
   y1="115.5939"
   x2="488.77829"
   y2="115.5939"
   gradientTransform="translate(-79.5,-5.713979)">
	<stop
   offset="0"
   style="stop-color:#336249"
   id="stop3256" />
	<stop
   offset="5.000000e-05"
   style="stop-color:#336249"
   id="stop3258" />
	<stop
   offset="0.9977"
   style="stop-color:#78B857"
   id="stop3260" />
	<stop
   offset="1"
   style="stop-color:#78B857"
   id="stop3262" />
</linearGradient>
<path
   style="fill:url(#SVGID_00000109751195005383977720000009461377152899179446_)"
   d="m 379.9,52.186021 c 0,0 17.3,8.6 23.6,37.5 6.3,28.799999 -11,37.499999 -4.6,56.499999 6.3,19 10.4,21.3 10.4,21.3 0,0 -39.2,-24.2 -40.4,-45 -1.2,-20.8 16.9,-50.299999 11,-70.299999 z"
   id="path3265" />
<linearGradient
   id="SVGID_00000081644360131340332940000003631869755956307903_"
   gradientUnits="userSpaceOnUse"
   x1="352.15369"
   y1="54.2864"
   x2="430.9689"
   y2="54.2864"
   gradientTransform="translate(-79.5,-5.713979)">
	<stop
   offset="0"
   style="stop-color:#336249"
   id="stop3267" />
	<stop
   offset="5.000000e-05"
   style="stop-color:#336249"
   id="stop3269" />
	<stop
   offset="0.9977"
   style="stop-color:#78B857"
   id="stop3271" />
	<stop
   offset="1"
   style="stop-color:#78B857"
   id="stop3273" />
</linearGradient>
<path
   style="fill:url(#SVGID_00000081644360131340332940000003631869755956307903_)"
   d="m 272.7,7.286021 c 0,0 41.8,-4.4 65.9,18 24.1,22.4 7.2,65 7.2,65 0,0 -10.9,-42.7 -31.7,-60 -17,-14.2 -41.4,-23 -41.4,-23 z"
   id="path3276" />
<linearGradient
   id="SVGID_00000002372959770522991410000008652406646826774442_"
   gradientUnits="userSpaceOnUse"
   x1="333.427"
   y1="56.9781"
   x2="425.24149"
   y2="56.9781"
   gradientTransform="translate(-79.5,-5.713979)">
	<stop
   offset="0"
   style="stop-color:#336249"
   id="stop3278" />
	<stop
   offset="5.000000e-05"
   style="stop-color:#336249"
   id="stop3280" />
	<stop
   offset="0.9977"
   style="stop-color:#78B857"
   id="stop3282" />
	<stop
   offset="1"
   style="stop-color:#78B857"
   id="stop3284" />
</linearGradient>
<path
   style="fill:url(#SVGID_00000002372959770522991410000008652406646826774442_)"
   d="m 253.9,11.086021 c 0,0 41.8,1.7 61.4,28.7 19.6,27 30.4,50.5 30.4,50.5 0,0 -55.5,8.3 -61.4,-18.5 -5.9,-26.8 -4.1,-42.8 -30.4,-60.7 z"
   id="path3287" />
<linearGradient
   id="SVGID_00000041976267827744884860000015812821518222227625_"
   gradientUnits="userSpaceOnUse"
   x1="271.2027"
   y1="155.3436"
   x2="460.46329"
   y2="155.3436"
   gradientTransform="translate(-79.5,-5.713979)">
	<stop
   offset="0"
   style="stop-color:#336249"
   id="stop3289" />
	<stop
   offset="5.000000e-05"
   style="stop-color:#336249"
   id="stop3291" />
	<stop
   offset="0.9977"
   style="stop-color:#78B857"
   id="stop3293" />
	<stop
   offset="1"
   style="stop-color:#78B857"
   id="stop3295" />
</linearGradient>
<path
   style="fill:url(#SVGID_00000041976267827744884860000015812821518222227625_)"
   d="m 193.3,109.98602 c 0,0 -12.8,8.5 33.3,2.5 46,-6 74.9,3.2 91,10.1 16.1,6.9 51.1,38.6 61.1,61.1 10,22.5 -12.7,-30 -84.2,-31.1 -71.4,-1.2 -101.2,-42.6 -101.2,-42.6 z"
   id="path3298" />
<linearGradient
   id="SVGID_00000163785488301088846830000004290526699384533649_"
   gradientUnits="userSpaceOnUse"
   x1="270.29431"
   y1="170.47501"
   x2="458.80859"
   y2="170.47501"
   gradientTransform="translate(-79.5,-5.713979)">
	<stop
   offset="0"
   style="stop-color:#336249"
   id="stop3300" />
	<stop
   offset="5.000000e-05"
   style="stop-color:#336249"
   id="stop3302" />
	<stop
   offset="0.9977"
   style="stop-color:#78B857"
   id="stop3304" />
	<stop
   offset="1"
   style="stop-color:#78B857"
   id="stop3306" />
</linearGradient>
<path
   style="fill:url(#SVGID_00000163785488301088846830000004290526699384533649_)"
   d="m 190.8,127.18602 c 28.2,18.4 42.4,28.8 66.3,32.3 23.9,3.5 43.5,-1.2 69.5,5.8 26.1,6.9 52.7,37.1 52.7,37.1 0,0 -39.7,-24.4 -92.9,-14.1 -53.2,10.4 -95.6,-61.1 -95.6,-61.1 z"
   id="path3309" />
<path
   class="st28"
   d="m 378.3,72.386021 c -0.6,5.9 -1.8,11.5 -2.9,16.9 -2.1,10 -4.3,20.299999 -2.6,32.199999 2.4,16.7 10.7,32.2 23.6,43.7 9.8,8.8 13,10.1 14.7,10.1 0.4,0 0.7,-0.1 1,-0.1 1.6,-0.3 3,-1.4 3.7,-2.8 0.6,-1.2 1.1,-2.4 1.6,-3.6 l 0.3,-0.7 c 11.5,-27.5 14.9,-51.9 10.3,-72.399999 -4.8,-21.7 -21.5,-59.3 -53.2,-63.4 -0.2,0 -0.4,0 -0.6,-0.1 -0.1,0 -0.1,0 -0.2,0 -1.5,-0.1 -3.1,0.4 -4.2,1.5 -2.8,2.8 -1.2,5.9 0.6,9.4 2.9,6 9.1,18.1 7.9,29.3 z m 4.8,47.799999 c -1.4,-10.1 0.5,-19.1 2.4,-28.699999 1.2,-5.7 2.4,-11.5 3.1,-18 0.2,-2.2 0.2,-4.4 0.1,-6.6 5.4,9 10.4,19.3 12.4,29 2.2,10.499999 1.4,20.199999 0.6,29.699999 -0.9,10.4 -1.8,21.1 1.7,32.1 0,0 0,0 -0.1,-0.1 -11,-9.9 -18.2,-23.2 -20.2,-37.4 z M 418,97.986021 c 3.5,15.499999 1.7,33.799999 -5.4,54.499999 -2.2,-8.3 -1.5,-16.8 -0.7,-26.1 0.8,-9.7 1.8,-20.7 -0.8,-32.699999 -3.4,-16.1 -13.5,-32.9 -21.8,-44.6 14.4,10.3 24.6,30.5 28.7,48.9 z"
   id="path3311" />
<path
   class="st28"
   d="m 226.6,112.48602 c -15.3,1.6 -26.4,2.8 -32.7,-2.1 -0.1,-0.1 -0.2,-0.2 -0.3,-0.2 -0.1,-0.1 -0.2,-0.1 -0.3,-0.2 -0.5,-0.3 -1.1,-0.5 -1.7,-0.6 -0.1,0 -0.2,0 -0.3,0 -0.2,0 -0.4,0 -0.6,0 -0.1,0 -0.2,0 -0.3,0 -0.2,0 -0.4,0 -0.6,0.1 -0.1,0 -0.2,0 -0.3,0.1 -0.3,0.1 -0.6,0.2 -0.9,0.3 0,0 0,0 0,0 -0.2,0.1 -0.5,0.2 -0.7,0.4 0,0 -0.1,0.1 -0.1,0.1 0,0 -0.1,0 -0.1,0 -0.1,0 -0.1,0.1 -0.1,0.1 -0.2,0.1 -0.4,0.3 -0.5,0.5 -0.1,0.1 -0.1,0.2 -0.2,0.2 -0.1,0.2 -0.3,0.3 -0.4,0.5 0,0.1 -0.1,0.1 -0.1,0.2 -0.2,0.3 -0.3,0.5 -0.4,0.8 0,0.1 0,0.1 -0.1,0.2 -0.1,0.2 -0.1,0.5 -0.2,0.7 0,0.1 0,0.2 0,0.3 0,0.2 0,0.4 0,0.6 0,0.1 0,0.2 0,0.3 0,0.2 0,0.4 0.1,0.6 0,0.1 0,0.2 0.1,0.3 0,0 0,0.1 0,0.1 0.2,0.6 4.3,15.7 15,31.9 14.4,21.7 33.9,35 56.4,38.3 29.8,4.4 47,2.9 60.8,1.7 10.5,-0.9 18.8,-1.7 30.1,0.2 17.2,2.8 27.1,10.5 31.3,14.6 0.9,1 1.8,2 2.7,3 0.1,0.1 0.2,0.2 0.3,0.3 0.1,0.1 0.2,0.2 0.4,0.3 0.2,0.1 0.4,0.3 0.6,0.4 0.1,0.1 0.2,0.2 0.4,0.2 0.2,0.1 0.5,0.2 0.7,0.3 0.1,0 0.2,0.1 0.3,0.1 0.4,0.1 0.7,0.1 1.1,0.1 0.4,0 0.7,0 1.1,-0.1 0.1,0 0.2,-0.1 0.3,-0.1 0.3,-0.1 0.5,-0.2 0.8,-0.3 0.1,0 0.1,0 0.2,-0.1 0.1,0 0.1,-0.1 0.2,-0.1 0.1,-0.1 0.3,-0.2 0.4,-0.2 0.1,-0.1 0.3,-0.2 0.4,-0.3 0.1,0 0.1,-0.1 0.2,-0.1 0,0 0.1,-0.1 0.1,-0.1 0.2,-0.1 0.3,-0.3 0.4,-0.5 0.1,-0.1 0.2,-0.2 0.2,-0.3 0.1,-0.2 0.2,-0.3 0.3,-0.5 0.1,-0.1 0.1,-0.2 0.2,-0.3 0.1,-0.2 0.2,-0.5 0.3,-0.7 0,-0.1 0,-0.1 0.1,-0.2 0.1,-0.3 0.1,-0.6 0.1,-0.9 0,-0.1 0,-0.2 0,-0.3 0,-0.2 0,-0.4 0,-0.7 0,-0.1 -0.1,-0.3 -0.1,-0.4 0,-0.1 0,-0.3 -0.1,-0.4 -0.9,-3 -22.4,-73.3 -86.3,-86 -33.7,-6.8 -59.4,-4.1 -78.2,-2.1 z m 107.6,63.8 c -5.8,0 -11.2,0.5 -17.1,1 -13.9,1.2 -29.7,2.6 -58.4,-1.6 -28,-4.1 -44.9,-25.1 -54,-41.6 14.7,10.2 38.8,21.9 75,24.2 45.1,2.9 59.7,5.4 77.1,20.8 -2.2,-0.6 -4.6,-1.1 -7.1,-1.5 -5.7,-0.9 -10.7,-1.3 -15.5,-1.3 z m 33.7,-1 c -21.7,-20.8 -36.5,-24 -87.5,-27.3 -35.3,-2.3 -58.3,-14.2 -71.5,-23.8 5.6,-0.1 11.8,-0.7 18.8,-1.5 18.1,-1.9 42.9,-4.6 74.8,1.8 32.7,6.6 53.5,30.9 65.4,50.8 z"
   id="path3313" />
<path
   class="st28"
   d="m 253.7,11.086021 c 0.1,0 0.1,0 0.2,0 1,0.4 7.1,3.2 14.6,17.2 6.4,11.9 7.2,19.6 7.9,27 0.7,7.5 1.4,14.6 7.9,23.3 12.9,17.6 56.5,20.4 61.4,20.6 0.1,0 0.2,0 0.2,0 0,0 0,0 0,0 0,0 0,0 0,0 0.3,0 0.6,0 1,-0.1 0,0 0.1,0 0.1,0 0.1,0 0.1,0 0.2,-0.1 0.2,-0.1 0.4,-0.1 0.6,-0.2 0.1,0 0.2,-0.1 0.3,-0.1 0.2,-0.1 0.4,-0.2 0.5,-0.3 0.1,-0.1 0.2,-0.1 0.3,-0.2 0.2,-0.2 0.5,-0.4 0.7,-0.6 0,0 0,0 0,-0.1 0.2,-0.2 0.4,-0.4 0.5,-0.7 0.1,-0.1 0.1,-0.2 0.2,-0.3 0.1,-0.2 0.2,-0.4 0.3,-0.5 0,-0.1 0.1,-0.2 0.1,-0.3 0,-0.1 0.1,-0.2 0.1,-0.3 0.4,-1.4 9.9,-34.1 -12.4,-70.3 -19.5,-31.6 -81.4,-24.49999998 -84.1,-24.19999998 -0.1,0 -0.3,0.1 -0.4,0.1 -0.1,0 -0.3,0 -0.4,0.1 -0.3,0.1 -0.5,0.2 -0.8,0.3 0,0 -0.1,0 -0.1,0 -1.8,0.8 -3.2,2.6 -3.2,4.7 0.2,2.5 1.9,4.6 4.3,5 z m 39,61.4 c -4.7,-6.5 -5.2,-11.4 -5.9,-18.2 -0.8,-7.6 -1.7,-17.1 -9.1,-30.9 -1,-1.8 -1.9,-3.4 -2.9,-5 7.1,3.9 16.2,9.9 27.2,19.1 22.9,19.1 32.9,40.2 36.8,50.7 -14.8,-1.5 -39,-6 -46.1,-15.7 z m 37,-41.8 c 9.3,15.1 12.4,29.6 13,40.8 -6.2,-12 -16.7,-27.4 -34.1,-41.9 -10.4,-8.7 -19.2,-14.7 -26.5,-18.9 17.5,1.1 38.8,5.7 47.6,20 z"
   id="path3315" />
<path
   class="st28"
   d="m 150.3,165.28602 c -2.1,1.1 -4.2,0.9 -6.5,-0.1 l -2.6,7 c 3.8,1.8 8.2,1.5 12.8,-0.8 7.4,-3.9 10.2,-11.7 6.5,-18.8 -3.7,-7.1 -11.8,-9.2 -19.2,-5.3 -4.5,2.4 -7.2,5.9 -7.9,10 l 7.2,1.8 c 0.4,-2.4 1.5,-4.3 3.6,-5.3 3.2,-1.7 6.6,-0.6 8.4,2.9 1.9,3.5 0.9,6.9 -2.3,8.6 z"
   id="path3317" />
<path
   class="st28"
   d="m 100.7,178.48602 -6.6,6.2 26.1,11.1 6.3,-5.9 -9.6,-26.7 -6.5,6.1 1.8,4.5 -7.2,6.8 z m 14.1,1.5 2.7,6.5 -6.3,-3 z"
   id="path3319" />
<path
   class="st28"
   d="m 98.1,224.48602 6.4,-10.8 -22.3,-13.4 -4.5,7.5 5.6,3.4 -1.2,2 -7.9,0.4 -4.8,8 9.7,-0.6 c -0.2,3.5 1.3,6.5 4.5,8.4 5.1,3.3 10.7,1.3 14.5,-4.9 z m -10.8,-7.1 1.6,-2.7 5.2,3.1 -1.6,2.7 c -1.2,2.1 -2.8,2.5 -4.5,1.5 -1.5,-0.9 -1.9,-2.5 -0.7,-4.6 z"
   id="path3321" />
<path
   class="st28"
   d="m 68.9,264.68602 c 0.5,2.6 2.1,4.3 4.5,5 3.8,1 7.4,-1.4 9.3,-8.4 l 3.7,-13.4 -25.1,-6.9 -3.9,14.1 c -1.9,6.9 -0.4,11.3 4,12.5 3,0.9 5.6,-0.2 7.5,-2.9 z m 4.5,-7.2 1.1,-3.9 3.7,1 -1.1,3.9 c -0.5,1.9 -1.4,2.6 -2.6,2.3 -1.2,-0.3 -1.6,-1.4 -1.1,-3.3 z m -9.9,-1.4 1.4,-5.1 3.9,1.1 -1.4,5.1 c -0.5,1.9 -1.4,2.6 -2.7,2.3 -1.3,-0.4 -1.7,-1.6 -1.2,-3.4 z"
   id="path3323" />
<path
   class="st28"
   d="m 51.4,300.68602 c 0.1,8.5 6,14.6 13.8,14.5 7.9,-0.1 13.5,-6.4 13.4,-14.9 -0.1,-8.5 -6,-14.6 -13.8,-14.5 -7.9,0.1 -13.5,6.4 -13.4,14.9 z m 13.5,-6.1 c 4.1,-0.1 6.5,2.5 6.6,5.7 0.1,3.2 -2.4,5.9 -6.4,5.9 -4.1,0.1 -6.5,-2.5 -6.6,-5.7 0,-3.2 2.4,-5.8 6.4,-5.9 z"
   id="path3325" />
<polygon
   class="st28"
   points="162.4,341.4 160.3,334.5 135.4,342.3 138,350.4 149.3,346.9 140.9,359.9 143.1,366.8 167.9,359 165.4,350.9 154.1,354.4 "
   id="polygon3327"
   transform="translate(-79.5,-5.713979)" />
<polygon
   class="st28"
   points="192.1,397.6 187.2,392.3 168.1,410 173.9,416.3 182.6,408.2 180.6,423.5 185.5,428.8 204.6,411.1 198.8,404.9 190.2,412.9 "
   id="polygon3329"
   transform="translate(-79.5,-5.713979)" />
<polygon
   class="st28"
   points="221.2,454.3 224.7,448.6 213.7,441.7 215.5,438.8 224.8,444.7 228.2,439.3 218.8,433.5 220.5,430.9 231.1,437.6 234.6,431.9 216.7,420.7 202.8,442.8 "
   id="polygon3331"
   transform="translate(-79.5,-5.713979)" />
<path
   class="st28"
   d="m 172.8,461.68602 c 7.7,2.3 13.4,-0.6 15.7,-8.1 l 4.1,-13.7 -8.3,-2.5 -4.1,13.5 c -1.1,3.8 -3,4.8 -5.4,4.1 -2.3,-0.7 -3.4,-2.6 -2.2,-6.4 l 4.1,-13.5 -8.4,-2.5 -4.1,13.7 c -2.2,7.4 1,13.1 8.6,15.4 z"
   id="path3333" />
<polygon
   class="st28"
   points="284.9,447.6 284.7,454.4 292.3,454.7 291.6,473.9 300.4,474.2 301.1,455 308.7,455.2 308.9,448.4 "
   id="polygon3335"
   transform="translate(-79.5,-5.713979)" />
<path
   class="st28"
   d="m 263.8,463.38602 9.1,-2.1 -7.1,-6.6 c 2.7,-2.2 3.8,-5.4 3,-9.1 -1.3,-5.9 -6.6,-8.6 -13.7,-7 l -12.2,2.7 5.7,25.4 8.6,-1.9 -1.4,-6.4 2.3,-0.5 z m -9.6,-11.3 -1.3,-6 3.1,-0.7 c 2.4,-0.5 3.7,0.3 4.2,2.2 0.4,1.9 -0.5,3.2 -2.8,3.8 z"
   id="path3337" />
<path
   class="st28"
   d="m 309.6,444.68602 8,-4.3 -22.4,-17.4 -7.6,4.1 2.4,28.3 7.8,-4.3 -0.6,-4.8 8.7,-4.7 z m -13.3,-5.1 -0.9,-7 5.3,4.5 z"
   id="path3339" />
<polygon
   class="st28"
   points="394.4,415.1 412.3,434 427.2,419.9 422.5,415 414,423.1 400.8,409.1 "
   id="polygon3341"
   transform="translate(-79.5,-5.713979)" />
<path
   class="st28"
   d="m 382.6,357.08602 3.5,-8.4 -28.4,0.6 -3.3,8 19.7,20.5 3.4,-8.2 -3.5,-3.4 3.8,-9.1 z m -13.6,4.4 -5.1,-4.8 7,0.2 z"
   id="path3343" />
<path
   class="st28"
   d="m 392,316.78602 c 0.9,-8.7 -3.3,-15.1 -11.4,-16 -8,-0.9 -13.6,4.5 -14.5,13.2 l -1.4,12.8 25.9,2.8 z m -6.9,-0.4 -0.4,3.7 -12.3,-1.3 0.4,-3.7 c 0.4,-3.7 2.9,-5.9 6.8,-5.5 4,0.4 5.9,3.1 5.5,6.8 z"
   id="path3345" />
<path
   class="st28"
   d="m 365.1,264.28602 c -1.1,2.9 -1.2,6.6 -0.7,10.1 1.3,8 5.8,11.3 10.6,10.6 9.6,-1.5 4.7,-15.3 7.9,-15.8 0.9,-0.1 1.5,0.7 1.9,3.1 0.4,2.8 0.1,6.2 -1,8.9 l 6.8,1.8 c 1.2,-2.8 1.5,-7.3 0.9,-11.6 -1.3,-8 -5.9,-11.3 -10.6,-10.6 -9.5,1.5 -4.6,15.3 -7.7,15.8 -0.9,0.1 -1.7,-0.5 -2.1,-3.1 -0.4,-2.2 -0.1,-4.7 0.8,-7.5 z"
   id="path3347" />
<path
   class="st28"
   d="m 151.5,270.88602 c 5.3,0 11.4,-1.6 15.7,-4.6 v -15.3 h -10.6 v 9.1 c -1.5,0.6 -2.9,0.9 -4.4,0.9 -5.2,0 -8.6,-3.6 -8.6,-9 0,-5.6 3.4,-9 8.8,-9 3.2,0 5.8,1.3 8.1,4 l 7.8,-6.9 c -3.7,-4.5 -9.4,-7 -16.5,-7 -11.9,0 -20.4,7.8 -20.4,18.9 -0.1,11.1 8.4,18.9 20.1,18.9 z"
   id="path3349" />
<path
   class="st28"
   d="m 196.5,233.08602 c -11.8,0 -20.4,8 -20.4,18.9 0,10.9 8.6,18.9 20.4,18.9 11.8,0 20.4,-8 20.4,-18.9 0,-11 -8.6,-18.9 -20.4,-18.9 z m 0,27.9 c -4.5,0 -8.1,-3.4 -8.1,-9 0,-5.6 3.6,-9 8.1,-9 4.5,0 8.1,3.4 8.1,9 0.1,5.6 -3.6,9 -8.1,9 z"
   id="path3351" />
<path
   class="st28"
   d="m 265.9,251.98602 c 0,-10.9 -8.6,-18.9 -20.4,-18.9 -11.8,0 -20.4,8 -20.4,18.9 0,10.9 8.6,18.9 20.4,18.9 11.8,0 20.4,-8 20.4,-18.9 z m -28.5,0 c 0,-5.6 3.6,-9 8.1,-9 4.5,0 8.1,3.4 8.1,9 0,5.6 -3.6,9 -8.1,9 -4.5,0 -8.1,-3.4 -8.1,-9 z"
   id="path3353" />
<path
   class="st28"
   d="m 313.7,251.98602 c 0,-11.2 -8.3,-18.1 -20.4,-18.1 h -17.8 v 36.1 h 17.8 c 12.1,0 20.4,-6.8 20.4,-18 z m -26,8.5 v -17.1 h 5.1 c 5.1,0 8.6,3 8.6,8.6 0,5.5 -3.5,8.6 -8.6,8.6 h -5.1 z"
   id="path3355" />
<polygon
   class="st28"
   points="218.5,364.6 247,364.6 247,355.1 230.7,355.1 230.7,328.4 218.5,328.4 "
   id="polygon3357"
   transform="translate(-79.5,-5.713979)" />
<path
   class="st28"
   d="m 214.9,340.78602 c 0,-10.9 -8.6,-18.9 -20.4,-18.9 -11.8,0 -20.4,8 -20.4,18.9 0,10.9 8.6,18.9 20.4,18.9 11.8,0 20.4,-8 20.4,-18.9 z m -28.5,0 c 0,-5.6 3.6,-9 8.1,-9 4.5,0 8.1,3.4 8.1,9 0,5.6 -3.6,9 -8.1,9 -4.5,0 -8.1,-3.4 -8.1,-9 z"
   id="path3359" />
<path
   class="st28"
   d="m 263.9,340.78602 c 0,-10.9 -8.6,-18.9 -20.4,-18.9 -11.8,0 -20.4,8 -20.4,18.9 0,10.9 8.6,18.9 20.4,18.9 11.8,0 20.4,-8 20.4,-18.9 z m -28.5,0 c 0,-5.6 3.6,-9 8.1,-9 4.5,0 8.1,3.4 8.1,9 0,5.6 -3.6,9 -8.1,9 -4.5,0 -8.1,-3.4 -8.1,-9 z"
   id="path3361" />
<path
   class="st28"
   d="m 273.5,358.88602 h 12.2 v -8.9 h 5.2 c 10.1,0 16.5,-5.3 16.5,-13.6 0,-8.3 -6.4,-13.6 -16.5,-13.6 h -17.4 z m 12.2,-26.8 h 4.4 c 3.4,0 5,1.6 5,4.2 0,2.6 -1.6,4.2 -5,4.2 h -4.4 z"
   id="path3363" />
<rect
   x="203.20001"
   y="291.98602"
   class="st28"
   width="38.599998"
   height="11.8"
   id="rect3365" />
<path
   class="st28"
   d="m 426.5,207.98602 c -1.1,-2.6 -4.2,-3.8 -6.8,-2.7 -2.6,1.1 -3.8,4.2 -2.7,6.8 11.7,26.8 17.6,55.3 17.6,84.8 0,117 -95.2,212.2 -212.2,212.2 -117,0 -212.2,-95.2 -212.2,-212.2 0,-117 95.2,-212.199999 212.2,-212.199999 8.4,0 16.8,0.5 25.1,1.5 2.9,0.3 5.4,-1.7 5.7,-4.5 0.3,-2.8 -1.7,-5.4 -4.5,-5.7 -8.7,-1 -17.5,-1.5 -26.3,-1.5 C 99.8,74.486021 0,174.28602 0,296.88602 c 0,122.6 99.8,222.5 222.5,222.5 122.7,0 222.5,-99.8 222.5,-222.5 0,-30.9 -6.2,-60.8 -18.5,-88.9 z"
   id="path3367" />
</svg>
