<svg xmlns="http://www.w3.org/2000/svg" xmlns:xlink="http://www.w3.org/1999/xlink" viewBox="0 0 882.576 500">
  <defs>
    <linearGradient id="d">
      <stop offset="0" stop-color="#3964ae"/>
      <stop offset=".389" stop-color="#3964ae" stop-opacity=".634"/>
      <stop offset="1" stop-color="#3964ae" stop-opacity="0"/>
    </linearGradient>
    <linearGradient id="c">
      <stop offset="0" stop-color="#a2a2a2" stop-opacity="0"/>
      <stop offset=".524" stop-color="#a2a2a2" stop-opacity=".909"/>
      <stop offset="1" stop-color="#a2a2a2" stop-opacity="0"/>
    </linearGradient>
    <linearGradient id="b">
      <stop offset="0" stop-color="#a2a2a2" stop-opacity="0"/>
      <stop offset=".045" stop-color="#a2a2a2"/>
      <stop offset=".95" stop-color="#a2a2a2"/>
      <stop offset="1" stop-color="#a2a2a2" stop-opacity=".165"/>
    </linearGradient>
    <linearGradient id="a">
      <stop offset="0" stop-color="#fff" stop-opacity="0"/>
      <stop offset=".049" stop-color="#fff"/>
      <stop offset=".951" stop-color="#fff"/>
      <stop offset="1" stop-color="#fff" stop-opacity="0"/>
    </linearGradient>
    <linearGradient xlink:href="#a" id="g" x1="271.42" y1="538.274" x2="693.073" y2="538.274" gradientUnits="userSpaceOnUse" gradientTransform="matrix(1.9983 0 0 1.9879 -522.31 -1031.551)"/>
    <linearGradient xlink:href="#a" id="h" x1="271.902" y1="873.981" x2="691.981" y2="873.981" gradientUnits="userSpaceOnUse" gradientTransform="matrix(1.9983 0 0 1.9879 -522.31 -1275.108)"/>
    <linearGradient xlink:href="#a" id="e" x1="265.409" y1="749.637" x2="265.409" y2="539.627" gradientUnits="userSpaceOnUse" gradientTransform="matrix(1.9983 0 0 1.9879 -522.31 -1031.551)"/>
    <linearGradient xlink:href="#b" id="j" x1="270.227" y1="751.705" x2="692.169" y2="751.705" gradientUnits="userSpaceOnUse" gradientTransform="matrix(1.9983 0 0 1.9879 -522.31 -1031.551)"/>
    <linearGradient xlink:href="#b" id="i" x1="270.863" y1="535.205" x2="690.539" y2="535.205" gradientUnits="userSpaceOnUse" gradientTransform="matrix(1.9983 0 0 1.9879 -522.31 -1031.551)"/>
    <linearGradient xlink:href="#c" id="l" x1="752.143" y1="854.009" x2="752.143" y2="679.484" gradientUnits="userSpaceOnUse" gradientTransform="matrix(1.9983 0 0 1.9879 -642.765 -1275.108)"/>
    <linearGradient xlink:href="#c" id="k" x1="267.5" y1="854.009" x2="267.5" y2="679.484" gradientUnits="userSpaceOnUse" gradientTransform="matrix(1.9983 0 0 1.9879 -522.31 -1275.108)"/>
    <linearGradient xlink:href="#a" id="f" gradientUnits="userSpaceOnUse" gradientTransform="matrix(1.9983 0 0 1.9879 -642.765 -1275.108)" x1="751.697" y1="664.621" x2="751.697" y2="870.036"/>
    <radialGradient xlink:href="#d" id="m" cx="280.898" cy="1018.155" fx="280.898" fy="1018.155" r="2.385" gradientTransform="matrix(1.9983 0 0 2.37474 -521.895 -2236.452)" gradientUnits="userSpaceOnUse"/>
  </defs>
  <ellipse ry="6.677" rx="6.712" cy="179.773" cx="40.483" fill="#1e1e1e"/>
  <rect ry="2.726" x="229.614" height="24.097" width="117.583" fill="#505050"/>
  <path d="M136.446 500h34.3a2.727 2.727 0 002.739-2.725v-18.646a2.727 2.727 0 00-2.74-2.726h-34.299a2.727 2.727 0 00-2.74 2.726v18.646a2.727 2.727 0 002.74 2.725zM208.357 500h69.448a2.727 2.727 0 002.74-2.725v-18.646a2.727 2.727 0 00-2.74-2.726h-69.448a2.727 2.727 0 00-2.74 2.726v18.646a2.727 2.727 0 002.74 2.725zM299.78 500h69.447a2.727 2.727 0 002.74-2.725v-18.646a2.727 2.727 0 00-2.74-2.726h-69.448a2.727 2.727 0 00-2.74 2.726v18.646a2.727 2.727 0 002.74 2.725z" fill="#505050"/>
  <path d="M74.581 4.017C33.264 4.017 0 37.104 0 78.206v343.196c0 41.102 33.264 74.193 74.581 74.193h733.418c41.317 0 74.577-33.09 74.577-74.193V78.206c0-41.102-33.26-74.189-74.577-74.189zm-1.183 30.067h735.803c24.455 0 44.146 19.588 44.146 43.916v344.431c0 24.329-19.69 43.916-44.146 43.916H73.398c-24.455 0-44.142-19.587-44.142-43.916v-46.385c0-2.822 2.191-4.97 4.996-4.97h4.25c14.077 0 25.408-11.276 25.408-25.28v-191.11c0-14.004-11.33-25.276-25.408-25.276h-4.25c-2.583 0-4.996-2.406-4.996-4.97V78c0-24.328 19.687-43.916 44.142-43.916z" fill="#2d2d2d"/>
  <path d="M21.447 30.92c-11.934 11.819-19.3 28.197-19.3 46.35v345.254c0 18.17 7.381 34.56 19.335 46.382-9.68-10.466-15.58-24.446-15.58-39.855V70.744c0-15.391 5.885-29.363 15.545-39.824z" fill="url(#e)"/>
  <path d="M857.713 30.92c11.933 11.819 19.3 28.197 19.3 46.35v345.254c0 18.17-7.382 34.56-19.336 46.382 9.68-10.466 15.58-24.446 15.58-39.855V70.744c0-15.391-5.885-29.363-15.544-39.824z" fill="url(#f)"/>
  <path d="M68.625 8.086c-31.053 0-56.05 24.87-56.05 55.762v5.036c0-31.482 25.477-56.826 57.123-56.826H808.24c31.646 0 57.123 25.344 57.123 56.826v-5.036c0-30.892-25-55.762-56.054-55.762z" fill="url(#g)"/>
  <path d="M70.588 492.678c-31.053 0-56.05-24.87-56.05-55.762v-5.036c0 31.482 25.477 56.826 57.123 56.826h735.93c31.646 0 57.123-25.344 57.123-56.826v5.036c0 30.892-25 55.762-56.054 55.762z" fill="url(#h)"/>
  <path d="M70.323 17.998c-21.843 0-40.88 11.5-51.366 28.77 9.365-14.17 25.482-23.497 43.876-23.497h751.215c18.173 0 34.132 9.097 43.545 22.981-10.55-16.98-29.416-28.254-51.038-28.254z" fill="url(#i)"/>
  <path d="M65.296 27.165c-24.316 0-43.892 19.47-43.892 43.66v357.007c0 24.189 19.576 43.66 43.892 43.66h750.33c24.316 0 43.889-19.471 43.889-43.66V70.825c0-24.19-19.573-43.66-43.889-43.66zm8.102 6.919h735.55c24.456 0 44.146 19.588 44.146 43.916v344.431c0 24.329-19.69 43.916-44.146 43.916H73.398c-24.455 0-44.142-19.587-44.142-43.916v-46.385c0-2.822 2.191-4.97 4.996-4.97h4.25c14.077 0 25.408-11.276 25.408-25.28v-191.11c0-14.004-11.33-25.276-25.408-25.276h-4.25c-2.583 0-4.996-2.406-4.996-4.97V78c0-24.328 19.687-43.916 44.142-43.916z"/>
  <path d="M14.152 442.333c8.357 23.84 31.083 40.861 57.966 40.861h730.353c26.883 0 49.609-17.021 57.966-40.86-7.412 19.161-26.04 32.695-47.975 32.695H62.127c-21.936 0-40.563-13.534-47.975-32.696z" fill="url(#j)"/>
  <rect ry=".435" y="75.638" x="12.236" height="346.938" width="7.342" fill="url(#k)"/>
  <rect width="7.342" height="346.938" x="860.241" y="75.638" ry=".435" fill="url(#l)"/>
  <path d="M137.66 499.374c-1.603 0-2.428-1.061-2.428-2.36v-2.344h36.814v2.343c0 1.35-1.103 2.36-2.428 2.36zM209.571 499.374c-1.647 0-2.428-.954-2.428-2.36v-2.298h71.786v2.297c0 1.35-1.103 2.36-2.428 2.36zM300.993 499.374c-1.842 0-2.428-.948-2.428-2.36v-2.298h71.786v2.297c0 1.35-1.103 2.36-2.428 2.36zM235.07.626c-1.734 0-2.429.972-2.429 2.361v2.921h111.086V2.987c0-1.35-1.104-2.36-2.428-2.36z" fill="#fff"/>
  <rect ry="4.393" y="221.591" x="36.597" height="60.795" width="8.831" fill="#1e1e1e"/>
  <rect ry="4.041" y="176.083" x="35.007" height="10.63" width="8.831" fill="url(#m)"/>
</svg>