<svg xmlns="http://www.w3.org/2000/svg" xmlns:xlink="http://www.w3.org/1999/xlink" width="1515" height="584" viewBox="0 0 1515 584"><defs><clipPath id="clip-waves"><rect width="1515" height="584"></rect></clipPath></defs><g id="waves" clip-path="url(#clip-waves)"><g id="waves-2" transform="translate(-315.187 -196.506)"><path id="dk-green" d="M1518.5,583.506H0V331.122c32.246-.325,64.849-1.334,96.908-3,32.983-1.725,66.166-4.192,98.625-7.334,33.4-3.233,67.061-7.288,100.04-12.053,34-4.924,68.041-10.7,101.171-17.176,34.264-6.693,68.589-14.326,102.024-22.687,34.448-8.607,68.959-18.228,102.575-28.594,34.469-10.616,69.073-22.353,102.85-34.88,34.593-12.831,69.193-26.819,102.839-41.575,30.157-13.224,60.922-25.8,91.44-37.372,29.949-11.361,60.59-22.121,91.073-31.979,29.8-9.642,60.262-18.683,90.533-26.872,29.677-8.03,59.9-15.448,89.827-22.048,29.251-6.46,59.171-12.35,88.928-17.5,29.071-5.026,58.631-9.479,87.857-13.233,28.483-3.654,57.625-6.769,86.618-9.258C1461.415,3.15,1490.078,1.282,1518.5,0V583.506Z" transform="translate(314.292 200)" fill="#205f5a"></path><path id="dk-blue" d="M1093.592,382.079v0H0C110.638,355.838,226.848,321.766,345.4,280.8c130.58-45.11,267.264-99.694,406.257-162.237,63.932-28.761,128.358-54.059,191.487-75.192C993.161,26.627,1043.777,12.034,1093.591,0V382.079Z" transform="translate(739.201 400.265)" fill="#488895"></path><path id="md-blue" d="M1525.686,276.387H0V214.66c4.738-1.273,9.517-2.567,14.2-3.847,107.074-29.2,219.186-64.539,333.221-105.041,52.447-18.63,105.292-35.011,157.063-48.687C554.216,43.936,604.384,32.9,653.6,24.3,700.736,16.056,748.181,9.836,794.62,5.81,839.024,1.955,883.7,0,927.4,0a1461.492,1461.492,0,0,1,149.939,7.682c46.117,4.775,92.324,11.881,137.336,21.122,41.922,8.606,83.8,19.266,124.477,31.68,37.57,11.467,75.039,24.708,111.366,39.354,25.26,10.188,50.55,21.3,75.166,33.021Z" transform="translate(309.5 505.013)" fill="#a4cedb" opacity="0.416"></path><path id="lt-blue" d="M1518.5,252.022H0V187.956C92.9,162.184,189.9,131.4,288.3,96.449c47.784-16.974,95.969-31.912,143.215-44.4C476.886,40.057,522.634,30,567.487,22.155,610.451,14.645,653.716,8.972,696.08,5.3,736.57,1.781,777.306,0,817.155,0a1331.884,1331.884,0,0,1,136.726,7c42.059,4.354,84.193,10.834,125.231,19.26,38.195,7.841,76.383,17.56,113.5,28.887,34.282,10.464,68.449,22.537,101.55,35.887A1218.63,1218.63,0,0,1,1460.473,173.3c19.782,11.76,39.307,24.153,58.031,36.841v41.88Z" transform="translate(314.288 529.376)" fill="#a4cedb" opacity="0.416"></path></g></g></svg>