<?xml version="1.0" encoding="UTF-8" standalone="no"?>
<svg viewBox="0 0 100 100" xmlns="http://www.w3.org/2000/svg">
  <path style="fill:#8ab391;fill-opacity:1;stroke:none;stroke-width:.636162px;stroke-linecap:butt;stroke-linejoin:miter;stroke-opacity:1" d="M 49.496094 5 C 44.567546 11.04076 41.939205 16.352719 41.728516 21.912109 C 37.860886 18.275194 32.573463 15.777867 25.792969 13.730469 C 25.989388 29.082255 31.189662 36.552749 46.960938 41.228516 C 49.066936 44.873885 52.539709 52.561838 54.050781 61.683594 C 55.667309 71.441943 55.086997 82.747272 48.597656 92.894531 L 51.96875 95.048828 C 58.129666 85.41512 59.421546 74.877088 58.564453 65.492188 C 72.209244 58.37338 75.286094 48.82553 73.90625 33.724609 C 63.015649 38.292721 57.560925 43.858695 56.339844 53.634766 C 54.73195 47.930484 52.638501 43.239114 50.953125 40.148438 C 59.570725 27.501754 57.788746 17.64613 49.496094 5 z"/>
</svg>
