<?xml version="1.0" encoding="UTF-8" standalone="no"?>
<svg viewBox="0 0 100 100" xmlns:xlink="http://www.w3.org/1999/xlink" xmlns="http://www.w3.org/2000/svg">
  <defs>
    <linearGradient id="c" x1="8710.998" x2="8710.998" y2="26398.389" gradientUnits="userSpaceOnUse" gradientTransform="matrix(0.10392125,0,0,0.06106269,-824.02587,-1518.7588)" y1="24967.984">
      <stop offset="0" stop-color="#2a6680"/>
      <stop offset="0.502" stop-color="#3992b7"/>
      <stop offset="1" stop-color="#bbd6e2"/>
    </linearGradient>
    <linearGradient id="a" x1="0.5" x2="0.5" y2="0.426" gradientUnits="objectBoundingBox">
      <stop offset="0" stop-color="#bbd6e2"/>
      <stop offset="1" stop-color="#edcec7"/>
    </linearGradient>
    <linearGradient xlink:href="#a" id="b" gradientUnits="userSpaceOnUse" gradientTransform="matrix(0.12264455,0,0,0.05820648,-48.332693,-3.5862366)" x1="831.3844" y1="0" x2="831.3844" y2="708.33948"/>
    <clipPath id="d">
      <path data-name="Subtraction 3" d="m 23.566,91.3 v 0 A 56.056,56.056 0 0 1 15.727,90.771 36.861,36.861 0 0 1 8.767,89.144 18.15,18.15 0 0 1 3.449,86.36 8.358,8.358 0 0 1 0.54,82.36 C -0.173,80.086 -0.18,76.06 0.519,70.4 A 179.351,179.351 0 0 1 4.011,51.871 L 9.775,50.3 5.459,45.984 c 1.23,-4.8 2.6,-9.672 4.06,-14.483 l 3.853,-1.051 -2.691,-2.691 c 1.473,-4.64 2.943,-8.908 4.37,-12.686 L 18.43,14.152 16.254,11.977 C 19.022,5.08 21.29,0.985 22.812,0.135 A 1.047,1.047 0 0 1 23.327,0 c 2.192,0 5.462,6.457 7.819,11.873 l -1.806,2.42 2.982,0.366 c 1.425,3.474 2.911,7.428 4.414,11.753 L 34,30.079 l 4.156,0.51 c 1.626,4.9 3.18,9.961 4.617,15.036 l -3.65,4.888 5.164,0.634 c 1.972,7.45 3.46,14.182 4.306,19.469 a 63.656,63.656 0 0 1 0.8,7.177 13.59,13.59 0 0 1 -0.376,4.568 7.971,7.971 0 0 1 -3.165,3.8 22.561,22.561 0 0 1 -5.944,2.805 45.965,45.965 0 0 1 -7.753,1.734 61.491,61.491 0 0 1 -8.589,0.6 z" transform="translate(12880.65,2000.813)" fill="#2e5c4c" opacity="0.746"/>
    </clipPath>
    <clipPath id="e">
      <path data-name="Subtraction 5" d="m 17.748,68.756 v 0 a 42.214,42.214 0 0 1 -5.9,-0.4 27.759,27.759 0 0 1 -5.248,-1.223 13.669,13.669 0 0 1 -4,-2.1 6.294,6.294 0 0 1 -2.193,-3.007 C -0.13,60.312 -0.135,57.28 0.391,53.015 A 135.068,135.068 0 0 1 3.021,39.064 L 7.362,37.88 4.112,34.63 C 5.039,31.016 6.068,27.346 7.17,23.723 l 2.9,-0.792 -2.026,-2.026 c 1.109,-3.494 2.217,-6.708 3.291,-9.554 L 13.88,10.657 12.241,9.02 C 14.326,3.826 16.034,0.742 17.18,0.1 A 0.789,0.789 0 0 1 17.568,0 c 1.651,0 4.113,4.863 5.888,8.942 l -1.356,1.822 2.246,0.276 c 1.073,2.616 2.192,5.594 3.324,8.851 l -2.07,2.761 3.13,0.384 c 1.225,3.692 2.395,7.5 3.477,11.324 l -2.749,3.681 3.889,0.477 c 1.485,5.611 2.606,10.681 3.243,14.662 a 47.939,47.939 0 0 1 0.6,5.4 10.234,10.234 0 0 1 -0.283,3.44 6,6 0 0 1 -2.383,2.86 16.991,16.991 0 0 1 -4.47,2.12 34.616,34.616 0 0 1 -5.838,1.309 46.308,46.308 0 0 1 -6.468,0.447 z" transform="translate(12880.65,2000.813)" fill="#2e5c4c" opacity="0.746"/>
    </clipPath>
  </defs>
  <path style="fill:url(#b);stroke-width:.0844909" d="M 0 0 L 0 93.197266 L 100 93.197266 L 100 0 L 0 0 z"/>
  <path d="m 1.815011,26.445972 c 0.5057612,0.02454 9.8255,-0.02469 10.06193,0 0.236431,0.02469 0.281041,-0.245671 -0.195883,-0.605416 -0.476925,-0.359744 -1.06601,-0.253398 -1.06601,-0.253398 0,0 -0.127854,-0.835633 -0.6199936,-1.114124 -0.4921393,-0.278492 -1.348484,0 -1.348484,0 0,0 -0.064365,-1.53696 -1.8842769,-1.547555 -1.8199117,-0.01059 -2.2314351,1.343466 -2.2314351,1.343466 0,0 -0.9384741,-0.07169 -1.3734176,0.204089 -0.4349434,0.275783 -0.3659579,0.897529 -0.3659579,0.897529 0,0 -1.0037156,-0.110887 -1.2995727,0.310673 -0.2958571,0.421561 -0.1826603,0.740201 0.3231008,0.764736 z" fill="#fff" opacity="0.462" style="stroke-width:.07966"/>
  <path style="stroke-width:.07966;fill:#3992b7;fill-opacity:1;opacity:.5" d="M 100 8.2714844 C 86.156979 12.484655 72.565609 20.95369 60.882812 36.068359 C 41.557555 61.070494 19.425333 64.355749 0 59.503906 L 0 95.929688 L 100 94.646484 L 100 8.2714844 z"/>
  <path style="opacity:.5;fill:#8da843;fill-opacity:1;stroke-width:.07966" d="M 93.664062,32.710938 C 80.726907,33.0904 66.704627,38.27092 52.3125,51.408203 33.310396,68.753523 15.43888,71.599567 0,67.691406 V 95.71875 H 100 V 32.947266 c -2.08417,-0.187028 -4.188744,-0.299308 -6.335938,-0.236328 z"/>
  <path style="fill:url(#c);stroke-width:.07966" d="M 100,7.625 C 89.039912,9.7843293 78.670029,15.309739 71.243299,23.718868 61.594389,34.425264 56.419606,48.079974 49.568968,60.553971 44.36594,70.186121 37.669534,79.411814 28.262989,85.31128 21.815695,89.438914 14.427989,91.927519 6.9080701,93.197384 37.938713,93.197996 68.969357,93.198607 100,93.199219 100,64.674479 100,36.14974 100,7.625 Z"/>
  <path style="fill:#41755b;fill-opacity:1;stroke-width:.07966" d="M 99.33008,42.974609 C 85.998942,43.276972 71.14689,49.782853 55.417969,66.941406 35.033607,89.178544 16.085766,94.768497 0,92.541016 V 100 H 100 V 42.976562 c -0.22403,0.0016 -0.44503,-0.0071 -0.66992,-0.002 z"/>
  <path style="opacity:.4;isolation:isolate;mix-blend-mode:screen;fill:#41755b;fill-opacity:1" d="M 92.556641,30.361328 C 78.988665,30.244381 63.739474,35.664298 47.197266,50.328125 29.686685,65.850364 13.85119,71.617071 0,71.789062 v 22.808594 l 100,1.451172 V 31.044922 c -2.427285,-0.388161 -4.894924,-0.661628 -7.443359,-0.683594 z"/>
  <path style="stroke-width:.07966;fill:#477b73;fill-opacity:1" d="M 97.501953 54.345703 C 84.82984 54.321531 70.777344 59.375927 55.6875 72.617188 C 34.811888 90.935429 15.965037 94.638781 0 91.341797 L 0 100 L 100 100 L 100 54.417969 C 99.173287 54.372767 98.340862 54.347303 97.501953 54.345703 z"/>
  <g transform="matrix(0.07965997,0,0,0.07965997,-1022.709,-93.383414)" clip-path="url(#d)">
    <path data-name="Rectangle 143" transform="translate(12863,1992.925)" fill="#2e5c4c" d="M 0,0 H 83 V 119 H 0 Z"/>
  </g>
  <g data-name="tree" transform="matrix(0.07965997,0,0,0.07965997,-1017.498,-89.747016)" clip-path="url(#e)">
    <path data-name="Rectangle 144" transform="translate(12867.358,1994.873)" fill="#2e5c4c" d="M 0,0 H 62.507 V 89.618 H 0 Z"/>
  </g>
  <g data-name="tree" transform="matrix(0.07965997,0,0,0.07965997,-1027.92,-91.542711)" clip-path="url(#d)">
    <path data-name="Rectangle 145" transform="translate(12863,1992.925)" fill="#2e5c4c" d="M 0,0 H 83 V 119 H 0 Z"/>
  </g>
  <g data-name="tree" transform="matrix(0.07965997,0,0,0.07965997,-1012.2869,-88.978696)" clip-path="url(#d)">
    <path data-name="Rectangle 146" transform="translate(12863,1992.925)" fill="#2e5c4c" d="M 0,0 H 83 V 119 H 0 Z"/>
  </g>
  <g data-name="tree" transform="matrix(0.07965997,0,0,0.07965997,-1022.4429,-76.99704)" clip-path="url(#d)">
    <path data-name="Rectangle 147" transform="translate(12863,1992.925)" fill="#2e5c4c" d="M 0,0 H 83 V 119 H 0 Z"/>
  </g>
  <g data-name="tree" transform="matrix(0.07965997,0,0,0.07965997,-1012.2869,-81.0593)" clip-path="url(#d)">
    <path data-name="Rectangle 148" transform="translate(12863,1992.925)" fill="#2e5c4c" d="M 0,0 H 83 V 119 H 0 Z"/>
  </g>
  <g data-name="tree" transform="matrix(0.07965997,0,0,0.07965997,-1016.5016,-84.269836)" clip-path="url(#d)">
    <path data-name="Rectangle 154" transform="translate(12863,1992.925)" fill="#2e5c4c" d="M 0,0 H 83 V 119 H 0 Z"/>
  </g>
  <g data-name="tree" transform="matrix(0.07965997,0,0,0.07965997,-1025.4076,-84.269836)" clip-path="url(#e)">
    <path data-name="Rectangle 155" transform="translate(12867.358,1994.873)" fill="#2e5c4c" d="M 0,0 H 62.507 V 89.618 H 0 Z"/>
  </g>
  <g data-name="tree" transform="matrix(0.07965997,0,0,0.07965997,-1007.6201,-84.269836)" clip-path="url(#e)">
    <path data-name="Rectangle 156" transform="translate(12867.358,1994.873)" fill="#2e5c4c" d="M 0,0 H 62.507 V 89.618 H 0 Z"/>
  </g>
  <g data-name="tree" transform="matrix(0.07965997,0,0,0.07965997,-1025.4076,-84.269836)" clip-path="url(#e)">
    <path data-name="Rectangle 447" transform="translate(12867.358,1994.873)" fill="#2e5c4c" d="M 0,0 H 62.507 V 89.618 H 0 Z"/>
  </g>
  <g>
    <g data-name="building" opacity="0.51" style="opacity:1">
      <path data-name="Path 1098" d="M 3,0 H 45 V 54 H 0 V 3 A 3,3 0 0 1 3,0 Z" transform="matrix(0.07965997,0,0,0.07965997,-1183.7814,-148.68257) translate(16026,2395.409)" opacity="0.503"/>
      <path data-name="Rectangle 174" transform="matrix(0.07965997,0,0,0.07965997,-1183.7814,-148.68257) translate(16043,2395.409)" fill="#fff" d="M 0,0 H 28 V 54 H 0 Z"/>
    </g>
    <g data-name="tv tower" transform="matrix(0.07965997,0,0,0.07965997,-1231.0995,-108.40872)" opacity="0.507" style="opacity:1">
      <circle data-name="Ellipse 55" cx="10.764" cy="10.764" r="10.764" transform="translate(16665,1821.967)" fill="#fff"/>
      <g data-name="Group 109">
        <path data-name="Path 1093" d="m 16690.895,2301.68 c 0,0 1.975,-163.008 1.912,-174.256 -0.06,-11.248 2.254,-43.564 4.2,0 1.946,43.564 3.666,174.256 3.666,174.256 z" transform="translate(16665.357,1747.357) translate(-16684.75,-2105.313)" fill="#fff"/>
        <path data-name="Path 1092" d="m 16693.658,2189.194 c -0.291,0.342 -0.414,2.947 0,3.427 0.141,0.163 0.5,0.67 1.035,0.542 0.85,-0.2 2.27,-1.271 3.885,-1.271 1.652,0 2.756,1.041 3.52,1.271 0.268,0.081 0.586,-0.4 0.68,-0.542 0.289,-0.452 0.6,-2.935 0.229,-3.427 -0.371,-0.492 -1.982,-1 -4.428,-1 -2.446,0 -4.632,0.659 -4.921,1 z" transform="translate(16665.357,1747.357) translate(-16687.514,-2091.354)" opacity="0.502"/>
        <path data-name="Path 1094" d="m 16693.723,2191.809 c -0.359,1.232 -0.514,10.636 0,12.371 0.174,0.588 0.625,2.42 1.291,1.957 1.061,-0.735 2.3,-0.781 4.842,-0.9 a 9.047,9.047 0 0 1 4.383,0.9 14,14 0 0 0 0.848,-1.957 c 0.359,-1.633 0.752,-10.6 0.285,-12.371 -0.467,-1.771 -2.471,-3.616 -5.516,-3.616 -3.045,0 -5.772,2.384 -6.133,3.616 z" transform="translate(16665.357,1747.357) translate(-16689.082,-2130.302)" opacity="0.496"/>
        <path data-name="Path 1091" d="m 12.033,0 c 5.945,0 10.6,2.034 10.6,5.856 0,1.8 -2.5,4.632 -3.168,5.128 -1.911,1.339 -4.29,2.855 -7.428,2.855 A 9.308,9.308 0 0 1 5.331,11.426 C 3.798,10.26 1.631,7.556 1.631,5.855 1.627,2.034 6.089,0 12.033,0 Z" transform="translate(16665.357,1747.357) translate(-1.627,82.298)" opacity="0.507"/>
      </g>
    </g>
    <g data-name="building" opacity="0.512" style="opacity:1">
      <path data-name="Rectangle 161" d="m 6,0 h 23 a 6,6 0 0 1 6,6 V 91 H 0 V 6 A 6,6 0 0 1 6,0 Z" opacity="0.501" transform="matrix(0.07965997,0,0,0.07965997,97.628828,39.832432) translate(0,-0.087)"/>
      <path data-name="Rectangle 162" d="m 0,0 h 7 a 6,6 0 0 1 6,6 V 91 H 0 Z" transform="matrix(0.07965997,0,0,0.07965997,97.628828,39.832432) translate(24,-0.087)" fill="#fff"/>
    </g>
  </g>
</svg>
