<svg viewBox="0 0 100 100" xmlns="http://www.w3.org/2000/svg">
  <path style="fill:#52727a" d="M 49.929685,9.0625 C 47.491939,9.06313 45.07768,10.043547 42.5,12 l -24,18.5 v 51 h 62.999995 v -51 L 57.500005,12 c -2.67133,-1.958971 -5.13257,-2.93813 -7.57032,-2.9375 z m 0.0703,4.4375 c 2.76142,0 5,2.238576 5,5 0,2.761424 -2.23858,5 -5,5 -2.761429,0 -5.000005,-2.238576 -5.000005,-5 0,-2.761424 2.238576,-5 5.000005,-5 z" transform="translate(-3.3876816,1.8217196) rotate(-60,49.999997,45.28125)"/>
  <path style="fill:#8ab391" d="m 26.40396,68.082817 c 0.63912,0.725507 1.274885,1.453373 2.173002,1.811452 0.852456,0.218468 1.735824,0.290565 2.612423,0.213221 1.375854,-0.07422 2.746382,-0.226507 4.104972,-0.456107 3.023451,-0.4838 6.873458,-1.334522 11.133852,-2.462241 l 0.361548,-2.953578 2.79598,2.087714 c 2.902212,-0.821769 5.795312,-1.71038 8.597447,-2.640234 l 0.292947,-2.376953 2.096985,1.564858 c 2.473314,-0.859514 4.734445,-1.710376 6.721101,-2.52528 l 0.209514,-1.705769 1.383155,1.034586 c 3.097221,-1.347888 6.789704,-3.218556 6.789704,-4.472082 -8.1e-5,-0.103338 -0.02691,-0.204901 -0.07787,-0.294801 -0.486087,-0.870379 -2.82701,-2.167916 -6.771163,-3.750839 l -1.2441,1.244098 -0.526563,-1.931968 c -2.160504,-0.816053 -4.60163,-1.656966 -7.255081,-2.499322 l -1.538901,1.538901 -0.600728,-2.202669 c -2.75124,-0.834922 -5.537297,-1.617936 -8.282251,-2.32133 l -2.467802,2.467804 -0.899237,-3.296584 c -3.4946,-0.850954 -7.031541,-1.517495 -10.596166,-1.996863 -3.236752,-0.399867 -5.53934,-0.394761 -6.839764,0.01302 -0.912297,0.311162 -1.644319,0.943903 -2.286104,1.663083 -2.688868,3.013125 -2.593362,21.175598 0.113102,24.247884 z" transform="translate(-3.3876816,1.8217196) rotate(-60,49.999997,45.28125)"/>
</svg>
