<?xml version="1.0" encoding="UTF-8" standalone="no"?>
<svg
   alt="logo"
   viewBox="0 0 167 56"
   fill="none"
   version="1.1"
   id="svg79"
   xmlns="http://www.w3.org/2000/svg"
   xmlns:svg="http://www.w3.org/2000/svg">
  <path
     fill-rule="evenodd"
     clip-rule="evenodd"
     d="M 51.5298,8.62236 C 48.8177,7.87129 45.8698,9.34339 43.6588,10.3048 42.6566,10.0945 41.9196,9.76399 40.8583,9.58374 L 40.6225,9.55369 C 40.1508,9.46357 39.8855,9.52365 39.119,9.34339 37.8809,9.01292 36.8786,8.98288 35.5815,8.86271 35.1983,8.80262 34.2255,8.56228 33.7833,8.74254 c -0.5896,0 -1.2087,0.12017 -1.8277,0.12017 -0.3832,0 -0.9728,-0.09013 -1.3561,-0.03005 -2.83,0.09013 -5.7189,0.57082 -8.4016,0.99142 -0.9138,0.15022 -2.0045,0.30042 -2.6826,0.60082 -0.619,0.2404 -1.1202,1.0215 -1.6803,1.2618 -0.2063,0.2704 -0.5601,0.3906 -0.2948,0.4206 0.8549,0.1202 2.6826,-0.1502 3.8618,-0.2103 1.1792,-0.06 2.2699,-0.1201 3.3312,0 2.771,1.6524 6.4559,2.4335 10.9662,2.2833 1.1203,0.0901 2.27,0.0601 3.1543,-0.1502 0.9728,-0.0601 1.7983,-0.2103 2.7121,-0.3305 0.9728,-0.0601 5.5421,-0.7511 6.5149,-0.9914 0.9434,-0.2103 2.2405,-0.6009 2.948,-0.9013 0.5601,-0.2103 2.8005,-1.5322 3.4196,-1.7425 C 53.9176,9.91421 52.0899,8.83266 51.5298,8.62236 Z"
     fill="#d6dc90"
     id="path2" />
  <path
     fill-rule="evenodd"
     clip-rule="evenodd"
     d="m 43.7475,22.472 c -0.5307,-0.0902 -1.5035,-0.5709 -0.9728,-1.4721 0.2358,-0.4807 0.7075,-0.691 1.3265,-0.7812 0.4422,-0.9313 1.5919,-0.8412 3.0659,-0.7811 0.7959,0.0301 1.8866,0 2.7121,0.0601 2.6236,0.2103 5.0704,-0.03 6.0432,0.8412 1.4445,0.1803 2.9479,0.2404 4.245,0.5708 -0.2948,0.4507 -0.8549,0.8713 -1.4445,0.9914 -1.2971,0.2404 -4.1565,0.0601 -5.8369,0 -0.5601,-0.03 -1.2086,-0.2103 -1.5918,-0.06 -0.5012,0.1802 -0.5896,0.9012 -0.9729,1.0515 -1.8277,0.2103 -4.0386,0.3605 -5.9548,0.2103 -0.4127,-0.0301 -0.2358,-0.6009 -0.619,-0.6309 z"
     fill="#d6dc90"
     id="path4" />
  <path
     fill-rule="evenodd"
     clip-rule="evenodd"
     d="m 41.949,40.0171 c 9.9345,0 18.8962,0.9914 26.5018,3.3948 -1.297,0.9614 -4.1271,0.8112 -6.1022,1.2018 -1.5918,0.3304 -3.3606,0.7811 -4.7756,1.0515 0.1769,0.3304 -30.0099,4.897 -33.3705,2.9742 -1.3266,-0.8111 -2.4173,-1.8927 -3.6849,-2.7639 1.1202,-1.0215 2.0635,-1.382 3.1837,-1.8327 3.4786,-1.412 7.2225,-3.0042 11.6443,-3.3948 2.9185,-0.3906 3.7144,-0.4507 6.6034,-0.6309 z"
     fill="#e4aa55"
     id="path6" />
  <path
     fill-rule="evenodd"
     clip-rule="evenodd"
     d="m 59.0766,46.7467 c -1.0317,1.5322 -2.1519,2.8841 -3.3311,4.3863 -0.3832,0.4807 -0.7075,1.1416 -1.1202,1.412 -0.6486,0.4507 -1.8572,0.7511 -2.7121,1.0515 -2.7121,1.0215 -5.6895,1.8927 -8.8143,2.4034 -1.3855,0 -2.7711,0 -4.1566,0 -4.8935,-0.3605 -10.3767,-0.9613 -15.0639,-1.8326 -1.415,-0.2704 -2.3289,-0.3905 -2.9184,-1.4721 1.0023,-1.412 2.1225,-2.7038 3.1837,-4.0257 0,0 0,0 0.059,-0.0601 3.6554,2.4335 7.8709,4.3262 13.8847,4.3863 6.3381,-2.5837 11.9391,-5.8885 19.4268,-7.2704 0.0295,-0.0601 1.2087,0.6008 1.5624,1.0214 z"
     fill="#f2c888"
     id="path8" />
  <path
     fill-rule="evenodd"
     clip-rule="evenodd"
     d="m 43.128,41.7898 c 5.4832,0.0901 9.286,0.9614 12.8235,2.9442 0.2948,0.1803 0.9728,0.5408 1.6214,0.9313 -7.4878,1.4121 -13.0888,4.7168 -19.4269,7.2704 -6.0137,-0.0601 -10.2882,-1.8626 -13.9731,-4.2961 0.3242,-0.3906 0.678,-0.9013 1.0317,-1.2618 3.1248,-1.6824 6.4855,-3.1545 9.9345,-4.5365 0,0 1.5035,-0.7511 7.9889,-1.0515 z"
     fill="#b27129"
     id="path10" />
  <path
     fill-rule="evenodd"
     clip-rule="evenodd"
     d="m 73.2857,18.3863 c -3.1248,-0.9914 -6.4265,-1.7725 -9.9935,-2.3433 -2.6826,-1.6524 -7.0455,-1.5923 -10.6715,-2.2533 2.0046,-0.3004 5.5421,-0.06 6.3675,-0.06 0.8549,-0.0301 1.0613,0.03 2.6237,0 1.5624,-0.0301 2.9774,-0.2103 3.6849,-1.1417 -3.3607,-1.0515 -7.193,-1.7124 -10.8484,-2.4635 0,0 -2.4173,0.4206 -3.0363,0.691 -0.5602,0.2704 -1.0318,0.691 -1.5919,0.9313 -0.7075,0.3005 -1.7688,0.3605 -2.7121,0.5708 -0.9728,0.2103 -2.1225,0.5408 -2.83,0.5709 -0.737,0.1502 -2.8006,0.6008 -2.7711,0.5708 -0.9138,0.1201 -1.7982,0.3004 -2.771,0.3605 -0.796,-0.0601 -1.7983,0 -2.9774,0.2103 -4.5104,0.1502 -8.1953,-0.5408 -10.9663,-2.1931 -1.0318,-0.1202 -2.211,-0.0601 -3.3901,0 -1.2087,0.06 -2.3584,0.3905 -3.2133,0.2703 -0.2358,-0.03 -0.5601,-0.06 -0.737,0.0301 -0.5601,1.1116 -2.3288,1.1717 -4.0091,1.5622 -2.6826,0.6009 -5.74849,1.382 -8.31318,2.1331 -0.47167,0.7811 -0.82542,1.6824 -1.12021,2.6738 -1.50345,0.6008 -2.94793,1.2918 -3.9502258,2.4034 0,0.5708 0,1.1416 0,1.6824 -0.2653132,0.9914 0.9433358,0.2704 1.3265658,0.1502 2.71209,-0.9313 6.5444,-2.4635 9.37445,-2.6738 1.0907,-0.0901 2.4173,-0.03 2.9184,0.5708 3.0069,-0.3004 6.0432,-0.5708 9.0207,-0.9313 0.619,0.4206 1.1791,0.8712 1.8866,1.2017 -2.034,0.5708 -4.0092,1.1717 -5.6895,2.1331 -0.1474,0.1802 -0.0589,1.0515 -0.0589,1.1416 2.9479,-0.6009 6.5444,-1.1416 10.1408,-1.3519 4.6283,-0.7812 8.0774,-2.2833 10.1704,-3.8455 1.5624,-0.0301 3.3901,-0.1202 5.4831,-0.2704 0.5012,0 1.0318,0 1.5329,0 1.0908,0 2.3879,0 3.5965,0 4.5103,0 8.8143,0.2704 12.9709,0.721 0.9728,0.0901 2.1815,0.4206 2.771,0.2704 0.4127,-0.0901 0.7665,-0.6309 1.1792,-0.7811 2.2404,-0.7511 4.8051,0.1202 6.8687,0.6309 -0.059,-0.1502 -0.1179,-0.9614 -0.2653,-1.1717 z"
     fill="#92a344"
     id="path12" />
  <path
     fill-rule="evenodd"
     clip-rule="evenodd"
     d="M 45.1329,4.38626 C 43.3641,3.72531 39.1781,3.51501 38.9717,3.45492 c -0.5011,0 -2.5352,-0.15021 -2.6236,0 -5.6306,0.42061 -9.6692,2.28327 -15.1229,2.88413 -0.4422,0.18025 -0.737,0.57081 -1.0612,0.87124 -1.9751,0 -4.0092,0.54077 -5.8959,0.8412 -0.2358,-0.39056 -0.4422,-0.6309 -0.5601,-1.0515 2.7121,-1.50215 6.0433,-1.6824 8.6669,-2.97425 0.8549,-0.4206 1.5624,-1.14163 2.4173,-1.4721 1.9456,-0.75108 4.2155,-0.57082 6.5149,-0.93133 0.059,-0.57082 0.2064,-1.051506 0.4127,-1.472107 0.6486,-0.060086 1.3266,-0.1502148217 2.0046,-0.1502148217 1.7098,0 3.4196,0 5.1294,0 1.3266,0 2.9774,-0.0901287783 3.8913,0.5708158217 0.2653,0.180257 0.4422,0.871246 0.7075,1.051506 0.7664,0.57081 3.1543,0.54077 4.3039,0.72103 2.211,0.33047 4.3925,0.24034 5.1884,1.6824 -0.7075,0.15021 -1.6803,0.03004 -2.5057,0.06009 -0.2653,0.06008 -0.5896,0.06008 -0.9139,0.06008 -1.5034,0.03004 -3.0364,0.03004 -4.245,0.36052 -0.0295,0 -0.059,-0.09013 -0.1474,-0.12017 z"
     fill="#92a344"
     id="path14" />
  <path
     fill-rule="evenodd"
     clip-rule="evenodd"
     d="M 60.8747,8.83258 C 58.3395,8.29181 55.7453,7.81112 53.0922,7.36048 52.2373,6.96992 52.1194,5.73816 51.1466,5.37765 50.557,5.1373 49.5252,5.22743 48.7293,5.16735 47.2848,5.04717 46.0466,5.1373 45.3391,4.53645 45.2802,4.47636 45.2212,4.41627 45.1328,4.38623 c -1.1202,0.24034 -1.8277,0.87125 -2.5352,1.53219 -2.152,0 -4.1271,0.09013 -6.1907,0.18026 -2.093,0.09013 -4.0092,0.33047 -5.9843,0.48068 -3.3311,0.24035 -6.3675,-0.27038 -9.6986,0.4206 -0.2359,-0.15021 -0.2359,-0.12017 -0.5601,0.18026 -1.6509,2.13305 -4.8052,2.70386 -7.9005,3.45498 -0.6485,0.1502 -1.474,0.1802 -1.9456,0.4206 -0.67805,0.3605 -0.82544,1.4721 -1.32659,1.9828 1.32659,0.1202 2.74159,-0.2103 4.15659,-0.4206 1.415,-0.2103 2.83,-0.4807 4.304,-0.5708 0.1768,-0.0902 0.2358,-0.1202 0.4716,-0.2704 0.5601,-0.2704 0.9728,-0.9614 1.5919,-1.2017 0.7075,-0.2704 1.7393,-0.3605 2.6237,-0.4807 2.6531,-0.42062 5.7189,-0.84122 8.5195,-0.93135 0.5896,0 4.245,0 4.245,0 0,0 2.9774,-0.03004 4.0092,0.36052 0.4716,0.09013 1.0612,0.15021 1.5329,0.2103 1.0612,0.15021 2.1815,0.36053 3.2132,0.57083 2.211,-0.99143 5.0705,-1.38199 7.7825,-0.63092 1.3266,-0.09012 2.1226,0.15022 3.0364,0.42062 0.7075,-0.0601 1.4445,-0.18027 2.2404,-0.15023 0.5307,0 1.0613,0 1.5919,0 1.2087,0 2.2994,0.09013 3.3312,0.27043 C 61.4348,9.73387 61.1105,9.34331 60.8747,8.83258 Z"
     fill="#6d8e3c"
     id="path16" />
  <path
     fill-rule="evenodd"
     clip-rule="evenodd"
     d="m 39.1782,3.12448 c 2.2699,0.15022 5.2178,0.60086 6.1612,1.41202 -1.1203,0.24034 -1.9162,0.90129 -2.6237,1.56223 -2.152,0 -4.245,0.18026 -6.3086,0.27039 -2.093,0.09013 -4.0681,0.48068 -6.0432,0.6309 -3.3312,0.24034 -6.8687,-0.48069 -10.1998,0.2103 0.3832,-0.45064 0.7664,-0.8412 0.9728,-0.93133 5.4536,-0.60086 9.4039,-2.76395 15.0639,-3.18455 0.1769,-0.03004 2.7416,-0.03004 2.9774,0.03004 z"
     fill="#424d21"
     id="path18" />
  <path
     fill-rule="evenodd"
     clip-rule="evenodd"
     d="m 44.5728,18.6567 c -0.5012,0.4506 -1.1202,0.8712 -1.7983,1.2017 -0.619,0.3004 -1.5329,0.4506 -1.7392,1.2017 0.2063,0.0901 0.4421,0.0601 0.7959,0.0601 0.2653,-0.03 0.3832,-0.03 0.9433,-0.1202 1.415,-0.1802 2.3878,-0.8111 3.8029,-0.9914 0.5601,-0.0901 0.8254,0.1202 1.0317,0.3605 0.059,0.0902 0.1474,0.1202 0.1474,0.2404 -1.1202,0.8712 -2.6531,1.2618 -4.0386,1.8626 -0.8549,0.7211 -1.9457,1.2017 -3.0659,1.6824 -0.7959,1.1417 -1.9456,1.7125 -1.9456,3.7554 0,1.5923 0.7075,4.176 1.0318,5.7983 0.1474,0.691 0.1474,1.412 0.3537,1.9227 0.1179,0.3005 0.4127,0.5408 0.5601,0.8412 0.5306,1.1417 0.796,2.5537 1.2382,3.5451 0.3832,0.5708 1.1496,1.7725 1.1496,1.7725 1.3266,2.7339 2.948,4.0258 5.2474,5.2275 -1.6509,0.6009 -3.7734,-0.1202 -5.0705,-0.7811 0.1474,0.5408 0.678,1.0515 0.7075,1.4721 -1.5329,0.0601 -2.3583,-0.6009 -3.3901,-1.0515 -0.2063,-0.691 -0.4127,-1.382 -1.0318,-1.6223 -1.0023,1.3219 -2.034,3.2446 -4.4513,2.6738 0.3832,-0.3906 1.2676,-0.9614 1.1791,-1.3519 -1.5034,0.9313 -3.567,1.2618 -5.6305,1.6223 -0.2064,-0.1502 -0.3243,-0.3906 -0.4717,-0.5708 1.9751,-0.6009 3.0953,-2.1331 4.6578,-3.1846 0.0589,-0.5107 0.2063,-0.9914 0.3537,-1.412 0.0884,-0.721 0.3832,-1.412 0.2064,-2.1931 -0.0295,-1.6224 -0.5896,-3.0945 -0.7665,-4.5966 -0.0884,-0.9013 -0.0295,-1.8927 -0.2653,-2.824 -0.2653,-0.9614 -0.737,-2.0129 -1.0318,-3.0344 -0.2653,-0.9614 -0.4717,-2.5536 -0.8254,-3.3347 -0.2948,-0.6009 -1.1792,-1.2619 -1.7393,-1.8327 -0.7075,-0.721 -1.4445,-1.5322 -1.7982,-2.2532 -0.4127,-0.7511 -0.4127,-1.6223 -0.9728,-2.1931 -0.6486,-0.661 -1.9162,-0.9313 -2.83,-1.4721 -0.9729,-0.6009 -1.7983,-1.1717 -2.5647,-1.7726 0.0884,-0.2403 0.0589,-0.6309 0.2063,-0.8412 1.4445,-0.1802 2.3584,-0.3004 3.3312,0.1503 0.6485,0.3004 1.0023,0.9613 1.5918,1.3519 0.737,0.4807 2.0046,0.9313 3.0659,0.7811 0.678,-0.0901 1.5624,-0.8112 2.093,-1.3519 1.0023,-0.9914 2.152,-2.6138 2.9774,-3.3949 1.2971,-1.2017 2.1225,-2.8541 3.0659,-4.38624 0.3537,-0.66095 1.1791,-0.87125 2.0046,-0.6309 -0.118,0.24034 -0.1769,0.54077 -0.2654,0.78111 -0.4716,1.47213 -1.0023,2.88413 -1.7982,4.02573 -0.678,0.9314 -1.5034,1.7125 -2.152,2.6738 0.4717,0.4507 1.0023,-0.06 1.3855,-0.2703 1.3561,-0.7511 2.6237,-1.7125 3.5376,-2.764 0.9138,-1.2618 1.8866,-3.63518 4.0091,-2.7639 -0.4716,0.6909 -0.8843,1.412 -1.2381,2.1931 -1.356,2.2232 -3.0364,4.0558 -5.2768,5.3777 1.6803,0.5107 2.8595,-0.3305 3.8913,-0.9314 1.5329,-0.8712 2.7416,-1.8927 4.1566,-2.6137 0.3832,0.1803 0.7369,0.3605 0.9138,0.7811 -1.2676,1.0215 -2.3583,2.1331 -3.4785,3.1846 z"
     fill="#594a42"
     id="path20" />
  <path
     d="m 80.832,7.33032 h 6.1906 v 1.53219 h -4.5692 v 2.58369 h 3.6849 v 1.5322 h -3.6849 v 3.2747 H 87.17 v 1.5322 h -6.338 z"
     class="fill-current"
     id="path22"
     style="fill:#ffffff" />
  <path
     d="m 88.0547,14.0299 c 0,-2.2832 1.1497,-3.8755 3.2427,-3.8755 0.9139,0 1.6803,0.3906 2.0636,0.9013 V 10.6051 7.21021 h 1.5624 V 17.7853 H 93.361 v -0.4206 -0.4506 c -0.2653,0.4506 -1.0023,0.9914 -2.0636,0.9914 -2.093,0 -3.2427,-1.6223 -3.2427,-3.8756 z m 5.4537,0 c 0,-1.5622 -0.7665,-2.5236 -1.9162,-2.5236 -1.1202,0 -1.9161,0.9614 -1.9161,2.5236 0,1.5623 0.7959,2.5237 1.9161,2.5237 1.1497,-0.0301 1.9162,-0.9614 1.9162,-2.5237 z"
     class="fill-current"
     id="path24"
     style="fill:#ffffff" />
  <path
     d="m 103.443,14.4504 h -5.2478 c 0.1179,1.3219 0.8549,2.103 1.9458,2.103 0.914,0 1.474,-0.4206 1.945,-1.2918 l 1.268,0.5107 c -0.619,1.412 -1.621,2.1631 -3.272,2.1631 -2.3584,0 -3.4492,-1.9828 -3.4492,-3.8755 0,-1.9228 1.0908,-3.8756 3.4492,-3.8756 2.299,0 3.39,1.8627 3.39,3.6352 v 0.6309 z m -1.563,-1.2918 c -0.147,-0.9013 -0.707,-1.6524 -1.798,-1.6524 -0.855,0 -1.5625,0.5408 -1.7983,1.6524 z"
     class="fill-current"
     id="path26"
     style="fill:#ffffff" />
  <path
     d="m 105.152,10.2745 h 1.563 v 1.3219 c 0.53,-0.8412 1.385,-1.4421 2.358,-1.4421 1.327,0 2.27,0.8112 2.27,2.3433 v 5.3176 h -1.533 v -4.927 c 0,-0.9313 -0.442,-1.382 -1.209,-1.382 -1.002,0 -1.886,1.1417 -1.886,3.1846 v 3.0944 h -1.563 z"
     class="fill-current"
     id="path28"
     style="fill:#ffffff" />
  <path
     d="m 80.832,22.6223 h 3.5965 c 1.9751,0 3.0658,1.1116 3.0658,2.8541 0,1.4421 -0.7075,2.4335 -2.0046,2.7339 l 2.948,4.8369 H 86.6099 L 83.721,28.3305 h -1.2676 v 4.7167 H 80.832 Z m 3.5965,4.206 c 0.8549,0 1.4445,-0.3905 1.4445,-1.3519 0,-0.9614 -0.5601,-1.3219 -1.4445,-1.3219 h -1.9751 v 2.6738 z"
     class="fill-current"
     id="path30"
     style="fill:#ffffff" />
  <path
     d="M 95.8663,29.7124 H 90.619 c 0.118,1.3219 0.8549,2.103 1.9457,2.103 0.9138,0 1.4739,-0.4206 1.9456,-1.2919 l 1.2676,0.5108 c -0.6191,1.412 -1.6214,2.1631 -3.2722,2.1631 -2.3583,0 -3.4491,-1.9829 -3.4491,-3.8756 0,-1.9227 1.0908,-3.8755 3.4491,-3.8755 2.2994,0 3.3901,1.8627 3.3901,3.6352 v 0.6309 z m -1.5918,-1.2618 c -0.1474,-0.9013 -0.7075,-1.6524 -1.7983,-1.6524 -0.8549,0 -1.5624,0.5408 -1.7982,1.6524 z"
     class="fill-current"
     id="path32"
     style="fill:#ffffff" />
  <path
     d="m 97.6644,26.9183 h -1.0023 v -1.382 h 1.0023 v -0.4206 c 0,-1.8026 0.9728,-2.6438 2.4766,-2.6438 0.501,0 0.943,0.0902 1.238,0.2704 l -0.324,1.2919 c -0.266,-0.1202 -0.502,-0.1803 -0.826,-0.1803 -0.5895,0 -0.9727,0.3305 -0.9727,1.1116 v 0.5708 h 1.6217 v 1.382 h -1.6217 v 6.1588 h -1.5329 v -6.1588 z"
     class="fill-current"
     id="path34"
     style="fill:#ffffff" />
  <path
     d="m 101.615,29.2918 c 0,-2.1331 1.356,-3.8755 3.656,-3.8755 2.299,0 3.655,1.7725 3.655,3.8755 0,2.133 -1.356,3.8755 -3.655,3.8755 -2.329,0.0301 -3.656,-1.7425 -3.656,-3.8755 z m 5.69,0 c 0,-1.3219 -0.708,-2.5236 -2.034,-2.5236 -1.327,0 -2.064,1.2017 -2.064,2.5236 0,1.3219 0.737,2.5236 2.064,2.5236 1.326,0 2.034,-1.2017 2.034,-2.5236 z"
     class="fill-current"
     id="path36"
     style="fill:#ffffff" />
  <path
     d="m 110.635,25.5364 h 1.562 v 1.2618 c 0.502,-0.9013 1.297,-1.3819 2.182,-1.3819 0.354,0 0.648,0.06 0.943,0.1802 l -0.295,1.4721 c -0.235,-0.1502 -0.501,-0.2103 -0.855,-0.2103 -1.061,0 -2.004,0.9914 -2.004,3.485 v 2.7339 h -1.563 v -7.5408 z"
     class="fill-current"
     id="path38"
     style="fill:#ffffff" />
  <path
     d="m 122.663,29.7124 h -5.247 c 0.118,1.3219 0.855,2.103 1.946,2.103 0.913,0 1.474,-0.4206 1.945,-1.2919 l 1.268,0.5108 c -0.619,1.412 -1.622,2.1631 -3.272,2.1631 -2.359,0 -3.449,-1.9829 -3.449,-3.8756 0,-1.9227 1.09,-3.8755 3.449,-3.8755 2.299,0 3.39,1.8627 3.39,3.6352 v 0.6309 z m -1.592,-1.2618 c -0.147,-0.9013 -0.707,-1.6524 -1.798,-1.6524 -0.855,0 -1.562,0.5408 -1.798,1.6524 z"
     class="fill-current"
     id="path40"
     style="fill:#ffffff" />
  <path
     d="m 123.666,31.1544 1.238,-0.6609 c 0.265,0.7811 0.767,1.3519 1.592,1.3519 0.531,0 0.973,-0.3004 0.973,-0.9013 0,-0.5708 -0.708,-0.9012 -1.563,-1.2317 -1.031,-0.3906 -1.798,-0.9914 -1.798,-2.1931 0,-1.2018 0.944,-2.073 2.27,-2.073 0.973,0 1.769,0.4206 2.24,1.2017 l -0.943,0.8713 c -0.324,-0.5108 -0.766,-0.7211 -1.267,-0.7211 -0.443,0 -0.826,0.2404 -0.826,0.7211 0,0.4206 0.324,0.721 1.563,1.1716 1.031,0.3605 1.798,0.9914 1.798,2.1331 0,1.4721 -1.003,2.3734 -2.447,2.3734 -1.592,0 -2.535,-1.0515 -2.83,-2.043 z"
     class="fill-current"
     id="path42"
     style="fill:#ffffff" />
  <path
     d="m 130.741,30.5535 v -3.6352 h -1.179 v -1.382 h 1.179 v -2.0429 l 1.562,-0.9914 v 3.0343 h 1.975 v 1.382 h -1.975 v 3.6652 c 0,0.9013 0.354,1.2318 0.973,1.2318 0.265,0 0.501,-0.0301 0.766,-0.1803 l 0.354,1.2919 c -0.383,0.1802 -0.796,0.2703 -1.209,0.2703 -1.473,0 -2.446,-0.8412 -2.446,-2.6437 z"
     class="fill-current"
     id="path44"
     style="fill:#ffffff" />
  <path
     d="m 135.28,30.9141 c 0,-1.5622 1.238,-2.4635 3.155,-2.4635 h 1.297 v -0.3305 c 0,-0.9614 -0.649,-1.3219 -1.415,-1.3219 -0.708,0 -1.209,0.3605 -1.415,1.0215 l -1.356,-0.3005 c 0.235,-1.2317 1.326,-2.0729 2.771,-2.0729 1.798,0 2.948,1.0214 2.948,3.0043 v 4.6566 h -1.239 l -0.206,-1.0214 c -0.472,0.6609 -1.209,1.1416 -2.299,1.1416 -1.238,-0.03 -2.241,-0.7811 -2.241,-2.3133 z m 4.452,-0.9914 v -0.1803 h -1.238 c -1.032,0 -1.622,0.3906 -1.622,1.1717 0,0.5708 0.413,0.9313 1.002,0.9313 0.885,-0.03 1.858,-0.6309 1.858,-1.9227 z"
     class="fill-current"
     id="path46"
     style="fill:#ffffff" />
  <path
     d="m 143.505,30.5535 v -3.6352 h -1.179 v -1.382 h 1.179 v -2.0429 l 1.563,-0.9914 v 3.0343 h 1.975 v 1.382 h -1.975 v 3.6652 c 0,0.9013 0.354,1.2318 0.973,1.2318 0.265,0 0.501,-0.0301 0.766,-0.1803 l 0.354,1.2919 c -0.383,0.1802 -0.796,0.2703 -1.209,0.2703 -1.474,0 -2.447,-0.8412 -2.447,-2.6437 z"
     class="fill-current"
     id="path48"
     style="fill:#ffffff" />
  <path
     d="m 148.28,23.3733 c 0,-0.6009 0.442,-1.0515 1.032,-1.0515 0.59,0 1.061,0.4506 1.061,1.0515 0,0.6008 -0.442,1.0515 -1.061,1.0515 -0.619,0 -1.032,-0.4507 -1.032,-1.0515 z m 0.266,2.1631 h 1.562 v 7.5407 h -1.562 z"
     class="fill-current"
     id="path50"
     style="fill:#ffffff" />
  <path
     d="m 151.788,29.2918 c 0,-2.1331 1.356,-3.8755 3.655,-3.8755 2.3,0 3.656,1.7725 3.656,3.8755 0,2.133 -1.356,3.8755 -3.656,3.8755 -2.299,0.0301 -3.655,-1.7425 -3.655,-3.8755 z m 5.69,0 c 0,-1.3219 -0.708,-2.5236 -2.035,-2.5236 -1.326,0 -2.063,1.2017 -2.063,2.5236 0,1.3219 0.737,2.5236 2.063,2.5236 1.327,0 2.035,-1.2017 2.035,-2.5236 z"
     class="fill-current"
     id="path52"
     style="fill:#ffffff" />
  <path
     d="m 160.81,25.5364 h 1.562 v 1.3219 c 0.531,-0.8412 1.385,-1.442 2.358,-1.442 1.327,0 2.27,0.8111 2.27,2.3433 v 5.3176 h -1.533 v -4.897 c 0,-0.9313 -0.442,-1.382 -1.208,-1.382 -1.003,0 -1.887,1.1417 -1.887,3.1846 v 3.0944 h -1.562 z"
     class="fill-current"
     id="path54"
     style="fill:#ffffff" />
  <path
     d="m 80.832,37.884 h 3.7439 c 2.0635,0 3.1248,1.2618 3.1248,3.0945 0,1.8326 -1.0613,3.0944 -3.1248,3.0944 H 82.4534 V 48.339 H 80.832 Z m 3.7144,4.6567 c 1.0023,0 1.5329,-0.5408 1.5329,-1.5622 0,-0.9915 -0.5011,-1.5623 -1.5329,-1.5623 h -2.093 v 3.0944 h 2.093 z"
     class="fill-current"
     id="path56"
     style="fill:#ffffff" />
  <path
     d="m 89.0568,40.8282 h 1.5624 V 42.09 c 0.5012,-0.9013 1.2971,-1.382 2.1815,-1.382 0.3537,0 0.6485,0.0601 0.9433,0.1803 l -0.2948,1.4721 c -0.2358,-0.1502 -0.5011,-0.2103 -0.8549,-0.2103 -1.0612,0 -2.0046,0.9914 -2.0046,3.4849 v 2.734 h -1.5624 v -7.5408 z"
     class="fill-current"
     id="path58"
     style="fill:#ffffff" />
  <path
     d="m 94.2451,44.5835 c 0,-2.133 1.3561,-3.8755 3.6555,-3.8755 2.2994,0 3.6554,1.7725 3.6554,3.8755 0,2.1331 -1.356,3.8756 -3.6554,3.8756 -2.3289,0 -3.6555,-1.7726 -3.6555,-3.8756 z m 5.6895,0 c 0,-1.3218 -0.7075,-2.5236 -2.034,-2.5236 -1.3266,0 -2.0636,1.2018 -2.0636,2.5236 0,1.3219 0.737,2.5236 2.0636,2.5236 1.3265,-0.03 2.034,-1.2017 2.034,-2.5236 z"
     class="fill-current"
     id="path60"
     style="fill:#ffffff" />
  <path
     d="m 101.732,50.1114 c 0.973,-0.2403 1.533,-0.691 1.533,-1.9828 v -7.3305 h 1.563 v 7.2103 c 0,2.073 -0.914,3.0644 -2.712,3.485 z M 103,38.635 c 0,-0.6009 0.442,-1.0515 1.032,-1.0515 0.589,0 1.061,0.4506 1.061,1.0515 0,0.6009 -0.442,1.0515 -1.061,1.0515 -0.619,0 -1.032,-0.4506 -1.032,-1.0515 z"
     class="fill-current"
     id="path62"
     style="fill:#ffffff" />
  <path
     d="M 113.348,45.0041 H 108.1 c 0.118,1.3219 0.855,2.103 1.946,2.103 0.914,0 1.474,-0.4206 1.946,-1.2918 l 1.267,0.5107 c -0.619,1.412 -1.621,2.1631 -3.272,2.1631 -2.358,0 -3.449,-1.9828 -3.449,-3.8755 0,-1.9228 1.091,-3.8756 3.449,-3.8756 2.3,0 3.39,1.8627 3.39,3.6352 v 0.6309 z m -1.563,-1.2918 c -0.147,-0.9013 -0.707,-1.6524 -1.798,-1.6524 -0.855,0 -1.562,0.5408 -1.798,1.6524 z"
     class="fill-current"
     id="path64"
     style="fill:#ffffff" />
  <path
     d="m 114.645,44.5835 c 0,-2.0729 1.179,-3.8755 3.508,-3.8755 1.591,0 2.682,0.721 3.242,2.1331 l -1.385,0.5708 c -0.383,-0.8412 -0.944,-1.3219 -1.857,-1.3219 -1.268,0 -1.887,1.0815 -1.887,2.5236 0,1.442 0.619,2.5236 1.887,2.5236 0.913,0 1.474,-0.4807 1.857,-1.3219 l 1.385,0.5708 c -0.53,1.412 -1.651,2.1331 -3.242,2.1331 -2.329,-0.0601 -3.508,-1.8627 -3.508,-3.9357 z"
     class="fill-current"
     id="path66"
     style="fill:#ffffff" />
  <path
     d="m 123.282,45.8455 v -3.6352 h -1.179 v -1.382 h 1.179 v -2.073 l 1.562,-0.9914 v 3.0344 h 1.975 v 1.3819 h -1.975 v 3.6653 c 0,0.9013 0.354,1.2317 0.973,1.2317 0.265,0 0.501,-0.03 0.766,-0.1802 l 0.354,1.2918 c -0.383,0.1803 -0.796,0.2704 -1.208,0.2704 -1.474,0 -2.447,-0.8412 -2.447,-2.6137 z"
     class="fill-current"
     id="path68"
     style="fill:#ffffff" />
  <path
     d="m 127.704,46.4162 1.238,-0.661 c 0.266,0.7811 0.767,1.3519 1.592,1.3519 0.531,0 0.973,-0.3004 0.973,-0.9012 0,-0.5709 -0.708,-0.9013 -1.562,-1.2318 -1.032,-0.3906 -1.799,-0.9914 -1.799,-2.1931 0,-1.2018 0.944,-2.073 2.27,-2.073 0.973,0 1.769,0.4206 2.241,1.2017 l -0.944,0.8713 c -0.324,-0.5108 -0.766,-0.7211 -1.267,-0.7211 -0.443,0 -0.826,0.2404 -0.826,0.7211 0,0.4206 0.325,0.721 1.563,1.1716 1.031,0.3606 1.798,0.9915 1.798,2.1331 0,1.4721 -1.002,2.3734 -2.447,2.3734 -1.621,0 -2.565,-1.0215 -2.83,-2.0429 z"
     class="fill-current"
     id="path70"
     style="fill:#ffffff" />
  <defs
     id="defs77">
    <clipPath
       id="clip0">
      <rect
         width="167"
         height="56"
         fill="white"
         id="rect74" />
    </clipPath>
  </defs>
</svg>
