<?xml version="1.0" encoding="utf-8"?>
<!-- Generator: Adobe Illustrator 26.0.1, SVG Export Plug-In . SVG Version: 6.00 Build 0)  -->
<svg version="1.1" id="Layer_1" xmlns="http://www.w3.org/2000/svg" xmlns:xlink="http://www.w3.org/1999/xlink" x="0px" y="0px"
	 width="604px" height="604px" viewBox="0 0 604 604" style="enable-background:new 0 0 604 604;" xml:space="preserve">
<style type="text/css">
	.st0{fill:url(#SVGID_1_);}
	.st1{fill:url(#SVGID_00000098186803203900320940000000232616398009020858_);}
	.st2{fill:url(#SVGID_00000059989508008689244710000016901472164613611183_);}
	.st3{fill:url(#SVGID_00000024718949749909630260000010771153272329694389_);}
	.st4{fill:url(#SVGID_00000086660312817578267030000014191246022574220445_);}
	.st5{fill:url(#SVGID_00000075864153681760424160000010468208364652261523_);}
	.st6{fill:url(#SVGID_00000127744602130151591540000004010082595476082833_);}
	.st7{fill:url(#SVGID_00000162326711294442765950000016025248007296429186_);}
	.st8{fill:url(#SVGID_00000003087414368852541970000016000704577375089821_);}
	.st9{fill:url(#SVGID_00000062875332559645820720000011489382889961777289_);}
	.st10{fill:url(#SVGID_00000078763022879036234930000017043545472376346761_);}
	.st11{fill:url(#SVGID_00000083073058612088807370000005410409581271993784_);}
	.st12{fill:url(#SVGID_00000116923505882111842940000005740968165591175821_);}
	.st13{fill:url(#SVGID_00000134961387913813100320000005823041234713999242_);}
	.st14{fill:url(#SVGID_00000066497784223294425760000009940880283185224605_);}
	.st15{fill:url(#SVGID_00000088833985988470991030000008443493002955767695_);}
	.st16{fill:url(#SVGID_00000078008873134204393410000013563306545749227179_);}
	.st17{fill:url(#SVGID_00000145756427598660329110000012279581953281326484_);}
	.st18{fill:url(#SVGID_00000059300370512436835110000007467087222212835712_);}
	.st19{fill:url(#SVGID_00000098904805901017603410000009478872803129655205_);}
	.st20{fill:url(#SVGID_00000160172931984455248930000013872013302164526748_);}
	.st21{fill:url(#SVGID_00000063624384799182987340000001573380075142797236_);}
	.st22{fill:url(#SVGID_00000139251334917842907120000012836058337030249376_);}
	.st23{fill:url(#SVGID_00000178922337922890486470000006762478908345094043_);}
	.st24{fill:url(#SVGID_00000124860430225072700310000008422814537025428881_);}
	.st25{fill:url(#SVGID_00000004529738828601587550000017492362528953605527_);}
	.st26{fill:url(#SVGID_00000163765793935257773000000000918462615015169703_);}
	.st27{fill:url(#SVGID_00000131353206944723606370000012607878731843468207_);}
	.st28{fill:#FFFFFF;}
	.st29{fill:url(#SVGID_00000178200385859014671850000002467537946107590825_);}
	.st30{fill:url(#SVGID_00000127028500844271520040000013199853696356971452_);}
	.st31{fill:url(#SVGID_00000053525242480544943110000001163023863696311226_);}
	.st32{fill:url(#SVGID_00000028306146563793602330000016455032126806910858_);}
	.st33{fill:url(#SVGID_00000148641531179222899140000006227901562245137045_);}
	.st34{fill:url(#SVGID_00000145018273688650435480000016154169290814277793_);}
	.st35{fill:url(#SVGID_00000010306150719822200200000002603886922818245265_);}
	.st36{fill:url(#SVGID_00000070085941832083920600000010982946124864758973_);}
	.st37{fill:url(#SVGID_00000038389191850065852510000014072958656291027094_);}
	.st38{fill:url(#SVGID_00000129898998928921270850000001959117476860496023_);}
	.st39{fill:url(#SVGID_00000114774525036426798850000005895935429586039199_);}
	.st40{fill:url(#SVGID_00000088815113476738925840000013214790486479016611_);}
	.st41{fill:url(#SVGID_00000116202287722502840980000002132602648956646325_);}
	.st42{fill:url(#SVGID_00000023982559777956730300000013097731259707306673_);}
	.st43{fill:url(#SVGID_00000172407684829980471650000010274524592912795791_);}
	.st44{fill:url(#SVGID_00000097500397039007022830000017738662171611783843_);}
	.st45{fill:url(#SVGID_00000081607462056072805420000005560816948623594931_);}
	.st46{fill:url(#SVGID_00000072964125126360471160000008864358687205518482_);}
	.st47{fill:url(#SVGID_00000142871184112830563380000011525306089718678174_);}
	.st48{fill:url(#SVGID_00000026870909882066452170000009898986208159848892_);}
	.st49{fill:url(#SVGID_00000142890561273280865980000009761591043942396861_);}
	.st50{fill:url(#SVGID_00000031168143478901418970000017170274559922746247_);}
	.st51{fill:url(#SVGID_00000137836366915007289120000010870571046477944466_);}
	.st52{fill:url(#SVGID_00000165950805869519744230000007379948130525682338_);}
	.st53{fill:url(#SVGID_00000088097364059636874100000006905168678403695492_);}
	.st54{fill:url(#SVGID_00000055692216087500177820000016989207470411212988_);}
	.st55{fill:url(#SVGID_00000089549740289117138800000016179281669413318050_);}
	.st56{fill:url(#SVGID_00000078016784930600120530000014548729408496309935_);}
	.st57{fill:url(#SVGID_00000126282468770298219350000008513850294478833588_);}
	.st58{fill:url(#SVGID_00000041286052021534338230000017746420996995806135_);}
	.st59{fill:url(#SVGID_00000007392633924761579150000011026031743502039188_);}
	.st60{fill:url(#SVGID_00000076581465272874946470000017662602921070917555_);}
	.st61{fill:url(#SVGID_00000015334871052377567150000006191484744308637570_);}
	.st62{fill:url(#SVGID_00000046338009326040640920000001674639894610409122_);}
</style>
<linearGradient id="SVGID_1_" gradientUnits="userSpaceOnUse" x1="462.8369" y1="109.8366" x2="509.5077" y2="109.8366">
	<stop  offset="0" style="stop-color:#336249"/>
	<stop  offset="5.000000e-05" style="stop-color:#336249"/>
	<stop  offset="0.9977" style="stop-color:#78B857"/>
	<stop  offset="1" style="stop-color:#78B857"/>
</linearGradient>
<path class="st0" d="M462.8,45.8c0,0,37,12,44.8,55.6c7.7,43.6-10.3,72.4-10.3,72.4s-14.8-22.5-10.8-35.8c4-13.3,10.4-39.8-2.3-59.4
	C471.5,59.1,462.8,45.8,462.8,45.8z"/>
<linearGradient id="SVGID_00000109751195005383977720000009461377152899179446_" gradientUnits="userSpaceOnUse" x1="448.3718" y1="115.5939" x2="488.7783" y2="115.5939">
	<stop  offset="0" style="stop-color:#336249"/>
	<stop  offset="5.000000e-05" style="stop-color:#336249"/>
	<stop  offset="0.9977" style="stop-color:#78B857"/>
	<stop  offset="1" style="stop-color:#78B857"/>
</linearGradient>
<path style="fill:url(#SVGID_00000109751195005383977720000009461377152899179446_);" d="M459.4,57.9c0,0,17.3,8.6,23.6,37.5
	c6.3,28.8-11,37.5-4.6,56.5c6.3,19,10.4,21.3,10.4,21.3s-39.2-24.2-40.4-45S465.3,77.9,459.4,57.9z"/>
<linearGradient id="SVGID_00000081644360131340332940000003631869755956307903_" gradientUnits="userSpaceOnUse" x1="352.1537" y1="54.2864" x2="430.9689" y2="54.2864">
	<stop  offset="0" style="stop-color:#336249"/>
	<stop  offset="5.000000e-05" style="stop-color:#336249"/>
	<stop  offset="0.9977" style="stop-color:#78B857"/>
	<stop  offset="1" style="stop-color:#78B857"/>
</linearGradient>
<path style="fill:url(#SVGID_00000081644360131340332940000003631869755956307903_);" d="M352.2,13c0,0,41.8-4.4,65.9,18
	s7.2,65,7.2,65S414.4,53.3,393.6,36C376.6,21.8,352.2,13,352.2,13z"/>
<linearGradient id="SVGID_00000002372959770522991410000008652406646826774442_" gradientUnits="userSpaceOnUse" x1="333.427" y1="56.9781" x2="425.2415" y2="56.9781">
	<stop  offset="0" style="stop-color:#336249"/>
	<stop  offset="5.000000e-05" style="stop-color:#336249"/>
	<stop  offset="0.9977" style="stop-color:#78B857"/>
	<stop  offset="1" style="stop-color:#78B857"/>
</linearGradient>
<path style="fill:url(#SVGID_00000002372959770522991410000008652406646826774442_);" d="M333.4,16.8c0,0,41.8,1.7,61.4,28.7
	s30.4,50.5,30.4,50.5s-55.5,8.3-61.4-18.5S359.7,34.7,333.4,16.8z"/>
<linearGradient id="SVGID_00000041976267827744884860000015812821518222227625_" gradientUnits="userSpaceOnUse" x1="271.2027" y1="155.3436" x2="460.4633" y2="155.3436">
	<stop  offset="0" style="stop-color:#336249"/>
	<stop  offset="5.000000e-05" style="stop-color:#336249"/>
	<stop  offset="0.9977" style="stop-color:#78B857"/>
	<stop  offset="1" style="stop-color:#78B857"/>
</linearGradient>
<path style="fill:url(#SVGID_00000041976267827744884860000015812821518222227625_);" d="M272.8,115.7c0,0-12.8,8.5,33.3,2.5
	c46-6,74.9,3.2,91,10.1c16.1,6.9,51.1,38.6,61.1,61.1c10,22.5-12.7-30-84.2-31.1C302.6,157.1,272.8,115.7,272.8,115.7z"/>
<linearGradient id="SVGID_00000163785488301088846830000004290526699384533649_" gradientUnits="userSpaceOnUse" x1="270.2943" y1="170.475" x2="458.8086" y2="170.475">
	<stop  offset="0" style="stop-color:#336249"/>
	<stop  offset="5.000000e-05" style="stop-color:#336249"/>
	<stop  offset="0.9977" style="stop-color:#78B857"/>
	<stop  offset="1" style="stop-color:#78B857"/>
</linearGradient>
<path style="fill:url(#SVGID_00000163785488301088846830000004290526699384533649_);" d="M270.3,132.9
	c28.2,18.4,42.4,28.8,66.3,32.3c23.9,3.5,43.5-1.2,69.5,5.8c26.1,6.9,52.7,37.1,52.7,37.1s-39.7-24.4-92.9-14.1
	C312.7,204.4,270.3,132.9,270.3,132.9z"/>
<path class="st28" d="M457.8,78.1c-0.6,5.9-1.8,11.5-2.9,16.9c-2.1,10-4.3,20.3-2.6,32.2c2.4,16.7,10.7,32.2,23.6,43.7
	c9.8,8.8,13,10.1,14.7,10.1c0.4,0,0.7-0.1,1-0.1c1.6-0.3,3-1.4,3.7-2.8c0.6-1.2,1.1-2.4,1.6-3.6l0.3-0.7
	c11.5-27.5,14.9-51.9,10.3-72.4C502.7,79.7,486,42.1,454.3,38c-0.2,0-0.4,0-0.6-0.1c-0.1,0-0.1,0-0.2,0c-1.5-0.1-3.1,0.4-4.2,1.5
	c-2.8,2.8-1.2,5.9,0.6,9.4C452.8,54.8,459,66.9,457.8,78.1z M462.6,125.9c-1.4-10.1,0.5-19.1,2.4-28.7c1.2-5.7,2.4-11.5,3.1-18
	c0.2-2.2,0.2-4.4,0.1-6.6c5.4,9,10.4,19.3,12.4,29c2.2,10.5,1.4,20.2,0.6,29.7c-0.9,10.4-1.8,21.1,1.7,32.1c0,0,0,0-0.1-0.1
	C471.8,153.4,464.6,140.1,462.6,125.9z M497.5,103.7c3.5,15.5,1.7,33.8-5.4,54.5c-2.2-8.3-1.5-16.8-0.7-26.1
	c0.8-9.7,1.8-20.7-0.8-32.7c-3.4-16.1-13.5-32.9-21.8-44.6C483.2,65.1,493.4,85.3,497.5,103.7z"/>
<path class="st28" d="M306.1,118.2c-15.3,1.6-26.4,2.8-32.7-2.1c-0.1-0.1-0.2-0.2-0.3-0.2c-0.1-0.1-0.2-0.1-0.3-0.2
	c-0.5-0.3-1.1-0.5-1.7-0.6c-0.1,0-0.2,0-0.3,0c-0.2,0-0.4,0-0.6,0c-0.1,0-0.2,0-0.3,0c-0.2,0-0.4,0-0.6,0.1c-0.1,0-0.2,0-0.3,0.1
	c-0.3,0.1-0.6,0.2-0.9,0.3c0,0,0,0,0,0c-0.2,0.1-0.5,0.2-0.7,0.4c0,0-0.1,0.1-0.1,0.1c0,0-0.1,0-0.1,0c-0.1,0-0.1,0.1-0.1,0.1
	c-0.2,0.1-0.4,0.3-0.5,0.5c-0.1,0.1-0.1,0.2-0.2,0.2c-0.1,0.2-0.3,0.3-0.4,0.5c0,0.1-0.1,0.1-0.1,0.2c-0.2,0.3-0.3,0.5-0.4,0.8
	c0,0.1,0,0.1-0.1,0.2c-0.1,0.2-0.1,0.5-0.2,0.7c0,0.1,0,0.2,0,0.3c0,0.2,0,0.4,0,0.6c0,0.1,0,0.2,0,0.3c0,0.2,0,0.4,0.1,0.6
	c0,0.1,0,0.2,0.1,0.3c0,0,0,0.1,0,0.1c0.2,0.6,4.3,15.7,15,31.9c14.4,21.7,33.9,35,56.4,38.3c29.8,4.4,47,2.9,60.8,1.7
	c10.5-0.9,18.8-1.7,30.1,0.2c17.2,2.8,27.1,10.5,31.3,14.6c0.9,1,1.8,2,2.7,3c0.1,0.1,0.2,0.2,0.3,0.3c0.1,0.1,0.2,0.2,0.4,0.3
	c0.2,0.1,0.4,0.3,0.6,0.4c0.1,0.1,0.2,0.2,0.4,0.2c0.2,0.1,0.5,0.2,0.7,0.3c0.1,0,0.2,0.1,0.3,0.1c0.4,0.1,0.7,0.1,1.1,0.1
	c0.4,0,0.7,0,1.1-0.1c0.1,0,0.2-0.1,0.3-0.1c0.3-0.1,0.5-0.2,0.8-0.3c0.1,0,0.1,0,0.2-0.1c0.1,0,0.1-0.1,0.2-0.1
	c0.1-0.1,0.3-0.2,0.4-0.2c0.1-0.1,0.3-0.2,0.4-0.3c0.1,0,0.1-0.1,0.2-0.1c0,0,0.1-0.1,0.1-0.1c0.2-0.1,0.3-0.3,0.4-0.5
	c0.1-0.1,0.2-0.2,0.2-0.3c0.1-0.2,0.2-0.3,0.3-0.5c0.1-0.1,0.1-0.2,0.2-0.3c0.1-0.2,0.2-0.5,0.3-0.7c0-0.1,0-0.1,0.1-0.2
	c0.1-0.3,0.1-0.6,0.1-0.9c0-0.1,0-0.2,0-0.3c0-0.2,0-0.4,0-0.7c0-0.1-0.1-0.3-0.1-0.4c0-0.1,0-0.3-0.1-0.4c-0.9-3-22.4-73.3-86.3-86
	C350.6,113.5,324.9,116.2,306.1,118.2z M413.7,182c-5.8,0-11.2,0.5-17.1,1c-13.9,1.2-29.7,2.6-58.4-1.6c-28-4.1-44.9-25.1-54-41.6
	c14.7,10.2,38.8,21.9,75,24.2c45.1,2.9,59.7,5.4,77.1,20.8c-2.2-0.6-4.6-1.1-7.1-1.5C423.5,182.4,418.5,182,413.7,182z M447.4,181
	c-21.7-20.8-36.5-24-87.5-27.3c-35.3-2.3-58.3-14.2-71.5-23.8c5.6-0.1,11.8-0.7,18.8-1.5c18.1-1.9,42.9-4.6,74.8,1.8
	C414.7,136.8,435.5,161.1,447.4,181z"/>
<path class="st28" d="M333.2,16.8c0.1,0,0.1,0,0.2,0c1,0.4,7.1,3.2,14.6,17.2c6.4,11.9,7.2,19.6,7.9,27c0.7,7.5,1.4,14.6,7.9,23.3
	c12.9,17.6,56.5,20.4,61.4,20.6c0.1,0,0.2,0,0.2,0c0,0,0,0,0,0c0,0,0,0,0,0c0.3,0,0.6,0,1-0.1c0,0,0.1,0,0.1,0c0.1,0,0.1,0,0.2-0.1
	c0.2-0.1,0.4-0.1,0.6-0.2c0.1,0,0.2-0.1,0.3-0.1c0.2-0.1,0.4-0.2,0.5-0.3c0.1-0.1,0.2-0.1,0.3-0.2c0.2-0.2,0.5-0.4,0.7-0.6
	c0,0,0,0,0-0.1c0.2-0.2,0.4-0.4,0.5-0.7c0.1-0.1,0.1-0.2,0.2-0.3c0.1-0.2,0.2-0.4,0.3-0.5c0-0.1,0.1-0.2,0.1-0.3
	c0-0.1,0.1-0.2,0.1-0.3c0.4-1.4,9.9-34.1-12.4-70.3C398.4-0.8,336.5,6.3,333.8,6.6c-0.1,0-0.3,0.1-0.4,0.1c-0.1,0-0.3,0-0.4,0.1
	c-0.3,0.1-0.5,0.2-0.8,0.3c0,0-0.1,0-0.1,0c-1.8,0.8-3.2,2.6-3.2,4.7C329.1,14.3,330.8,16.4,333.2,16.8z M372.2,78.2
	c-4.7-6.5-5.2-11.4-5.9-18.2c-0.8-7.6-1.7-17.1-9.1-30.9c-1-1.8-1.9-3.4-2.9-5c7.1,3.9,16.2,9.9,27.2,19.1
	c22.9,19.1,32.9,40.2,36.8,50.7C403.5,92.4,379.3,87.9,372.2,78.2z M409.2,36.4c9.3,15.1,12.4,29.6,13,40.8
	c-6.2-12-16.7-27.4-34.1-41.9c-10.4-8.7-19.2-14.7-26.5-18.9C379.1,17.5,400.4,22.1,409.2,36.4z"/>
<path class="st28" d="M229.8,171c-2.1,1.1-4.2,0.9-6.5-0.1l-2.6,7c3.8,1.8,8.2,1.5,12.8-0.8c7.4-3.9,10.2-11.7,6.5-18.8
	c-3.7-7.1-11.8-9.2-19.2-5.3c-4.5,2.4-7.2,5.9-7.9,10l7.2,1.8c0.4-2.4,1.5-4.3,3.6-5.3c3.2-1.7,6.6-0.6,8.4,2.9
	C234,165.9,233,169.3,229.8,171z"/>
<path class="st28" d="M180.2,184.2l-6.6,6.2l26.1,11.1l6.3-5.9l-9.6-26.7l-6.5,6.1l1.8,4.5l-7.2,6.8L180.2,184.2z M194.3,185.7
	l2.7,6.5l-6.3-3L194.3,185.7z"/>
<path class="st28" d="M177.6,230.2l6.4-10.8l-22.3-13.4l-4.5,7.5l5.6,3.4l-1.2,2l-7.9,0.4l-4.8,8l9.7-0.6c-0.2,3.5,1.3,6.5,4.5,8.4
	C168.2,238.4,173.8,236.4,177.6,230.2z M166.8,223.1l1.6-2.7l5.2,3.1l-1.6,2.7c-1.2,2.1-2.8,2.5-4.5,1.5
	C166,226.8,165.6,225.2,166.8,223.1z"/>
<path class="st28" d="M148.4,270.4c0.5,2.6,2.1,4.3,4.5,5c3.8,1,7.4-1.4,9.3-8.4l3.7-13.4l-25.1-6.9l-3.9,14.1
	c-1.9,6.9-0.4,11.3,4,12.5C143.9,274.2,146.5,273.1,148.4,270.4z M152.9,263.2l1.1-3.9l3.7,1l-1.1,3.9c-0.5,1.9-1.4,2.6-2.6,2.3
	C152.8,266.2,152.4,265.1,152.9,263.2z M143,261.8l1.4-5.1l3.9,1.1l-1.4,5.1c-0.5,1.9-1.4,2.6-2.7,2.3
	C142.9,264.8,142.5,263.6,143,261.8z"/>
<path class="st28" d="M130.9,306.4c0.1,8.5,6,14.6,13.8,14.5c7.9-0.1,13.5-6.4,13.4-14.9c-0.1-8.5-6-14.6-13.8-14.5
	C136.4,291.6,130.8,297.9,130.9,306.4z M144.4,300.3c4.1-0.1,6.5,2.5,6.6,5.7c0.1,3.2-2.4,5.9-6.4,5.9c-4.1,0.1-6.5-2.5-6.6-5.7
	C138,303,140.4,300.4,144.4,300.3z"/>
<polygon class="st28" points="143.1,366.8 167.9,359 165.4,350.9 154.1,354.4 162.4,341.4 160.3,334.5 135.4,342.3 138,350.4 
	149.3,346.9 140.9,359.9 "/>
<polygon class="st28" points="185.5,428.8 204.6,411.1 198.8,404.9 190.2,412.9 192.1,397.6 187.2,392.3 168.1,410 173.9,416.3 
	182.6,408.2 180.6,423.5 "/>
<polygon class="st28" points="231.1,437.6 234.6,431.9 216.7,420.7 202.8,442.8 221.2,454.3 224.7,448.6 213.7,441.7 215.5,438.8 
	224.8,444.7 228.2,439.3 218.8,433.5 220.5,430.9 "/>
<path class="st28" d="M252.3,467.4c7.7,2.3,13.4-0.6,15.7-8.1l4.1-13.7l-8.3-2.5l-4.1,13.5c-1.1,3.8-3,4.8-5.4,4.1
	c-2.3-0.7-3.4-2.6-2.2-6.4l4.1-13.5l-8.4-2.5l-4.1,13.7C241.5,459.4,244.7,465.1,252.3,467.4z"/>
<polygon class="st28" points="300.4,474.2 301.1,455 308.7,455.2 308.9,448.4 284.9,447.6 284.7,454.4 292.3,454.7 291.6,473.9 "/>
<path class="st28" d="M343.3,469.1l9.1-2.1l-7.1-6.6c2.7-2.2,3.8-5.4,3-9.1c-1.3-5.9-6.6-8.6-13.7-7l-12.2,2.7l5.7,25.4l8.6-1.9
	l-1.4-6.4l2.3-0.5L343.3,469.1z M333.7,457.8l-1.3-6l3.1-0.7c2.4-0.5,3.7,0.3,4.2,2.2c0.4,1.9-0.5,3.2-2.8,3.8L333.7,457.8z"/>
<path class="st28" d="M389.1,450.4l8-4.3l-22.4-17.4l-7.6,4.1l2.4,28.3l7.8-4.3l-0.6-4.8l8.7-4.7L389.1,450.4z M375.8,445.3l-0.9-7
	l5.3,4.5L375.8,445.3z"/>
<polygon class="st28" points="427.2,419.9 422.5,415 414,423.1 400.8,409.1 394.4,415.1 412.3,434 "/>
<path class="st28" d="M462.1,362.8l3.5-8.4l-28.4,0.6l-3.3,8l19.7,20.5l3.4-8.2l-3.5-3.4l3.8-9.1L462.1,362.8z M448.5,367.2
	l-5.1-4.8l7,0.2L448.5,367.2z"/>
<path class="st28" d="M471.5,322.5c0.9-8.7-3.3-15.1-11.4-16c-8-0.9-13.6,4.5-14.5,13.2l-1.4,12.8l25.9,2.8L471.5,322.5z
	 M464.6,322.1l-0.4,3.7l-12.3-1.3l0.4-3.7c0.4-3.7,2.9-5.9,6.8-5.5C463.1,315.7,465,318.4,464.6,322.1z"/>
<path class="st28" d="M444.6,270c-1.1,2.9-1.2,6.6-0.7,10.1c1.3,8,5.8,11.3,10.6,10.6c9.6-1.5,4.7-15.3,7.9-15.8
	c0.9-0.1,1.5,0.7,1.9,3.1c0.4,2.8,0.1,6.2-1,8.9l6.8,1.8c1.2-2.8,1.5-7.3,0.9-11.6c-1.3-8-5.9-11.3-10.6-10.6
	c-9.5,1.5-4.6,15.3-7.7,15.8c-0.9,0.1-1.7-0.5-2.1-3.1c-0.4-2.2-0.1-4.7,0.8-7.5L444.6,270z"/>
<path class="st28" d="M231,276.6c5.3,0,11.4-1.6,15.7-4.6v-15.3h-10.6v9.1c-1.5,0.6-2.9,0.9-4.4,0.9c-5.2,0-8.6-3.6-8.6-9
	c0-5.6,3.4-9,8.8-9c3.2,0,5.8,1.3,8.1,4l7.8-6.9c-3.7-4.5-9.4-7-16.5-7c-11.9,0-20.4,7.8-20.4,18.9
	C210.8,268.8,219.3,276.6,231,276.6z"/>
<path class="st28" d="M276,238.8c-11.8,0-20.4,8-20.4,18.9c0,10.9,8.6,18.9,20.4,18.9s20.4-8,20.4-18.9
	C296.4,246.7,287.8,238.8,276,238.8z M276,266.7c-4.5,0-8.1-3.4-8.1-9c0-5.6,3.6-9,8.1-9s8.1,3.4,8.1,9
	C284.2,263.3,280.5,266.7,276,266.7z"/>
<path class="st28" d="M345.4,257.7c0-10.9-8.6-18.9-20.4-18.9c-11.8,0-20.4,8-20.4,18.9c0,10.9,8.6,18.9,20.4,18.9
	C336.8,276.6,345.4,268.6,345.4,257.7z M316.9,257.7c0-5.6,3.6-9,8.1-9c4.5,0,8.1,3.4,8.1,9c0,5.6-3.6,9-8.1,9
	C320.5,266.7,316.9,263.3,316.9,257.7z"/>
<path class="st28" d="M393.2,257.7c0-11.2-8.3-18.1-20.4-18.1H355v36.1h17.8C384.9,275.7,393.2,268.9,393.2,257.7z M367.2,266.2
	v-17.1h5.1c5.1,0,8.6,3,8.6,8.6c0,5.5-3.5,8.6-8.6,8.6H367.2z"/>
<polygon class="st28" points="247,355.1 230.7,355.1 230.7,328.4 218.5,328.4 218.5,364.6 247,364.6 "/>
<path class="st28" d="M294.4,346.5c0-10.9-8.6-18.9-20.4-18.9c-11.8,0-20.4,8-20.4,18.9c0,10.9,8.6,18.9,20.4,18.9
	C285.8,365.4,294.4,357.4,294.4,346.5z M265.9,346.5c0-5.6,3.6-9,8.1-9c4.5,0,8.1,3.4,8.1,9c0,5.6-3.6,9-8.1,9
	C269.5,355.5,265.9,352.1,265.9,346.5z"/>
<path class="st28" d="M343.4,346.5c0-10.9-8.6-18.9-20.4-18.9s-20.4,8-20.4,18.9c0,10.9,8.6,18.9,20.4,18.9S343.4,357.4,343.4,346.5
	z M314.9,346.5c0-5.6,3.6-9,8.1-9c4.5,0,8.1,3.4,8.1,9c0,5.6-3.6,9-8.1,9C318.5,355.5,314.9,352.1,314.9,346.5z"/>
<path class="st28" d="M353,364.6h12.2v-8.9h5.2c10.1,0,16.5-5.3,16.5-13.6s-6.4-13.6-16.5-13.6H353V364.6z M365.2,337.8h4.4
	c3.4,0,5,1.6,5,4.2c0,2.6-1.6,4.2-5,4.2h-4.4V337.8z"/>
<rect x="282.7" y="297.7" class="st28" width="38.6" height="11.8"/>
<path class="st28" d="M506,213.7c-1.1-2.6-4.2-3.8-6.8-2.7c-2.6,1.1-3.8,4.2-2.7,6.8c11.7,26.8,17.6,55.3,17.6,84.8
	c0,117-95.2,212.2-212.2,212.2c-117,0-212.2-95.2-212.2-212.2c0-117,95.2-212.2,212.2-212.2c8.4,0,16.8,0.5,25.1,1.5
	c2.9,0.3,5.4-1.7,5.7-4.5c0.3-2.8-1.7-5.4-4.5-5.7c-8.7-1-17.5-1.5-26.3-1.5C179.3,80.2,79.5,180,79.5,302.6S179.3,525.1,302,525.1
	s222.5-99.8,222.5-222.5C524.5,271.7,518.3,241.8,506,213.7z"/>
</svg>
