<svg xmlns="http://www.w3.org/2000/svg" viewBox="0 0 649 1080">
  <defs>
    <linearGradient id="b" x1="0.5" x2="0.491" y2="0.423" gradientUnits="objectBoundingBox">
      <stop offset="0" stop-color="#bbd6e2"/>
      <stop offset="1" stop-color="#edcec7"/>
    </linearGradient>
    <linearGradient id="c" x1="0.5" y1="0.298" x2="0.5" y2="0.616" gradientUnits="objectBoundingBox">
      <stop offset="0" stop-color="#71b2d0"/>
      <stop offset="1" stop-color="#9cb9db"/>
    </linearGradient>
    <linearGradient id="d" x1="0.5" x2="0.5" y2="1" gradientUnits="objectBoundingBox">
      <stop offset="0" stop-color="#2a6680"/>
      <stop offset="0.502" stop-color="#3992b7"/>
      <stop offset="1" stop-color="#bbd6e2"/>
    </linearGradient>
    <clipPath id="a">
      <path d="M0 0h649v1080H0z"/>
    </clipPath>
  </defs>
  <g clip-path="url(#a)">
    <path fill="#fbfbfa" d="M0 0h649v1080H0z"/>
    <path transform="translate(-726.048 -25.5)" fill="url(#b)" d="M0 0h1970v1119H0z"/>
    <path d="M13558 1620s341.692 820.233 1122.655 11.368 2365.724 1650.87 2484.788 1692.371-1399.614-758.7-1399.614-758.7H13558Z" transform="translate(-14259.547 -1488.766)" opacity="0.503" fill="url(#c)"/>
    <path d="M-701.547 542.976s613.138 470.811 1098.589-227.722c565.422-539.948 821.911-243.7 821.911-243.7V1076.28h-1920.5Z" fill="#3992b7" opacity="0.489"/>
    <path d="M-701.547 542.845s318.456 538.675 980.64 7.6 947.9 7.344 947.9 7.344v616.658h-1928.54Z" fill="#8da843" opacity="0.48"/>
    <path d="M-4954.5 9279.465h-1546.553a903.586 903.586 0 0 0 19.59-3.558c22.889-4.417 45.311-9.674 66.643-15.623 20.883-5.823 41.375-12.484 60.907-19.8 19.028-7.124 37.727-15.088 55.577-23.671 17.355-8.348 34.4-17.516 50.658-27.25a617.969 617.969 0 0 0 46.15-30.528 625.609 625.609 0 0 0 42.049-33.512c13.053-11.351 25.958-23.528 38.355-36.194 11.917-12.177 23.718-25.156 35.075-38.578 10.854-12.828 21.686-26.51 32.2-40.665 19.406-26.13 38.187-54.391 57.415-86.4 35.873-59.717 67.574-123.17 98.232-184.533l.07-.141.02-.038.006-.014.557-1.112.021-.04.012-.022c16.995-34.024 34.568-69.207 52.706-103.483 9.747-18.415 18.825-35.014 27.755-50.744 10.042-17.7 19.665-33.894 29.416-49.522 10.459-16.761 21.1-32.873 31.636-47.889 11.269-16.059 22.847-31.485 34.413-45.852 12.258-15.226 24.957-29.831 37.746-43.411 13.445-14.278 27.453-27.927 41.632-40.566a624.39 624.39 0 0 1 46.074-37.309 614.778 614.778 0 0 1 51.076-33.652 633.537 633.537 0 0 1 56.631-29.585c20.063-9.231 41.172-17.683 62.742-25.119 22.208-7.654 45.561-14.464 69.41-20.239 24.488-5.935 50.271-10.969 76.631-14.962 27-4.089 55.4-7.209 84.414-9.272 29.662-2.112 60.867-3.183 92.748-3.183 23.119 0 47.218.565 71.627 1.681 24.634 1.125 50.326 2.855 76.361 5.142v1089.643Z" transform="translate(6173.452 -8203.457)" fill="url(#d)"/>
    <path d="M13558 1507.575c-5.066-14.51 318.456 538.675 980.64 7.6s947.9 7.344 947.9 7.344v616.658H13558s5.066-617.092 0-631.602Z" transform="translate(-14268.086 -974.73)" fill="#41755b" opacity="0.272" style="mix-blend-mode:screen;isolation:isolate"/>
    <path d="M-728.225 894.15s308.228 558.18 1003.876-145.227 995.8 9.726 995.8 9.726v816.757H-754.547Z" fill="#41755b" opacity="0.793"/>
    <path d="M-726.547 872.981s325.3 538.675 1001.723 7.6 968.277 7.344 968.277 7.344v616.658h-1970Z" fill="#417175" opacity="0.287"/>
    <path fill="#3c747c" opacity="0.684" d="M0 0h674v1094H0z"/>
  </g>
</svg>
