<?xml version="1.0" encoding="UTF-8" standalone="no"?>
<svg
   viewBox="0 0 2560 5120"
   version="1.1"
   id="svg153"
   sodipodi:docname="more-info-background.svg"
   inkscape:version="1.1.1 (3bf5ae0d25, 2021-09-20)"
   xmlns:inkscape="http://www.inkscape.org/namespaces/inkscape"
   xmlns:sodipodi="http://sodipodi.sourceforge.net/DTD/sodipodi-0.dtd"
   xmlns="http://www.w3.org/2000/svg"
   xmlns:svg="http://www.w3.org/2000/svg">
  <sodipodi:namedview
     id="namedview80"
     pagecolor="#ffffff"
     bordercolor="#666666"
     borderopacity="1.0"
     inkscape:pageshadow="2"
     inkscape:pageopacity="0.0"
     inkscape:pagecheckerboard="0"
     showgrid="false"
     inkscape:zoom="0.14042969"
     inkscape:cx="1278.2197"
     inkscape:cy="3079.8331"
     inkscape:window-width="1458"
     inkscape:window-height="976"
     inkscape:window-x="1117"
     inkscape:window-y="124"
     inkscape:window-maximized="0"
     inkscape:current-layer="svg153" />
  <defs
     id="defs11">
    <clipPath
       id="a">
      <path
         d="m 23.566,91.3 v 0 A 56.056,56.056 0 0 1 15.727,90.771 36.861,36.861 0 0 1 8.767,89.144 18.15,18.15 0 0 1 3.449,86.36 8.358,8.358 0 0 1 0.54,82.36 C -0.173,80.086 -0.18,76.06 0.519,70.4 A 179.351,179.351 0 0 1 4.011,51.871 L 9.775,50.3 5.459,45.984 c 1.23,-4.8 2.6,-9.672 4.06,-14.483 l 3.853,-1.051 -2.691,-2.691 c 1.473,-4.64 2.943,-8.908 4.37,-12.686 L 18.43,14.152 16.254,11.977 C 19.022,5.08 21.29,0.985 22.812,0.135 A 1.047,1.047 0 0 1 23.327,0 c 2.192,0 5.462,6.457 7.819,11.873 l -1.806,2.42 2.982,0.366 c 1.425,3.474 2.911,7.428 4.414,11.753 L 34,30.079 l 4.156,0.51 c 1.626,4.9 3.18,9.961 4.617,15.036 l -3.65,4.888 5.164,0.634 c 1.972,7.45 3.46,14.182 4.306,19.469 a 63.656,63.656 0 0 1 0.8,7.177 13.59,13.59 0 0 1 -0.376,4.568 7.971,7.971 0 0 1 -3.165,3.8 22.561,22.561 0 0 1 -5.944,2.805 45.965,45.965 0 0 1 -7.753,1.734 61.491,61.491 0 0 1 -8.589,0.6 z"
         transform="translate(12880.65,2000.813)"
         id="path2" />
    </clipPath>
    <clipPath
       id="b">
      <path
         d="m 17.748,68.756 v 0 a 42.214,42.214 0 0 1 -5.9,-0.4 27.759,27.759 0 0 1 -5.248,-1.223 13.669,13.669 0 0 1 -4,-2.1 6.294,6.294 0 0 1 -2.193,-3.007 C -0.13,60.312 -0.135,57.28 0.391,53.015 A 135.068,135.068 0 0 1 3.021,39.064 L 7.362,37.88 4.112,34.63 C 5.039,31.016 6.068,27.346 7.17,23.723 l 2.9,-0.792 -2.026,-2.026 c 1.109,-3.494 2.217,-6.708 3.291,-9.554 L 13.88,10.657 12.241,9.02 C 14.326,3.826 16.034,0.742 17.18,0.1 A 0.789,0.789 0 0 1 17.568,0 c 1.651,0 4.113,4.863 5.888,8.942 l -1.356,1.822 2.246,0.276 c 1.073,2.616 2.192,5.594 3.324,8.851 l -2.07,2.761 3.13,0.384 c 1.225,3.692 2.395,7.5 3.477,11.324 l -2.749,3.681 3.889,0.477 c 1.485,5.611 2.606,10.681 3.243,14.662 a 47.939,47.939 0 0 1 0.6,5.4 10.234,10.234 0 0 1 -0.283,3.44 6,6 0 0 1 -2.383,2.86 16.991,16.991 0 0 1 -4.47,2.12 34.616,34.616 0 0 1 -5.838,1.309 46.308,46.308 0 0 1 -6.468,0.447 z"
         transform="translate(12880.65,2000.813)"
         id="path5" />
    </clipPath>
    <clipPath
       id="c">
      <path
         d="m 17.748,68.756 v 0 a 42.216,42.216 0 0 1 -5.9,-0.4 27.76,27.76 0 0 1 -5.248,-1.223 13.668,13.668 0 0 1 -4,-2.1 6.294,6.294 0 0 1 -2.193,-3.007 C -0.13,60.312 -0.135,57.28 0.391,53.015 A 135.068,135.068 0 0 1 3.021,39.064 L 7.362,37.88 4.112,34.63 C 5.039,31.016 6.068,27.346 7.17,23.723 l 2.9,-0.792 -2.026,-2.026 c 1.109,-3.494 2.217,-6.708 3.291,-9.554 L 13.88,10.657 12.241,9.02 C 14.326,3.826 16.034,0.742 17.18,0.1 A 0.789,0.789 0 0 1 17.568,0 c 1.651,0 4.113,4.863 5.888,8.942 l -1.356,1.822 2.246,0.276 c 1.073,2.616 2.192,5.594 3.324,8.851 l -2.07,2.761 3.13,0.384 c 1.225,3.692 2.395,7.5 3.477,11.324 l -2.749,3.681 3.889,0.477 c 1.485,5.611 2.606,10.681 3.243,14.662 a 47.94,47.94 0 0 1 0.6,5.4 10.234,10.234 0 0 1 -0.283,3.44 6,6 0 0 1 -2.383,2.86 16.991,16.991 0 0 1 -4.47,2.12 34.616,34.616 0 0 1 -5.838,1.309 46.309,46.309 0 0 1 -6.468,0.447 z"
         transform="translate(12880.65,2000.813)"
         id="path8" />
    </clipPath>
  </defs>
  <g
     style="fill:#97b095;fill-opacity:1"
     id="g81"
     transform="translate(0,997.76137)">
    <g
       transform="matrix(1.7219437,0,0,1.7219437,-21774.53,-3439.9321)"
       clip-path="url(#a)"
       id="g15">
      <path
         transform="translate(12863,1992.925)"
         fill="#2e5c4c"
         d="M 0,0 H 83 V 119 H 0 Z"
         id="path13" />
    </g>
    <g
       transform="matrix(1.7219437,0,0,1.7219437,-21661.888,-3361.3271)"
       clip-path="url(#b)"
       id="g19">
      <path
         transform="translate(12867.358,1994.873)"
         fill="#2e5c4c"
         d="M 0,0 H 62.507 V 89.618 H 0 Z"
         id="path17" />
    </g>
    <g
       transform="matrix(1.7219437,0,0,1.7219437,-21887.173,-3400.1431)"
       clip-path="url(#a)"
       id="g23">
      <path
         transform="translate(12863,1992.925)"
         fill="#2e5c4c"
         d="M 0,0 H 83 V 119 H 0 Z"
         id="path21" />
    </g>
    <g
       transform="matrix(1.7219437,0,0,1.7219437,-21549.245,-3344.7189)"
       clip-path="url(#a)"
       id="g27">
      <path
         transform="translate(12863,1992.925)"
         fill="#2e5c4c"
         d="M 0,0 H 83 V 119 H 0 Z"
         id="path25" />
    </g>
    <g
       transform="matrix(1.7219437,0,0,1.7219437,-21768.779,-3085.7214)"
       clip-path="url(#a)"
       id="g31">
      <path
         transform="translate(12863,1992.925)"
         fill="#2e5c4c"
         d="M 0,0 H 83 V 119 H 0 Z"
         id="path29" />
    </g>
    <g
       transform="matrix(1.7219437,0,0,1.7219437,-21549.245,-3173.5319)"
       clip-path="url(#a)"
       id="g35">
      <path
         transform="translate(12863,1992.925)"
         fill="#2e5c4c"
         d="M 0,0 H 83 V 119 H 0 Z"
         id="path33" />
    </g>
    <g
       transform="matrix(1.7219437,0,0,1.7219437,-21968.303,-3406.4713)"
       clip-path="url(#c)"
       id="g39">
      <path
         transform="translate(12867.358,1994.873)"
         fill="#2e5c4c"
         d="M 0,0 H 62.507 V 89.618 H 0 Z"
         id="path37" />
    </g>
    <g
       transform="matrix(1.7219437,0,0,1.7219437,-22069.913,-3321.5381)"
       clip-path="url(#a)"
       id="g43">
      <path
         transform="translate(12863,1992.925)"
         fill="#2e5c4c"
         d="M 0,0 H 83 V 119 H 0 Z"
         id="path41" />
    </g>
    <g
       transform="matrix(1.7219437,0,0,1.7219437,-21946.764,-3242.9314)"
       clip-path="url(#a)"
       id="g47">
      <path
         transform="translate(12863,1992.925)"
         fill="#2e5c4c"
         d="M 0,0 H 83 V 119 H 0 Z"
         id="path45" />
    </g>
    <g
       transform="matrix(1.7219437,0,0,1.7219437,-22059.407,-3124.5374)"
       clip-path="url(#a)"
       id="g51">
      <path
         transform="translate(12863,1992.925)"
         fill="#2e5c4c"
         d="M 0,0 H 83 V 119 H 0 Z"
         id="path49" />
    </g>
    <g
       transform="matrix(1.7219437,0,0,1.7219437,-21640.35,-3242.9314)"
       clip-path="url(#a)"
       id="g55">
      <path
         transform="translate(12863,1992.925)"
         fill="#2e5c4c"
         d="M 0,0 H 83 V 119 H 0 Z"
         id="path53" />
    </g>
    <g
       transform="matrix(1.7219437,0,0,1.7219437,-21832.863,-3242.9314)"
       clip-path="url(#b)"
       id="g59">
      <path
         transform="translate(12867.358,1994.873)"
         fill="#2e5c4c"
         d="M 0,0 H 62.507 V 89.618 H 0 Z"
         id="path57" />
    </g>
    <g
       transform="matrix(1.7219437,0,0,1.7219437,-21448.367,-3242.9314)"
       clip-path="url(#b)"
       id="g63">
      <path
         transform="translate(12867.358,1994.873)"
         fill="#2e5c4c"
         d="M 0,0 H 62.507 V 89.618 H 0 Z"
         id="path61" />
    </g>
    <g
       transform="matrix(1.7219437,0,0,1.7219437,-22182.555,-3445.2873)"
       clip-path="url(#a)"
       id="g67">
      <path
         transform="translate(12863,1992.925)"
         fill="#2e5c4c"
         d="M 0,0 H 83 V 119 H 0 Z"
         id="path65" />
    </g>
    <g
       transform="matrix(1.7219437,0,0,1.7219437,-21832.865,-3242.9314)"
       clip-path="url(#b)"
       id="g71">
      <path
         transform="translate(12867.358,1994.873)"
         fill="#2e5c4c"
         d="M 0,0 H 62.507 V 89.618 H 0 Z"
         id="path69" />
    </g>
    <g
       transform="matrix(1.7219437,0,0,1.7219437,-21381.228,-3381.1532)"
       clip-path="url(#b)"
       id="g75">
      <path
         transform="translate(12867.358,1994.873)"
         fill="#2e5c4c"
         d="M 0,0 H 62.507 V 89.618 H 0 Z"
         id="path73" />
    </g>
    <g
       transform="matrix(1.7219437,0,0,1.7219437,-21269.094,-3444.0823)"
       clip-path="url(#a)"
       id="g79">
      <path
         transform="translate(12863,1992.925)"
         fill="#2e5c4c"
         d="M 0,0 H 83 V 119 H 0 Z"
         id="path77" />
    </g>
  </g>
  <g
     style="fill:#3f5a4e;fill-opacity:1"
     id="g151"
     transform="translate(0,997.76137)">
    <g
       transform="matrix(-1.7219437,0,0,1.7219437,24341.518,-866.34943)"
       clip-path="url(#a)"
       id="g85">
      <path
         transform="translate(12863,1992.925)"
         fill="#2e5c4c"
         d="M 0,0 H 83 V 119 H 0 Z"
         id="path83" />
    </g>
    <g
       transform="matrix(-1.7219437,0,0,1.7219437,24228.875,-787.74443)"
       clip-path="url(#b)"
       id="g89">
      <path
         transform="translate(12867.358,1994.873)"
         fill="#2e5c4c"
         d="M 0,0 H 62.507 V 89.618 H 0 Z"
         id="path87" />
    </g>
    <g
       transform="matrix(-1.7219437,0,0,1.7219437,24454.16,-826.56048)"
       clip-path="url(#a)"
       id="g93">
      <path
         transform="translate(12863,1992.925)"
         fill="#2e5c4c"
         d="M 0,0 H 83 V 119 H 0 Z"
         id="path91" />
    </g>
    <g
       transform="matrix(-1.7219437,0,0,1.7219437,24116.232,-771.13628)"
       clip-path="url(#a)"
       id="g97">
      <path
         transform="translate(12863,1992.925)"
         fill="#2e5c4c"
         d="M 0,0 H 83 V 119 H 0 Z"
         id="path95" />
    </g>
    <g
       transform="matrix(-1.7219437,0,0,1.7219437,24335.766,-512.13873)"
       clip-path="url(#a)"
       id="g101">
      <path
         transform="translate(12863,1992.925)"
         fill="#2e5c4c"
         d="M 0,0 H 83 V 119 H 0 Z"
         id="path99" />
    </g>
    <g
       transform="matrix(-1.7219437,0,0,1.7219437,24116.232,-599.94925)"
       clip-path="url(#a)"
       id="g105">
      <path
         transform="translate(12863,1992.925)"
         fill="#2e5c4c"
         d="M 0,0 H 83 V 119 H 0 Z"
         id="path103" />
    </g>
    <g
       transform="matrix(-1.7219437,0,0,1.7219437,24535.29,-832.88862)"
       clip-path="url(#c)"
       id="g109">
      <path
         transform="translate(12867.358,1994.873)"
         fill="#2e5c4c"
         d="M 0,0 H 62.507 V 89.618 H 0 Z"
         id="path107" />
    </g>
    <g
       transform="matrix(-1.7219437,0,0,1.7219437,24636.9,-747.95547)"
       clip-path="url(#a)"
       id="g113">
      <path
         transform="translate(12863,1992.925)"
         fill="#2e5c4c"
         d="M 0,0 H 83 V 119 H 0 Z"
         id="path111" />
    </g>
    <g
       transform="matrix(-1.7219437,0,0,1.7219437,24513.752,-669.34874)"
       clip-path="url(#a)"
       id="g117">
      <path
         transform="translate(12863,1992.925)"
         fill="#2e5c4c"
         d="M 0,0 H 83 V 119 H 0 Z"
         id="path115" />
    </g>
    <g
       transform="matrix(-1.7219437,0,0,1.7219437,24626.394,-550.95478)"
       clip-path="url(#a)"
       id="g121">
      <path
         transform="translate(12863,1992.925)"
         fill="#2e5c4c"
         d="M 0,0 H 83 V 119 H 0 Z"
         id="path119" />
    </g>
    <g
       transform="matrix(-1.7219437,0,0,1.7219437,24207.337,-669.34874)"
       clip-path="url(#a)"
       id="g125">
      <path
         transform="translate(12863,1992.925)"
         fill="#2e5c4c"
         d="M 0,0 H 83 V 119 H 0 Z"
         id="path123" />
    </g>
    <g
       transform="matrix(-1.7219437,0,0,1.7219437,24399.85,-669.34874)"
       clip-path="url(#b)"
       id="g129">
      <path
         transform="translate(12867.358,1994.873)"
         fill="#2e5c4c"
         d="M 0,0 H 62.507 V 89.618 H 0 Z"
         id="path127" />
    </g>
    <g
       transform="matrix(-1.7219437,0,0,1.7219437,24015.354,-669.34874)"
       clip-path="url(#b)"
       id="g133">
      <path
         transform="translate(12867.358,1994.873)"
         fill="#2e5c4c"
         d="M 0,0 H 62.507 V 89.618 H 0 Z"
         id="path131" />
    </g>
    <g
       transform="matrix(-1.7219437,0,0,1.7219437,24749.543,-871.70468)"
       clip-path="url(#a)"
       id="g137">
      <path
         transform="translate(12863,1992.925)"
         fill="#2e5c4c"
         d="M 0,0 H 83 V 119 H 0 Z"
         id="path135" />
    </g>
    <g
       transform="matrix(-1.7219437,0,0,1.7219437,24399.852,-669.34874)"
       clip-path="url(#b)"
       id="g141">
      <path
         transform="translate(12867.358,1994.873)"
         fill="#2e5c4c"
         d="M 0,0 H 62.507 V 89.618 H 0 Z"
         id="path139" />
    </g>
    <g
       transform="matrix(-1.7219437,0,0,1.7219437,23948.215,-807.57054)"
       clip-path="url(#b)"
       id="g145">
      <path
         transform="translate(12867.358,1994.873)"
         fill="#2e5c4c"
         d="M 0,0 H 62.507 V 89.618 H 0 Z"
         id="path143" />
    </g>
    <g
       transform="matrix(-1.7219437,0,0,1.7219437,23836.081,-870.49966)"
       clip-path="url(#a)"
       id="g149">
      <path
         transform="translate(12863,1992.925)"
         fill="#2e5c4c"
         d="M 0,0 H 83 V 119 H 0 Z"
         id="path147" />
    </g>
  </g>
</svg>
