<?xml version="1.0" encoding="UTF-8" standalone="no"?>
<svg
   width="2560"
   height="5120"
   viewBox="0 0 2560 5120"
   version="1.1"
   id="svg131"
   sodipodi:docname="more-info-background.svg"
   inkscape:version="1.1.1 (3bf5ae0d25, 2021-09-20)"
   xmlns:inkscape="http://www.inkscape.org/namespaces/inkscape"
   xmlns:sodipodi="http://sodipodi.sourceforge.net/DTD/sodipodi-0.dtd"
   xmlns="http://www.w3.org/2000/svg"
   xmlns:svg="http://www.w3.org/2000/svg">
  <sodipodi:namedview
     id="namedview133"
     pagecolor="#52727a"
     bordercolor="#666666"
     borderopacity="1.0"
     inkscape:pageshadow="2"
     inkscape:pageopacity="1"
     inkscape:pagecheckerboard="0"
     showgrid="false"
     inkscape:zoom="0.08900983"
     inkscape:cx="-1999.7791"
     inkscape:cy="2185.1519"
     inkscape:window-width="2471"
     inkscape:window-height="976"
     inkscape:window-x="1703"
     inkscape:window-y="206"
     inkscape:window-maximized="0"
     inkscape:current-layer="svg131" />
  <defs
     id="defs23">
    <linearGradient
       id="linear-gradient"
       x1="0.5"
       x2="0.5"
       y2="0.426"
       gradientUnits="objectBoundingBox">
      <stop
         offset="0"
         stop-color="#bbd6e2"
         id="stop2" />
      <stop
         offset="1"
         stop-color="#edcec7"
         id="stop4" />
    </linearGradient>
    <linearGradient
       id="linear-gradient-2"
       x1="8710.998"
       x2="8710.998"
       y2="26398.389"
       gradientUnits="userSpaceOnUse"
       gradientTransform="matrix(1.3045605,0,0,0.7665417,-9737.553,-19155.465)"
       y1="24967.984">
      <stop
         offset="0"
         stop-color="#2a6680"
         id="stop7" />
      <stop
         offset="0.502"
         stop-color="#3992b7"
         id="stop9" />
      <stop
         offset="1"
         stop-color="#bbd6e2"
         id="stop11" />
    </linearGradient>
    <clipPath
       id="clip-path">
      <path
         id="Subtraction_3"
         data-name="Subtraction 3"
         d="m 23.566,91.3 v 0 A 56.056,56.056 0 0 1 15.727,90.771 36.861,36.861 0 0 1 8.767,89.144 18.15,18.15 0 0 1 3.449,86.36 8.358,8.358 0 0 1 0.54,82.36 C -0.173,80.086 -0.18,76.06 0.519,70.4 A 179.351,179.351 0 0 1 4.011,51.871 L 9.775,50.3 5.459,45.984 c 1.23,-4.8 2.6,-9.672 4.06,-14.483 l 3.853,-1.051 -2.691,-2.691 c 1.473,-4.64 2.943,-8.908 4.37,-12.686 L 18.43,14.152 16.254,11.977 C 19.022,5.08 21.29,0.985 22.812,0.135 A 1.047,1.047 0 0 1 23.327,0 c 2.192,0 5.462,6.457 7.819,11.873 l -1.806,2.42 2.982,0.366 c 1.425,3.474 2.911,7.428 4.414,11.753 L 34,30.079 l 4.156,0.51 c 1.626,4.9 3.18,9.961 4.617,15.036 l -3.65,4.888 5.164,0.634 c 1.972,7.45 3.46,14.182 4.306,19.469 a 63.656,63.656 0 0 1 0.8,7.177 13.59,13.59 0 0 1 -0.376,4.568 7.971,7.971 0 0 1 -3.165,3.8 22.561,22.561 0 0 1 -5.944,2.805 45.965,45.965 0 0 1 -7.753,1.734 61.491,61.491 0 0 1 -8.589,0.6 z"
         transform="translate(12880.65,2000.813)"
         fill="#2e5c4c"
         opacity="0.746" />
    </clipPath>
    <clipPath
       id="clip-path-2">
      <path
         id="Subtraction_5"
         data-name="Subtraction 5"
         d="m 17.748,68.756 v 0 a 42.214,42.214 0 0 1 -5.9,-0.4 27.759,27.759 0 0 1 -5.248,-1.223 13.669,13.669 0 0 1 -4,-2.1 6.294,6.294 0 0 1 -2.193,-3.007 C -0.13,60.312 -0.135,57.28 0.391,53.015 A 135.068,135.068 0 0 1 3.021,39.064 L 7.362,37.88 4.112,34.63 C 5.039,31.016 6.068,27.346 7.17,23.723 l 2.9,-0.792 -2.026,-2.026 c 1.109,-3.494 2.217,-6.708 3.291,-9.554 L 13.88,10.657 12.241,9.02 C 14.326,3.826 16.034,0.742 17.18,0.1 A 0.789,0.789 0 0 1 17.568,0 c 1.651,0 4.113,4.863 5.888,8.942 l -1.356,1.822 2.246,0.276 c 1.073,2.616 2.192,5.594 3.324,8.851 l -2.07,2.761 3.13,0.384 c 1.225,3.692 2.395,7.5 3.477,11.324 l -2.749,3.681 3.889,0.477 c 1.485,5.611 2.606,10.681 3.243,14.662 a 47.939,47.939 0 0 1 0.6,5.4 10.234,10.234 0 0 1 -0.283,3.44 6,6 0 0 1 -2.383,2.86 16.991,16.991 0 0 1 -4.47,2.12 34.616,34.616 0 0 1 -5.838,1.309 46.308,46.308 0 0 1 -6.468,0.447 z"
         transform="translate(12880.65,2000.813)"
         fill="#2e5c4c"
         opacity="0.746" />
    </clipPath>
    <clipPath
       id="clip-path-7">
      <path
         id="Subtraction_10"
         data-name="Subtraction 10"
         d="m 17.748,68.756 v 0 a 42.216,42.216 0 0 1 -5.9,-0.4 27.76,27.76 0 0 1 -5.248,-1.223 13.668,13.668 0 0 1 -4,-2.1 6.294,6.294 0 0 1 -2.193,-3.007 C -0.13,60.312 -0.135,57.28 0.391,53.015 A 135.068,135.068 0 0 1 3.021,39.064 L 7.362,37.88 4.112,34.63 C 5.039,31.016 6.068,27.346 7.17,23.723 l 2.9,-0.792 -2.026,-2.026 c 1.109,-3.494 2.217,-6.708 3.291,-9.554 L 13.88,10.657 12.241,9.02 C 14.326,3.826 16.034,0.742 17.18,0.1 A 0.789,0.789 0 0 1 17.568,0 c 1.651,0 4.113,4.863 5.888,8.942 l -1.356,1.822 2.246,0.276 c 1.073,2.616 2.192,5.594 3.324,8.851 l -2.07,2.761 3.13,0.384 c 1.225,3.692 2.395,7.5 3.477,11.324 l -2.749,3.681 3.889,0.477 c 1.485,5.611 2.606,10.681 3.243,14.662 a 47.94,47.94 0 0 1 0.6,5.4 10.234,10.234 0 0 1 -0.283,3.44 6,6 0 0 1 -2.383,2.86 16.991,16.991 0 0 1 -4.47,2.12 34.616,34.616 0 0 1 -5.838,1.309 46.309,46.309 0 0 1 -6.468,0.447 z"
         transform="translate(12880.65,2000.813)"
         fill="#2e5c4c"
         opacity="0.746" />
    </clipPath>
    <clipPath
       id="clip-dashboard-background">
      <rect
         width="2560"
         height="1080"
         id="rect20"
         x="0"
         y="0" />
    </clipPath>
  </defs>
  <g
     id="trees"
     transform="matrix(1.7219437,0,0,1.7219437,-136.58595,-727.49366)"
     style="fill:#97b095;fill-opacity:1">
    <g
       id="tree"
       transform="translate(-12566,-1575.219)"
       clip-path="url(#clip-path)"
       style="fill:#97b095;fill-opacity:1">
      <rect
         id="Rectangle_143"
         data-name="Rectangle 143"
         width="83"
         height="119"
         transform="translate(12863,1992.925)"
         fill="#2e5c4c"
         x="0"
         y="0"
         style="fill:#97b095;fill-opacity:1" />
    </g>
    <g
       id="tree-2"
       data-name="tree"
       transform="translate(-12500.584,-1529.57)"
       clip-path="url(#clip-path-2)"
       style="fill:#97b095;fill-opacity:1">
      <rect
         id="Rectangle_144"
         data-name="Rectangle 144"
         width="62.507"
         height="89.617996"
         transform="translate(12867.358,1994.873)"
         fill="#2e5c4c"
         x="0"
         y="0"
         style="fill:#97b095;fill-opacity:1" />
    </g>
    <g
       id="tree-3"
       data-name="tree"
       transform="translate(-12631.416,-1552.112)"
       clip-path="url(#clip-path)"
       style="fill:#97b095;fill-opacity:1">
      <rect
         id="Rectangle_145"
         data-name="Rectangle 145"
         width="83"
         height="119"
         transform="translate(12863,1992.925)"
         fill="#2e5c4c"
         x="0"
         y="0"
         style="fill:#97b095;fill-opacity:1" />
    </g>
    <g
       id="tree-4"
       data-name="tree"
       transform="translate(-12435.168,-1519.925)"
       clip-path="url(#clip-path)"
       style="fill:#97b095;fill-opacity:1">
      <rect
         id="Rectangle_146"
         data-name="Rectangle 146"
         width="83"
         height="119"
         transform="translate(12863,1992.925)"
         fill="#2e5c4c"
         x="0"
         y="0"
         style="fill:#97b095;fill-opacity:1" />
    </g>
    <g
       id="tree-5"
       data-name="tree"
       transform="translate(-12562.66,-1369.515)"
       clip-path="url(#clip-path)"
       style="fill:#97b095;fill-opacity:1">
      <rect
         id="Rectangle_147"
         data-name="Rectangle 147"
         width="83"
         height="119"
         transform="translate(12863,1992.925)"
         fill="#2e5c4c"
         x="0"
         y="0"
         style="fill:#97b095;fill-opacity:1" />
    </g>
    <g
       id="tree-6"
       data-name="tree"
       transform="translate(-12435.168,-1420.51)"
       clip-path="url(#clip-path)"
       style="fill:#97b095;fill-opacity:1">
      <rect
         id="Rectangle_148"
         data-name="Rectangle 148"
         width="83"
         height="119"
         transform="translate(12863,1992.925)"
         fill="#2e5c4c"
         x="0"
         y="0"
         style="fill:#97b095;fill-opacity:1" />
    </g>
    <g
       id="tree-7"
       data-name="tree"
       transform="translate(-12678.531,-1555.787)"
       clip-path="url(#clip-path-7)"
       style="fill:#97b095;fill-opacity:1">
      <rect
         id="Rectangle_149"
         data-name="Rectangle 149"
         width="62.507"
         height="89.617996"
         transform="translate(12867.358,1994.873)"
         fill="#2e5c4c"
         x="0"
         y="0"
         style="fill:#97b095;fill-opacity:1" />
    </g>
    <g
       id="tree-8"
       data-name="tree"
       transform="translate(-12737.54,-1506.463)"
       opacity="0.996"
       clip-path="url(#clip-path)"
       style="fill:#97b095;fill-opacity:1">
      <rect
         id="Rectangle_150"
         data-name="Rectangle 150"
         width="83"
         height="119"
         transform="translate(12863,1992.925)"
         fill="#2e5c4c"
         x="0"
         y="0"
         style="fill:#97b095;fill-opacity:1" />
    </g>
    <g
       id="tree-9"
       data-name="tree"
       transform="translate(-12666.023,-1460.813)"
       clip-path="url(#clip-path)"
       style="fill:#97b095;fill-opacity:1">
      <rect
         id="Rectangle_151"
         data-name="Rectangle 151"
         width="83"
         height="119"
         transform="translate(12863,1992.925)"
         fill="#2e5c4c"
         x="0"
         y="0"
         style="fill:#97b095;fill-opacity:1" />
    </g>
    <g
       id="tree-10"
       data-name="tree"
       transform="translate(-12731.439,-1392.057)"
       clip-path="url(#clip-path)"
       style="fill:#97b095;fill-opacity:1">
      <rect
         id="Rectangle_152"
         data-name="Rectangle 152"
         width="83"
         height="119"
         transform="translate(12863,1992.925)"
         fill="#2e5c4c"
         x="0"
         y="0"
         style="fill:#97b095;fill-opacity:1" />
    </g>
    <g
       id="tree-11"
       data-name="tree"
       transform="translate(-12488.076,-1460.813)"
       clip-path="url(#clip-path)"
       style="fill:#97b095;fill-opacity:1">
      <rect
         id="Rectangle_154"
         data-name="Rectangle 154"
         width="83"
         height="119"
         transform="translate(12863,1992.925)"
         fill="#2e5c4c"
         x="0"
         y="0"
         style="fill:#97b095;fill-opacity:1" />
    </g>
    <g
       id="tree-12"
       data-name="tree"
       transform="translate(-12599.876,-1460.813)"
       clip-path="url(#clip-path-2)"
       style="fill:#97b095;fill-opacity:1">
      <rect
         id="Rectangle_155"
         data-name="Rectangle 155"
         width="62.507"
         height="89.617996"
         transform="translate(12867.358,1994.873)"
         fill="#2e5c4c"
         x="0"
         y="0"
         style="fill:#97b095;fill-opacity:1" />
    </g>
    <g
       id="tree-13"
       data-name="tree"
       transform="translate(-12376.584,-1460.813)"
       clip-path="url(#clip-path-2)"
       style="fill:#97b095;fill-opacity:1">
      <rect
         id="Rectangle_156"
         data-name="Rectangle 156"
         width="62.507"
         height="89.617996"
         transform="translate(12867.358,1994.873)"
         fill="#2e5c4c"
         x="0"
         y="0"
         style="fill:#97b095;fill-opacity:1" />
    </g>
    <g
       id="tree-14"
       data-name="tree"
       transform="translate(-12802.956,-1578.329)"
       opacity="0.996"
       clip-path="url(#clip-path)"
       style="fill:#97b095;fill-opacity:1">
      <rect
         id="Rectangle_309"
         data-name="Rectangle 309"
         width="83"
         height="119"
         transform="translate(12863,1992.925)"
         fill="#2e5c4c"
         x="0"
         y="0"
         style="fill:#97b095;fill-opacity:1" />
    </g>
    <g
       id="tree-16"
       data-name="tree"
       transform="translate(-12599.877,-1460.813)"
       clip-path="url(#clip-path-2)"
       style="fill:#97b095;fill-opacity:1">
      <rect
         id="Rectangle_447"
         data-name="Rectangle 447"
         width="62.507"
         height="89.617996"
         transform="translate(12867.358,1994.873)"
         fill="#2e5c4c"
         x="0"
         y="0"
         style="fill:#97b095;fill-opacity:1" />
    </g>
    <g
       id="g8062"
       data-name="tree"
       transform="translate(-12337.594,-1541.0838)"
       clip-path="url(#clip-path-2)"
       style="fill:#97b095;fill-opacity:1">
      <rect
         id="rect8060"
         data-name="Rectangle 156"
         width="62.507"
         height="89.617996"
         transform="translate(12867.358,1994.873)"
         fill="#2e5c4c"
         x="0"
         y="0"
         style="fill:#97b095;fill-opacity:1" />
    </g>
    <g
       id="g8070"
       data-name="tree"
       transform="translate(-12272.473,-1577.6292)"
       clip-path="url(#clip-path)"
       style="fill:#97b095;fill-opacity:1">
      <rect
         id="rect8068"
         data-name="Rectangle 148"
         width="83"
         height="119"
         transform="translate(12863,1992.925)"
         fill="#2e5c4c"
         x="0"
         y="0"
         style="fill:#97b095;fill-opacity:1" />
    </g>
  </g>
  <g
     id="g8224"
     transform="matrix(-1.7219437,0,0,1.7219437,2703.5731,1846.089)"
     style="fill:#3f5a4e;fill-opacity:1">
    <g
       id="g8154"
       transform="translate(-12566,-1575.219)"
       clip-path="url(#clip-path)"
       style="fill:#3f5a4e;fill-opacity:1">
      <rect
         id="rect8152"
         data-name="Rectangle 143"
         width="83"
         height="119"
         transform="translate(12863,1992.925)"
         fill="#2e5c4c"
         x="0"
         y="0"
         style="fill:#3f5a4e;fill-opacity:1" />
    </g>
    <g
       id="g8158"
       data-name="tree"
       transform="translate(-12500.584,-1529.57)"
       clip-path="url(#clip-path-2)"
       style="fill:#3f5a4e;fill-opacity:1">
      <rect
         id="rect8156"
         data-name="Rectangle 144"
         width="62.507"
         height="89.617996"
         transform="translate(12867.358,1994.873)"
         fill="#2e5c4c"
         x="0"
         y="0"
         style="fill:#3f5a4e;fill-opacity:1" />
    </g>
    <g
       id="g8162"
       data-name="tree"
       transform="translate(-12631.416,-1552.112)"
       clip-path="url(#clip-path)"
       style="fill:#3f5a4e;fill-opacity:1">
      <rect
         id="rect8160"
         data-name="Rectangle 145"
         width="83"
         height="119"
         transform="translate(12863,1992.925)"
         fill="#2e5c4c"
         x="0"
         y="0"
         style="fill:#3f5a4e;fill-opacity:1" />
    </g>
    <g
       id="g8166"
       data-name="tree"
       transform="translate(-12435.168,-1519.925)"
       clip-path="url(#clip-path)"
       style="fill:#3f5a4e;fill-opacity:1">
      <rect
         id="rect8164"
         data-name="Rectangle 146"
         width="83"
         height="119"
         transform="translate(12863,1992.925)"
         fill="#2e5c4c"
         x="0"
         y="0"
         style="fill:#3f5a4e;fill-opacity:1" />
    </g>
    <g
       id="g8170"
       data-name="tree"
       transform="translate(-12562.66,-1369.515)"
       clip-path="url(#clip-path)"
       style="fill:#3f5a4e;fill-opacity:1">
      <rect
         id="rect8168"
         data-name="Rectangle 147"
         width="83"
         height="119"
         transform="translate(12863,1992.925)"
         fill="#2e5c4c"
         x="0"
         y="0"
         style="fill:#3f5a4e;fill-opacity:1" />
    </g>
    <g
       id="g8174"
       data-name="tree"
       transform="translate(-12435.168,-1420.51)"
       clip-path="url(#clip-path)"
       style="fill:#3f5a4e;fill-opacity:1">
      <rect
         id="rect8172"
         data-name="Rectangle 148"
         width="83"
         height="119"
         transform="translate(12863,1992.925)"
         fill="#2e5c4c"
         x="0"
         y="0"
         style="fill:#3f5a4e;fill-opacity:1" />
    </g>
    <g
       id="g8178"
       data-name="tree"
       transform="translate(-12678.531,-1555.787)"
       clip-path="url(#clip-path-7)"
       style="fill:#3f5a4e;fill-opacity:1">
      <rect
         id="rect8176"
         data-name="Rectangle 149"
         width="62.507"
         height="89.617996"
         transform="translate(12867.358,1994.873)"
         fill="#2e5c4c"
         x="0"
         y="0"
         style="fill:#3f5a4e;fill-opacity:1" />
    </g>
    <g
       id="g8182"
       data-name="tree"
       transform="translate(-12737.54,-1506.463)"
       opacity="0.996"
       clip-path="url(#clip-path)"
       style="fill:#3f5a4e;fill-opacity:1">
      <rect
         id="rect8180"
         data-name="Rectangle 150"
         width="83"
         height="119"
         transform="translate(12863,1992.925)"
         fill="#2e5c4c"
         x="0"
         y="0"
         style="fill:#3f5a4e;fill-opacity:1" />
    </g>
    <g
       id="g8186"
       data-name="tree"
       transform="translate(-12666.023,-1460.813)"
       clip-path="url(#clip-path)"
       style="fill:#3f5a4e;fill-opacity:1">
      <rect
         id="rect8184"
         data-name="Rectangle 151"
         width="83"
         height="119"
         transform="translate(12863,1992.925)"
         fill="#2e5c4c"
         x="0"
         y="0"
         style="fill:#3f5a4e;fill-opacity:1" />
    </g>
    <g
       id="g8190"
       data-name="tree"
       transform="translate(-12731.439,-1392.057)"
       clip-path="url(#clip-path)"
       style="fill:#3f5a4e;fill-opacity:1">
      <rect
         id="rect8188"
         data-name="Rectangle 152"
         width="83"
         height="119"
         transform="translate(12863,1992.925)"
         fill="#2e5c4c"
         x="0"
         y="0"
         style="fill:#3f5a4e;fill-opacity:1" />
    </g>
    <g
       id="g8194"
       data-name="tree"
       transform="translate(-12488.076,-1460.813)"
       clip-path="url(#clip-path)"
       style="fill:#3f5a4e;fill-opacity:1">
      <rect
         id="rect8192"
         data-name="Rectangle 154"
         width="83"
         height="119"
         transform="translate(12863,1992.925)"
         fill="#2e5c4c"
         x="0"
         y="0"
         style="fill:#3f5a4e;fill-opacity:1" />
    </g>
    <g
       id="g8198"
       data-name="tree"
       transform="translate(-12599.876,-1460.813)"
       clip-path="url(#clip-path-2)"
       style="fill:#3f5a4e;fill-opacity:1">
      <rect
         id="rect8196"
         data-name="Rectangle 155"
         width="62.507"
         height="89.617996"
         transform="translate(12867.358,1994.873)"
         fill="#2e5c4c"
         x="0"
         y="0"
         style="fill:#3f5a4e;fill-opacity:1" />
    </g>
    <g
       id="g8202"
       data-name="tree"
       transform="translate(-12376.584,-1460.813)"
       clip-path="url(#clip-path-2)"
       style="fill:#3f5a4e;fill-opacity:1">
      <rect
         id="rect8200"
         data-name="Rectangle 156"
         width="62.507"
         height="89.617996"
         transform="translate(12867.358,1994.873)"
         fill="#2e5c4c"
         x="0"
         y="0"
         style="fill:#3f5a4e;fill-opacity:1" />
    </g>
    <g
       id="g8206"
       data-name="tree"
       transform="translate(-12802.956,-1578.329)"
       opacity="0.996"
       clip-path="url(#clip-path)"
       style="fill:#3f5a4e;fill-opacity:1">
      <rect
         id="rect8204"
         data-name="Rectangle 309"
         width="83"
         height="119"
         transform="translate(12863,1992.925)"
         fill="#2e5c4c"
         x="0"
         y="0"
         style="fill:#3f5a4e;fill-opacity:1" />
    </g>
    <g
       id="g8214"
       data-name="tree"
       transform="translate(-12599.877,-1460.813)"
       clip-path="url(#clip-path-2)"
       style="fill:#3f5a4e;fill-opacity:1">
      <rect
         id="rect8212"
         data-name="Rectangle 447"
         width="62.507"
         height="89.617996"
         transform="translate(12867.358,1994.873)"
         fill="#2e5c4c"
         x="0"
         y="0"
         style="fill:#3f5a4e;fill-opacity:1" />
    </g>
    <g
       id="g8218"
       data-name="tree"
       transform="translate(-12337.594,-1541.0838)"
       clip-path="url(#clip-path-2)"
       style="fill:#3f5a4e;fill-opacity:1">
      <rect
         id="rect8216"
         data-name="Rectangle 156"
         width="62.507"
         height="89.617996"
         transform="translate(12867.358,1994.873)"
         fill="#2e5c4c"
         x="0"
         y="0"
         style="fill:#3f5a4e;fill-opacity:1" />
    </g>
    <g
       id="g8222"
       data-name="tree"
       transform="translate(-12272.473,-1577.6292)"
       clip-path="url(#clip-path)"
       style="fill:#3f5a4e;fill-opacity:1">
      <rect
         id="rect8220"
         data-name="Rectangle 148"
         width="83"
         height="119"
         transform="translate(12863,1992.925)"
         fill="#2e5c4c"
         x="0"
         y="0"
         style="fill:#3f5a4e;fill-opacity:1" />
    </g>
  </g>
</svg>
