<?xml version="1.0" encoding="UTF-8" standalone="no"?>
<svg viewBox="0 0 55 100" xmlns="http://www.w3.org/2000/svg">
  <path style="fill:#8ab391" d="m 26.233453,99.999766 v 0 A 61.397447,61.397447 0 0 1 17.647493,99.420359 40.3734,40.3734 0 0 1 10.02429,97.638326 19.879472,19.879472 0 0 1 4.1995499,94.589045 9.1544145,9.1544145 0 0 1 1.013358,90.207894 c -0.78094003,-2.490684 -0.78860703,-6.900312 -0.023,-13.09964 A 196.44094,196.44094 0 0 1 4.8151029,56.813668 L 11.128341,55.092971 6.4010789,50.365709 C 7.7482829,45.108328 9.2488269,39.772087 10.847948,34.502658 L 15.06809,33.35151 12.120671,30.404091 c 1.613359,-5.082135 3.223431,-9.756823 4.786407,-13.89482 l 3.700977,-1.00876 -2.383346,-2.38225 C 21.256465,5.5640618 23.740578,1.0788587 25.407606,0.14786412 A 1.1467662,1.1467662 0 0 1 25.971679,2.8472211e-7 C 28.37255,2.8472211e-7 31.95414,7.072273 34.535733,13.004351 l -1.978089,2.650596 3.266148,0.400875 c 1.560785,3.80503 3.188382,8.135797 4.8346,12.872917 l -2.996707,4.01642 4.552015,0.558596 c 1.780938,5.36691 3.483015,10.910161 5.056943,16.468746 l -3.9978,5.353766 5.656066,0.694413 c 2.159907,8.159893 3.789695,15.53337 4.716309,21.324156 a 69.721633,69.721633 0 0 1 0.87623,7.86088 14.88496,14.88496 0 0 1 -0.411828,5.003274 8.7305382,8.7305382 0 0 1 -3.466586,4.162093 24.710786,24.710786 0 0 1 -6.51039,3.072282 50.344899,50.344899 0 0 1 -8.491765,1.899229 67.350336,67.350336 0 0 1 -9.407426,0.657172 z"/>
</svg>
