<svg viewBox="0 0 100 100" version="1.1" xmlns="http://www.w3.org/2000/svg">
  <path style="fill:#3f5a4e" d="m 48.733453,99.999766 v 0 a 61.397447,61.397447 0 0 1 -8.58596,-0.579407 40.3734,40.3734 0 0 1 -7.623203,-1.782033 19.879472,19.879472 0 0 1 -5.82474,-3.049281 9.1544145,9.1544145 0 0 1 -3.186192,-4.381151 c -0.78094,-2.490684 -0.788607,-6.900312 -0.023,-13.09964 a 196.44094,196.44094 0 0 1 3.824745,-20.294586 l 6.313238,-1.720697 -4.727262,-4.727262 c 1.347204,-5.257381 2.847748,-10.593622 4.446869,-15.863051 L 37.56809,33.35151 34.620671,30.404091 c 1.613359,-5.082135 3.223431,-9.756823 4.786407,-13.89482 l 3.700977,-1.00876 -2.383346,-2.38225 C 43.756465,5.564062 46.240578,1.0788589 47.907606,0.14786434 A 1.1467662,1.1467662 0 0 1 48.471679,5.0475299e-7 C 50.87255,5.0475299e-7 54.45414,7.0722732 57.035733,13.004351 l -1.978089,2.650596 3.266148,0.400875 c 1.560785,3.80503 3.188382,8.135797 4.8346,12.872917 l -2.996707,4.01642 4.552015,0.558596 c 1.780938,5.36691 3.483015,10.910161 5.056943,16.468746 l -3.9978,5.353766 5.656066,0.694413 c 2.159907,8.159893 3.789695,15.53337 4.716309,21.324156 a 69.721633,69.721633 0 0 1 0.87623,7.86088 14.88496,14.88496 0 0 1 -0.411828,5.003274 8.7305382,8.7305382 0 0 1 -3.466586,4.162093 24.710786,24.710786 0 0 1 -6.51039,3.072282 50.344899,50.344899 0 0 1 -8.491765,1.899229 67.350336,67.350336 0 0 1 -9.407426,0.657172 z"/>
</svg>
