<?xml version="1.0" encoding="utf-8"?>
<!-- Generator: Adobe Illustrator 19.0.0, SVG Export Plug-In . SVG Version: 6.00 Build 0)  -->
<!DOCTYPE svg PUBLIC "-//W3C//DTD SVG 1.1//EN" "http://www.w3.org/Graphics/SVG/1.1/DTD/svg11.dtd">
<svg version="1.1" id="Layer_1" xmlns="http://www.w3.org/2000/svg" xmlns:xlink="http://www.w3.org/1999/xlink" x="0px" y="0px"
	 width="145px" height="56px" viewBox="0 0 145 56" enable-background="new 0 0 145 56" xml:space="preserve">
<g id="XMLID_65_">
	<path id="XMLID_72_" fill="#21356B" d="M27.6,40h3.6v-3.6c-1.8-0.2-3.6,0.3-3.6,2.3V40z"/>
	<path id="XMLID_71_" fill="#21356B" d="M23,41.1c-3.8,0.1-5.8,1.3-5.8,5.2v9.5h3.6v-9.5c0-1.8,0.7-2.1,2.1-2.1
		c0.9-0.1,1.2,0.1,2-0.3c0.7-0.4,1-1.3,1-2.6C25,41.1,24.2,41,23,41.1"/>
	<path id="XMLID_67_" fill="#21356B" d="M3.8,47.2H9c2,0,2.6,0.8,2.6,2.7c0,1.9-0.6,2.8-2.6,2.8H3.8V47.2z M15.3,50.1
		c0-3.2-1.4-4.3-3.2-4.6c1.5-0.7,2.7-1.6,2.7-4.3c0-3.8-1.8-5.2-5.6-5.2H0v19.9h9.6C13.2,55.8,15.3,54.4,15.3,50.1 M3.8,44.2V39h4.7
		c2.1,0,2.6,0.7,2.6,2.6c0,1.9-0.6,2.7-2.6,2.7H3.8z"/>
	<path id="XMLID_66_" fill="#21356B" d="M46.6,40h3.6v-3.6c-1.8-0.2-3.6,0.3-3.6,2.3V40z"/>
</g>
<rect id="XMLID_64_" x="46.6" y="41.2" fill="#21356B" width="3.7" height="14.5"/>
<g id="XMLID_62_">
	<path id="XMLID_63_" fill="#21356B" d="M75.7,41.1c-1.9,0-4.4,1-5.9,1.6v-7.3c-1.8-0.2-3.6,0.3-3.6,2.3v18h3.6V45.7
		c1.6-0.6,3.5-1.3,4.8-1.3c1.1,0,1.7,0.7,1.7,1.6v9.7h3.6v-9.9C79.9,42.8,78.8,41.1,75.7,41.1"/>
</g>
<rect id="XMLID_61_" x="27.6" y="41.2" fill="#21356B" width="3.6" height="14.5"/>
<g id="XMLID_53_">
	<path id="XMLID_60_" fill="#21356B" d="M39.5,44.1H42c1.9,0,2.6-0.9,2.4-2.9h-5v-4.9c-1.8-0.2-3.6,0.3-3.6,2.3v2.6h-2.7v2.9h2.7
		v6.6c0,3.6,1.5,5.2,5.3,5.2c1.2,0,2.1-0.1,3.1-0.2l-0.1-2.9c-0.7,0.1-1.7,0.1-2.5,0.1c-1.4,0-2.1-0.5-2.1-2V44.1z"/>
	<path id="XMLID_59_" fill="#21356B" d="M55.8,45.3c0-0.9,0.7-1.3,1.6-1.3c1.5,0,2.9,0.1,3.8,0.1c1.6,0.1,2.4-0.8,2.4-2.7
		c-1.1-0.1-3.6-0.3-5.7-0.3c-3.2,0-5.6,1.2-5.6,4.2c0,3.1,1.8,4,5,4.5c2.9,0.5,3.5,0.7,3.5,1.7c0,1.2-1.4,1.4-2.7,1.4
		c-1.9,0-4-0.1-5.3-0.2l-0.2,3c1.4,0.1,3.4,0.2,5.6,0.2c3.8,0,6.1-1.2,6.1-4.3c0-3-1.6-3.9-4.7-4.5C56.7,46.6,55.8,46.4,55.8,45.3"
		/>
	<path id="XMLID_58_" fill="#21356B" d="M104.3,44.3h-7.5c-0.2,2.2,0.5,3.1,2.4,3.1h1.3v5c-1,0.1-3.4,0.3-4.4,0.3
		c-3,0-4.1-1.2-4.1-7c0-5.7,0.9-7,5.6-6.7l3.2,0.2c2.1,0.1,2.9-1,2.9-2.9c-1.5-0.2-5.3-0.7-6.9-0.7c-6.9,0-8.7,2-8.7,10
		c0,7.9,2.2,10.2,7.9,10.2c2.1,0,6.2-0.4,8.3-0.9V44.3z"/>
	<path id="XMLID_57_" fill="#21356B" d="M125,45.3c0-0.9,0.7-1.3,1.6-1.3c1.5,0,2.9,0.1,3.8,0.1c1.6,0.1,2.4-0.8,2.4-2.7
		c-1.1-0.1-3.6-0.3-5.7-0.3c-3.2,0-5.6,1.2-5.6,4.2c0,3.1,1.8,4,5,4.5c2.9,0.5,3.5,0.7,3.5,1.7c0,1.2-1.4,1.4-2.7,1.4
		c-1.9,0-4-0.1-5.3-0.2l-0.2,3c1.4,0.1,3.4,0.2,5.6,0.2c3.8,0,6.1-1.2,6.1-4.3c0-3-1.6-3.9-4.7-4.5C125.9,46.6,125,46.4,125,45.3"/>
	<path id="XMLID_54_" fill="#21356B" d="M115.8,53.1c-0.9,0.1-2.8,0.2-4.3,0.2c-1.5,0-1.7-1-1.7-1.8c0-1.3,0.6-1.7,2.1-2
		c1.2-0.2,2.5-0.4,3.9-0.5V53.1z M119.4,45.8c0-3-1.2-4.6-4.9-4.6c-2.3,0-5.4,0.3-6.7,0.4c0,1.8,0.5,2.7,2.1,2.7
		c1.1,0,3.2-0.1,4.4-0.1c1.1,0,1.6,0.4,1.6,1.6v0.5c-1.6,0.1-3.1,0.3-4.5,0.5c-3.2,0.5-5.1,1.4-5.1,4.6c0,2.9,1.4,4.6,4.5,4.6
		c3.2,0,6.8-0.2,8.7-0.5V45.8z"/>
</g>
<g id="XMLID_50_">
	<defs>
		<path id="XMLID_51_" d="M122.1,7.3c0,0-4.9,1.7-7.6,4c-1.7,1.4-2.9,3.3-3.3,5.4c1.9-1,3.8-1.7,3.8-1.7l17.8-5.8
			c0,0,0.7,13.5-7.3,19.4c2.3-0.5,5-1.4,8-3.2C145.3,18.8,144.3,0,144.3,0L122.1,7.3z"/>
	</defs>
	<clipPath id="XMLID_2_">
		<use xlink:href="#XMLID_51_"  overflow="visible"/>
	</clipPath>
	
		<linearGradient id="XMLID_3_" gradientUnits="userSpaceOnUse" x1="-335.1192" y1="331.9216" x2="-334.276" y2="331.9216" gradientTransform="matrix(-10.8261 -23.2166 -23.2166 10.8261 4211.5732 -11348.1602)">
		<stop  offset="0" style="stop-color:#2BACE2"/>
		<stop  offset="0.4207" style="stop-color:#1877BB"/>
		<stop  offset="0.8" style="stop-color:#0751A0"/>
		<stop  offset="0.8608" style="stop-color:#1F4799"/>
		<stop  offset="0.9441" style="stop-color:#2B3B92"/>
		<stop  offset="1" style="stop-color:#2E368F"/>
	</linearGradient>
	<polygon id="XMLID_52_" clip-path="url(#XMLID_2_)" fill="url(#XMLID_3_)" points="117.3,41.6 100.3,5.1 139.2,-13 156.2,23.5 	"/>
</g>
<g id="XMLID_47_">
	<defs>
		<path id="XMLID_48_" d="M109,18.1c-1.8,1.5-2.8,3.7-2.8,6.1c0,4.5,4,8.1,8.9,8.1l0,0c2.4,0.1,5.4-0.7,9.2-2.8
			c0.5-0.3,0.9-0.6,1.4-0.9c-1.2,0.2-2.4,0.3-3.4,0.3v0c-6.1,0-11.1-4.5-11.1-10.1c0-0.7,0.1-1.5,0.2-2.2
			C110.4,17.1,109.6,17.6,109,18.1"/>
	</defs>
	<clipPath id="XMLID_4_">
		<use xlink:href="#XMLID_48_"  overflow="visible"/>
	</clipPath>
	
		<linearGradient id="XMLID_5_" gradientUnits="userSpaceOnUse" x1="-363.8696" y1="325.9442" x2="-363.0262" y2="325.9442" gradientTransform="matrix(20.6304 11.9109 11.9109 -20.6304 3731.9844 11078.0479)">
		<stop  offset="0" style="stop-color:#D6E042"/>
		<stop  offset="0.294" style="stop-color:#97B543"/>
		<stop  offset="0.6271" style="stop-color:#5C9642"/>
		<stop  offset="0.872" style="stop-color:#2C8541"/>
		<stop  offset="1" style="stop-color:#048040"/>
	</linearGradient>
	<polygon id="XMLID_49_" clip-path="url(#XMLID_4_)" fill="url(#XMLID_5_)" points="111,8.2 132.3,20.5 120.7,40.8 99.3,28.4 	"/>
</g>
</svg>
