<svg xmlns="http://www.w3.org/2000/svg" xmlns:xlink="http://www.w3.org/1999/xlink" width="344" height="564" viewBox="0 0 344 564"><defs><linearGradient id="linear-gradient" x1="0.5" x2="0.5" y2="0.426" gradientUnits="objectBoundingBox"><stop offset="0" stop-color="#bbd6e2"></stop><stop offset="1" stop-color="#edcec7"></stop></linearGradient><linearGradient id="linear-gradient-2" x1="0.5" x2="0.5" y2="1" gradientUnits="objectBoundingBox"><stop offset="0" stop-color="#2a6680"></stop><stop offset="0.502" stop-color="#3992b7"></stop><stop offset="1" stop-color="#bbd6e2"></stop></linearGradient><clipPath id="clip-our-movement-bground"><rect width="344" height="564"></rect></clipPath></defs><g id="our-movement-bground" clip-path="url(#clip-our-movement-bground)"><rect width="344" height="564" fill="#fff"></rect><path id="background-sky" d="M-22.892-158.118H383.662L375,450H0Z" transform="translate(1.855 135.093)" fill="url(#linear-gradient)"></path><path id="curve-4" d="M0,450.83c1.727-.456,3.48-.948,5.211-1.464a161.965,161.965,0,0,0,17.731-6.423,154.364,154.364,0,0,0,16.2-8.141,155.4,155.4,0,0,0,14.787-9.732A163.817,163.817,0,0,0,67.41,413.864c4.2-3.883,8.33-8.108,12.279-12.551,3.82-4.3,7.583-8.935,11.187-13.78,3.473-4.667,6.906-9.673,10.2-14.881,3.171-5.007,6.311-10.344,9.332-15.861,2.887-5.275,5.77-10.9,8.566-16.721,5.163-10.744,10.159-22.363,15.275-35.523,9.545-24.553,17.979-50.644,26.135-75.874l.019-.056.005-.017v0l.148-.46.005-.014,0-.01c4.522-13.99,9.2-28.457,14.023-42.549,2.593-7.572,5.008-14.4,7.384-20.864,2.673-7.275,5.232-13.936,7.826-20.363,2.783-6.89,5.615-13.517,8.418-19.689,3-6.6,6.079-12.946,9.155-18.853,3.262-6.26,6.639-12.265,10.043-17.849,3.576-5.871,7.3-11.482,11.076-16.68,3.938-5.427,8.064-10.588,12.257-15.341a179.207,179.207,0,0,1,13.59-13.836,161.17,161.17,0,0,1,15.066-12.165A153.018,153.018,0,0,1,286.1,19.594a154.958,154.958,0,0,1,18.467-8.32A166.551,166.551,0,0,1,324.957,5.12a189.881,189.881,0,0,1,22.457-3.811A226.522,226.522,0,0,1,372.089,0c6.152,0,12.563.232,19.058.691,6.553.462,13.388,1.173,20.315,2.113v4.17h85V450.625h-85v.2Z" transform="translate(-18.526 -4.906)" fill="url(#linear-gradient-2)"></path><path id="curve-3" d="M7.372.008l-7.2,188.32L738.851,189l-.013-13.7S587.045-87.039,372.715,72.8,7.372.008,7.372.008Z" transform="translate(-218.93 356.482) rotate(-11)" fill="#5891aa"></path><path id="Union_39" d="M6171.976-3434.146,6169-3541.83l-13.689-66.517s3.678,6.536,12.244,14.169l-.625-22.65s9.455,27.7,44.233,43.846c35.126,7.2,89.254.437,169-49.8,172.036-108.376,255.892-7.494,255.892-7.494l20.052,113.725-11.931,2.1v80.3Z" transform="translate(-6220.199 4019.24)" fill="#286984"></path></g></svg>