<svg xmlns="http://www.w3.org/2000/svg" xmlns:xlink="http://www.w3.org/1999/xlink" width="344" height="564" viewBox="0 0 344 564"><defs><linearGradient id="linear-gradient" x1="0.5" y1="0.145" x2="0.5" y2="1" gradientUnits="objectBoundingBox"><stop offset="0" stop-color="#54a0c0"></stop><stop offset="0.399" stop-color="#7ebac2"></stop><stop offset="1" stop-color="#f8f2f2"></stop></linearGradient><linearGradient id="linear-gradient-2" x1="0.057" y1="0.015" x2="0.532" y2="0.483" gradientUnits="objectBoundingBox"><stop offset="0" stop-color="#4885a1"></stop><stop offset="0.771" stop-color="#53a3b8" stop-opacity="0"></stop><stop offset="1" stop-color="#faf3f2" stop-opacity="0"></stop></linearGradient><clipPath id="clip-our-mission-backgorund"><rect width="344" height="564"></rect></clipPath></defs><g id="our-mission-backgorund" clip-path="url(#clip-our-mission-backgorund)"><rect width="344" height="564" fill="#fff"></rect><g id="Group_1554" transform="translate(-36.341 -630.966)"><rect id="Rectangle_2421" width="375.001" height="565.358" rx="5" transform="translate(21.341 631)" fill="url(#linear-gradient)"></rect></g><g id="Group_1589" transform="translate(-21.341 -632.358)"><rect id="Rectangle_2421-2" width="375.001" height="565.358" rx="5" transform="translate(21.341 631)" fill="url(#linear-gradient-2)"></rect></g><g id="Group_1590" transform="translate(-15 -578.393)"><g id="Group_1555" transform="translate(-0.646 14.537)" opacity="0.275"><path id="Path_2185" d="M-141.474-12561.563c-.556-.7,1.577-2.791,2.844-2.791s2.934,2.094,2.223,2.791S-140.918-12560.866-141.474-12561.563Z" transform="translate(456 13169)" fill="#fff"></path><path id="Path_2186" d="M-141.523-12562.49c-.254-.465.72-1.865,1.3-1.865s1.339,1.4,1.015,1.865S-141.27-12562.023-141.523-12562.49Z" transform="translate(450.599 13160)" fill="#fff"></path><path id="Path_2187" d="M-140.141-12561.563c-.556-.7.244-2.791,1.511-2.791.423,0,1.1-.4,1.534.781.783-.893.825,1.545.351,2.01l-1.885-.381Z" transform="translate(464 13157.793)" fill="#fff" opacity="0.775"></path><path id="Path_2188" d="M-141.474-12561.563c-.556-.7,1.577-2.791,2.844-2.791s2.934,2.094,2.223,2.791S-140.918-12560.866-141.474-12561.563Z" transform="translate(178.228 13295.099)" fill="#fff"></path><path id="Path_2189" d="M-141.523-12562.49c-.254-.465.72-1.865,1.3-1.865s1.339,1.4,1.015,1.865S-141.27-12562.023-141.523-12562.49Z" transform="translate(195.599 13265.099)" fill="#fff"></path><path id="Path_2190" d="M-140.141-12561.563c-.556-.7.244-2.791,1.511-2.791.423,0,1.1-.4,1.534.781.783-.893.825,1.545.351,2.01l-1.885-.381Z" transform="translate(209 13262.892)" fill="#fff" opacity="0.66"></path><path id="Path_2191" d="M-141.474-12561.563c-.556-.7,1.577-2.791,2.844-2.791s2.934,2.094,2.223,2.791S-140.918-12560.866-141.474-12561.563Z" transform="translate(175.565 13200.099)" fill="#fff"></path><path id="Path_2192" d="M-141.474-12561.563c-.556-.7,1.577-2.791,2.844-2.791s2.934,2.094,2.223,2.791S-140.918-12560.866-141.474-12561.563Z" transform="translate(453.336 13267.313)" fill="#fff"></path><path id="Path_2193" d="M-141.474-12561.563c-.556-.7,1.577-2.791,2.844-2.791s2.934,2.094,2.223,2.791S-140.918-12560.866-141.474-12561.563Z" transform="translate(334.43 13142.313)" fill="#fff" opacity="0.542"></path></g><g id="Group_1555-2" transform="translate(254.354 -129.463)" opacity="0.275"><path id="Path_2185-2" d="M-141.474-12561.563c-.556-.7,1.577-2.791,2.844-2.791s2.934,2.094,2.223,2.791S-140.918-12560.866-141.474-12561.563Z" transform="translate(456 13169)" fill="#fff"></path><path id="Path_2186-2" d="M-141.523-12562.49c-.254-.465.72-1.865,1.3-1.865s1.339,1.4,1.015,1.865S-141.27-12562.023-141.523-12562.49Z" transform="translate(450.599 13160)" fill="#fff"></path><path id="Path_2187-2" d="M-140.141-12561.563c-.556-.7.244-2.791,1.511-2.791.423,0,1.1-.4,1.534.781.783-.893.825,1.545.351,2.01l-1.885-.381Z" transform="translate(464 13157.793)" fill="#fff" opacity="0.775"></path><path id="Path_2188-2" d="M-141.474-12561.563c-.556-.7,1.577-2.791,2.844-2.791s2.934,2.094,2.223,2.791S-140.918-12560.866-141.474-12561.563Z" transform="translate(178.228 13295.099)" fill="#fff"></path><path id="Path_2189-2" d="M-141.523-12562.49c-.254-.465.72-1.865,1.3-1.865s1.339,1.4,1.015,1.865S-141.27-12562.023-141.523-12562.49Z" transform="translate(195.599 13265.099)" fill="#fff"></path><path id="Path_2190-2" d="M-140.141-12561.563c-.556-.7.244-2.791,1.511-2.791.423,0,1.1-.4,1.534.781.783-.893.825,1.545.351,2.01l-1.885-.381Z" transform="translate(209 13262.892)" fill="#fff" opacity="0.66"></path><path id="Path_2191-2" d="M-141.474-12561.563c-.556-.7,1.577-2.791,2.844-2.791s2.934,2.094,2.223,2.791S-140.918-12560.866-141.474-12561.563Z" transform="translate(175.565 13200.099)" fill="#fff"></path><path id="Path_2192-2" d="M-141.474-12561.563c-.556-.7,1.577-2.791,2.844-2.791s2.934,2.094,2.223,2.791S-140.918-12560.866-141.474-12561.563Z" transform="translate(453.336 13267.313)" fill="#fff"></path><path id="Path_2193-2" d="M-141.474-12561.563c-.556-.7,1.577-2.791,2.844-2.791s2.934,2.094,2.223,2.791S-140.918-12560.866-141.474-12561.563Z" transform="translate(334.43 13142.313)" fill="#fff" opacity="0.542"></path></g></g></g></svg>