<svg xmlns="http://www.w3.org/2000/svg" xmlns:xlink="http://www.w3.org/1999/xlink" width="2000" height="1000" viewBox="0 0 2000 1000"><defs><linearGradient id="linear-gradient" x1="0.5" x2="0.5" y2="0.426" gradientUnits="objectBoundingBox"><stop offset="0" stop-color="#bbd6e2"></stop><stop offset="1" stop-color="#edcec7"></stop></linearGradient><linearGradient id="linear-gradient-2" x1="0.5" x2="0.5" y2="1" gradientUnits="objectBoundingBox"><stop offset="0" stop-color="#2a6680"></stop><stop offset="0.502" stop-color="#3992b7"></stop><stop offset="1" stop-color="#bbd6e2"></stop></linearGradient><clipPath id="clip-our-movement-background-lg"><rect width="2000" height="1000"></rect></clipPath></defs><g id="our-movement-background-lg" clip-path="url(#clip-our-movement-background-lg)"><rect width="2000" height="1000" fill="#fff"></rect><path id="background-sky" d="M-22.892-158.118h1903.3l-40.547,1625.789H84.277Z" transform="translate(-55.955 -78.428)" fill="url(#linear-gradient)"></path><path id="curve-3" d="M2074.633,1158.408ZM0,1158.407c8.709-1.17,17.551-2.433,26.279-3.758,30.7-4.667,60.782-10.221,89.4-16.506,28.015-6.152,55.5-13.19,81.7-20.917,25.525-7.527,50.608-15.941,74.555-25.008,23.282-8.819,46.145-18.505,67.955-28.789,21.168-9.981,42-20.832,61.909-32.253,19.26-11.049,38.238-22.96,56.407-35.4,17.51-11.993,34.821-24.858,51.452-38.239,15.987-12.865,31.817-26.578,47.052-40.758,14.559-13.553,29.091-28.007,43.19-42.963a1135.971,1135.971,0,0,0,77.021-91.277c48.121-63.091,90.647-130.129,131.774-194.959l.094-.148.026-.041.009-.014.746-1.175.028-.042.016-.024c22.8-35.947,46.372-73.117,70.7-109.329,13.075-19.456,25.254-36.992,37.232-53.612,13.471-18.695,26.38-35.808,39.46-52.32,14.031-17.707,28.31-34.73,42.438-50.594,15.116-16.965,30.648-33.264,46.164-48.442,16.443-16.086,33.478-31.516,50.634-45.863,18.036-15.085,36.827-29.5,55.848-42.858,19.862-13.942,40.658-27.2,61.807-39.416,21.99-12.695,45.042-24.656,68.516-35.553,24.3-11.278,49.858-21.8,75.968-31.257,26.913-9.752,55.23-18.682,84.166-26.538,29.79-8.086,61.117-15.281,93.109-21.382,32.851-6.27,67.437-11.589,102.8-15.807,36.217-4.321,74.316-7.617,113.237-9.8C1791.486,1.132,1833.347,0,1876.113,0c31.012,0,63.341.6,96.085,1.775,33.046,1.189,67.511,3.016,102.435,5.433V516.286h428.6v641.593h-428.6v.528H0Z" transform="matrix(1, -0.017, 0.017, 1, 81.77, -398.758)" fill="url(#linear-gradient-2)"></path><path id="curve-2" d="M13542.33,1403.805s238.208,508.17,1102.8,166.773,1059.565,110,1059.565,110v421.741H13559.834Z" transform="translate(-13453.684 2989.184) rotate(-16)" fill="#5891aa" opacity="0.995"></path><path id="curve-1" d="M-13075-17046.471s293.65,437.006,1113.352,18.547,1064.055-28.246,1064.055-28.246l47.493,386.771-106.3,13.053v116.875h-951.858L-12978.97-16408Z" transform="translate(12956.4 17583.471)" fill="#286984" opacity="0.995"></path></g></svg>