<svg xmlns="http://www.w3.org/2000/svg" xmlns:xlink="http://www.w3.org/1999/xlink" width="400" height="400" viewBox="0 0 400 400"><defs><clipPath id="clip-quote"><rect width="400" height="400"></rect></clipPath></defs><g id="quote" clip-path="url(#clip-quote)"><path id="Path_2207" d="M93.482,44.055l31.11-119H62.372L21.151,35.5c-14,35.777-17.111,49-17.111,66.887,0,37.332,26.444,63.776,63.776,63.776,35,0,62.221-25.666,62.221-63.776C130.037,73.61,116.037,53.388,93.482,44.055Zm164.885,0,31.11-119H227.257L186.036,35.5c-14,35.777-17.111,49-17.111,66.887,0,37.332,26.444,63.776,63.776,63.776,35,0,62.221-25.666,62.221-63.776C294.922,73.61,280.922,53.388,258.367,44.055Z" transform="translate(50.96 153.942)" fill="#770f00"></path></g></svg>