<svg xmlns="http://www.w3.org/2000/svg" xmlns:xlink="http://www.w3.org/1999/xlink" width="2560" height="1080" viewBox="0 0 2560 1080">
  <defs>
    <linearGradient id="linear-gradient" x1="0.5" x2="0.5" y2="1" gradientUnits="objectBoundingBox">
      <stop offset="0" stop-color="#2a6680"/>
      <stop offset="0.502" stop-color="#3992b7"/>
      <stop offset="1" stop-color="#bbd6e2"/>
    </linearGradient>
    <clipPath id="clip-splash-screen-background">
      <rect width="2560" height="1080"/>
    </clipPath>
  </defs>
  <g id="splash-screen-background" clip-path="url(#clip-splash-screen-background)">
    <rect id="background-pink" width="2560" height="1080" fill="#f7e8e3"/>
    <path id="sky-dk-blue" d="M6385,8266.965V8106.859h687.795q13.907-3.016,27.358-6.353c22.385-5.554,44.352-11.909,65.286-18.886,20.394-6.794,40.437-14.389,59.573-22.576,18.6-7.964,36.873-16.708,54.3-25.992,16.917-9.009,33.559-18.808,49.469-29.117,15.391-9.976,30.556-20.729,45.072-31.962,13.992-10.827,27.825-22.441,41.115-34.522,12.774-11.615,25.423-23.994,37.6-36.8,11.635-12.235,23.247-25.284,34.513-38.786a1005.462,1005.462,0,0,0,61.544-82.406c38.451-56.957,72.433-117.478,105.3-176.006l.075-.135.02-.036.007-.012.6-1.062.022-.039.014-.02c18.216-32.452,37.054-66.008,56.5-98.7,10.447-17.565,20.178-33.4,29.75-48.4,10.765-16.879,21.08-32.329,31.532-47.233,11.211-15.989,22.62-31.356,33.909-45.679,12.08-15.316,24.49-30.028,36.888-43.731,13.138-14.522,26.75-28.454,40.459-41.4,14.412-13.62,29.425-26.639,44.625-38.695,15.871-12.585,32.486-24.558,49.388-35.583,17.571-11.461,35.991-22.259,54.749-32.1,19.416-10.182,39.839-19.676,60.7-28.217,21.5-8.807,44.133-16.867,67.253-23.958,23.8-7.3,48.837-13.8,74.4-19.306,26.249-5.659,53.886-10.459,82.141-14.271,28.94-3.9,59.383-6.876,90.484-8.841,31.793-2.014,65.244-3.038,99.415-3.038,24.782,0,50.614.539,76.779,1.6,26.4,1.075,53.944,2.724,81.853,4.9v9.674h342.473V8118.323H8944.5v148.642Z" transform="translate(-6384.5 -7183.464)" fill="url(#linear-gradient)"/>
    <path id="hill-shadow" d="M13370.328,1647.652s512.975,398.6,1189.395-132.48,1265.545,83.387,1265.545,83.387v545.055L13558,2139.174Z" transform="translate(-13209.301 -953.292)" fill="#4a7f76" opacity="0.591"/>
    <path id="hill-front" d="M13398.09,1596.251s14.979-8.234,24.482,0c83.342,72.208,565.473,377.034,1173.624-99.875,621.7-487.53,1195.288-47.133,1242.5,31.782,4.053,6.773,0,174.946,0,174.946v407.731l-308.216,28.338H13558.128Z" transform="translate(-13246.17 -901.792)" fill="#6db2ca" opacity="0.621"/>
    <path id="foreground-curve-white" d="M13314.5,1284.528s356.72,665.074,1297.3,296.564,1468.515,280.543,1468.515,280.543v221.17H13314.5Z" transform="translate(-13314.497 -795.784)" fill="#fff" opacity="0.999"/>
  </g>
</svg>
