<svg xmlns="http://www.w3.org/2000/svg" width="102.539" height="100">
  <path d="M28.288 41.857v16.167h-3.003v-13.65h-3.418v-2.517zM36.553 48.116q3.418 0 5.058 1.34 1.64 1.316 1.64 3.602 0 1.455-.716 2.633t-2.148 1.871q-1.432.693-3.534.693-1.732 0-3.349-.485-1.616-.508-2.725-1.386l1.27-2.333q.9.74 2.148 1.178 1.27.416 2.61.416 1.594 0 2.494-.647.924-.67.924-1.824 0-1.247-.993-1.871-.97-.647-3.349-.647H31.98l.831-8.8h9.493v2.518h-6.952l-.346 3.742zM49.671 58.186q-1.501 0-2.933-.393t-2.286-.993l1.108-2.194q.832.554 1.986.9 1.178.324 2.31.324 2.587 0 2.587-1.363 0-.647-.67-.9-.647-.255-2.102-.486-1.524-.23-2.494-.53-.947-.301-1.663-1.04-.693-.762-.693-2.102 0-1.755 1.455-2.795 1.478-1.062 3.973-1.062 1.27 0 2.54.3 1.27.277 2.079.762l-1.109 2.195q-1.57-.924-3.533-.924-1.27 0-1.94.392-.647.37-.647.993 0 .693.693.994.716.277 2.194.53 1.478.232 2.425.532.947.3 1.617 1.016.693.716.693 2.033 0 1.732-1.502 2.771-1.5 1.04-4.088 1.04zM69.364 51.927q0 .3-.046.854H59.64q.254 1.363 1.317 2.171 1.085.785 2.679.785 2.032 0 3.349-1.34l1.547 1.78q-.831.992-2.101 1.5-1.27.509-2.864.509-2.033 0-3.58-.809-1.548-.808-2.402-2.24-.832-1.455-.832-3.28 0-1.801.809-3.233.831-1.455 2.286-2.264 1.455-.808 3.28-.808 1.801 0 3.21.808 1.432.786 2.217 2.24.809 1.433.809 3.327zm-6.236-4.065q-1.386 0-2.356.831-.947.808-1.155 2.171h6.998q-.184-1.34-1.131-2.17-.947-.832-2.356-.832zM77.773 58.186q-1.917 0-3.441-.809-1.525-.808-2.38-2.24-.854-1.455-.854-3.28 0-1.824.855-3.256.854-1.432 2.356-2.24 1.524-.809 3.464-.809 1.825 0 3.187.74 1.386.738 2.079 2.124l-2.217 1.293q-.531-.854-1.34-1.27Q78.697 48 77.75 48q-1.617 0-2.68 1.063-1.062 1.039-1.062 2.794 0 1.756 1.04 2.818 1.062 1.04 2.702 1.04.947 0 1.732-.416.809-.44 1.34-1.294l2.217 1.294q-.716 1.385-2.102 2.148-1.362.739-3.164.739z"/>
  <path d="M52.539 0a50 50 0 0 0-50 50 50 50 0 0 0 .06 1.218l12.476-.203A37.5 37.5 0 0 1 15.039 50a37.5 37.5 0 0 1 37.5-37.5 37.5 37.5 0 0 1 37.5 37.5 37.5 37.5 0 0 1-37.5 37.5 37.5 37.5 0 0 1-31.316-16.906l8.444-1.597-20.045-11.76L0 74.609l8.25-1.56A50 50 0 0 0 52.54 100a50 50 0 0 0 50-50 50 50 0 0 0-50-50z"/>
</svg>
