<svg xmlns="http://www.w3.org/2000/svg" viewBox="0 0 100 87.413">
  <g font-weight="400" font-size="23.998" font-family="Montserrat ExtraBold" letter-spacing="0" word-spacing="0" stroke-width=".6">
    <g aria-label="GOOD" style="line-height:1.25;-inkscape-font-specification:'Montserrat ExtraBold, '">
      <path d="M22.212 28.025h4.2v6.96q-1.44 1.031-3.313 1.583-1.871.552-3.743.552-2.64 0-4.752-1.104-2.112-1.128-3.312-3.12-1.2-1.992-1.2-4.511 0-2.52 1.2-4.512 1.2-1.992 3.336-3.096 2.136-1.128 4.824-1.128 2.352 0 4.223.792 1.872.792 3.12 2.28l-3.024 2.736q-1.703-1.872-4.08-1.872-2.16 0-3.48 1.32-1.319 1.296-1.319 3.48 0 1.392.6 2.495.6 1.08 1.68 1.704 1.08.6 2.472.6 1.368 0 2.568-.552zM37.895 37.12q-2.664 0-4.8-1.128-2.111-1.128-3.335-3.12-1.2-1.991-1.2-4.487t1.2-4.488q1.224-1.992 3.336-3.12 2.135-1.128 4.8-1.128 2.663 0 4.775 1.128 2.136 1.128 3.336 3.12 1.224 1.992 1.224 4.488 0 2.496-1.224 4.487-1.2 1.992-3.336 3.12-2.112 1.128-4.776 1.128zm0-3.936q1.272 0 2.304-.6 1.032-.6 1.632-1.68.6-1.103.6-2.52 0-1.415-.6-2.495-.6-1.104-1.632-1.704-1.032-.6-2.304-.6-1.272 0-2.304.6-1.032.6-1.631 1.704-.6 1.08-.6 2.496t.6 2.52q.6 1.08 1.631 1.68 1.032.6 2.304.6zM58.19 37.12q-2.663 0-4.799-1.128-2.112-1.128-3.336-3.12-1.2-1.991-1.2-4.487t1.2-4.488q1.224-1.992 3.336-3.12 2.136-1.128 4.8-1.128 2.664 0 4.776 1.128 2.135 1.128 3.335 3.12 1.224 1.992 1.224 4.488 0 2.496-1.224 4.487-1.2 1.992-3.335 3.12-2.112 1.128-4.776 1.128zm0-3.936q1.273 0 2.305-.6 1.032-.6 1.632-1.68.6-1.103.6-2.52 0-1.415-.6-2.495-.6-1.104-1.632-1.704-1.032-.6-2.304-.6-1.272 0-2.304.6-1.032.6-1.632 1.704-.6 1.08-.6 2.496t.6 2.52q.6 1.08 1.632 1.68 1.032.6 2.304.6zM70.015 19.985h7.943q2.76 0 4.896 1.032t3.312 2.928q1.176 1.896 1.176 4.44 0 2.544-1.176 4.44-1.176 1.895-3.312 2.927t-4.896 1.032h-7.943zm7.751 13.007q2.16 0 3.456-1.223 1.32-1.224 1.32-3.384T81.222 25q-1.296-1.224-3.456-1.224h-3v9.215z"/>
    </g>
    <g aria-label="GOOD" style="line-height:1.25;-inkscape-font-specification:'Montserrat ExtraBold, '" fill="#a71a00">
      <path d="M23.04 27.255h4.2v6.96q-1.44 1.032-3.312 1.584-1.872.552-3.744.552-2.64 0-4.751-1.104-2.112-1.128-3.312-3.12-1.2-1.992-1.2-4.512 0-2.52 1.2-4.511 1.2-1.992 3.336-3.096 2.136-1.128 4.823-1.128 2.352 0 4.224.792 1.872.792 3.12 2.28L24.6 24.687q-1.704-1.871-4.08-1.871-2.16 0-3.48 1.32-1.32 1.295-1.32 3.48 0 1.391.6 2.495.6 1.08 1.68 1.704 1.08.6 2.472.6 1.368 0 2.568-.552zM38.724 36.35q-2.664 0-4.8-1.127-2.112-1.128-3.335-3.12-1.2-1.992-1.2-4.488 0-2.496 1.2-4.488 1.223-1.991 3.335-3.12 2.136-1.127 4.8-1.127 2.664 0 4.776 1.128 2.136 1.128 3.336 3.12 1.223 1.991 1.223 4.487t-1.223 4.488q-1.2 1.992-3.336 3.12-2.112 1.128-4.776 1.128zm0-3.935q1.272 0 2.304-.6 1.032-.6 1.632-1.68.6-1.104.6-2.52t-.6-2.496q-.6-1.104-1.632-1.704-1.032-.6-2.304-.6-1.272 0-2.304.6-1.032.6-1.632 1.704-.6 1.08-.6 2.496t.6 2.52q.6 1.08 1.632 1.68 1.032.6 2.304.6zM59.02 36.35q-2.664 0-4.8-1.127-2.112-1.128-3.336-3.12-1.2-1.992-1.2-4.488 0-2.496 1.2-4.488 1.224-1.991 3.336-3.12 2.136-1.127 4.8-1.127 2.663 0 4.775 1.128 2.136 1.128 3.336 3.12 1.224 1.991 1.224 4.487t-1.224 4.488q-1.2 1.992-3.336 3.12-2.112 1.128-4.775 1.128zm0-3.935q1.272 0 2.303-.6 1.032-.6 1.632-1.68.6-1.104.6-2.52t-.6-2.496q-.6-1.104-1.632-1.704-1.031-.6-2.303-.6t-2.304.6q-1.032.6-1.632 1.704-.6 1.08-.6 2.496t.6 2.52q.6 1.08 1.632 1.68 1.032.6 2.304.6zM70.844 19.216h7.943q2.76 0 4.896 1.032t3.312 2.927q1.176 1.896 1.176 4.44 0 2.544-1.176 4.44-1.176 1.896-3.312 2.928t-4.896 1.032h-7.943zm7.751 13.007q2.16 0 3.456-1.224 1.32-1.224 1.32-3.384t-1.32-3.384q-1.296-1.224-3.456-1.224h-3v9.216z"/>
    </g>
  </g>
  <g color="#000" font-weight="400" font-family="sans-serif">
    <path d="M36.577.084a.72.72 0 00-.728.711c-.035 1.301-.086 2.582-.113 3.809a4.196 4.196 0 00-1.41-.13c-.593.055-1.106.257-1.51.58-.806.648-1.114 1.656-1.025 2.578.09.922.612 1.859 1.585 2.214.771.28 1.695.148 2.7-.427a.72.72 0 001.208-.605c-.235-2.111-.076-4.978.004-7.981a.72.72 0 00-.711-.75zm11.26 1.876a.851.851 0 00-.85.852.851.851 0 00.85.85.851.851 0 00.852-.85.851.851 0 00-.851-.852zm-5.384 1.106a3.06 3.06 0 00-.28.018 4.29 4.29 0 00-1.198.333 2.985 2.985 0 00-1.721 1.966 3.473 3.473 0 00.199 2.343c.322.706.913 1.326 1.74 1.479.826.152 1.732-.23 2.517-1.078.99-1.069 1.345-2.496.895-3.66a2.17 2.17 0 00-1.368-1.296 2.495 2.495 0 00-.784-.105zm18.878.33c-.433.013-.836.177-1.167.396a3.765 3.765 0 00-1.072 1.115c-.275.428-.474.884-.545 1.358-.07.474.009 1.096.517 1.453.51.356 1.124.282 1.772.041.427-.159 1.024-.579 1.584-.94.08.308.18.424.242.83.033.217.028.374.048.572-2.16.507-3.407 1.25-3.89 2.27a1.986 1.986 0 00-.006 1.69c.236.493.644.862 1.12 1.1.951.475 2.294.419 3.217-.553.738-.779 1.125-2.05 1.055-3.862a.72.72 0 00-.027-.321c-.024-.362-.032-.707-.094-1.112-.184-1.217-.456-2.102-.828-2.758-.372-.657-.889-1.105-1.485-1.237a1.794 1.794 0 00-.441-.041zm-6.299.466c-.052 0-.104.004-.155.01-.563.062-1.05.359-1.454.804-.276-.426-.714-.719-1.176-.791-1.017-.16-1.98.586-2.305 1.71a.72.72 0 101.382.4c.167-.575.557-.71.7-.688.07.011.124.023.209.18.084.158.17.488.112 1.027a.72.72 0 00.026.28 7.012 7.012 0 00-.175 1.822.72.72 0 101.44-.043c-.032-1.077.212-1.924.533-2.48.32-.556.716-.774.867-.79.075-.009.095-.005.154.041s.158.163.24.417c.165.508.212 1.527-.14 3.054a.72.72 0 101.403.324c.388-1.68.403-2.909.108-3.822-.148-.456-.385-.842-.727-1.109-.299-.233-.677-.35-1.042-.346zm-12.558.645c.14-.004.253.013.34.04.235.072.354.196.448.44.188.486.039 1.463-.608 2.161-.577.624-.956.686-1.2.641-.244-.045-.51-.265-.692-.662a2.125 2.125 0 01-.12-1.367c.12-.44.368-.793.897-1.019.314-.134.574-.2.785-.224a1.66 1.66 0 01.15-.01zm5.219.183a.72.72 0 00-.707.479c-.254.685-.12 1.328-.016 1.875.106.547.196 1.024.146 1.37a.72.72 0 101.425.205c.102-.707-.058-1.332-.157-1.847-.099-.515-.126-.894-.048-1.103a.72.72 0 00-.643-.979zm13.67.145a.388.388 0 01.097.01c.12.026.304.116.544.539l.006.017c-.685.474-1.318.875-1.676 1.008a1.59 1.59 0 01-.366.096l.003-.028c.028-.19.147-.505.331-.79.184-.286.432-.546.655-.694.168-.11.3-.154.405-.158zM34.606 5.882c.296-.003.661.06 1.112.22.001.626.015 1.232.048 1.81-.957.678-1.567.701-1.897.58-.357-.13-.596-.5-.644-.999-.048-.499.131-1.026.492-1.316.203-.163.482-.29.89-.295zm28.15 3.816c-.07 1.049-.342 1.715-.65 2.04-.473.498-1.07.485-1.528.255-.23-.114-.395-.286-.465-.433-.07-.147-.086-.256.007-.452.16-.336.926-.948 2.635-1.41z" style="line-height:normal;font-variant-ligatures:normal;font-variant-position:normal;font-variant-caps:normal;font-variant-numeric:normal;font-variant-alternates:normal;font-feature-settings:normal;text-indent:0;text-align:start;text-decoration-line:none;text-decoration-style:solid;text-decoration-color:#000;text-transform:none;text-orientation:mixed;white-space:normal;shape-padding:0;isolation:auto;mix-blend-mode:normal;solid-color:#000;solid-opacity:1" overflow="visible"/>
    <path style="line-height:normal;font-variant-ligatures:normal;font-variant-position:normal;font-variant-caps:normal;font-variant-numeric:normal;font-variant-alternates:normal;font-feature-settings:normal;text-indent:0;text-align:start;text-decoration-line:none;text-decoration-style:solid;text-decoration-color:#000;text-transform:none;text-orientation:mixed;white-space:normal;shape-padding:0;isolation:auto;mix-blend-mode:normal;solid-color:#000;solid-opacity:1" d="M36.995 0a.72.72 0 00-.727.711c-.035 1.301-.086 2.582-.113 3.81a4.196 4.196 0 00-1.41-.13c-.594.054-1.107.256-1.51.58-.806.647-1.114 1.655-1.025 2.577.089.922.611 1.86 1.585 2.214.77.281 1.695.148 2.7-.427a.72.72 0 001.207-.605c-.234-2.11-.075-4.978.005-7.98a.72.72 0 00-.712-.75zm11.261 1.877a.851.851 0 00-.85.85.851.851 0 00.85.852.851.851 0 00.852-.851.851.851 0 00-.852-.851zm-5.384 1.105a3.06 3.06 0 00-.28.019 4.29 4.29 0 00-1.199.333 2.985 2.985 0 00-1.72 1.965 3.473 3.473 0 00.198 2.343c.323.706.914 1.327 1.74 1.48.827.152 1.733-.231 2.518-1.08.99-1.067 1.344-2.495.895-3.659a2.17 2.17 0 00-1.368-1.296 2.495 2.495 0 00-.784-.105zm18.877.331c-.432.013-.835.177-1.166.395a3.765 3.765 0 00-1.072 1.116c-.276.427-.475.883-.546 1.357-.07.474.01 1.096.518 1.453.509.356 1.123.283 1.772.041.427-.159 1.024-.578 1.584-.94.079.309.18.424.242.83.032.217.028.375.048.572-2.16.507-3.407 1.25-3.89 2.27a1.986 1.986 0 00-.006 1.69c.236.494.644.862 1.12 1.1.95.476 2.294.42 3.216-.553.739-.778 1.126-2.049 1.055-3.862a.72.72 0 00-.027-.321c-.024-.362-.032-.706-.093-1.112-.185-1.217-.456-2.102-.828-2.758-.372-.656-.89-1.105-1.486-1.237a1.794 1.794 0 00-.44-.041zm-6.298.465c-.052.001-.104.004-.156.01-.562.062-1.05.359-1.453.805-.277-.427-.714-.72-1.177-.792-1.017-.16-1.979.587-2.305 1.71a.72.72 0 101.383.4c.167-.575.556-.71.699-.688.071.012.124.024.21.181.084.158.17.487.112 1.026a.72.72 0 00.025.281 7.012 7.012 0 00-.175 1.82.72.72 0 101.44-.041c-.032-1.078.213-1.924.534-2.48.32-.556.716-.774.867-.791.075-.008.095-.004.154.041.058.046.158.164.24.417.164.508.212 1.527-.141 3.054a.72.72 0 101.403.324c.388-1.679.404-2.909.109-3.821-.148-.457-.385-.843-.727-1.11-.3-.233-.678-.35-1.042-.346zm-12.559.645c.14-.003.254.014.341.04.234.072.354.196.448.44.188.486.039 1.463-.608 2.162-.578.623-.956.686-1.2.64-.245-.045-.511-.264-.693-.661a2.125 2.125 0 01-.119-1.367c.12-.44.367-.794.896-1.02.314-.134.575-.2.786-.224.053-.006.102-.01.15-.01zm5.22.183a.72.72 0 00-.707.479c-.254.685-.121 1.329-.016 1.876.105.547.195 1.023.145 1.37a.72.72 0 101.425.204c.102-.706-.057-1.332-.156-1.847-.1-.515-.126-.894-.049-1.103a.72.72 0 00-.642-.979zm13.67.146a.388.388 0 01.097.008c.119.027.304.117.544.54.002.003.003.014.005.018-.684.473-1.318.874-1.676 1.008a1.59 1.59 0 01-.366.096l.003-.029c.029-.19.148-.504.332-.79.184-.286.431-.546.655-.694.168-.11.3-.154.405-.157zM35.024 5.799c.296-.004.66.06 1.111.219.002.627.016 1.232.049 1.81-.958.679-1.567.701-1.898.581-.357-.13-.595-.5-.643-1-.049-.498.131-1.026.492-1.315.203-.163.482-.29.89-.295zm28.149 3.815c-.07 1.049-.341 1.715-.649 2.04-.474.499-1.07.485-1.529.256-.23-.115-.394-.286-.464-.434-.071-.147-.086-.255.007-.451.16-.337.925-.949 2.635-1.41z" overflow="visible" fill="#a71a00"/>
  </g>
  <g color="#000" font-weight="400" font-family="sans-serif">
    <path d="M36.132 42.636c-.123 0-.246.012-.367.035a1.88 1.88 0 00-.887.42c-.927.8-1.183 2.262-.832 4.39-.703.007-1.416.025-2.061.062a.72.72 0 10.084 1.437 44.063 44.063 0 012.181-.06c.034.506.059 1.13.09 1.7.027.464.057.884.144 1.254.043.186.078.363.257.589.09.113.241.248.459.306.217.058.454.01.606-.066a.72.72 0 00.07-1.257 7.521 7.521 0 01-.097-.907c-.029-.51-.039-1.08-.073-1.616.42.004.813.01 1.141.017a.72.72 0 10.029-1.44c-.385-.007-.863-.014-1.37-.018-.353-2.018.035-3.062.312-3.301.148-.127.256-.156.515-.08.26.076.635.314 1.008.753a.72.72 0 101.096-.932c-.505-.595-1.07-1.018-1.698-1.202a2.108 2.108 0 00-.607-.084zm19.055.016a.72.72 0 00-.722.849c.481 2.88-.163 5.178.444 7.803a.72.72 0 101.403-.324c-.509-2.197.106-4.527-.427-7.716a.72.72 0 00-.698-.612zm6.297 1.266a2.777 2.777 0 00-.453.046 3.897 3.897 0 00-2.006 1.07c-.523.52-.964 1.239-.687 2.044.139.403.472.728.872.921.4.193.878.29 1.47.32.626.032 1.017.224 1.23.428.212.203.279.41.248.665-.062.51-.69 1.34-2.426 1.611a.72.72 0 10.222 1.422c2.139-.334 3.468-1.493 3.633-2.86a2.242 2.242 0 00-.682-1.878c-.515-.492-1.26-.78-2.152-.826-.465-.023-.768-.106-.918-.179-.15-.072-.138-.099-.136-.092.005.013.028-.242.342-.554.314-.312.82-.596 1.254-.677.433-.08.716-.024.966.273a.72.72 0 101.1-.929c-.496-.59-1.208-.818-1.877-.805zm-19.535 1.798c-.415.01-.855.158-1.214.458-.821.688-1.207 1.957-1.146 4.022.027.889.612 1.746 1.61 2.146.997.399 2.353.171 3.71-1.003a.72.72 0 10-.942-1.089c-1.094.947-1.787.934-2.234.755-.447-.179-.7-.692-.704-.852-.005-.153.03-.199.032-.337a.72.72 0 00.05.003c.829.023 1.475-.066 1.998-.278.522-.212.932-.583 1.108-1.047.352-.928-.183-1.805-.87-2.31a2.335 2.335 0 00-1.222-.465 1.815 1.815 0 00-.176-.003zm7.536.029a2.337 2.337 0 00-1.584.676c-.74.727-1.111 1.965-.941 3.778.079.845.638 1.696 1.627 2.098.99.4 2.334.173 3.69-1a.72.72 0 10-.943-1.089c-1.096.948-1.767.932-2.205.754-.438-.177-.717-.696-.736-.897-.012-.128.02-.174.014-.29a.72.72 0 00.24-.013c1.65-.352 2.613-.898 2.917-1.811.153-.457.05-.957-.185-1.309a1.992 1.992 0 00-.956-.74 2.394 2.394 0 00-.938-.157zm-7.556 1.41a.65.65 0 01.097 0c.138.01.313.076.468.19.31.228.406.56.377.639-.015.039-.049.12-.304.223-.247.1-.71.18-1.37.167.136-.582.312-.97.462-1.096.099-.083.179-.116.27-.123zm7.614.022c.127-.001.249.024.359.067a.647.647 0 01.28.198c.034.05.027.023.017.054-.02.059-.44.505-1.722.811.107-.428.272-.701.433-.86a.91.91 0 01.633-.27z" style="line-height:normal;font-variant-ligatures:normal;font-variant-position:normal;font-variant-caps:normal;font-variant-numeric:normal;font-variant-alternates:normal;font-feature-settings:normal;text-indent:0;text-align:start;text-decoration-line:none;text-decoration-style:solid;text-decoration-color:#000;text-transform:none;text-orientation:mixed;white-space:normal;shape-padding:0;isolation:auto;mix-blend-mode:normal;solid-color:#000;solid-opacity:1" overflow="visible"/>
    <path style="line-height:normal;font-variant-ligatures:normal;font-variant-position:normal;font-variant-caps:normal;font-variant-numeric:normal;font-variant-alternates:normal;font-feature-settings:normal;text-indent:0;text-align:start;text-decoration-line:none;text-decoration-style:solid;text-decoration-color:#000;text-transform:none;text-orientation:mixed;white-space:normal;shape-padding:0;isolation:auto;mix-blend-mode:normal;solid-color:#000;solid-opacity:1" d="M36.593 42.636c-.123 0-.247.012-.368.035a1.88 1.88 0 00-.887.42c-.927.8-1.182 2.262-.832 4.39-.703.007-1.416.025-2.06.062a.72.72 0 10.083 1.437 44.063 44.063 0 012.182-.06c.033.506.058 1.13.09 1.7.026.464.056.884.143 1.254.043.186.079.363.258.589.09.113.24.248.458.306.218.058.454.01.606-.066a.72.72 0 00.07-1.257 7.521 7.521 0 01-.097-.907c-.028-.51-.038-1.08-.073-1.616.421.004.814.01 1.142.017a.72.72 0 10.028-1.44c-.384-.007-.862-.014-1.369-.018-.353-2.018.035-3.062.312-3.301.147-.127.256-.156.515-.08s.634.314 1.007.753a.72.72 0 101.097-.932c-.506-.595-1.071-1.018-1.698-1.202a2.108 2.108 0 00-.607-.084zm19.055.016a.72.72 0 00-.723.849c.482 2.88-.163 5.178.445 7.803a.72.72 0 101.402-.324c-.508-2.197.107-4.527-.426-7.716a.72.72 0 00-.698-.612zm6.296 1.266a2.777 2.777 0 00-.453.046 3.897 3.897 0 00-2.005 1.07c-.523.52-.965 1.239-.687 2.044.138.403.471.728.872.921.4.193.877.29 1.469.32.627.032 1.018.224 1.23.428.213.203.28.41.249.665-.062.51-.69 1.34-2.427 1.611a.72.72 0 10.223 1.422c2.138-.334 3.467-1.493 3.633-2.86a2.242 2.242 0 00-.683-1.878c-.514-.492-1.259-.78-2.152-.826-.464-.023-.767-.106-.917-.179-.15-.072-.139-.099-.136-.092.004.013.028-.242.341-.554.314-.312.821-.596 1.254-.677.433-.08.716-.024.966.273a.72.72 0 101.101-.929c-.497-.59-1.209-.818-1.878-.805zM42.41 45.716c-.415.01-.855.158-1.214.458-.82.688-1.207 1.957-1.145 4.022.026.889.612 1.746 1.609 2.146.997.399 2.353.171 3.71-1.003a.72.72 0 10-.942-1.089c-1.093.947-1.787.934-2.234.755-.446-.179-.699-.692-.704-.852-.004-.153.03-.199.032-.337a.72.72 0 00.05.003c.83.023 1.476-.066 1.998-.278.523-.212.933-.583 1.108-1.047.352-.928-.183-1.805-.87-2.31a2.335 2.335 0 00-1.222-.465 1.815 1.815 0 00-.176-.003zm7.537.029a2.337 2.337 0 00-1.584.676c-.74.727-1.112 1.965-.942 3.778.08.845.639 1.696 1.628 2.098.989.4 2.334.173 3.689-1a.72.72 0 10-.942-1.089c-1.096.948-1.768.932-2.206.754-.437-.177-.716-.696-.735-.897-.012-.128.02-.174.014-.29a.72.72 0 00.24-.013c1.65-.352 2.612-.898 2.917-1.811.152-.457.05-.957-.185-1.309a1.992 1.992 0 00-.956-.74 2.394 2.394 0 00-.938-.157zm-7.556 1.41a.65.65 0 01.097 0c.138.01.313.076.468.19.31.228.406.56.376.639-.015.039-.048.12-.303.223-.247.1-.71.18-1.37.167.135-.582.311-.97.461-1.096.1-.083.18-.116.27-.123zm7.614.022c.126-.001.248.024.358.067a.647.647 0 01.281.198c.034.05.027.023.017.054-.02.059-.44.505-1.723.811.108-.428.273-.701.433-.86a.91.91 0 01.634-.27z" overflow="visible" fill="#a71a00"/>
  </g>
  <g fill="none" stroke="#fff" stroke-linecap="round" stroke-opacity=".983">
    <path d="M43.164 144.255l-7.617-9.488M38.353 153.209L12.83 142.385M31.805 164.969l-15.769-.936M32.072 178.867l-16.57 9.087M43.164 194.101l-7.884 10.023M55.86 197.442l-.669 8.285M185.505 132.241l3.411 9.399M202.076 134.513l-2.536 9.666M222.722 130.036l-14.228 17.35M226.397 147.81l-11.221 6.391M237.556 166.719l-18.238-1.092M233.146 179.548l-13.226-3.832M232.768 197.124l-18.14-12.147M213.87 201.282l-5.479-7.423M199.695 202.226c-22.843-10.981-93.327-1.018-136.068 13.178" transform="matrix(.44299 0 0 .44299 -5.459 -8.23)"/>
  </g>
  <g font-weight="400" font-size="23.998" font-family="Montserrat ExtraBold" letter-spacing="0" word-spacing="0" stroke-width=".6">
    <g aria-label="GOOD" style="line-height:1.25;-inkscape-font-specification:'Montserrat ExtraBold, '">
      <path d="M23.514 67.036h4.2v6.96q-1.44 1.032-3.312 1.584-1.872.552-3.744.552-2.64 0-4.752-1.104-2.111-1.128-3.311-3.12-1.2-1.992-1.2-4.512 0-2.52 1.2-4.511 1.2-1.992 3.335-3.096 2.136-1.128 4.824-1.128 2.352 0 4.224.792 1.872.792 3.12 2.28l-3.024 2.736q-1.704-1.872-4.08-1.872-2.16 0-3.48 1.32-1.32 1.296-1.32 3.48 0 1.391.6 2.495.6 1.08 1.68 1.704 1.08.6 2.472.6 1.368 0 2.568-.552zM39.198 76.132q-2.664 0-4.8-1.128-2.112-1.128-3.336-3.12-1.2-1.992-1.2-4.488 0-2.495 1.2-4.487 1.224-1.992 3.336-3.12 2.136-1.128 4.8-1.128 2.663 0 4.775 1.128 2.136 1.128 3.336 3.12 1.224 1.992 1.224 4.487 0 2.496-1.224 4.488-1.2 1.992-3.336 3.12-2.112 1.128-4.775 1.128zm0-3.936q1.272 0 2.303-.6 1.032-.6 1.632-1.68.6-1.104.6-2.52 0-1.415-.6-2.495-.6-1.104-1.632-1.704-1.031-.6-2.303-.6t-2.304.6q-1.032.6-1.632 1.704-.6 1.08-.6 2.495 0 1.416.6 2.52.6 1.08 1.632 1.68 1.032.6 2.304.6zM59.493 76.132q-2.664 0-4.8-1.128-2.111-1.128-3.335-3.12-1.2-1.992-1.2-4.488 0-2.495 1.2-4.487 1.224-1.992 3.335-3.12 2.136-1.128 4.8-1.128 2.664 0 4.776 1.128 2.136 1.128 3.336 3.12 1.224 1.992 1.224 4.487 0 2.496-1.224 4.488-1.2 1.992-3.336 3.12-2.112 1.128-4.776 1.128zm0-3.936q1.272 0 2.304-.6 1.032-.6 1.632-1.68.6-1.104.6-2.52 0-1.415-.6-2.495-.6-1.104-1.632-1.704-1.032-.6-2.304-.6-1.272 0-2.304.6-1.032.6-1.632 1.704-.6 1.08-.6 2.495 0 1.416.6 2.52.6 1.08 1.632 1.68 1.032.6 2.304.6zM71.317 58.997h7.944q2.76 0 4.895 1.032 2.136 1.032 3.312 2.928 1.176 1.896 1.176 4.44 0 2.543-1.176 4.44-1.176 1.895-3.312 2.927-2.135 1.032-4.895 1.032h-7.944zm7.752 13.007q2.16 0 3.456-1.224 1.32-1.224 1.32-3.384t-1.32-3.383q-1.296-1.224-3.456-1.224h-3v9.215z"/>
    </g>
    <g aria-label="GOOD" style="line-height:1.25;-inkscape-font-specification:'Montserrat ExtraBold, '" fill="#a71a00">
      <path d="M24.343 66.267h4.2v6.96q-1.44 1.031-3.312 1.583-1.872.552-3.744.552-2.64 0-4.752-1.104-2.112-1.127-3.312-3.12-1.2-1.991-1.2-4.511t1.2-4.512q1.2-1.992 3.336-3.096 2.136-1.127 4.824-1.127 2.352 0 4.224.791 1.871.792 3.12 2.28L25.902 63.7q-1.704-1.872-4.08-1.872-2.16 0-3.48 1.32-1.32 1.296-1.32 3.48 0 1.392.6 2.496.6 1.08 1.68 1.704 1.08.6 2.472.6 1.368 0 2.568-.552zM40.026 75.362q-2.663 0-4.8-1.128-2.111-1.127-3.335-3.12-1.2-1.991-1.2-4.487t1.2-4.488q1.224-1.992 3.336-3.12 2.136-1.127 4.8-1.127 2.663 0 4.775 1.127 2.136 1.128 3.336 3.12 1.224 1.992 1.224 4.488 0 2.496-1.224 4.488-1.2 1.992-3.336 3.12-2.112 1.127-4.776 1.127zm0-3.935q1.272 0 2.304-.6 1.032-.6 1.632-1.68.6-1.104.6-2.52t-.6-2.496q-.6-1.104-1.632-1.704-1.032-.6-2.304-.6-1.272 0-2.303.6-1.032.6-1.632 1.704-.6 1.08-.6 2.496t.6 2.52q.6 1.08 1.632 1.68 1.031.6 2.303.6zM60.322 75.362q-2.664 0-4.8-1.128-2.112-1.127-3.336-3.12-1.2-1.991-1.2-4.487t1.2-4.488q1.224-1.992 3.336-3.12 2.136-1.127 4.8-1.127 2.664 0 4.776 1.127 2.136 1.128 3.335 3.12 1.224 1.992 1.224 4.488 0 2.496-1.224 4.488-1.2 1.992-3.335 3.12-2.112 1.127-4.776 1.127zm0-3.935q1.272 0 2.304-.6 1.032-.6 1.632-1.68.6-1.104.6-2.52t-.6-2.496q-.6-1.104-1.632-1.704-1.032-.6-2.304-.6-1.272 0-2.304.6-1.032.6-1.632 1.704-.6 1.08-.6 2.496t.6 2.52q.6 1.08 1.632 1.68 1.032.6 2.304.6zM72.146 58.227h7.944q2.76 0 4.895 1.032 2.136 1.032 3.312 2.928 1.176 1.896 1.176 4.44 0 2.544-1.176 4.44-1.176 1.895-3.312 2.927t-4.895 1.032h-7.944zm7.752 13.008q2.16 0 3.455-1.224 1.32-1.224 1.32-3.384t-1.32-3.384q-1.296-1.224-3.455-1.224h-3v9.216z"/>
    </g>
  </g>
</svg>

