<?xml version="1.0" encoding="UTF-8" standalone="no"?>
<svg
   xmlns:dc="http://purl.org/dc/elements/1.1/"
   xmlns:cc="http://creativecommons.org/ns#"
   xmlns:rdf="http://www.w3.org/1999/02/22-rdf-syntax-ns#"
   xmlns:svg="http://www.w3.org/2000/svg"
   xmlns="http://www.w3.org/2000/svg"
   width="199.43974mm"
   viewBox="0 0 753.78802 117.13358"
   preserveAspectRatio="xMidYMid slice"
   version="1.1"
   id="svg28"
   height="30.991594mm">
  <metadata
     id="metadata34">
    <rdf:RDF>
      <cc:Work
         rdf:about="">
        <dc:format>image/svg+xml</dc:format>
        <dc:type
           rdf:resource="http://purl.org/dc/dcmitype/StillImage" />
        <dc:title>GoodLoopLogos</dc:title>
      </cc:Work>
    </rdf:RDF>
  </metadata>
  <defs
     id="defs32" />
  <title
     id="title2">GoodLoopLogos</title>
  <g
     id="g26"
     style="fill:#ffffff"
     transform="translate(-44.048,-239.07386)">
    <g
       id="g22"
       style="fill:#ffffff">
      <path
         d="m 222.612,280.086 a 19.349,19.349 0 0 1 15.014,6.842 l 11.121,-10 c -6.09,-7.283 -15.45,-11.235 -27.017,-11.235 -20.048,0 -34.434,13.253 -34.434,31.95 0,18.697 14.386,31.947 34.08,31.947 9.009,0 18.808,-2.723 25.961,-7.812 v -25.455 h -15.449 v 16.851 a 22.344,22.344 0 0 1 -9.448,2.018 c -10.424,0 -17.484,-7.2 -17.484,-17.553 0,-10.621 7.06,-17.553 17.656,-17.553 z"
         fill="#fff"
         id="path4"
         style="fill:#ffffff" />
      <path
         d="m 289.672,265.691 c -19.779,0 -34.346,13.517 -34.346,31.947 0,18.43 14.567,31.947 34.346,31.947 19.779,0 34.346,-13.516 34.346,-31.947 0,-18.431 -14.567,-31.947 -34.346,-31.947 z m 0,49.5 c -9.36,0 -16.686,-6.938 -16.686,-17.556 0,-10.618 7.326,-17.553 16.686,-17.553 9.36,0 16.686,6.932 16.686,17.553 0,10.621 -7.326,17.559 -16.686,17.559 z"
         fill="#fff"
         id="path6"
         style="fill:#ffffff" />
      <path
         d="m 364.417,265.691 c -19.779,0 -34.346,13.517 -34.346,31.947 0,18.43 14.567,31.947 34.346,31.947 19.779,0 34.345,-13.516 34.345,-31.947 0,-18.431 -14.562,-31.947 -34.345,-31.947 z m 0,49.5 c -9.363,0 -16.689,-6.938 -16.689,-17.556 0,-10.618 7.326,-17.553 16.689,-17.553 9.363,0 16.686,6.932 16.686,17.553 0,10.621 -7.326,17.559 -16.686,17.559 z"
         fill="#fff"
         id="path8"
         style="fill:#ffffff" />
      <path
         d="m 437.22,266.919 h -29.227 v 61.437 h 29.227 c 20.484,0 34.524,-11.849 34.524,-30.718 0,-18.869 -14.044,-30.719 -34.524,-30.719 z m -0.705,47.57 h -11.043 v -33.7 h 11.043 c 10.5,0 17.564,6.231 17.564,16.852 0,10.621 -7.06,16.848 -17.564,16.848 z"
         fill="#fff"
         id="path10"
         style="fill:#ffffff" />
      <polygon
         points="539.71,266.919 539.71,328.356 586.681,328.356 586.681,314.579 557.188,314.579 557.188,266.919 "
         fill="#fff"
         id="polygon12"
         style="fill:#ffffff" />
      <path
         d="m 623.8,265.691 c -19.779,0 -34.346,13.517 -34.346,31.947 0,18.43 14.567,31.947 34.346,31.947 19.779,0 34.346,-13.516 34.346,-31.947 0,-18.431 -14.566,-31.947 -34.346,-31.947 z m 0,49.5 c -9.36,0 -16.686,-6.938 -16.686,-17.556 0,-10.618 7.326,-17.553 16.686,-17.553 9.36,0 16.686,6.932 16.686,17.553 0,10.621 -7.325,17.559 -16.686,17.559 z"
         fill="#fff"
         id="path14"
         style="fill:#ffffff" />
      <path
         d="m 698.546,265.691 c -19.779,0 -34.346,13.517 -34.346,31.947 0,18.43 14.567,31.947 34.346,31.947 19.779,0 34.343,-13.516 34.343,-31.947 0,-18.431 -14.564,-31.947 -34.343,-31.947 z m 0,49.5 c -9.363,0 -16.689,-6.938 -16.689,-17.556 0,-10.618 7.326,-17.553 16.689,-17.553 9.363,0 16.686,6.932 16.686,17.553 0,10.621 -7.326,17.559 -16.686,17.559 z"
         fill="#fff"
         id="path16"
         style="fill:#ffffff" />
      <path
         d="m 770.377,266.918 h -28.254 v 61.437 H 759.6 v -16.061 h 10.778 c 16.861,0 27.458,-8.69 27.458,-22.643 -10e-4,-14.043 -10.598,-22.733 -27.459,-22.733 z M 769.313,298.6 H 759.6 v -17.99 h 9.714 c 7.241,0 10.865,3.335 10.865,9.041 -10e-4,5.617 -3.625,8.949 -10.866,8.949 z"
         fill="#fff"
         id="path18"
         style="fill:#ffffff" />
      <rect
         x="486.58099"
         y="287.73801"
         width="32.717999"
         height="18.117001"
         fill="#fff"
         id="rect20"
         style="fill:#ffffff" />
    </g>
    <path
       d="m 85.949,326.629 c 0.115,0.14 -2.879,3.227 -3.179,3.6 a 15.667,15.667 0 0 0 -3,5.955 c -1.011,4.077 -0.2,9.626 3.9,11.787 6.272,3.306 12.217,-4.326 12.011,-10.445 -0.179,-5.348 -2.164,-10.28 -6.234,-13.659 -1.065,-0.884 -3.2,-2.574 -3.2,-2.574 -2.058,-1.617 -4.142,-3.162 -6.357,-4.645 -2.911,-1.95 -5.982,-3.939 -8.264,-6.629 -7.113,-8.385 -8.022,-22.119 -1.057,-30.857 a 19.837,19.837 0 0 1 1.988,-2.185 16.408,16.408 0 0 1 11.726,-4.661 c 6.078,0.14 11.982,3.736 15.688,9.536 a 3.561,3.561 0 0 1 -1.367,5.216 4.635,4.635 0 0 1 -1.413,0.535 3.806,3.806 0 0 1 -4.091,-1.753 c -3.177,-4.972 -8.389,-6.983 -12.866,-4.628 a 11.1,11.1 0 0 0 -3.69,3.23 c -0.132,0.176 -0.244,0.363 -0.366,0.544 -4.039,5.961 -2.937,14.63 1.569,19.987 3.777,4.491 9.038,7.449 13.843,10.852 0.1,0.07 0.19,0.159 0.29,0.231 v 0 a 30.841,30.841 0 0 1 8.626,9.733 24.08,24.08 0 0 1 1.969,4.447 c 2.966,9.259 -0.212,21.556 -9.911,25.029 a 59.544,59.544 0 0 0 10.414,0.931 58.5,58.5 0 0 0 34.9,-105.751 c 1.81,8.4 -0.97,19.229 -4.043,25.265 a 67.479,67.479 0 0 1 -8.443,12.491 q -1.579,1.9 -3.256,3.731 c -0.516,-1.353 -0.957,-2.728 -1.349,-4.117 v 0 q -0.741,-2.622 -1.24,-5.307 c 1.177,-1.415 2.332,-2.847 3.405,-4.343 4.37,-6.089 7.146,-12.562 7.261,-20.2 0.055,-3.514 -0.678,-9.038 -3.679,-10.452 a 4.774,4.774 0 0 0 -4.307,0.405 c -0.13,0.065 -0.244,0.152 -0.37,0.224 -6.595,3.729 -7.326,15.021 -7.469,21.5 -0.055,2.5 0.029,5.022 0.215,7.543 a 3.727,3.727 0 0 0 0.041,0.67 71.276,71.276 0 0 0 2.486,14.247 v 0 a 46.027,46.027 0 0 0 2.3,6.251 c 1.563,3.4 4.342,9.6 8.462,10.539 1.548,0.353 2.945,-0.612 3.882,-3.767 a 22.659,22.659 0 0 0 0.653,-3.049 3.129,3.129 0 0 1 3.643,-2.822 4.674,4.674 0 0 1 1.351,0.336 4.237,4.237 0 0 1 2.682,4.589 18.413,18.413 0 0 1 -2.715,7.43 c -3.008,4.567 -7.9,6.458 -12.86,4.672 a 16.079,16.079 0 0 1 -6.125,-4.161 c -3.265,-3.439 -5.425,-7.851 -7.078,-12.238 -0.165,-0.437 -0.312,-0.885 -0.466,-1.328 v 0 a 85.721,85.721 0 0 1 -4.019,-19.19 c -1,-9.711 -0.761,-20.45 3.506,-29.341 a 21.767,21.767 0 0 1 6.234,-7.675 18.307,18.307 0 0 1 1.835,-1.237 58.966,58.966 0 0 0 -74.367,56.521 58.466,58.466 0 0 0 29.164,50.545 c -4.427,-8.138 -0.7,-19.456 5.653,-25.6 0.288,-0.278 1.061,-0.982 1.061,-0.982 a 31.634,31.634 0 0 1 3.477,2.524 c 0.854,0.688 2.546,2.5 2.546,2.5 z m 13.206,-10.867 a 46.628,46.628 0 0 0 -3.7,-2.922 v 0 c -0.174,-0.127 -0.342,-0.259 -0.517,-0.383 -0.7,-0.5 -1.419,-0.987 -2.136,-1.473 1.482,-1.686 2.977,-3.33 4.42,-4.875 2.726,-2.916 5.575,-5.751 8.429,-8.586 0.263,0.8 0.538,1.585 0.831,2.364 0.261,0.69 0.549,1.376 0.839,2.063 v 0 c 0.5,1.183 1.024,2.358 1.619,3.5 -1.14,1.133 -2.279,2.266 -3.375,3.4 -2.158,2.239 -4.326,4.539 -6.41,6.912 z"
       fill="#fff"
       id="path24"
       style="fill:#ffffff" />
  </g>
</svg>
