<?xml version="1.0" encoding="UTF-8" standalone="no"?>
<svg
   xmlns:dc="http://purl.org/dc/elements/1.1/"
   xmlns:cc="http://creativecommons.org/ns#"
   xmlns:rdf="http://www.w3.org/1999/02/22-rdf-syntax-ns#"
   xmlns:svg="http://www.w3.org/2000/svg"
   xmlns="http://www.w3.org/2000/svg"
   xmlns:sodipodi="http://sodipodi.sourceforge.net/DTD/sodipodi-0.dtd"
   xmlns:inkscape="http://www.inkscape.org/namespaces/inkscape"
   width="180.93422mm"
   height="101.97232mm"
   viewBox="0 0 512.88455 289.0556"
   version="1.1"
   id="svg1484"
   sodipodi:docname="good-loop-logo-primary.svg"
   inkscape:version="0.92.3 (2405546, 2018-03-11)">
  <metadata
     id="metadata1490">
    <rdf:RDF>
      <cc:Work
         rdf:about="">
        <dc:format>image/svg+xml</dc:format>
        <dc:type
           rdf:resource="http://purl.org/dc/dcmitype/StillImage" />
      </cc:Work>
    </rdf:RDF>
  </metadata>
  <defs
     id="defs1488" />
  <sodipodi:namedview
     pagecolor="#ffffff"
     bordercolor="#666666"
     borderopacity="1"
     objecttolerance="10"
     gridtolerance="10"
     guidetolerance="10"
     inkscape:pageopacity="0"
     inkscape:pageshadow="2"
     inkscape:window-width="1920"
     inkscape:window-height="1080"
     id="namedview1486"
     showgrid="false"
     inkscape:zoom="1.0923512"
     inkscape:cx="341.55029"
     inkscape:cy="193.61907"
     inkscape:window-x="0"
     inkscape:window-y="27"
     inkscape:window-maximized="1"
     inkscape:current-layer="svg1484" />
  <title
     id="title1448">GoodLoopLogos</title>
  <g
     id="g1482"
     transform="translate(-164.78224,-153.79677)">
    <g
       id="g1458">
      <path
         d="m 203.82,413.986 h 12.888 v 21.229 c -5.967,4.244 -14.141,6.516 -21.655,6.516 -16.426,0 -28.427,-11.054 -28.427,-26.648 0,-15.594 12,-26.648 28.72,-26.648 9.649,0 17.458,3.3 22.537,9.371 l -9.277,8.344 a 16.131,16.131 0 0 0 -12.522,-5.707 c -8.84,0 -14.729,5.782 -14.729,14.64 0,8.64 5.889,14.643 14.585,14.643 a 18.636,18.636 0 0 0 7.88,-1.685 z"
         id="path1450"
         inkscape:connector-curvature="0"
         style="fill:#1d1d1b" />
      <path
         d="m 265.936,415.083 c 0,-8.858 -6.11,-14.641 -13.918,-14.641 -7.808,0 -13.918,5.783 -13.918,14.641 0,8.858 6.111,14.643 13.919,14.643 7.808,0 13.918,-5.786 13.918,-14.643 m -42.566,0 c 0,-15.374 12.15,-26.648 28.648,-26.648 16.498,0 28.647,11.274 28.647,26.648 0,15.374 -12.15,26.648 -28.647,26.648 -16.497,0 -28.648,-11.276 -28.648,-26.648"
         id="path1452"
         inkscape:connector-curvature="0"
         style="fill:#1d1d1b" />
      <path
         d="m 328.281,415.083 c 0,-8.858 -6.111,-14.641 -13.919,-14.641 -7.808,0 -13.919,5.783 -13.919,14.641 0,8.858 6.111,14.643 13.919,14.643 7.808,0 13.919,-5.786 13.919,-14.643 m -42.566,0 c 0,-15.374 12.15,-26.648 28.647,-26.648 16.497,0 28.648,11.274 28.648,26.648 0,15.374 -12.15,26.648 -28.648,26.648 -16.498,0 -28.647,-11.276 -28.647,-26.648"
         id="path1454"
         inkscape:connector-curvature="0"
         style="fill:#1d1d1b" />
      <path
         d="m 374.5,429.138 c 8.761,0 14.65,-5.2 14.65,-14.055 0,-8.855 -5.889,-14.056 -14.65,-14.056 h -9.212 v 28.111 z M 350.71,389.46 h 24.377 c 17.085,0 28.8,9.882 28.8,25.623 0,15.741 -11.712,25.622 -28.8,25.622 H 350.71 Z"
         id="path1456"
         inkscape:connector-curvature="0"
         style="fill:#1d1d1b" />
    </g>
    <polygon
       points="499.753,440.706 499.753,429.213 475.153,429.213 475.153,389.46 460.574,389.46 460.574,440.706 "
       id="polygon1460"
       style="fill:#1d1d1b" />
    <g
       id="g1468">
      <path
         d="m 544.634,415.083 c 0,-8.858 -6.111,-14.641 -13.919,-14.641 -7.808,0 -13.915,5.783 -13.915,14.641 0,8.858 6.111,14.643 13.919,14.643 7.808,0 13.919,-5.786 13.919,-14.643 m -42.567,0 c 0,-15.374 12.15,-26.648 28.648,-26.648 16.498,0 28.647,11.274 28.647,26.648 0,15.374 -12.15,26.648 -28.647,26.648 -16.497,0 -28.648,-11.276 -28.648,-26.648"
         id="path1462"
         inkscape:connector-curvature="0"
         style="fill:#1d1d1b" />
      <path
         d="m 606.978,415.083 c 0,-8.858 -6.11,-14.641 -13.918,-14.641 -7.808,0 -13.919,5.783 -13.919,14.641 0,8.858 6.111,14.643 13.919,14.643 7.808,0 13.918,-5.786 13.918,-14.643 m -42.566,0 c 0,-15.374 12.15,-26.648 28.648,-26.648 16.498,0 28.647,11.274 28.647,26.648 0,15.374 -12.15,26.648 -28.647,26.648 -16.497,0 -28.648,-11.276 -28.648,-26.648"
         id="path1464"
         inkscape:connector-curvature="0"
         style="fill:#1d1d1b" />
      <path
         d="m 661.148,408.421 c 0,-4.759 -3.022,-7.54 -9.061,-7.54 h -8.1 v 15.007 h 8.1 c 6.039,0 9.061,-2.781 9.061,-7.467 m 14.729,0 c 0,11.639 -8.839,18.887 -22.9,18.887 h -8.989 v 13.4 h -14.581 v -51.249 h 23.567 c 14.064,0 22.9,7.249 22.9,18.962"
         id="path1466"
         inkscape:connector-curvature="0"
         style="fill:#1d1d1b" />
    </g>
    <rect
       x="416.26001"
       y="406.827"
       width="27.291"
       height="15.11"
       id="rect1470"
       style="fill:#1d1d1b" />
    <g
       id="g1480">
      <path
         d="m 477.211,174.475 c 2.9,13.464 -1.554,30.829 -6.481,40.506 a 108.222,108.222 0 0 1 -13.536,20.027 c -1.689,2.027 -3.436,4.018 -5.221,5.981 -0.828,-2.168 -1.534,-4.374 -2.163,-6.6 -1.823,2.249 -3.756,4.532 -5.863,6.864 a 73.877,73.877 0 0 0 3.693,10.022 c 2.506,5.457 6.963,15.392 13.567,16.9 2.483,0.566 4.722,-0.982 6.224,-6.039 a 36.4,36.4 0 0 0 1.048,-4.89 5.015,5.015 0 0 1 5.84,-4.524 7.489,7.489 0 0 1 2.167,0.539 6.793,6.793 0 0 1 4.3,7.357 29.52,29.52 0 0 1 -4.352,11.912 c -4.823,7.323 -12.667,10.354 -20.618,7.491 a 25.775,25.775 0 0 1 -9.82,-6.671 c -5.235,-5.514 -8.7,-12.587 -11.349,-19.621 -0.264,-0.7 -0.5,-1.419 -0.748,-2.129 -1.943,1.879 -3.833,3.682 -5.688,5.436 0.8,1.9 1.642,3.781 2.6,5.616 -1.827,1.818 -3.654,3.633 -5.411,5.455 -3.454,3.582 -6.931,7.269 -10.272,11.073 a 75.3,75.3 0 0 0 -5.936,-4.684 c -2,1.8 -3.9,3.515 -5.729,5.174 a 49.441,49.441 0 0 1 13.831,15.6 38.645,38.645 0 0 1 3.156,7.13 c 4.756,14.846 -0.338,34.561 -15.889,40.129 a 95.562,95.562 0 0 0 16.7,1.492 c 52.174,0 94.471,-42.041 94.471,-93.9 A 93.575,93.575 0 0 0 477.22,174.477"
         id="path1472"
         inkscape:connector-curvature="0"
         style="fill:#af2009" />
      <path
         d="m 447.823,225.878 c 1.886,-2.268 3.738,-4.565 5.458,-6.962 7.007,-9.762 11.457,-20.141 11.642,-32.389 0.087,-5.634 -1.088,-14.489 -5.9,-16.757 -1.771,-0.835 -4.021,-0.8 -6.9,0.649 -0.208,0.1 -0.391,0.245 -0.593,0.36 -10.574,5.978 -11.746,24.083 -11.976,34.465 -0.088,4.011 0.047,8.053 0.346,12.094 a 5.893,5.893 0 0 0 0.065,1.073 114.286,114.286 0 0 0 3.985,22.842 c 2.108,-2.331 4.041,-4.614 5.864,-6.865 q -1.188,-4.2 -1.987,-8.51"
         id="path1474"
         inkscape:connector-curvature="0"
         style="fill:#770f00" />
      <path
         d="m 408.356,273.879 c -1.129,-0.8 -2.274,-1.583 -3.424,-2.361 2.377,-2.7 4.773,-5.34 7.086,-7.816 4.372,-4.675 8.939,-9.22 13.516,-13.767 0.421,1.277 0.862,2.543 1.332,3.791 0.417,1.107 0.88,2.207 1.345,3.308 1.854,-1.754 3.745,-3.557 5.688,-5.438 a 137.422,137.422 0 0 1 -6.443,-30.766 c -1.61,-15.57 -1.222,-32.786 5.62,-47.043 a 34.894,34.894 0 0 1 10,-12.3 29.135,29.135 0 0 1 2.942,-1.983 95.045,95.045 0 0 0 -24.761,-3.283 c -52.176,0 -94.471,42.043 -94.471,93.9 a 93.734,93.734 0 0 0 46.759,81.037 c -7.1,-13.047 -1.126,-31.193 9.063,-41.038 0.461,-0.447 1.7,-1.576 1.7,-1.576 a 50.861,50.861 0 0 1 5.575,4.048 c 1.4,-1.463 2.936,-2.979 4.552,-4.537 -3.3,-2.592 -6.642,-5.069 -10.193,-7.447 -4.667,-3.126 -9.591,-6.314 -13.25,-10.627 -11.4,-13.444 -12.861,-35.464 -1.695,-49.472 a 31.764,31.764 0 0 1 3.189,-3.5 26.3,26.3 0 0 1 18.8,-7.473 c 9.745,0.225 19.211,5.989 25.153,15.288 2.208,3.454 0.558,6.766 -2.192,8.364 a 7.451,7.451 0 0 1 -2.266,0.858 6.1,6.1 0 0 1 -6.561,-2.819 c -5.094,-7.971 -13.451,-11.195 -20.629,-7.42 a 17.822,17.822 0 0 0 -5.916,5.178 c -0.211,0.282 -0.391,0.582 -0.587,0.872 -6.474,9.558 -4.708,23.456 2.516,32.045 6.056,7.2 14.49,11.944 22.194,17.4 0.161,0.114 0.3,0.256 0.465,0.372 1.829,-1.658 3.73,-3.373 5.728,-5.172 -0.279,-0.2 -0.549,-0.416 -0.831,-0.615"
         id="path1476"
         inkscape:connector-curvature="0"
         style="fill:#770f00" />
      <path
         d="m 389.879,292.591 a 31.251,31.251 0 0 1 4.071,4.01 c 0.184,0.224 -4.615,5.174 -5.1,5.779 a 25.18,25.18 0 0 0 -4.8,9.548 c -1.619,6.537 -0.327,15.434 6.245,18.9 10.057,5.3 19.588,-6.936 19.258,-16.746 -0.288,-8.574 -3.469,-16.481 -9.994,-21.9 -1.708,-1.418 -3.412,-2.785 -5.125,-4.128 -1.614,1.557 -3.146,3.072 -4.552,4.537"
         id="path1478"
         inkscape:connector-curvature="0"
         style="fill:#af2009" />
    </g>
  </g>
  <rect
     style="fill:none;fill-opacity:1;stroke-width:0.75000036"
     id="rect1492"
     width="512.88464"
     height="289.05554"
     x="0"
     y="1.1368684e-13"
     ry="8.571454" />
</svg>
