<svg xmlns="http://www.w3.org/2000/svg" width="297mm" height="210mm" viewBox="0 0 841.89 595.276">
  <title>GoodLoopLogos</title>
  <g>
    <g>
      <path d="M222.612,280.086a19.349,19.349,0,0,1,15.014,6.842l11.121-10c-6.09-7.283-15.45-11.235-27.017-11.235-20.048,0-34.434,13.253-34.434,31.95s14.386,31.947,34.08,31.947c9.009,0,18.808-2.723,25.961-7.812V296.323H231.888v16.851a22.344,22.344,0,0,1-9.448,2.018c-10.424,0-17.484-7.2-17.484-17.553C204.956,287.018,212.016,280.086,222.612,280.086Z" fill="#fff"/>
      <path d="M289.672,265.691c-19.779,0-34.346,13.517-34.346,31.947s14.567,31.947,34.346,31.947,34.346-13.516,34.346-31.947S309.451,265.691,289.672,265.691Zm0,49.5c-9.36,0-16.686-6.938-16.686-17.556s7.326-17.553,16.686-17.553,16.686,6.932,16.686,17.553S299.032,315.194,289.672,315.194Z" fill="#fff"/>
      <path d="M364.417,265.691c-19.779,0-34.346,13.517-34.346,31.947s14.567,31.947,34.346,31.947,34.345-13.516,34.345-31.947S384.2,265.691,364.417,265.691Zm0,49.5c-9.363,0-16.689-6.938-16.689-17.556s7.326-17.553,16.689-17.553,16.686,6.932,16.686,17.553S373.777,315.194,364.417,315.194Z" fill="#fff"/>
      <path d="M437.22,266.919H407.993v61.437H437.22c20.484,0,34.524-11.849,34.524-30.718S457.7,266.919,437.22,266.919Zm-.705,47.57H425.472v-33.7h11.043c10.5,0,17.564,6.231,17.564,16.852S447.019,314.489,436.515,314.489Z" fill="#fff"/>
      <polygon points="557.188 266.919 539.71 266.919 539.71 328.356 586.681 328.356 586.681 314.579 557.188 314.579 557.188 266.919" fill="#fff"/>
      <path d="M623.8,265.691c-19.779,0-34.346,13.517-34.346,31.947s14.567,31.947,34.346,31.947,34.346-13.516,34.346-31.947S643.58,265.691,623.8,265.691Zm0,49.5c-9.36,0-16.686-6.938-16.686-17.556s7.326-17.553,16.686-17.553,16.686,6.932,16.686,17.553S633.161,315.194,623.8,315.194Z" fill="#fff"/>
      <path d="M698.546,265.691c-19.779,0-34.346,13.517-34.346,31.947s14.567,31.947,34.346,31.947,34.343-13.516,34.343-31.947S718.325,265.691,698.546,265.691Zm0,49.5c-9.363,0-16.689-6.938-16.689-17.556s7.326-17.553,16.689-17.553,16.686,6.932,16.686,17.553S707.906,315.194,698.546,315.194Z" fill="#fff"/>
      <path d="M770.377,266.918H742.123v61.437H759.6V312.294h10.778c16.861,0,27.458-8.69,27.458-22.643C797.835,275.608,787.238,266.918,770.377,266.918ZM769.313,298.6H759.6V280.61h9.714c7.241,0,10.865,3.335,10.865,9.041C780.178,295.268,776.554,298.6,769.313,298.6Z" fill="#fff"/>
      <rect x="486.581" y="287.738" width="32.718" height="18.117" fill="#fff"/>
    </g>
    <path d="M85.949,326.629c.115.14-2.879,3.227-3.179,3.6a15.667,15.667,0,0,0-3,5.955c-1.011,4.077-.2,9.626,3.9,11.787,6.272,3.306,12.217-4.326,12.011-10.445-.179-5.348-2.164-10.28-6.234-13.659-1.065-.884-3.2-2.574-3.2-2.574-2.058-1.617-4.142-3.162-6.357-4.645-2.911-1.95-5.982-3.939-8.264-6.629-7.113-8.385-8.022-22.119-1.057-30.857a19.837,19.837,0,0,1,1.988-2.185,16.408,16.408,0,0,1,11.726-4.661c6.078.14,11.982,3.736,15.688,9.536a3.561,3.561,0,0,1-1.367,5.216,4.635,4.635,0,0,1-1.413.535A3.806,3.806,0,0,1,93.1,285.85c-3.177-4.972-8.389-6.983-12.866-4.628a11.1,11.1,0,0,0-3.69,3.23c-.132.176-.244.363-.366.544-4.039,5.961-2.937,14.63,1.569,19.987,3.777,4.491,9.038,7.449,13.843,10.852.1.07.19.159.29.231h0a30.841,30.841,0,0,1,8.626,9.733,24.08,24.08,0,0,1,1.969,4.447c2.966,9.259-.212,21.556-9.911,25.029a59.544,59.544,0,0,0,10.414.931,58.5,58.5,0,0,0,34.9-105.751c1.81,8.4-.97,19.229-4.043,25.265a67.479,67.479,0,0,1-8.443,12.491q-1.579,1.9-3.256,3.731c-.516-1.353-.957-2.728-1.349-4.117h0q-.741-2.622-1.24-5.307c1.177-1.415,2.332-2.847,3.405-4.343,4.37-6.089,7.146-12.562,7.261-20.2.055-3.514-.678-9.038-3.679-10.452a4.774,4.774,0,0,0-4.307.405c-.13.065-.244.152-.37.224-6.595,3.729-7.326,15.021-7.469,21.5-.055,2.5.029,5.022.215,7.543a3.727,3.727,0,0,0,.041.67,71.276,71.276,0,0,0,2.486,14.247h0a46.027,46.027,0,0,0,2.3,6.251c1.563,3.4,4.342,9.6,8.462,10.539,1.548.353,2.945-.612,3.882-3.767a22.659,22.659,0,0,0,.653-3.049,3.129,3.129,0,0,1,3.643-2.822,4.674,4.674,0,0,1,1.351.336,4.237,4.237,0,0,1,2.682,4.589,18.413,18.413,0,0,1-2.715,7.43c-3.008,4.567-7.9,6.458-12.86,4.672a16.079,16.079,0,0,1-6.125-4.161c-3.265-3.439-5.425-7.851-7.078-12.238-.165-.437-.312-.885-.466-1.328h0a85.721,85.721,0,0,1-4.019-19.19c-1-9.711-.761-20.45,3.506-29.341a21.767,21.767,0,0,1,6.234-7.675,18.307,18.307,0,0,1,1.835-1.237,58.966,58.966,0,0,0-74.367,56.521,58.466,58.466,0,0,0,29.164,50.545c-4.427-8.138-.7-19.456,5.653-25.6.288-.278,1.061-.982,1.061-.982a31.634,31.634,0,0,1,3.477,2.524C84.257,324.817,85.949,326.629,85.949,326.629Zm13.206-10.867a46.628,46.628,0,0,0-3.7-2.922h0c-.174-.127-.342-.259-.517-.383-.7-.5-1.419-.987-2.136-1.473,1.482-1.686,2.977-3.33,4.42-4.875,2.726-2.916,5.575-5.751,8.429-8.586.263.8.538,1.585.831,2.364.261.69.549,1.376.839,2.063h0c.5,1.183,1.024,2.358,1.619,3.5-1.14,1.133-2.279,2.266-3.375,3.4C103.407,311.089,101.239,313.389,99.155,315.762Z" fill="#fff"/>
  </g>
</svg>
