<?xml version="1.0" encoding="UTF-8" standalone="no"?>
<svg
   xmlns:dc="http://purl.org/dc/elements/1.1/"
   xmlns:cc="http://creativecommons.org/ns#"
   xmlns:rdf="http://www.w3.org/1999/02/22-rdf-syntax-ns#"
   xmlns:svg="http://www.w3.org/2000/svg"
   xmlns="http://www.w3.org/2000/svg"
   xmlns:sodipodi="http://sodipodi.sourceforge.net/DTD/sodipodi-0.dtd"
   xmlns:inkscape="http://www.inkscape.org/namespaces/inkscape"
   class="gl-logo-svg"
   viewBox="0 0 100 60"
   version="1.1"
   id="svg18"
   sodipodi:docname="heres-how-it-works-wide.svg"
   inkscape:version="0.92.4 (5da689c313, 2019-01-14)"
   width="100"
   height="60">
  <metadata
     id="metadata22">
    <rdf:RDF>
      <cc:Work
         rdf:about="">
        <dc:format>image/svg+xml</dc:format>
        <dc:type
           rdf:resource="http://purl.org/dc/dcmitype/StillImage" />
        <dc:title></dc:title>
      </cc:Work>
    </rdf:RDF>
  </metadata>
  <sodipodi:namedview
     pagecolor="#ffffff"
     bordercolor="#666666"
     borderopacity="1"
     objecttolerance="10"
     gridtolerance="10"
     guidetolerance="10"
     inkscape:pageopacity="0"
     inkscape:pageshadow="2"
     inkscape:window-width="1920"
     inkscape:window-height="1163"
     id="namedview20"
     showgrid="false"
     inkscape:zoom="5.6568543"
     inkscape:cx="40.63983"
     inkscape:cy="24.299917"
     inkscape:window-x="0"
     inkscape:window-y="0"
     inkscape:window-maximized="1"
     inkscape:current-layer="svg18"
     fit-margin-top="0"
     fit-margin-left="0"
     fit-margin-right="0"
     fit-margin-bottom="0" />
  <defs
     id="defs6">
    <clipPath
       id="circle-clip">
      <circle
         cx="50"
         cy="50"
         r="50"
         id="circle3" />
    </clipPath>
  </defs>
  <path
     style="fill:#af2009"
     d="M 89.558594,7.228516 C 74.850987,39.734839 23.849201,34.868753 13.035156,54.769531 17.855131,58.06962 23.692381,60 30,60 H 70 C 86.62,60 100,46.62 100,30 100,20.868683 95.954666,12.722096 89.558594,7.228516 Z"
     id="path8"
     inkscape:connector-curvature="0" />
  <path
     style="fill:#770f00"
     d="M 30,0 C 13.38,0 0,13.38 0,30 0,40.312381 5.1549369,49.374188 13.035156,54.769531 23.849201,34.868753 74.850987,39.734839 89.558594,7.228516 84.313112,2.723176 77.488683,0 70,0 Z"
     id="path10"
     inkscape:connector-curvature="0" />
  <g
     aria-label="HERE'S HOW IT WORKS"
     style="font-style:normal;font-variant:normal;font-weight:normal;font-stretch:normal;font-size:15.47333527px;line-height:1.25;font-family:'Montserrat ExtraBold';-inkscape-font-specification:'Montserrat ExtraBold, ';letter-spacing:0px;word-spacing:0px;fill:#ffffff;fill-opacity:1;stroke:none;stroke-width:0.38683334"
     id="text831"
     transform="matrix(0.91505872,0,0,0.91505872,4.0211682,-15.278497)">
    <path
       d="m 32.817142,24.724184 v 10.831335 h -3.063721 v -4.22422 h -4.1778 v 4.22422 H 22.5119 V 24.724184 h 3.063721 v 4.069488 h 4.1778 v -4.069488 z"
       style="text-align:center;text-anchor:middle;stroke-width:0.38683334"
       id="path865"
       inkscape:connector-curvature="0" />
    <path
       d="m 43.689335,33.188099 v 2.36742 H 34.993321 V 24.724184 h 8.494861 v 2.367421 h -5.462088 v 1.825853 h 4.812208 v 2.290054 h -4.812208 v 1.980587 z"
       style="text-align:center;text-anchor:middle;stroke-width:0.38683334"
       id="path867"
       inkscape:connector-curvature="0" />
    <path
       d="m 50.124308,32.677479 h -1.67112 v 2.87804 h -3.06372 V 24.724184 h 4.951467 q 1.469967,0 2.5531,0.495147 1.083134,0.479674 1.67112,1.3926 0.587987,0.897454 0.587987,2.119847 0,1.175974 -0.55704,2.057954 -0.541567,0.866507 -1.562807,1.361653 l 2.336474,3.404134 h -3.280347 z m 1.934167,-3.945701 q 0,-0.758193 -0.479673,-1.175973 -0.479674,-0.41778 -1.423547,-0.41778 h -1.702067 v 3.172033 h 1.702067 q 0.943873,0 1.423547,-0.402306 0.479673,-0.41778 0.479673,-1.175974 z"
       style="text-align:center;text-anchor:middle;stroke-width:0.38683334"
       id="path869"
       inkscape:connector-curvature="0" />
    <path
       d="m 65.539378,33.188099 v 2.36742 H 56.843363 V 24.724184 h 8.494861 v 2.367421 h -5.462087 v 1.825853 h 4.812207 v 2.290054 h -4.812207 v 1.980587 z"
       style="text-align:center;text-anchor:middle;stroke-width:0.38683334"
       id="path871"
       inkscape:connector-curvature="0" />
    <path
       d="m 66.790781,24.724184 h 2.475734 l -0.201153,4.518214 h -2.088901 z"
       style="text-align:center;text-anchor:middle;stroke-width:0.38683334"
       id="path873"
       inkscape:connector-curvature="0" />
    <path
       d="m 74.793396,35.772146 q -1.315233,0 -2.5531,-0.32494 -1.237867,-0.32494 -2.011533,-0.866507 l 1.005766,-2.259107 q 0.727247,0.479673 1.686594,0.773667 0.959347,0.293993 1.887747,0.293993 1.76396,0 1.76396,-0.88198 0,-0.4642 -0.51062,-0.680827 -0.495147,-0.2321 -1.609227,-0.479673 -1.222393,-0.263047 -2.04248,-0.55704 -0.820087,-0.309467 -1.408074,-0.97482 -0.587986,-0.665354 -0.587986,-1.794907 0,-0.990294 0.541566,-1.779434 0.541567,-0.804613 1.609227,-1.268813 1.083134,-0.4642 2.64594,-0.4642 1.067661,0 2.104374,0.247573 1.036714,0.2321 1.825854,0.6963 l -0.943874,2.27458 q -1.547333,-0.83556 -3.001827,-0.83556 -0.912927,0 -1.330707,0.27852 -0.41778,0.263047 -0.41778,0.6963 0,0.433254 0.495147,0.649881 0.495147,0.216626 1.593754,0.448726 1.237866,0.263047 2.04248,0.572514 0.820087,0.293993 1.408073,0.959346 0.60346,0.649881 0.60346,1.779434 0,0.97482 -0.541566,1.76396 -0.541567,0.78914 -1.624701,1.268814 -1.083133,0.4642 -2.630467,0.4642 z"
       style="text-align:center;text-anchor:middle;stroke-width:0.38683334"
       id="path875"
       inkscape:connector-curvature="0" />
    <path
       d="m 30.505208,44.065854 v 10.831334 h -3.063721 v -4.22422 h -4.1778 v 4.22422 H 20.199966 V 44.065854 h 3.063721 v 4.069487 h 4.1778 v -4.069487 z"
       style="text-align:center;text-anchor:middle;stroke-width:0.38683334"
       id="path877"
       inkscape:connector-curvature="0" />
    <path
       d="m 38.143474,55.113815 q -1.71754,0 -3.094667,-0.727247 -1.361653,-0.727247 -2.150793,-2.011533 -0.773667,-1.284287 -0.773667,-2.893514 0,-1.609227 0.773667,-2.893514 0.78914,-1.284287 2.150793,-2.011533 1.377127,-0.727247 3.094667,-0.727247 1.71754,0 3.079194,0.727247 1.377127,0.727246 2.150794,2.011533 0.78914,1.284287 0.78914,2.893514 0,1.609227 -0.78914,2.893514 -0.773667,1.284286 -2.150794,2.011533 -1.361654,0.727247 -3.079194,0.727247 z m 0,-2.537627 q 0.820087,0 1.48544,-0.386833 0.665354,-0.386834 1.052187,-1.083134 0.386834,-0.711773 0.386834,-1.6247 0,-0.912927 -0.386834,-1.609227 -0.386833,-0.711773 -1.052187,-1.098607 -0.665353,-0.386833 -1.48544,-0.386833 -0.820087,0 -1.48544,0.386833 -0.665353,0.386834 -1.052187,1.098607 -0.386833,0.6963 -0.386833,1.609227 0,0.912927 0.386833,1.6247 0.386834,0.6963 1.052187,1.083134 0.665353,0.386833 1.48544,0.386833 z"
       style="text-align:center;text-anchor:middle;stroke-width:0.38683334"
       id="path879"
       inkscape:connector-curvature="0" />
    <path
       d="M 62.394301,44.065854 58.881854,54.897188 H 55.601507 L 53.52808,48.305547 51.361813,54.897188 H 48.081466 L 44.569019,44.065854 h 3.15656 l 2.181741,6.91658 2.290053,-6.91658 h 2.816147 l 2.181741,6.978474 2.27458,-6.978474 z"
       style="text-align:center;text-anchor:middle;stroke-width:0.38683334"
       id="path881"
       inkscape:connector-curvature="0" />
    <path
       d="m 68.221703,44.065854 h 3.06372 v 10.831334 h -3.06372 z"
       style="text-align:center;text-anchor:middle;stroke-width:0.38683334"
       id="path883"
       inkscape:connector-curvature="0" />
    <path
       d="m 75.785744,46.495167 h -3.326767 v -2.429313 h 9.701781 v 2.429313 h -3.311294 v 8.402021 h -3.06372 z"
       style="text-align:center;text-anchor:middle;stroke-width:0.38683334"
       id="path885"
       inkscape:connector-curvature="0" />
    <path
       d="M 36.796811,63.407523 33.284364,74.238857 H 30.004017 L 27.93059,67.647216 25.764323,74.238857 H 22.483976 L 18.971529,63.407523 h 3.15656 l 2.18174,6.91658 2.290054,-6.91658 h 2.816147 l 2.18174,6.978474 2.27458,-6.978474 z"
       style="text-align:center;text-anchor:middle;stroke-width:0.38683334"
       id="path887"
       inkscape:connector-curvature="0" />
    <path
       d="m 43.220663,74.455484 q -1.717541,0 -3.094667,-0.727247 -1.361654,-0.727247 -2.150794,-2.011533 -0.773667,-1.284287 -0.773667,-2.893514 0,-1.609227 0.773667,-2.893514 0.78914,-1.284287 2.150794,-2.011533 1.377126,-0.727247 3.094667,-0.727247 1.71754,0 3.079193,0.727247 1.377127,0.727246 2.150794,2.011533 0.78914,1.284287 0.78914,2.893514 0,1.609227 -0.78914,2.893514 -0.773667,1.284286 -2.150794,2.011533 -1.361653,0.727247 -3.079193,0.727247 z m 0,-2.537627 q 0.820086,0 1.48544,-0.386833 0.665353,-0.386834 1.052187,-1.083134 0.386833,-0.711773 0.386833,-1.6247 0,-0.912927 -0.386833,-1.609227 -0.386834,-0.711773 -1.052187,-1.098607 -0.665354,-0.386833 -1.48544,-0.386833 -0.820087,0 -1.485441,0.386833 -0.665353,0.386834 -1.052186,1.098607 -0.386834,0.6963 -0.386834,1.609227 0,0.912927 0.386834,1.6247 0.386833,0.6963 1.052186,1.083134 0.665354,0.386833 1.485441,0.386833 z"
       style="text-align:center;text-anchor:middle;stroke-width:0.38683334"
       id="path889"
       inkscape:connector-curvature="0" />
    <path
       d="m 55.579264,71.360817 h -1.67112 v 2.87804 H 50.844423 V 63.407523 h 4.951467 q 1.469967,0 2.553101,0.495146 1.083133,0.479674 1.67112,1.3926 0.587987,0.897454 0.587987,2.119847 0,1.175974 -0.55704,2.057954 -0.541567,0.866507 -1.562807,1.361654 l 2.336473,3.404133 h -3.280347 z m 1.934167,-3.945701 q 0,-0.758193 -0.479674,-1.175973 -0.479673,-0.41778 -1.423547,-0.41778 h -1.702066 v 3.172034 h 1.702066 q 0.943874,0 1.423547,-0.402307 0.479674,-0.41778 0.479674,-1.175974 z"
       style="text-align:center;text-anchor:middle;stroke-width:0.38683334"
       id="path891"
       inkscape:connector-curvature="0" />
    <path
       d="m 66.476119,70.30863 -1.145027,1.222394 v 2.707833 H 62.298319 V 63.407523 h 3.032773 v 4.50274 l 4.193274,-4.50274 h 3.373187 l -4.425373,4.796734 4.657473,6.0346 h -3.558867 z"
       style="text-align:center;text-anchor:middle;stroke-width:0.38683334"
       id="path893"
       inkscape:connector-curvature="0" />
    <path
       d="m 77.498211,74.455484 q -1.315234,0 -2.5531,-0.32494 -1.237867,-0.32494 -2.011534,-0.866507 l 1.005767,-2.259107 q 0.727247,0.479674 1.686593,0.773667 0.959347,0.293993 1.887747,0.293993 1.76396,0 1.76396,-0.88198 0,-0.4642 -0.51062,-0.680827 -0.495146,-0.2321 -1.609226,-0.479673 -1.222394,-0.263047 -2.042481,-0.55704 -0.820086,-0.309467 -1.408073,-0.97482 -0.587987,-0.665354 -0.587987,-1.794907 0,-0.990293 0.541567,-1.779434 0.541566,-0.804613 1.609227,-1.268813 1.083133,-0.4642 2.64594,-0.4642 1.06766,0 2.104374,0.247573 1.036713,0.2321 1.825853,0.6963 l -0.943873,2.274581 q -1.547334,-0.83556 -3.001827,-0.83556 -0.912927,0 -1.330707,0.27852 -0.41778,0.263046 -0.41778,0.6963 0,0.433253 0.495146,0.64988 0.495147,0.216626 1.593754,0.448726 1.237867,0.263047 2.04248,0.572514 0.820087,0.293993 1.408074,0.959347 0.60346,0.64988 0.60346,1.779433 0,0.97482 -0.541567,1.76396 -0.541567,0.789141 -1.6247,1.268814 -1.083134,0.4642 -2.630467,0.4642 z"
       style="text-align:center;text-anchor:middle;stroke-width:0.38683334"
       id="path895"
       inkscape:connector-curvature="0" />
  </g>
</svg>
