<svg xmlns="http://www.w3.org/2000/svg" viewBox="0 0 100 56.414">
  <g fill="#fff">
    <path d="M.578 50.408a.577.705 0 00-.578.706.577.705 0 00.578.706.577.705 0 00.445-.259c1.607.944 3.437 2.416 5.062 4.85h.897a.39.39 0 00-.06-.16c-1.845-2.876-4.01-4.555-5.834-5.57a.39.39 0 00-.079-.035.577.705 0 00-.431-.238zM9.468 31.743c-.543-.029-1.123.095-1.732.275-.44.13-.751.499-.915.962-.164.464-.2 1.036-.124 1.672.144 1.2.734 2.629 1.75 3.939h-.005a12.563 12.563 0 00-2.95-2.289c-.598-.33-1.176-.585-1.674-.716a2.298 2.298 0 00-.69-.091c-.211.01-.416.066-.57.212-.313.292-.629.803-.815 1.415-.185.613-.232 1.333.086 1.982.257.524.703.852 1.214 1.031.511.18 1.092.227 1.683.226.628 0 1.1-.012 1.678-.049-1.017.493-1.908 1.209-2.447 2.087-.398.648-.65 1.307-.71 1.872-.03.282-.016.544.073.775.089.23.268.429.51.519 1.985.736 3.416.149 4.305-.873.244-.28.372-.62.547-.942-.063.364-.137.927-.187 1.214-.077.445-.131.8-.14 1.083-.005.141 0 .265.03.384a.54.54 0 00.216.324c1.09.713 2.652.39 3.597-.666.044-.049.078-.107.118-.16.386.615.805 1.592 1.188 2.795-.578.04-.971.046-1.233.047-.317 0-.556.02-.885.148l-.216.083.057.224c.193.754.761 1.21 1.36 1.424a2.83 2.83 0 001.476.118c.433 1.791.763 3.738.883 5.436a.39.39 0 00.071.203h.94c.358-.842.785-1.384 1.298-1.825.493-.423 1.11-.797 1.755-1.243.151.57.317 1.115.265 2.11a.977.977 0 00-.258.047 2.486 2.486 0 00-.548.236c-.317.178-.616.406-.81.675h.753c.1-.078.2-.159.312-.221.153-.086.309-.154.43-.187.037-.01.031 0 .06-.01-.015.136-.035.28-.05.419h.53c.278-1.945-.08-2.753-.26-3.562l-.088-.389-.321.234c-.765.557-1.474.95-2.11 1.495-.464.398-.88.887-1.23 1.558a36.077 36.077 0 00-1.03-5.854c-.528-2.01-1.159-3.733-1.865-4.687a.39.39 0 00-.07-.073c.275-.881.18-2.015-.37-3.28.946.751 1.815 1.25 2.567 1.384.927.166 1.712-.103 2.279-.62 1.133-1.035 1.474-2.959 1.129-4.49-.142-.629-.867-1.141-1.967-1.09-.636.028-1.444.327-2.34.817 1.122-1.311 1.772-2.522 1.587-3.411a1.77 1.77 0 00-1.196-1.335c-.603-.2-1.344-.138-2.106.208-.349.158-.577.467-.72.827-.012.031-.01.076-.022.108-.138-.777-.332-1.425-.661-1.82-.379-.454-.89-.659-1.432-.688zm-.029.519c.439.024.777.16 1.062.502.559.67.874 2.292.625 5.424a2.955 2.955 0 00-.749-.14 3.186 3.186 0 00-1.487.296c-.994-1.257-1.543-2.645-1.676-3.757-.07-.578-.029-1.079.097-1.436.127-.357.318-.56.574-.635.584-.172 1.116-.28 1.554-.256zm4.441 1.267c.13.014.254.04.366.077.45.15.748.463.848.946.19.913-.453 2.53-2.78 4.425a2.132 2.132 0 00-.678-.57c.137-1.017.123-2.096.208-2.964.042-.438.112-.82.223-1.102.112-.283.252-.455.452-.545.5-.228.968-.304 1.361-.265zM3.151 36.017c.134-.01.32.02.535.075.431.114.981.354 1.554.67 1.04.573 2.142 1.4 2.86 2.16-.19.25-.279.542-.266.834-.874-.098-2.034.085-3.11.087-.56 0-1.088-.05-1.508-.197-.42-.148-.727-.377-.92-.77-.24-.491-.214-1.073-.054-1.6.16-.527.462-.992.671-1.188.034-.032.104-.066.238-.071zm13.23 1.54c.93-.043 1.368.386 1.435.684.307 1.361-.048 3.145-.972 3.989-.462.422-1.046.635-1.833.494-.768-.137-1.736-.642-2.878-1.676.385-.36.574-.788.545-1.206a1.436 1.436 0 00-.094-.401c1.637-1.345 2.929-1.844 3.796-1.884zm-8.447 2.681c.124.326.344.63.632.881.136.119.293.22.458.312-.176.9-.56 2.094-1.283 2.925-.782.898-1.898 1.406-3.73.726-.102-.038-.158-.097-.205-.218a1.193 1.193 0 01-.043-.533c.05-.452.272-1.058.637-1.653.731-1.19 2.02-2.324 3.532-2.4zm3.755 1.138c.974 1.629.956 2.9.503 3.79a.39.39 0 00-.104.203c-.084.135-.177.26-.279.374-.788.882-2.089 1.123-2.921.578.017.011.013.023.002-.018a.971.971 0 01-.014-.238c.007-.226.056-.57.132-1.009.138-.801.355-1.97.527-3.405.654.205 1.42.166 2.154-.275zm1.963 7.866c.084.283.17.558.248.855.014.05.024.104.037.154-.325.06-.763.06-1.174-.085-.372-.133-.6-.464-.795-.82.09-.01.171-.048.305-.049.269 0 .708 0 1.38-.055zM32.988 27.197a.59.59 0 00-.415.114c-.079.059-.084.184-.108.294-.626-.122-1.278.469-1.076 1.357-.442.134-.785.323-.917.629-.13.3-.047.654.087 1.03-.502.206-.9.504-1.023.907-.113.37.067.767.297 1.14-.383.062-.724.136-.946.257-.265.145-.432.346-.498.572-.115.39.074.79.236 1.182-.062.026-.12.053-.21.07-.132.027-.294.052-.44.166-.145.113-.24.31-.26.581-.016.236.039.586.126 1.001-.349.1-.653.208-.836.364a.882.882 0 00-.317.682c.002.468.294.958.555 1.515-.512.28-.99.745-1.145 1.363-.15.6.07 1.265.657 1.817-.053.016-.12.02-.167.041a.5.5 0 00-.289.297c-.043.143-.005.292.074.435.078.144.201.296.374.472a.182.182 0 10.26-.254 2 2 0 01-.315-.393c-.052-.096-.049-.14-.045-.154.004-.014.018-.038.092-.071.073-.033.195-.065.352-.085l.183-.024a49.623 49.623 0 00-1.105 8.109 36.92 36.92 0 00-.612-1.29c-.5-1.004-1.022-1.978-1.245-2.33l-.374-.591-.102.691c-.087.587-.104 1.787.193 2.952.149.583.376 1.156.728 1.627.328.438.777.779 1.343.938a61.99 61.99 0 00.022 3.796.26.26 0 000 .01h.52a.26.26 0 00.001-.026c-.2-5.088.226-9.269.928-12.767.387-.122.598-.37.64-.629.035-.206-.04-.372-.101-.526.55-.186 1.02-.48 1.247-.924.213-.419.148-.937-.004-1.45.263.067.525.13.74.079a.994.994 0 00.651-.499c.25-.458.144-1.178-.142-1.998.262-.01.623.027.936-.193.183-.129.316-.353.34-.653.018-.243-.076-.587-.194-.962.21-.001.424 0 .588-.051a.744.744 0 00.486-.472c.134-.423-.109-1.056-.545-1.918.206-.08.404-.16.52-.277a.75.75 0 00.216-.551c-.007-.351-.197-.75-.376-1.227.174-.031.395-.043.596-.26a.823.823 0 00.204-.615c-.013-.236-.127-.529-.308-.864.386-.368.613-.78.584-1.131a.913.913 0 00-.193-.509c-.058-.07-.155-.075-.236-.114.067-.133.155-.269.126-.389-.042-.177-.212-.274-.358-.288zm-.036.366c.046 0 .038 0 .04.012.002.01-.003.102-.124.266a.26.26 0 00-.095-.114l-.01-.045c-.012-.047-.007-.05.03-.077a.275.275 0 01.159-.043zm-.594.287c.01 0 .02.01.03.01a.26.26 0 00-.014.055c-.282 1.973-2.006 4.834-3.587 9.306a46.192 46.192 0 00-1.466 5.086l-.149-.106c-.73-.511-.862-1.121-.72-1.686.142-.564.598-1.072 1.062-1.267l.173-.073-.08-.171c-.281-.62-.551-1.131-.553-1.457 0-.163.04-.277.187-.403.147-.125.415-.252.84-.354l.177-.04-.042-.178c-.118-.5-.151-.834-.137-1.043.015-.209.064-.278.12-.322.056-.044.155-.07.287-.096.133-.026.3-.052.452-.164l.114-.085-.053-.133c-.185-.45-.337-.863-.26-1.125.038-.13.121-.243.323-.354.202-.11.523-.205.997-.262l.335-.041-.217-.258c-.305-.362-.388-.732-.291-1.05.097-.318.381-.607.91-.775l.188-.061-.075-.183c-.16-.39-.19-.679-.104-.879.087-.2.303-.369.767-.484l.204-.05-.078-.192c-.295-.754.29-1.184.66-1.164zm.66.286c.048 0 .1.02.155.085a.56.56 0 01.112.306c.022.264-.087.626-.519.962l-.126.098.08.14c.202.352.279.609.289.785.01.178-.038.274-.108.35-.141.152-.425.202-.582.232l-.208.037.07.202c.208.592.4 1.02.404 1.271a.338.338 0 01-.11.285c-.086.086-.252.183-.528.27l-.208.065.102.194c.517.977.647 1.569.57 1.814-.04.123-.106.185-.257.236-.15.051-.381.07-.673.053l-.279-.016.096.263c.179.48.232.816.215 1.033-.016.217-.084.312-.185.383-.201.141-.609.124-.932.164l-.235.026.089.22c.357.887.362 1.558.175 1.902a.6.6 0 01-.415.317c-.19.046-.447.026-.76-.09l-.402-.149.171.39c.23.53.213 1.017.012 1.41-.2.393-.589.7-1.155.845a45.815 45.815 0 011.402-4.828c1.527-4.324 3.21-7.083 3.578-9.25zm-5.227 14.446c.044.12.078.247.06.35-.014.09-.08.169-.197.242.043-.204.092-.393.137-.592zm-3.365 5.729c.231.43.395.702.665 1.245.247.496.485.997.67 1.413.183.417.313.77.335.887a.26.26 0 00.026.073l-.004.145a1.982 1.982 0 01-.944-.712c-.295-.395-.503-.907-.64-1.445-.16-.628-.1-1.064-.108-1.607zM39.642 45.436c-.316-.01-.663.053-1.02.157-1.527.439-1.756 1.588-.94 3.061-1.706-.435-2.777.337-2.446 1.276.26.735.38 1.343 2.358.954-1.345.993-1.48 1.506-1.186 1.967-.384.218-.832.584-1.28 1.076-.574.63-1.12 1.456-1.379 2.399a.26.26 0 00-.008.086h.529c.235-.814.724-1.563 1.245-2.134.475-.523.96-.866 1.259-1.013.103.098.193.192.307.3 1.036.983 2.326.62 3.103-1.635.488 1.808 1.764 2.049 2.652 1.483.814-.518 1.12-1.47.122-2.82 1.682-1.886 1.475-2.809.926-3.144-.851-.52-2.392-.483-2.86.449.228-1.827-.433-2.442-1.382-2.461zm-.053 2.868c1.941-.114 2.228 2.158.853 2.806-2.167 1.02-2.856-2.418-1.263-2.75.144-.03.281-.048.41-.056zM48.986 43.097c-.278-.035-.586.062-.879.244-.24.15-.322.45-.268.68.053.228.194.422.374.57.18.15.41.261.67.233a.711.711 0 00.443-.252c3.341 2.894 6.547 7.933 7.282 11.84h.523a.26.26 0 00-.008-.082c-.773-4.136-4.072-9.273-7.557-12.244.04-.16.06-.312.03-.452a.674.674 0 00-.344-.456.768.768 0 00-.266-.08zm-.21.53c.111-.017.196-.01.238.015.042.022.059.037.072.1.013.06.009.179-.06.35-.075.189-.136.208-.2.215-.065.01-.18-.031-.282-.116a.62.62 0 01-.197-.289c-.019-.08-.028-.08.037-.12.144-.09.281-.136.392-.154zM88.372 53.384c-.192-.043-.395.016-.6.145a.767.767 0 00-.318.398c-.5.17-1.028.52-1.513.936-.53.454-.993.968-1.245 1.422a.26.26 0 00-.04.126h.59a5.637 5.637 0 011.035-1.153c.405-.348.85-.637 1.218-.792.02.035.03.077.055.108.116.142.292.24.492.252a.794.794 0 00.59-.242.667.667 0 00.188-.413.851.851 0 00-.057-.45.582.582 0 00-.395-.337zm-.112.509c.01 0 .012 0 .029.037a.381.381 0 01.018.175c-.008.062-.038.11-.035.107-.09.088-.15.098-.195.096a.151.151 0 01-.118-.063.154.154 0 01-.035-.111.26.26 0 000-.01c.007-.04.027-.087.125-.149.134-.084.2-.08.211-.077zM85.03 35.134c-.274-.033-.578.051-.86.265-.52.39-.551 1.095-.245 1.552.036.054.095.09.142.136-3.29 4.06-4.755 11.584-5.921 19.235a.26.26 0 000 .09h.512a.26.26 0 00.002-.01c1.167-7.651 2.68-15.146 5.83-19.01a.26.26 0 00.033-.048c.042.01.082.018.126.02.311.01.642-.139.973-.445.426-.397.38-1.021.067-1.41a1.01 1.01 0 00-.66-.374zm-.066.517a.483.483 0 01.32.185c.165.205.199.502-.016.702-.265.245-.468.31-.603.305-.134 0-.23-.068-.307-.183-.155-.23-.151-.639.124-.846.198-.15.355-.179.482-.163z"/>
    <path d="M81.557 0l-.653.44c-3.153 2.133-5.902 6.443-7.083 10.946-1.12 4.267-.796 8.795 2.221 11.648a.73.73 0 00-.077.071c-3.7 3.86-7.031 8.434-9.181 13.732-.163-1.969-1.134-3.878-2.211-5.375-.67-.93-1.38-1.703-1.967-2.236a5.768 5.768 0 00-.78-.61 1.59 1.59 0 00-.31-.158c-.1-.035-.205-.068-.347-.014l-.142.055-.022.15c-.569 3.957-.898 6.835-.38 8.933.258 1.048.74 1.904 1.509 2.557.757.644 1.784 1.086 3.124 1.377-1.198 4.878-.063 8.664-.73 14.633a.73.73 0 00.01.262h1.422a.73.73 0 00.016-.1c.696-6.23-.414-9.978.706-14.488 1.737-6.992 5.72-12.892 10.337-17.709a.73.73 0 00.124-.17c1.268.987 2.8 2.04 4.491 2.29 8.16 1.208 15.553-4.517 18.238-12.5l.128-.385-.342-.22c-.67-.431-1.318-.57-1.947-.545-.494.02-1 .117-1.566.214.233-1.043.385-2.115.43-3.21l.018-.444-.438-.087c-1.468-.295-3.203-.096-4.76.075.133-1.054.185-2.114.163-3.167l-.013-.525-.524.016c-1.227.039-2.47.297-3.644.65-.117-1.225-.333-1.892-.53-2.518l-.14-.433-.449.079c-1.574.279-2.745.672-3.967 1.353A50.273 50.273 0 0081.708.77zm-.74 1.892c1.206 6.842.706 11.57-.234 14.82a23.098 23.098 0 01-1.62 4.062c-.494.983-.896 1.688-1.119 2.358-.204-.156-.439-.298-.63-.452-3.083-2.472-3.505-6.758-2.384-11.03 1.03-3.927 3.406-7.674 5.987-9.758zm5.14 2.543c.165.524.326.978.41 2.006-.276.1-.557.197-.819.305-1.202.498-2.224 1.051-2.964 1.572a40.396 40.396 0 00-.162-2.614c1.127-.68 2.18-.99 3.535-1.27zm4.498 2.205c-.02 2.914-.538 5.798-2.166 8.396-1.635 2.606-4.352 4.947-8.679 6.76.098-.191.176-.34.283-.554a24.194 24.194 0 001.69-4.241c.56-1.935.966-4.358 1-7.352a.52.52 0 00.026-.022c.507-.48 1.785-1.276 3.338-1.919 1.37-.567 2.978-.93 4.508-1.068zm4.05 3.38c.331.01.65.034.952.07-.308 4.228-2.13 8.102-4.98 10.696-2.974 2.708-6.998 4.05-11.54 3.035a.521.521 0 00-.136-.01l-.108-.07a.52.52 0 00.08-.161c.028-.1.116-.268.17-.395a.521.521 0 00.106-.026c5.05-1.919 8.238-4.563 10.122-7.57 1.076-1.716 1.714-3.543 2.06-5.403a.52.52 0 00.113 0c1.072-.117 2.17-.193 3.161-.162zm3.247 3.604c.313-.013.598.137.887.252-2.685 7.306-9.43 12.426-16.852 11.327-.016 0-.031-.01-.047-.012 3.65.044 6.92-1.342 9.437-3.633 2.187-1.99 3.8-4.66 4.673-7.653.83-.122 1.43-.262 1.902-.281zm-36.265 15.4c.024.013.037.016.065.034.111.07.28.217.433.342a.26.26 0 00-.016.09c-.013 1.055.114 1.91.317 2.647-.241.023-.47.055-.635.055a.98.98 0 01-.543-.153c.101-.93.223-1.92.379-3.015zm1.015.84c.51.49 1.087 1.123 1.648 1.901 1.296 1.801 2.415 4.2 2.097 6.443a.26.26 0 00-.006.057l-.053.149c-.203-1.471-.928-2.402-1.668-3.32-.977-1.211-1.967-2.455-2.018-5.23zm-1.443 2.715c.206.082.406.133.594.132.265 0 .511-.046.792-.067.105.296.221.57.35.824-.564.022-1.285.01-1.813-.035.02-.272.05-.565.077-.854zm-.124 1.371c.636.054 1.525.07 2.128.033a.26.26 0 00.012 0c.267.441.557.82.845 1.18-.392.045-.9.125-1.504.22-.362.056-.722.11-1.025.144-.221.025-.353.025-.482.026a18.84 18.84 0 01.026-1.602zm3.347 1.687c.341.424.664.838.913 1.3-.18.035-.38.086-.63.162-.38.116-.826.273-1.264.45-.437.177-.868.373-1.218.574a2.893 2.893 0 00-.56.388 4.991 4.991 0 01-.392-1.056 8.228 8.228 0 01-.198-1.387c.16 0 .306 0 .517-.024.316-.036.68-.09 1.046-.146.73-.115 1.477-.24 1.751-.257a.26.26 0 00.035 0zm1.143 1.792c.154.394.256.841.291 1.363-.402.046-.882.257-1.353.541-.44.265-.844.58-1.086.94a4.68 4.68 0 01-.806-.531 3.819 3.819 0 01-.667-.757c.054-.07.245-.242.537-.409a9.97 9.97 0 011.156-.545c.422-.17.855-.322 1.218-.433.333-.102.586-.154.71-.169zm.307 1.898a8.11 8.11 0 01-.049.635c-.103.348-.2.7-.293 1.053a8.915 8.915 0 01-1.625-.5c.178-.228.489-.507.867-.734.414-.25.853-.413 1.1-.454z"/>
  </g>
</svg>

