<svg xmlns="http://www.w3.org/2000/svg" xmlns:xlink="http://www.w3.org/1999/xlink" viewBox="0 0 1100 220">
  <defs>
    <clipPath id="a">
      <circle r="50" cy="50" cx="50"/>
    </clipPath>
    <path d="M80.69 15.76c-.44 13.06-6.86 21.44-14.02 29.38a49.64 49.64 0 01-2.22-8.05c5.04-5.97 9.06-12.9 9.1-20.95.03-3.29-.61-9.16-4.53-9.23-4.9-.08-8.38 8.94-8.82 15.67-1.32 20.02 6.5 37.16 11.75 37.09 2.4-.04 3.15-3.12 3.5-5.88.2-1.54 2.26-2.97 4.2-2.3 1.93.69 2.58 2.42 2.36 4.1-.73 5.37-5.2 11.68-11.25 10.87-11.74-2.2-16.05-21.59-17.15-31.51C51.37 14.76 57.51-1 70.7 1.45c6.62 1.24 10.25 6.37 9.99 14.3zM34.35 28.38c6.66.4 10.01 3.86 12.2 6.55 2.32 2.85 1.94 4.92.24 6-1.7 1.06-3.58.17-4.92-1-5.84-5.1-9.97-5.64-14.44-.72-4.14 4.54-2.58 12.55 1.34 17.06 3.55 4.08 8.35 6.71 12.06 9.46 4.94 3.67 10.38 9.69 10.05 18.73C50.5 95.1 44.15 100.4 36.2 99.8c-6.93-.51-12.37-4.4-12.93-12.27-.38-5.38 1.68-11.62 7.38-17.08a24.07 24.07 0 015.13 4.29c-2.45 2.49-5.48 6.08-5.57 10.16-.06 2.34.2 8.14 5.9 8.72 3.79.39 8.26-4.36 7.98-9.58-.31-5.83-2.39-9.65-8.24-13.96-8.43-6.22-17.08-9.51-17.3-23.71-.2-12.62 10-18.35 15.8-18zM52.59 49.9a50.76 50.76 0 002.8 6.77 191.74 191.74 0 00-8.35 8.8 56.74 56.74 0 00-5.42-4.08c3.5-4.03 7.48-8.03 10.97-11.49z" id="b"/>
  </defs>
  <path d="M109.97 220a110 110 0 010-220h880.04a110 110 0 010 220z" fill="#fff"/>
  <path d="M296.34 108.74h20.44v33.87q-7 5.02-16.12 7.71-9.1 2.69-18.22 2.69-12.85 0-23.13-5.38-10.28-5.49-16.12-15.18-5.84-9.7-5.84-21.96 0-12.27 5.84-21.96 5.84-9.7 16.24-15.07 10.4-5.49 23.48-5.49 11.45 0 20.56 3.86 9.1 3.85 15.18 11.1l-14.72 13.3q-8.29-9.1-19.85-9.1-10.52 0-16.94 6.42-6.43 6.31-6.43 16.94 0 6.77 2.92 12.15 2.92 5.25 8.18 8.3 5.26 2.91 12.03 2.91 6.66 0 12.5-2.69zM373.53 153q-12.97 0-23.36-5.5-10.28-5.48-16.24-15.18-5.84-9.7-5.84-21.84 0-12.15 5.84-21.84 5.96-9.7 16.24-15.19 10.4-5.49 23.36-5.49 12.96 0 23.24 5.5 10.4 5.48 16.24 15.18 5.96 9.7 5.96 21.84 0 12.15-5.96 21.84-5.84 9.7-16.24 15.19Q386.5 153 373.53 153zm0-19.16q6.19 0 11.21-2.92 5.03-2.92 7.95-8.18 2.92-5.37 2.92-12.26 0-6.9-2.92-12.15-2.92-5.37-7.95-8.3-5.02-2.91-11.21-2.91-6.2 0-11.21 2.92-5.03 2.92-7.95 8.3-2.92 5.25-2.92 12.14 0 6.9 2.92 12.26 2.92 5.26 7.95 8.18 5.02 2.92 11.2 2.92zm99.63 19.16q-12.96 0-23.36-5.5-10.28-5.48-16.23-15.18-5.84-9.7-5.84-21.84 0-12.15 5.84-21.84 5.95-9.7 16.23-15.19 10.4-5.49 23.36-5.49 12.97 0 23.25 5.5 10.4 5.48 16.24 15.18 5.95 9.7 5.95 21.84 0 12.15-5.95 21.84-5.84 9.7-16.24 15.19-10.28 5.49-23.25 5.49zm0-19.16q6.2 0 11.22-2.92 5.02-2.92 7.94-8.18 2.92-5.37 2.92-12.26 0-6.9-2.92-12.15-2.92-5.37-7.94-8.3-5.03-2.91-11.22-2.91t-11.21 2.92q-5.02 2.92-7.94 8.3-2.92 5.25-2.92 12.14 0 6.9 2.92 12.26 2.92 5.26 7.94 8.18 5.02 2.92 11.21 2.92zm58.4-64.24h38.67q13.43 0 23.83 5.02 10.4 5.02 16.12 14.25 5.72 9.23 5.72 21.6 0 12.4-5.72 21.62-5.73 9.23-16.12 14.25-10.4 5.02-23.83 5.02h-38.66zm37.74 63.3q10.5 0 16.82-5.95 6.42-5.96 6.42-16.47 0-10.51-6.42-16.47-6.31-5.96-16.82-5.96h-14.6v44.86zM635.89 97.36h43.56v23.67h-43.56zM706.35 69.6h23.13v63.43h39.01v18.34h-62.14zm111.9 83.4q-12.97 0-23.36-5.48-10.28-5.5-16.24-15.19-5.84-9.7-5.84-21.84 0-12.15 5.84-21.84 5.96-9.7 16.24-15.19 10.4-5.49 23.36-5.49 12.96 0 23.24 5.5 10.4 5.48 16.24 15.18 5.96 9.7 5.96 21.84 0 12.15-5.96 21.84-5.84 9.7-16.24 15.19-10.28 5.49-23.24 5.49zm0-19.15q6.19 0 11.21-2.92 5.02-2.92 7.94-8.18 2.92-5.37 2.92-12.26 0-6.9-2.92-12.15-2.92-5.37-7.94-8.3-5.02-2.91-11.21-2.91-6.2 0-11.22 2.92-5.02 2.92-7.94 8.3-2.92 5.25-2.92 12.14 0 6.9 2.92 12.26 2.92 5.26 7.94 8.18 5.03 2.92 11.22 2.92zm99.63 19.16q-12.96 0-23.36-5.5-10.28-5.48-16.24-15.18-5.84-9.7-5.84-21.84 0-12.15 5.84-21.84 5.96-9.7 16.24-15.19 10.4-5.49 23.36-5.49 12.97 0 23.25 5.5 10.4 5.48 16.23 15.18 5.96 9.7 5.96 21.84 0 12.15-5.96 21.84-5.84 9.7-16.23 15.19-10.28 5.49-23.25 5.49zm0-19.16q6.2 0 11.22-2.92 5.02-2.92 7.94-8.18 2.92-5.37 2.92-12.26 0-6.9-2.92-12.15-2.92-5.37-7.94-8.3-5.03-2.91-11.22-2.91t-11.21 2.92q-5.02 2.92-7.94 8.3-2.92 5.25-2.92 12.14 0 6.9 2.92 12.26 2.92 5.26 7.94 8.18 5.02 2.92 11.21 2.92zm95.78-64.24q11.1 0 19.28 3.73 8.17 3.63 12.61 10.52 4.44 6.77 4.44 16t-4.44 16q-4.44 6.78-12.61 10.52-8.18 3.62-19.28 3.62h-14.25v21.37h-23.13V69.61zm-1.4 42.16q7.13 0 10.75-3.03 3.62-3.16 3.62-8.88 0-5.72-3.62-8.88-3.62-3.15-10.75-3.15h-12.85v23.94z"/>
  <g clip-path="url(#a)" transform="translate(49.99 32.42) scale(1.55176)">
    <path d="M100 0v100l-70 .08C7.75 67.16 90.52 52.23 75 .09z" fill="#af2009"/>
    <path d="M0 0l.5 100 29.5.08C7.75 67.16 90.52 52.23 75 .09z" fill="#770f00"/>
    <use height="100%" width="100%" xlink:href="#b" fill="#fff"/>
  </g>
</svg>
