<?xml version="1.0" encoding="UTF-8" standalone="no"?>
<svg
   xmlns:dc="http://purl.org/dc/elements/1.1/"
   xmlns:cc="http://creativecommons.org/ns#"
   xmlns:rdf="http://www.w3.org/1999/02/22-rdf-syntax-ns#"
   xmlns:svg="http://www.w3.org/2000/svg"
   xmlns="http://www.w3.org/2000/svg"
   xmlns:sodipodi="http://sodipodi.sourceforge.net/DTD/sodipodi-0.dtd"
   xmlns:inkscape="http://www.inkscape.org/namespaces/inkscape"
   width="133.30972mm"
   height="132.50539mm"
   viewBox="0 0 377.88593 375.60608"
   version="1.1"
   id="svg6"
   sodipodi:docname="logo-white.svg"
   inkscape:version="0.92.4 (5da689c313, 2019-01-14)">
  <metadata
     id="metadata12">
    <rdf:RDF>
      <cc:Work
         rdf:about="">
        <dc:format>image/svg+xml</dc:format>
        <dc:type
           rdf:resource="http://purl.org/dc/dcmitype/StillImage" />
        <dc:title>GoodLoopLogos</dc:title>
      </cc:Work>
    </rdf:RDF>
  </metadata>
  <defs
     id="defs10" />
  <sodipodi:namedview
     pagecolor="#ffffff"
     bordercolor="#666666"
     borderopacity="1"
     objecttolerance="10"
     gridtolerance="10"
     guidetolerance="10"
     inkscape:pageopacity="0"
     inkscape:pageshadow="2"
     inkscape:window-width="1263"
     inkscape:window-height="1033"
     id="namedview8"
     showgrid="false"
     fit-margin-top="0"
     fit-margin-left="0"
     fit-margin-right="0"
     fit-margin-bottom="0"
     inkscape:zoom="0.29734127"
     inkscape:cx="258.65294"
     inkscape:cy="250.40929"
     inkscape:window-x="0"
     inkscape:window-y="0"
     inkscape:window-maximized="0"
     inkscape:current-layer="svg6" />
  <title
     id="title2">GoodLoopLogos</title>
  <path
     d="m 134.341,280.761 c 0.367,0.448 -9.231,10.348 -10.2,11.559 a 50.3,50.3 0 0 0 -9.61,19.1 c -3.239,13.074 -0.655,30.867 12.49,37.8 20.113,10.6 39.175,-13.871 38.514,-33.492 -0.574,-17.147 -6.936,-32.963 -19.988,-43.8 -3.416,-2.835 -10.247,-8.256 -10.247,-8.256 -6.6,-5.186 -13.284,-10.138 -20.387,-14.895 -9.333,-6.252 -19.181,-12.628 -26.5,-21.254 -22.807,-26.887 -25.72,-70.927 -3.388,-98.944 a 63.7,63.7 0 0 1 6.376,-7.007 c 11.523,-10.724 24.681,-15.248 37.6,-14.947 19.488,0.451 38.421,11.979 50.305,30.577 4.417,6.907 1.117,13.532 -4.383,16.727 a 14.891,14.891 0 0 1 -4.533,1.716 12.205,12.205 0 0 1 -13.123,-5.638 C 147.083,134.061 130.37,127.611 116.015,135.161 a 35.582,35.582 0 0 0 -11.832,10.356 c -0.423,0.564 -0.783,1.164 -1.175,1.744 -12.949,19.115 -9.417,46.911 5.033,64.089 12.111,14.4 28.979,23.888 44.388,34.8 0.32,0.227 0.608,0.511 0.928,0.744 v 0 a 98.9,98.9 0 0 1 27.661,31.21 77.285,77.285 0 0 1 6.313,14.259 c 9.51,29.692 -0.678,69.122 -31.78,80.258 a 191.058,191.058 0 0 0 33.394,2.985 c 104.347,0 188.941,-84.083 188.941,-187.806 0,-62.077 -30.319,-117.1 -77.024,-151.29 5.8,26.929 -3.109,61.66 -12.962,81.013 -7.291,14.328 -16.644,27.533 -27.072,40.054 -3.378,4.054 -6.872,8.037 -10.442,11.962 -1.656,-4.337 -3.068,-8.748 -4.326,-13.2 v 0 q -2.376,-8.407 -3.975,-17.02 c 3.773,-4.535 7.477,-9.129 10.918,-13.924 14.013,-19.524 22.912,-40.281 23.283,-64.777 0.174,-11.269 -2.175,-28.98 -11.8,-33.515 -3.544,-1.67 -8.043,-1.6 -13.809,1.3 -0.417,0.21 -0.782,0.489 -1.185,0.718 -21.149,11.957 -23.493,48.167 -23.952,68.932 -0.177,8.021 0.094,16.1 0.691,24.186 a 11.806,11.806 0 0 0 0.13,2.148 c 1.28,15.45 3.607,30.85 7.971,45.684 v 0 a 147.823,147.823 0 0 0 7.388,20.042 c 5.011,10.915 13.924,30.784 27.133,33.794 4.967,1.134 9.444,-1.962 12.448,-12.078 a 72.4,72.4 0 0 0 2.1,-9.778 c 1.054,-7 6.291,-9.6 11.681,-9.049 a 15,15 0 0 1 4.334,1.078 c 5.331,2.26 9.673,7.564 8.6,14.714 a 59.044,59.044 0 0 1 -8.7,23.825 c -9.646,14.646 -25.334,20.707 -41.238,14.98 a 51.532,51.532 0 0 1 -19.64,-13.341 c -10.47,-11.028 -17.4,-25.173 -22.7,-39.241 -0.528,-1.4 -1,-2.839 -1.5,-4.26 v 0 c -6.876,-19.695 -10.776,-41.143 -12.885,-61.532 -3.22,-31.14 -2.443,-65.573 11.241,-94.085 A 69.78,69.78 0 0 1 232.585,10.53 58.721,58.721 0 0 1 238.469,6.5640003 190.128,190.128 0 0 0 188.946,3.2107994e-7 C 84.6,-0.00599968 0,84.08 0,187.797 c 0,69.114 37.583,129.466 93.518,162.074 -14.2,-26.094 -2.253,-62.386 18.126,-82.076 0.923,-0.893 3.4,-3.151 3.4,-3.151 a 101.736,101.736 0 0 1 11.15,8.095 c 2.722,2.212 8.147,8.022 8.147,8.022 z m 42.346,-34.847 a 150.937,150.937 0 0 0 -11.874,-9.37 v 0 c -0.558,-0.406 -1.1,-0.831 -1.659,-1.229 -2.259,-1.6 -4.55,-3.164 -6.849,-4.72 4.754,-5.407 9.546,-10.68 14.173,-15.633 8.742,-9.35 17.877,-18.44 27.031,-27.534 0.843,2.554 1.724,5.086 2.664,7.582 0.835,2.214 1.761,4.414 2.689,6.616 v 0 c 1.594,3.792 3.282,7.561 5.189,11.231 -3.654,3.634 -7.307,7.266 -10.82,10.909 -6.91,7.165 -13.864,14.539 -20.544,22.148 z"
     id="path4"
     inkscape:connector-curvature="0"
     style="fill:#ffffff" />
</svg>
