<svg xmlns="http://www.w3.org/2000/svg" width="297mm" height="210mm" viewBox="0 0 841.89 595.276">
  <title>GoodLoopLogos</title>
  <path d="M366.341,390.6c.367.448-9.231,10.348-10.2,11.559a50.3,50.3,0,0,0-9.61,19.1c-3.239,13.074-.655,30.867,12.49,37.8,20.113,10.6,39.175-13.871,38.514-33.492-.574-17.147-6.936-32.963-19.988-43.8-3.416-2.835-10.247-8.256-10.247-8.256-6.6-5.186-13.284-10.138-20.387-14.895-9.333-6.252-19.181-12.628-26.5-21.254-22.807-26.887-25.72-70.927-3.388-98.944a63.7,63.7,0,0,1,6.376-7.007c11.523-10.724,24.681-15.248,37.6-14.947,19.488.451,38.421,11.979,50.305,30.577,4.417,6.907,1.117,13.532-4.383,16.727a14.891,14.891,0,0,1-4.533,1.716,12.205,12.205,0,0,1-13.123-5.638C379.083,243.9,362.37,237.45,348.015,245a35.582,35.582,0,0,0-11.832,10.356c-.423.564-.783,1.164-1.175,1.744-12.949,19.115-9.417,46.911,5.033,64.089,12.111,14.4,28.979,23.888,44.388,34.8.32.227.608.511.928.744h0a98.9,98.9,0,0,1,27.661,31.21,77.285,77.285,0,0,1,6.313,14.259c9.51,29.692-.678,69.122-31.78,80.258a191.058,191.058,0,0,0,33.394,2.985c104.347,0,188.941-84.083,188.941-187.806,0-62.077-30.319-117.1-77.024-151.29,5.8,26.929-3.109,61.66-12.962,81.013-7.291,14.328-16.644,27.533-27.072,40.054-3.378,4.054-6.872,8.037-10.442,11.962-1.656-4.337-3.068-8.748-4.326-13.2v0q-2.376-8.407-3.975-17.02c3.773-4.535,7.477-9.129,10.918-13.924,14.013-19.524,22.912-40.281,23.283-64.777.174-11.269-2.175-28.98-11.8-33.515-3.544-1.67-8.043-1.6-13.809,1.3-.417.21-.782.489-1.185.718-21.149,11.957-23.493,48.167-23.952,68.932-.177,8.021.094,16.1.691,24.186a11.806,11.806,0,0,0,.13,2.148c1.28,15.45,3.607,30.85,7.971,45.684h0a147.823,147.823,0,0,0,7.388,20.042c5.011,10.915,13.924,30.784,27.133,33.794,4.967,1.134,9.444-1.962,12.448-12.078a72.4,72.4,0,0,0,2.1-9.778c1.054-7,6.291-9.6,11.681-9.049a15,15,0,0,1,4.334,1.078c5.331,2.26,9.673,7.564,8.6,14.714a59.044,59.044,0,0,1-8.7,23.825c-9.646,14.646-25.334,20.707-41.238,14.98a51.532,51.532,0,0,1-19.64-13.341c-10.47-11.028-17.4-25.173-22.7-39.241-.528-1.4-1-2.839-1.5-4.26h0c-6.876-19.695-10.776-41.143-12.885-61.532-3.22-31.14-2.443-65.573,11.241-94.085a69.78,69.78,0,0,1,19.991-24.61,58.721,58.721,0,0,1,5.884-3.966,190.128,190.128,0,0,0-49.523-6.564C316.6,109.833,232,193.919,232,297.636c0,69.114,37.583,129.466,93.518,162.074-14.2-26.094-2.253-62.386,18.126-82.076.923-.893,3.4-3.151,3.4-3.151a101.736,101.736,0,0,1,11.15,8.095C360.916,384.79,366.341,390.6,366.341,390.6Zm42.346-34.847a150.937,150.937,0,0,0-11.874-9.37h0c-.558-.406-1.1-.831-1.659-1.229-2.259-1.6-4.55-3.164-6.849-4.72,4.754-5.407,9.546-10.68,14.173-15.633,8.742-9.35,17.877-18.44,27.031-27.534.843,2.554,1.724,5.086,2.664,7.582.835,2.214,1.761,4.414,2.689,6.616h0c1.594,3.792,3.282,7.561,5.189,11.231-3.654,3.634-7.307,7.266-10.82,10.909C422.321,340.77,415.367,348.144,408.687,355.753Z" fill="#fff"/>
</svg>
