<?xml version="1.0" encoding="UTF-8"?>
<svg width="778.5" height="530" data-name="Layer 1" version="1.1" viewBox="0 0 778.5 530" xmlns="http://www.w3.org/2000/svg">
 <defs>
  <style>.cls-1 {
        stroke-width: 0px;
      }</style>
 </defs>
 <g transform="matrix(.89729 0 0 .89729 -298.21 327.53)" stroke-width=".91969" aria-label="My.Good-Loop">
  <g stroke-width="0px">
   <rect class="cls-1" x="853.54" y="135.99" width="45.77" height="19.48"/>
   <path class="cls-1" d="m577.57 157.09h21.6v0.8c-1.06 13.78-9.01 21.99-20.93 21.99-15.24 0-24.64-12.59-24.64-34.18 0-20.4 9.14-34.05 24.91-34.05 11.39 0 18.95 6.76 20.93 19.61l14.04-4.5c-2.91-16.69-14.57-28.75-34.45-28.75-24.91 0-41.73 18.28-41.73 48.36s15.9 46.9 37.49 46.9c15.1 0 23.85-8.48 27.16-19.47v17.49h11.92v-46.37h-36.3v12.19z"/>
   <path class="cls-1" d="m656.4 124.37c-17.75 0-31.27 12.85-31.27 34.18s13.38 34.18 31.27 34.18 31.53-12.59 31.53-34.18-13.65-34.18-31.53-34.18zm0 56.7c-9.81 0-15.9-7.82-15.9-22.52s6.09-22.39 15.9-22.39 16.03 7.82 16.03 22.39-6.09 22.52-16.03 22.52z"/>
   <path class="cls-1" d="m727.4 124.37c-17.75 0-31.27 12.85-31.27 34.18s13.38 34.18 31.27 34.18 31.53-12.59 31.53-34.18-13.65-34.18-31.53-34.18zm0 56.7c-9.8 0-15.9-7.82-15.9-22.52s6.09-22.39 15.9-22.39 16.03 7.82 16.03 22.39-6.09 22.52-16.03 22.52z"/>
   <path class="cls-1" d="m815.24 138.68c-3.18-7.68-9.94-13.91-20.8-13.91-16.03 0-27.16 12.98-27.16 34.05s11.13 34.05 26.5 34.05c10.73 0 18.15-5.83 21.73-14.04v12.45h14.97v-91.28h-15.24v38.69zm-16.16 42.93c-10.33 0-16.43-7.95-16.43-22.92s6.23-22.65 16.56-22.65 16.3 8.48 16.3 22.79-6.23 22.79-16.43 22.79z"/>
   <polygon class="cls-1" transform="translate(199.39)" points="781.18 191.27 781.18 177.1 738.92 177.1 738.92 99.99 723.02 99.99 723.02 191.27"/>
   <path class="cls-1" d="m1017.1 124.37c-17.75 0-31.26 12.85-31.26 34.18s13.38 34.18 31.26 34.18c17.88 0 31.53-12.59 31.53-34.18s-13.65-34.18-31.53-34.18zm0 56.7c-9.8 0-15.9-7.82-15.9-22.52s6.09-22.39 15.9-22.39 16.03 7.82 16.03 22.39-6.09 22.52-16.03 22.52z"/>
   <path class="cls-1" d="m1088.1 124.37c-17.75 0-31.26 12.85-31.26 34.18s13.38 34.18 31.26 34.18 31.53-12.59 31.53-34.18-13.65-34.18-31.53-34.18zm0 56.7c-9.8 0-15.9-7.82-15.9-22.52s6.09-22.39 15.9-22.39 16.03 7.82 16.03 22.39-6.09 22.52-16.03 22.52z"/>
   <path class="cls-1" d="m1168.3 124.9c-11.13 0-18.81 6.23-22.26 14.71v-13.25h-14.71v90.75h15.1v-38.02c3.31 7.68 10.2 13.78 21.07 13.78 15.77 0 26.89-12.98 26.89-34.18s-11-33.78-26.1-33.78zm-5.57 56.84c-10.07 0-16.56-8.61-16.56-22.92 0-13.51 6.36-22.79 16.69-22.79s16.16 8.21 16.16 23.05-6.23 22.65-16.3 22.65z"/>
  </g>
  <g fill="#ff194e">
   <path d="m386.92 169.99-23.574-69.926h-25.428v91.248h14.833v-76.548l26.752 76.548h13.508l27.679-76.68v76.68h15.23v-91.248h-24.368z"/>
   <path d="m479.51 175.02-17.217-48.604h-16.554l25.693 65.026-0.26487 1.1919c-1.8541 8.3435-4.9001 12.184-12.714 12.184h-9.403v12.184c3.046 0.26487 5.5623 0.26487 9.8003 0.26487 11.257 0 19.733-4.1055 24.898-17.482l27.282-73.37h-15.363z"/>
   <path d="m529.47 191.31v-19.601h-17.084v19.601z"/>
  </g>
 </g>
 <g transform="translate(89.25)">
  <path class="cls-1" d="m300 334.84c90.22 0 163.62-73.4 163.62-163.62s-73.4-163.61-163.62-163.61-163.62 73.4-163.62 163.62 73.4 163.62 163.62 163.62zm0-304.15c77.49 0 140.53 63.04 140.53 140.53s-63.04 140.53-140.53 140.53-140.53-63.04-140.53-140.53 63.04-140.53 140.53-140.53z"/>
  <path class="cls-1" d="m304.43 270.35v-24.63c-35.65 0-64.65-29-64.65-64.65v-7.69h-24.63v7.69c0 49.23 40.05 89.28 89.28 89.28z"/>
  <path class="cls-1" d="m288.51 197.33c33.62 0 60.87-27.25 60.87-60.87 0-13.5-4.4-25.96-11.83-36.05h25.48v-24.63h-69.91c-1.52-0.11-3.05-0.19-4.61-0.19-33.62 0-60.87 27.25-60.87 60.87s27.25 60.87 60.87 60.87zm0-97.12c1.09 0 2.17 0.06 3.23 0.15v0.04h0.5c18.24 1.87 32.52 17.33 32.52 36.05 0 19.99-16.26 36.25-36.25 36.25s-36.25-16.26-36.25-36.25 16.26-36.25 36.25-36.25z"/>
 </g>
</svg>
