<svg id="a" xmlns="http://www.w3.org/2000/svg" width="218.202mm" height="175.97mm" viewBox="0 0 618.526 498.812"><path d="M479.839,191.526c0-94.206-76.369-170.575-170.576-170.575S138.688,97.319,138.688,191.526H22.927c0,158.139,128.197,286.336,286.336,286.336s286.336-128.197,286.336-286.336h-115.76Z" fill="#fff"></path><g><path d="M78.865,284.389l20.642-7.14-19.939-4.227-2.285-6.745,12.548-15.238-19.971,6.767-4.723-13.941,45.389-15.379,4.262,12.583-19.18,22.974,29.065,6.199,4.262,12.582-45.347,15.506-4.723-13.941Z" fill="#ae1f09"></path><path d="M122.976,327.648l-14.375,9.769-9.078-13.356,14.545-9.892,14.914-31.98,9.58,14.091-8.194,17.405,19.234-1.158,8.772,12.899-35.397,2.222Z" fill="#ae1f09"></path><path d="M127.958,348.617c3.85-3.598,9.063-3.136,12.569,.613,3.505,3.748,3.619,8.984-.23,12.582-3.798,3.553-9.162,3.225-12.667-.524-3.506-3.743-3.47-9.117,.327-12.671Z" fill="#ae1f09"></path><path d="M182.18,374.621l11.179,8.482-12.25,16.141c-7.036-.351-14.699-3.503-20.316-7.77-12.324-9.351-15.071-24.417-6.174-36.135,8.9-11.729,24.147-13.133,36.742-3.57,7.526,5.709,11.592,12.921,11.863,20.602l-13.739,1.008c-.288-4.606-1.994-8.132-5.375-10.699-5.671-4.305-12.043-3.386-16.514,2.506-4.344,5.725-3.642,12.275,1.864,16.452,1.582,1.203,3.315,2.089,5.393,2.634l7.325-9.652Z" fill="#1d1d1b"></path><path d="M199.855,388.868c5.469-13.439,20.032-18.897,34.489-13.01,14.454,5.881,21.07,19.956,15.599,33.395-5.472,13.445-20.032,18.897-34.489,13.016-14.454-5.887-21.07-19.961-15.599-33.401Zm34.998,14.241c2.813-6.906,.079-12.899-5.437-15.144-5.518-2.245-11.657,.134-14.47,7.045-2.814,6.912-.079,12.899,5.437,15.149,5.515,2.239,11.657-.139,14.47-7.051Z" fill="#1d1d1b"></path><path d="M257.428,411.152c1.593-14.425,14.115-23.648,29.627-21.933,15.515,1.715,25.72,13.45,24.127,27.87-1.596,14.431-14.117,23.648-29.631,21.933-15.514-1.71-25.717-13.445-24.123-27.87Zm37.558,4.149c.82-7.413-3.446-12.431-9.365-13.088-5.92-.652-11.181,3.314-12,10.727-.82,7.419,3.446,12.437,9.368,13.088,5.919,.652,11.177-3.308,11.997-10.727Z" fill="#1d1d1b"></path><path d="M317.012,392.878l23.32-3.709c15.815-2.512,28.129,4.745,30.46,19.415,2.332,14.659-7.121,25.386-22.935,27.898l-23.32,3.709-7.524-47.313Zm28.19,31.279c6.692-1.064,10.653-5.787,9.504-13.016-1.15-7.235-6.38-10.487-13.075-9.424l-6.692,1.064,3.57,22.44,6.692-1.064Z" fill="#1d1d1b"></path><path d="M377.774,403.371l19.233-7.207,4.087,10.894-19.232,7.213-4.088-10.9Z" fill="#1d1d1b"></path><path d="M394.768,373.284l13.96-8.109,17.777,30.577,18.696-10.861,6.291,10.822-32.654,18.981-24.069-41.41Z" fill="#1d1d1b"></path><path d="M444.145,372.438c-10-10.515-8.982-26.026,2.324-36.781,11.306-10.755,26.851-10.994,36.85-.479,10,10.51,8.982,26.021-2.325,36.776-11.305,10.755-26.849,10.994-36.848,.485Zm27.373-26.038c-5.142-5.402-11.727-5.375-16.04-1.275-4.314,4.105-4.673,10.677,.468,16.085,5.141,5.402,11.725,5.375,16.04,1.275,4.314-4.105,4.673-10.682-.468-16.085Z" fill="#1d1d1b"></path><path d="M488.159,329.112c-12.466-7.419-15.678-22.623-7.7-36.029,7.98-13.406,22.877-17.839,35.343-10.421,12.465,7.419,15.677,22.623,7.699,36.029-7.98,13.411-22.877,17.839-35.342,10.421Zm19.314-32.459c-6.408-3.81-12.738-2.005-15.783,3.113-3.044,5.113-1.612,11.54,4.797,15.35,6.408,3.815,12.739,2.011,15.784-3.108,3.042-5.113,1.612-11.54-4.798-15.355Z" fill="#1d1d1b"></path><path d="M525.59,228.792c10.664,3.038,15.053,13.112,11.397,25.95l-1.894,6.65,11.324,3.225-4.426,15.533-46.08-13.122,6.319-22.189c3.655-12.836,12.696-19.085,23.36-16.047Zm-4.463,15.669c-3.357-.958-5.98,.501-7.199,4.779l-1.611,5.659,10.795,3.08,1.612-5.659c1.218-4.283-.241-6.906-3.598-7.859Z" fill="#1d1d1b"></path></g><g><path d="M458.951,184.305c-.75-15.545-3.845-30.42-8.923-44.305-6.527-4.159-15.536-8.543-27.196-11.374,2.974,3.393,5.15,7.759,6.336,10.487,6.43,14.796,10.082,30.388,10.852,46.341,3.482,72.199-52.423,133.772-124.623,137.256-2.182,.105-4.362,.157-6.528,.157-34.024,0-66.031-12.891-90.745-36.694-3.104-2.99-3.197-7.931-.207-11.034,.375-.39,.781-.732,1.211-1.027,2.99-2.054,7.109-1.797,9.825,.82,23.156,22.305,53.593,33.737,85.693,32.187,63.602-3.068,112.851-57.309,109.783-120.911-.678-14.063-3.9-27.814-9.576-40.871-.43-.991-.887-1.916-1.339-2.75-.331,2.445-.618,5.877-.799,10.681-.059,1.59-.115,2.853-.192,3.61l-.218,2.219c-1.946,19.981-6.476,66.477-38.263,66.479-.357,0-.715-.004-1.079-.017-8.028-.261-14.41-2.944-18.97-7.974-.712-.788-1.374-1.622-1.984-2.506-7.849,12.12-20.035,18.592-33.039,16.946-6.517-.825-11.544-3.532-14.942-8.042-6.634-8.802-4.893-21.447-2.99-33.801,.053-.342,.105-.684,.158-1.025,1.118-7.227,2.648-17.129,.66-20.206-.971-1.5-3.299-2.543-5.792-2.591-9.912-.259-16.89,9.026-19.867,16.976-2.087,5.575-3.643,11.794-4.801,18.028-.2,2.78-.408,5.545-.619,8.258-1.331,17.124-2.76,31.946-2.778,32.136-.4,4.118-3.953,7.184-8.077,7.047-4.134-.163-7.422-3.523-7.495-7.661-.013-.708-.128-8.936,.739-20.134,.504-6.508,1.338-14.013,2.723-21.642,.134-1.888,.265-3.776,.389-5.651,.567-8.608-.577-14.751-3.311-17.767-1.042-1.15-2.995-2.698-7.909-2.857-7.669-.3-13.63,6.657-17.765,20.513-4.622,15.484-6.269,32.541-7.557,48.694l-.006,.077c-.152,1.916-.293,3.835-.418,5.753-.02,.294-.056,.586-.108,.875-.855,4.736-3.652,8.416-7.673,10.093-1.146,.48-2.339,.752-3.547,.864-3.015,.28-6.134-.552-8.935-2.478-1.041-.715-2.005-1.614-2.911-2.592-9.761,2.175-17.616,1.174-25.148-5.503,23.654,56.512,80.762,94.946,145.494,91.824,82.67-3.988,146.455-74.238,142.467-156.908Z" fill="#770f00"></path><path d="M302.042,41.838c-82.67,3.988-146.455,74.238-142.467,156.908,.865,17.938,4.859,34.983,11.414,50.643,7.532,6.677,15.388,7.677,25.148,5.503-3.198-3.452-5.537-8.096-6.779-10.955-6.432-14.794-10.083-30.388-10.852-46.343-3.482-72.197,52.423-133.77,124.623-137.254,34.7-1.692,68.085,10.2,93.938,33.434,3.205,2.883,3.468,7.818,.587,11.023-.375,.417-.788,.779-1.225,1.096-2.916,2.117-7.01,1.996-9.797-.508-22.773-20.469-52.159-30.917-82.752-29.454-63.602,3.068-112.851,57.309-109.783,120.911,.677,14.063,3.899,27.814,9.576,40.871,.213,.492,.433,.969,.657,1.424,1.336-16.412,3.139-33.693,8.005-49.997,7.993-26.786,22.451-31.997,33.228-31.649,8.028,.261,14.409,2.944,18.969,7.974,.724,.799,1.395,1.648,2.013,2.548,7.192-10.955,18.158-17.569,29.821-17.259,7.806,.15,14.758,3.785,18.597,9.721,3.369,5.21,3.825,11.726,3.244,18.868-.318,3.914-.938,8.01-1.585,12.197-1.327,8.584-2.978,19.267-.128,23.047,.286,.381,1.155,1.535,4.436,1.949,10.626,1.352,18.026-7.809,21.401-16.822,2.087-5.577,3.643-11.8,4.803-18.035,.53-7.38,1.12-14.684,1.657-21.021,.943-11.114,1.725-19.227,1.738-19.367,.399-4.12,3.902-7.223,8.077-7.047,4.134,.163,7.422,3.523,7.495,7.661,.008,.435,.053,3.736-.114,8.801-.261,7.952-1.047,20.287-3.348,32.967-.134,1.89-.265,3.782-.389,5.659-.567,8.608,.577,14.751,3.311,17.767,1.041,1.15,2.994,2.698,7.909,2.857,18.053,.551,21.757-36.522,23.301-52.375l.222-2.26c.056-.555,.081-1.478,.124-2.639,.263-7.008,.72-13.713,2.408-19.009,1.382-4.335,3.587-7.728,7.207-9.548,.904-.455,2.194-.928,3.762-1.108,2.415-.277,5.505,.156,8.985,2.547,1.209,.831,2.327,1.889,3.353,3.059,11.661,2.831,20.669,7.214,27.196,11.374-21.926-59.955-80.86-101.4-147.986-98.162Z" fill="#ae1f09"></path><path d="M440.02,185.455c-.77-15.953-4.422-31.544-10.852-46.341-1.186-2.728-3.362-7.094-6.336-10.487-1.026-1.171-2.144-2.228-3.353-3.059-3.48-2.391-6.571-2.824-8.985-2.547-1.569,.18-2.858,.652-3.762,1.108-3.62,1.819-5.825,5.213-7.207,9.548-1.689,5.296-2.145,12.001-2.408,19.009-.044,1.161-.069,2.084-.124,2.639l-.222,2.26c-1.544,15.853-5.248,52.926-23.301,52.375-4.915-.159-6.868-1.707-7.909-2.857-2.734-3.016-3.878-9.159-3.311-17.767,.124-1.877,.255-3.769,.389-5.659,2.301-12.68,3.087-25.014,3.348-32.967,.166-5.064,.121-8.366,.114-8.801-.073-4.137-3.361-7.497-7.495-7.661-4.174-.176-7.678,2.927-8.077,7.047-.013,.14-.795,8.253-1.738,19.367-.537,6.337-1.127,13.641-1.657,21.021-1.16,6.234-2.716,12.458-4.803,18.035-3.375,9.013-10.775,18.174-21.401,16.822-3.28-.414-4.149-1.568-4.436-1.949-2.849-3.78-1.199-14.463,.128-23.047,.647-4.187,1.267-8.283,1.585-12.197,.581-7.142,.125-13.658-3.244-18.868-3.838-5.936-10.791-9.57-18.597-9.721-11.663-.309-22.629,6.304-29.821,17.259-.618-.899-1.289-1.749-2.013-2.548-4.56-5.03-10.941-7.713-18.969-7.974-10.778-.349-25.236,4.862-33.228,31.649-4.866,16.304-6.669,33.585-8.005,49.997-.223-.455-.443-.932-.657-1.424-5.677-13.057-8.899-26.808-9.576-40.871-3.068-63.602,46.181-117.843,109.783-120.911,30.593-1.463,59.979,8.985,82.752,29.454,2.787,2.504,6.88,2.625,9.797,.508,.437-.317,.85-.679,1.225-1.096,2.881-3.205,2.618-8.14-.587-11.023-25.853-23.235-59.238-35.126-93.938-33.434-72.2,3.484-128.105,65.057-124.623,137.254,.769,15.955,4.42,31.549,10.852,46.343,1.243,2.859,3.581,7.503,6.779,10.955,.906,.978,1.87,1.876,2.911,2.592,2.802,1.926,5.921,2.758,8.935,2.478,1.208-.112,2.4-.385,3.547-.864,4.021-1.677,6.818-5.357,7.673-10.093,.052-.29,.088-.581,.108-.875,.125-1.918,.266-3.837,.418-5.753l.006-.077c1.288-16.152,2.935-33.209,7.557-48.694,4.134-13.856,10.095-20.813,17.765-20.513,4.914,.159,6.867,1.707,7.909,2.857,2.734,3.016,3.878,9.159,3.311,17.767-.124,1.875-.255,3.763-.389,5.651-1.385,7.63-2.219,15.135-2.723,21.642-.867,11.198-.752,19.426-.739,20.134,.073,4.138,3.361,7.497,7.495,7.661,4.123,.137,7.677-2.929,8.077-7.047,.018-.19,1.447-15.012,2.778-32.136,.211-2.713,.419-5.478,.619-8.258,1.158-6.234,2.714-12.453,4.801-18.028,2.977-7.95,9.955-17.235,19.867-16.976,2.493,.048,4.821,1.091,5.792,2.591,1.988,3.077,.458,12.978-.66,20.206-.053,.341-.105,.683-.158,1.025-1.903,12.354-3.644,24.999,2.99,33.801,3.398,4.51,8.425,7.216,14.942,8.042,13.004,1.646,25.19-4.825,33.039-16.946,.61,.884,1.272,1.718,1.984,2.506,4.56,5.03,10.942,7.713,18.97,7.974,.364,.013,.722,.017,1.079,.017,31.787-.002,36.317-46.497,38.263-66.479l.218-2.219c.076-.758,.133-2.021,.192-3.61,.181-4.804,.468-8.236,.799-10.681,.452,.834,.909,1.759,1.339,2.75,5.676,13.057,8.897,26.808,9.576,40.871,3.068,63.602-46.181,117.843-109.783,120.911-32.099,1.55-62.536-9.882-85.693-32.187-2.716-2.616-6.835-2.874-9.825-.82-.429,.295-.835,.637-1.211,1.027-2.99,3.103-2.897,8.044,.207,11.034,24.713,23.803,56.72,36.694,90.745,36.694,2.167,0,4.346-.052,6.528-.157,72.2-3.484,128.105-65.057,124.623-137.256Z" fill="#fff"></path></g></svg>