<?xml version="1.0" encoding="UTF-8" standalone="no"?>
<svg
   xmlns:dc="http://purl.org/dc/elements/1.1/"
   xmlns:cc="http://creativecommons.org/ns#"
   xmlns:rdf="http://www.w3.org/1999/02/22-rdf-syntax-ns#"
   xmlns:svg="http://www.w3.org/2000/svg"
   xmlns="http://www.w3.org/2000/svg"
   xmlns:xlink="http://www.w3.org/1999/xlink"
   xmlns:sodipodi="http://sodipodi.sourceforge.net/DTD/sodipodi-0.dtd"
   xmlns:inkscape="http://www.inkscape.org/namespaces/inkscape"
   viewBox="0 0 152.11843 441.47933"
   version="1.1"
   id="svg79"
   sodipodi:docname="redgirl-final-legs.svg"
   width="152.11842"
   height="441.47934"
   inkscape:version="0.92.4 (5da689c313, 2019-01-14)">
  <metadata
     id="metadata83">
    <rdf:RDF>
      <cc:Work
         rdf:about="">
        <dc:format>image/svg+xml</dc:format>
        <dc:type
           rdf:resource="http://purl.org/dc/dcmitype/StillImage" />
        <dc:title></dc:title>
      </cc:Work>
    </rdf:RDF>
  </metadata>
  <sodipodi:namedview
     pagecolor="#ffffff"
     bordercolor="#666666"
     borderopacity="1"
     objecttolerance="10"
     gridtolerance="10"
     guidetolerance="10"
     inkscape:pageopacity="0"
     inkscape:pageshadow="2"
     inkscape:window-width="1920"
     inkscape:window-height="1163"
     id="namedview81"
     showgrid="false"
     fit-margin-top="0"
     fit-margin-left="0"
     fit-margin-right="0"
     fit-margin-bottom="0"
     inkscape:zoom="0.93358306"
     inkscape:cx="-95.419115"
     inkscape:cy="235.85209"
     inkscape:window-x="0"
     inkscape:window-y="0"
     inkscape:window-maximized="1"
     inkscape:current-layer="svg79" />
  <defs
     id="defs9">
    <radialGradient
       xlink:href="#a"
       id="c"
       gradientUnits="userSpaceOnUse"
       gradientTransform="matrix(0.54156,0.01237,-0.0157,0.68692,-95.789577,4.1704041)"
       cx="248.841"
       cy="59.863998"
       fx="248.841"
       fy="59.863998"
       r="24.784" />
    <linearGradient
       id="a">
      <stop
         offset="0"
         stop-color="#ea957d"
         id="stop3" />
      <stop
         offset="1"
         stop-color="#ea957d"
         stop-opacity="0"
         id="stop5" />
    </linearGradient>
    <radialGradient
       xlink:href="#a"
       id="b"
       cx="289.81699"
       cy="58.803001"
       fx="289.81699"
       fy="58.803001"
       r="24.784"
       gradientTransform="matrix(0.54156,0.01237,-0.0157,0.68692,-95.789577,4.1704041)"
       gradientUnits="userSpaceOnUse" />
  </defs>
  <path
     d="m 97.263423,230.6424 -78.016,12.534 c 0.756,2.773 5.344,20.488 5.547,21.886 l 11.903,81.883 c -6.645,23.416 3.952,39.988 5.576,59.09 l 14.567,-0.421 v -68.799 l 3.835,-69.838 c 0.03,-0.045 0.06,-0.09 0.092,-0.133 l 5.98,62.79 2.947,68.74 13.85,-0.075 c 0.725,-19.142 10.079,-36.06 2.765,-59.23 l 5.76,-60.736 c 1.562,-16.472 4.262,-32.157 5.194,-47.691 z"
     id="path11"
     inkscape:connector-curvature="0"
     style="stroke:#000000;stroke-width:0.27675068" />
  <path
     d="m 88.220423,434.5324 -32.206,0.979 -0.065,0.41 c 0,0 2.69,0.971 6.045,1.926 3.355,0.954 7.365,1.898 10.068,1.834 2.842,-0.068 6.887,-1.257 10.24,-2.424 3.354,-1.167 6.01,-2.318 6.01,-2.318 z"
     style="color:#000000;font-weight:400;line-height:normal;font-family:sans-serif;font-variant-ligatures:normal;font-variant-position:normal;font-variant-caps:normal;font-variant-numeric:normal;font-variant-alternates:normal;font-feature-settings:normal;text-indent:0;text-align:start;text-decoration:none;text-decoration-line:none;text-decoration-style:solid;text-decoration-color:#000000;text-transform:none;text-orientation:mixed;white-space:normal;shape-padding:0;overflow:visible;isolation:auto;mix-blend-mode:normal"
     font-weight="400"
     overflow="visible"
     id="path13"
     inkscape:connector-curvature="0" />
  <path
     d="m 56.438423,436.7804 c -4.516,-0.39 -10.61,0.263 -18.91,2.932 h -0.003 l -2.279,0.254 -0.014,0.26 c 0,0 4.032,0.88 6.182,1.02 5.246,0.341 10.35,0.23 15.605,0.148 2.905,-0.045 8.827,-1.069 8.827,-1.069 l 0.304,-0.052 -0.248,-0.184 c -2,-1.486 -4.943,-2.918 -9.465,-3.309 z"
     style="color:#000000;font-weight:400;line-height:normal;font-family:sans-serif;font-variant-ligatures:normal;font-variant-position:normal;font-variant-caps:normal;font-variant-numeric:normal;font-variant-alternates:normal;font-feature-settings:normal;text-indent:0;text-align:start;text-decoration:none;text-decoration-line:none;text-decoration-style:solid;text-decoration-color:#000000;text-transform:none;text-orientation:mixed;white-space:normal;shape-padding:0;overflow:visible;isolation:auto;mix-blend-mode:normal"
     font-weight="400"
     overflow="visible"
     id="path15"
     inkscape:connector-curvature="0" />
  <path
     d="m 69.123423,402.3874 c -0.068,5.278 -1.812,12.705 -2.895,18.371 -1.184,0.3 -2.216,0.719 -3,1.303 -3.464,2.575 -3.924,11.344 -3.924,11.344 0,0 4.403,3.72 8.314,4.368 6.458,1.07 20.61,-3.029 20.61,-3.029 l -0.62,-6.577 c 0.152,-6.988 -3.303,-24.446 -0.685,-24.67 z m 17.8,1.11 0.214,0.013 a 0.673,0.673 0 0 0 -0.214,-0.014 z"
     id="path17"
     inkscape:connector-curvature="0"
     style="fill:#d50c12" />
  <path
     d="m 40.263423,409.6494 0.204,0.017 a 0.63,0.63 0 0 0 -0.204,-0.017 z m 0.204,0.017 c 2.802,0.664 -7.495,22.402 -7.196,26.89 -0.014,0.051 -0.03,0.103 -0.037,0.154 l 0.071,0.12 c 0.049,0.23 0.142,0.389 0.282,0.47 l 1.674,2.797 30.562,0.098 -0.734,-8.657 c -0.469,-1.52 -3.075,-2.156 -6.608,-2.187 -0.272,-5.715 -0.902,-13.106 -0.229,-18.242 z"
     id="path19"
     inkscape:connector-curvature="0"
     style="fill:#d50c12" />
  <path
     d="m 49.867423,284.6424 22.545,-7.693 -9.59,-11.329 -18.924,11.86 z"
     id="path21"
     inkscape:connector-curvature="0"
     style="stroke:#000000;stroke-width:0.26499999" />
  <path
     d="m 31.015423,69.035404 c 6.117,-0.906 20.414,1.496 26.702,4.078 2.11,3.654 2.637,9.651 -1.21,13.383 -7.503,0.384 -15.021,3.709 -20.767,-1.216 -8.833,-9.292 -6.61,-8.698 -4.725,-16.245 z"
     id="path23"
     inkscape:connector-curvature="0" />
  <path
     d="m 36.460423,66.284404 c 6.725,28.81 -24.265,20.203 -30.4029997,33.676 -1.474,3.236996 -2,8.065996 -2.338,13.937996 0.043,2.802 -2.84899996,7.594 -3.55499996,15.716 -0.465,5.35 0.218,56.168 0.084,64.436 -0.204,12.529 4.13399996,53.32 15.74199966,69.057 13.053,17.695 35.713,7.842 46.831,2.513 24.523,-7.592 44.109997,-30.971 70.643997,-27.649 3.242,6.126 4.6,8.013 5.027,7.806 4.542,-2.221 9.084,-5.322 13.626,-9.658 -22.672,-24.868 -30.301,-44.272 -41.384,-64.972 -4.736,-8.845 -4.784,-20.316 -14.837997,-39.076 -6.489,-12.107 -10.248,-25.28 -16.032,-33.513996 -7.07,-10.065 -24.815,-0.426 -27.876,-23.76 z"
     id="path25"
     inkscape:connector-curvature="0" />
  <path
     d="m 91.606423,123.1944 c 2.012,15.996 -2.862,37.495 -3.252,55.908 -0.245,11.551 -4.31,50.133 -4.841,58.527 -1.861,0.1 -2.465,-0.311 -3.462,-1.375 1.114,1.858 2.599,3.132 2.093,5.7 -0.09,0.455 -0.008,1.098 -0.877,1.41 -13.638,4.883 -23.428,11.631 -24.555,11.74 -0.721,0.068 -1.067,-0.18 -1.246,-0.605 -4.03,-9.616 -16.96,-28.922 -30.419,-80.92 -16.1299997,-32.556 -15.3199997,-33.635 -21.3599997,-46.336 -2.91699996,82.817 3.875,115.03 14.2879997,134.409 4.92,2.867 10.194,6.018 18.074,6.763 57.396,-4.965 55.503,-39.968 115.761997,-32.008 0.103,-0.096 0.205,-0.19 0.307,-0.288 -22.672,-24.868 -30.301,-44.272 -41.384,-64.972 -4.736,-8.845 -4.784,-20.316 -14.837997,-39.076 -1.568,-2.925 -2.974,-5.912 -4.29,-8.877 z"
     id="path27"
     inkscape:connector-curvature="0"
     style="fill:#d50c12" />
  <path
     d="m 66.923423,51.176404 c 3.284,2.365 8.809,6.581 7.276,12.945 -1.704,7.07 -13.591,5.973 -14.93,11.245 l -28.254,-6.331 c -9.713,2.59 -18.47,-2.942 -19.655,-15.592 4.582,-8.542 5.667,-18.563 7.087,-28.442 z"
     id="path29"
     inkscape:connector-curvature="0" />
  <path
     d="m 36.460423,66.284404 c 1.746,7.482 0.949,12.44 -1.296,15.917 -0.575,8.52 18.741,6.607 20.297,3.18 -1.622,-2.461 -2.851,-5.842 -3.473,-10.584 z"
     id="path31"
     inkscape:connector-curvature="0"
     style="fill:#ad2422" />
  <path
     d="m 34.243423,61.052404 c 0,2.394 6.128,15.248 13.751,15.248 3.242,0 9.261,-5.386 9.261,-7.764 z"
     id="path33"
     inkscape:connector-curvature="0" />
  <path
     d="m 68.236423,33.793404 c -0.746,3.835 0.95,13.503 0.122,18.38 -1.191,7.016 -12.018,18.724 -18.141,18.648 -4.632,-0.058 -15.056,-7.148 -18.475,-13.303 -0.254,-1.399 -1.44,-1.337 -2.405,-0.602 -2.907,3.791 -9.485,0.373 -10.023,-4.476 -0.889,-8.015 7.228,-10.28 9.305,-7.476 -9.584,-53.9919999 46.446,-52.0679999 39.617,-11.171 z"
     id="path35"
     inkscape:connector-curvature="0"
     style="fill:#e9b296" />
  <path
     d="m 68.236423,33.793404 c -0.746,3.835 0.95,13.503 0.122,18.38 -1.191,7.016 -12.018,18.724 -18.141,18.648 -4.632,-0.058 -15.056,-7.148 -18.475,-13.303 -0.254,-1.399 -1.44,-1.337 -2.405,-0.602 -2.907,3.791 -9.485,0.373 -10.023,-4.476 -0.889,-8.015 7.228,-10.28 9.305,-7.476 -9.584,-53.9919999 46.446,-52.0679999 39.617,-11.171 z"
     id="path37"
     inkscape:connector-curvature="0"
     style="fill:url(#b)" />
  <path
     d="m 68.236423,33.793404 c -0.746,3.835 0.95,13.503 0.122,18.38 -1.191,7.016 -12.018,18.724 -18.141,18.648 -4.632,-0.058 -15.056,-7.148 -18.475,-13.303 -0.254,-1.399 -1.44,-1.337 -2.405,-0.602 -2.907,3.791 -9.485,0.373 -10.023,-4.476 -0.889,-8.015 7.228,-10.28 9.305,-7.476 -9.584,-53.9919999 46.446,-52.0679999 39.617,-11.171 z"
     id="path39"
     inkscape:connector-curvature="0"
     style="fill:url(#c)" />
  <path
     d="m 29.724423,48.136404 c -3.18,-0.893 -5.314,-1.12 -6.504,-0.951 -3.749,4.432 1.802,14.225 5.943,6.096 1.553,-1.774 0.969,-3.455 0.561,-5.144 z"
     id="path41"
     inkscape:connector-curvature="0"
     style="fill:#bf292c" />
  <path
     d="m 14.009423,98.650404 c -7.8309997,-2.587 -7.7689997,9.889996 -4.6589997,28.778996 2.7119997,16.47 10.0449997,30.96 16.2309997,39.832 6.954,26.926 16.213,53.571 26.78,77.225 7.849,-3.995 11.858,-9.748 24.837,-11.74 1.175,0.494 2.045,1.67 2.853,3.508 3.771,-18.776 4.33,-42.926 5.882,-68.636 1.45,-23.985 8.14,-36.83 -0.34,-57.242 -5.668,-2.536 -6.163,-4.793 -8.749,-6.912 -4.756,2.027 -8.848,1.595 -12.237,3.935 -8.99,11.027 -13.13,1.02 -20.57,-1.455 -6.515,0.474 -17.139,8.375 -30.028,-7.293996 z"
     id="path43"
     inkscape:connector-curvature="0"
     style="fill:#d20918" />
  <path
     d="m 31.015423,69.035404 c -5.639,2.305 -15.718,8.704 -13.702,12.501 4.943,9.313 -7.3609997,5.896 -7.9039997,12.072 -0.194,2.205 1.1099997,1.715 4.3319997,5.457 10.454,12.135996 19.332,11.571996 30.295,6.879996 3.731,3.442 7.867,5.772 12.303,7.275 3.54,-1.509 6.91,-3.523 9.922,-6.614 1.86,-1.638 4.397,-2.999 9.922,-3.043 3.115,2.74 6.565,6.46 8.863,6.747 5.027,1.777 10.61,11.144 22.621997,23.15 1.34,1.34 2.154,1.832 2.646,1.324 6.78,-7.007 11.298,-14.146 13.825,-19.447 1.987,-4.169 -1.431,-5.33 -3.506,-8.037 0.567,-2.93 0.923,-12.584996 0.066,-13.327996 -12.848,-10.48 -27.899997,-11.594 -45.177997,-5.49 0.225,-2.599 -0.258,-5.536 -0.467,-7.581 -0.292,-2.872 -13.077,-7.788 -17.337,-7.788 0,2.467 -1.131,4.974 -6.793,4.974 -2.355,0 -19.91,-1.272 -19.91,-9.052 z"
     id="path45"
     inkscape:connector-curvature="0"
     style="fill:#fcf3e3" />
  <path
     d="m 31.015423,69.035404 c -0.834,0.341 -1.77,0.78 -2.745,1.278 -3.595,5.532 9.807,13.658 39.05,10.43 2.614,-0.289 5.229,0.495 7.844,1.115 -0.038,-0.324 -0.08,-0.666 -0.11,-0.957 -0.292,-2.872 -13.077,-7.788 -17.337,-7.788 0,2.466 -1.131,4.974 -6.793,4.974 -2.355,0 -19.91,-1.272 -19.91,-9.052 z m -10.791,6.588 c -2.361,2.095 -3.792,4.253 -2.91,5.914 4.942,9.313 -7.3619997,5.896 -7.9049997,12.071 -0.194,2.205 1.1099997,1.715 4.3319997,5.457 10.453,12.136996 19.332,11.571996 30.295,6.879996 3.731,3.442 7.867,5.772 12.303,7.275 3.54,-1.509 6.91,-3.522 9.922,-6.614 1.86,-1.638 4.396,-2.999 9.922,-3.043 3.115,2.741 6.565,6.46 8.863,6.747 5.027,1.777 10.61,11.144 22.621997,23.151 1.34,1.34 2.154,1.831 2.646,1.323 6.78,-7.007 11.298,-14.146 13.825,-19.447 1.987,-4.169 -1.431,-5.329 -3.506,-8.037 0.567,-2.93 0.923,-12.584996 0.066,-13.327996 -10.816,-8.823 -23.194997,-11.006 -37.146997,-7.835 -0.14,0.647 -0.361,1.393 -0.755,2.345 6.202,-3.099 18.185997,-0.699 36.115997,4.3 0.845,3.51 1.088,7.785996 0,13.757996 -9.912,-7.312996 -21.511997,-12.099996 -30.201997,-13.739996 -3.195,-1.851 -8.89,-4.267 -12.694,-0.697 l 0.083,-2.794 c -8.365,2.3 1.682,9.79 -14.524,17.829996 -1.319,1.404 -2.583,3.002 -4.326,2.877 -3.416,-1.395 -6.412,-4.017 -10.039,-5.858 -1.2,-0.608 -2.69,0.087 -4.035,-0.727 -6.354,2.703 -10.709,-0.593 -15.478,-2.646 -1.83,-2.918996 -5.132,-3.484996 -5.49,-6.084996 -0.384,-2.788 2.677,-4.028 3.473,-5.987 1.266,-3.12 -4.218,-6.294 -5.458,-13.09 z m 73.5,22.889 c 5.423,0.061 9.949997,2.276996 18.469997,6.823996 2.437,1.3 12.1,7.133 8.845,11.575 l -11.849,16.164 c -1.906,-0.517 -0.71,-2.944 -2.131,-6.68 -1.048,-2.753 -3.266,-5.382 -4.931,-8.194 2.164,1.967 3.15,4.8 6.454,7.063 3.83,-2.16 6.726,-5.15 7.203,-10.29 -4.532,-5.139 -17.426997,-9.595 -26.753997,-16.042996 1.493,-0.26 2.86,-0.4 4.166,-0.419 0.177,-0.002 0.353,-0.002 0.527,0 z"
     id="path47"
     inkscape:connector-curvature="0"
     style="fill-opacity:0.9449999" />
  <path
     d="m 60.968423,249.5374 c -0.773,0.001 4.644,21.152 7.253,21.904 4.238,1.22 3.218,0.563 5.469,0.547 2.292,-0.017 5.157,-1.648 7.53,-2.62 2.782,-1.137 5.322,-2.598 6.455,-5.284 1.006,-2.388 0.413,-4.775 -0.608,-7.157 -2.204,-5.136 -7.774,-16.857 -7.484,-17.212 z"
     id="path49"
     inkscape:connector-curvature="0" />
  <path
     d="m 53.296423,245.7104 c 0.307,-1.515 12.106,-6.765 23.387,-12.122 1.926,5.235 3.208,5.527 4.687,8.796 -10.36,1.97 -19.118,7.91 -24.568,10.735 -0.621,-2.268 -2.735,-5.136 -3.506,-7.409 z"
     id="path51"
     inkscape:connector-curvature="0"
     style="fill:#c90606" />
  <path
     d="m 74.222423,266.2904 c 0.354,0.029 3.535,0.656 5.224,-0.614 1.094,-0.337 1.221,-1.43 1.617,-1.958 0.177,-0.025 2.512,0.433 3.173,-1.129 0.218,0.421 0.578,0.503 0.074,2.155 -1.203,0.251 -3.667,1.365 -3.571,2.216 -3.005,0.53 -2.846,1.72 -3.321,1.947 -0.41,-0.516 -2.703,-0.954 -4.78,-0.31 -0.412,0.128 -0.898,0.82 -1.147,0.972 -0.993,-1.372 1.713,-2.34 2.73,-3.28 z"
     id="path53"
     inkscape:connector-curvature="0"
     style="fill:#ffffff" />
  <g
     id="g57"
     style="fill:#020202"
     transform="translate(-55.499577,-41.783596)">
    <path
       d="m 80.016,90.01 c 1.853,-1.71 3.006,0.565 4.505,1.957 -1.354,1.513 -2.753,-0.21 -4.505,-1.957 z M 93.45,78.738 c 0.802,0.01 1.197,1.487 1.224,3.043 0.038,2.127 -0.957,3.3 -1.422,3.257 -0.837,-0.076 -1.395,-1.853 -1.372,-3.175 0.02,-1.126 0.777,-3.135 1.57,-3.125 z m 20.587,-0.458 c 0.72,-0.018 1.35,1.38 1.37,2.987 0.016,1.355 -0.107,3.303 -0.969,3.354 -0.683,0.04 -1.443,-1.427 -1.494,-3.256 -0.05,-1.816 0.505,-3.072 1.093,-3.086 z m -6.679,3.55 c 0.475,3.11 1.005,7.863 1.255,11.534 0.03,0.435 0.035,1.065 -0.645,1.015 -1.986,-0.144 -2.243,-0.51 -2.148,-0.957 0.13,0.106 1.326,0.887 1.389,-0.05 0.232,-3.44 -0.454,-7.864 -0.645,-11.46 -0.057,-1.072 0.74,-0.434 0.794,-0.082 z m -7.227,16.81 c 1.53,1.596 8.296,1.483 9.393,0.537 0.329,0.164 0.336,0.436 0.295,0.723 -2.757,0.475 -4.972,1.475 -9.886,-0.458 -0.354,-0.424 -0.15,-0.62 0.198,-0.802 z M 87.035,76.092 c 1.406,-1.768 9.367,-1.899 10.424,-1.73 l 0.023,-1.04 c -4.055,0.143 -7.88,0.257 -10.646,1.381 z m 23.726,-3.98 c 0,0 -0.143,1.105 0.386,0.972 2.447,-0.553 8.19,0.468 8.19,0.468 l 0.214,-0.653 c -3.072,-0.449 -5.966,-1.085 -8.79,-0.787 z"
       id="path55"
       inkscape:connector-curvature="0" />
  </g>
  <path
     d="m 45.756423,13.850404 c 2.52,2.425 3.366,6.86 4.725,10.678 0.459,-3.381 -0.403,-7.424 -0.945,-11.056 6.655,6.58 9.609,13.951 12.85,21.261 l 0.379,-2.267 c 5.576,2.361 8.647,1.787 14.93,4.063 2.143,-16.996 -7.184,-42.0189999 -27.403,-35.4349999 -4.798,-1.83300001 -12.939,-1.65800001 -20.228,2.812 -5.037,3.089 -11.385,13.5739999 -11.617,21.0949999 -1.435,7.93 4.608,22.002 11.023,20.436 -0.077,-2.921 -1.139,-3.939 -0.61,-7.306 2.528,0.253 1.786,-0.06 6.313,-2.358 0.935,-7.918 2.016,-15.494 4.44,-17.954 -0.188,5.078 -1.279,11.623 0.379,13.702 1.22,-8.976 3.287,-14.223 5.764,-17.67 z m -14.816,97.615996 44.118,119.494 2.183,-0.595 -10.286,-30.406 0.935,-2.993 -2.82,-76.867 -0.926,0.133 0.133,72.099 -31.279,-80.631 z"
     id="path59"
     inkscape:connector-curvature="0" />
  <path
     d="m 50.717423,122.6794 c 2.015,-0.061 3.385,1.672 3.506,3.374 0.12,1.701 -1.543,4.125 -3.308,4.233 -1.765,0.108 -3.657,-1.958 -3.704,-3.704 -0.047,-1.747 1.491,-3.842 3.506,-3.903 z m 3.439,25.929 c 1.68,0.053 2.835,2.046 2.779,3.572 -0.057,1.526 -1.573,3.323 -3.11,3.44 -1.536,0.117 -3.403,-0.992 -3.571,-2.91 -0.168,-1.919 2.223,-4.154 3.902,-4.102 z"
     id="path61"
     inkscape:connector-curvature="0" />
  <path
     d="m 31.015423,69.035404 c -0.834,0.341 -1.77,0.78 -2.745,1.278 -3.595,5.532 9.807,13.658 39.05,10.43 2.614,-0.289 5.229,0.495 7.844,1.115 -0.038,-0.324 -0.08,-0.666 -0.11,-0.957 -0.292,-2.872 -13.077,-7.788 -17.337,-7.788 0,2.466 -1.131,4.974 -6.793,4.974 -2.355,0 -19.91,-1.272 -19.91,-9.052 z m -10.791,6.588 c -2.361,2.095 -3.792,4.253 -2.91,5.914 4.942,9.313 -7.3619997,5.896 -7.9049997,12.071 -0.194,2.205 1.1099997,1.715 4.3319997,5.457 10.453,12.136996 19.332,11.571996 30.295,6.879996 3.731,3.442 7.867,5.772 12.303,7.275 3.54,-1.509 6.91,-3.522 9.922,-6.614 1.86,-1.638 4.396,-2.999 9.922,-3.043 3.115,2.741 6.565,6.46 8.863,6.747 5.027,1.777 10.61,11.144 22.621997,23.151 1.34,1.34 2.154,1.831 2.646,1.323 6.78,-7.007 11.298,-14.146 13.825,-19.447 1.987,-4.169 -1.431,-5.329 -3.506,-8.037 0.567,-2.93 0.923,-12.584996 0.066,-13.327996 -10.816,-8.823 -23.194997,-11.006 -37.146997,-7.835 -0.14,0.647 -0.361,1.393 -0.755,2.345 6.202,-3.099 18.185997,-0.699 36.115997,4.3 0.845,3.51 1.088,7.785996 0,13.757996 -9.912,-7.312996 -21.511997,-12.099996 -30.201997,-13.739996 -3.195,-1.851 -8.89,-4.267 -12.694,-0.697 l 0.083,-2.794 c -8.365,2.3 1.682,9.79 -14.524,17.829996 -1.319,1.404 -2.583,3.002 -4.326,2.877 -3.416,-1.395 -6.412,-4.017 -10.039,-5.858 -1.2,-0.608 -2.69,0.087 -4.035,-0.727 -6.354,2.703 -10.709,-0.593 -15.478,-2.646 -1.83,-2.918996 -5.132,-3.484996 -5.49,-6.084996 -0.384,-2.788 2.677,-4.028 3.473,-5.987 1.266,-3.12 -4.218,-6.294 -5.458,-13.09 z m 73.5,22.889 c 5.423,0.061 9.949997,2.276996 18.469997,6.823996 2.437,1.3 12.1,7.133 8.845,11.575 l -11.849,16.164 c -1.906,-0.517 -0.71,-2.944 -2.131,-6.68 -1.048,-2.753 -3.266,-5.382 -4.931,-8.194 2.164,1.967 3.15,4.8 6.454,7.063 3.83,-2.16 6.726,-5.15 7.203,-10.29 -4.532,-5.139 -17.426997,-9.595 -26.753997,-16.042996 1.493,-0.26 2.86,-0.4 4.166,-0.419 0.177,-0.002 0.353,-0.002 0.527,0 z"
     id="path63"
     inkscape:connector-curvature="0"
     style="fill-opacity:0.9449999" />
  <path
     d="m 57.760423,414.9104 c -0.2,0.05 -0.401,0.1 -0.601,0.148 0.018,0.814 0.105,4.733 0.113,7.365 0.008,2.487 1.698,7.095 1.698,7.095 -0.447,-4.19 -0.647,-12.21 -1.21,-14.608 z"
     id="path65"
     inkscape:connector-curvature="0"
     style="stroke:#000000;stroke-width:0.15636678" />
  <path
     d="m 38.409423,403.4764 c 8.778,1.935 14.51,1.36 21.943,0.273 2.934,3.539 2.11,7.036 1.817,9.831 -8.756,3.066 -17.388,3.694 -25.747,0 -0.118,-2.546 -0.705,-4.186 1.987,-10.104 z"
     id="path67"
     inkscape:connector-curvature="0"
     style="fill:#d50c12" />
  <path
     d="m 38.558423,403.5514 c -0.34,-0.288 2.189,-1.36 5.178,-2.431 l 10.744,0.149 c 1.958,0.824 4.106,1.039 5.872,2.63 -0.373,0.82 -6.543,3.359 -10.946,3.19 -3.908,-0.15 -8.877,-2.284 -10.848,-3.538 z"
     id="path69"
     inkscape:connector-curvature="0"
     style="stroke:#000000;stroke-width:0.26499999" />
  <path
     d="m 66.489423,396.8374 c 8.105,1.516 13.75,-0.077 20.47,-1.516 2.166,3.564 1.902,7.017 2.168,9.732 -7.856,-0.176 -15.702,-0.169 -23.476,1.223 0.15,-3.157 0.06,-5.24 0.838,-9.439 z"
     id="path71"
     inkscape:connector-curvature="0"
     style="fill:#d50c12" />
  <path
     d="m 66.926423,396.8644 7.69,-3.612 h 5.553 c 0,0 6.633,1.699 6.633,2.068 0,0 -5.79,3.403 -9.031,3.716 -3.67,0.354 -10.845,-2.172 -10.845,-2.172 z"
     id="path73"
     inkscape:connector-curvature="0"
     style="stroke:#000000;stroke-width:0.25999999" />
  <path
     d="m 86.974423,395.2094 -0.388,0.215 c 0.16,0.314 0.294,0.64 0.463,0.95 0.402,0.863 0.75,1.749 1.076,2.643 0.242,0.69 0.459,1.392 0.597,2.111 0.113,0.49 0.155,0.99 0.235,1.486 0.034,0.63 0.002,1.264 -0.008,1.896 -6.194,0.223 -12.392,0.398 -18.587,0.603 -1.273,0.063 -2.642,-0.025 -3.8,0.591 l -0.79,0.496 c 0.108,0.078 1.458,-0.208 2.018,-0.26 6.917,-0.24 13.835,-0.443 20.753,-0.67 0.402,0.064 0.642,-0.272 0.74,-0.618 l 0.058,-0.028 c 0.006,-0.685 0.036,-1.37 0.026,-2.054 -0.1,-0.73 -0.188,-1.466 -0.372,-2.182 -0.277,-1.113 -0.696,-2.182 -1.13,-3.242 -0.253,-0.665 -0.594,-1.29 -0.891,-1.937 z"
     id="path75"
     inkscape:connector-curvature="0" />
  <path
     d="m 86.070423,420.0164 -8.34,2.016 c -4.898,-1.424 -7.682,-1.875 -9.731,-1.662 -2.052,0.213 -3.356,1.092 -5.283,2.298 l 0.057,0.127 c 0,0 1.167,-0.34 2.606,-0.674 1.44,-0.336 3.154,-0.666 4.229,-0.65 1.848,-0.19 3.587,1.033 4.78,1.597 2.003,0.947 3.98,2.08 6.234,1.947 0.828,-0.05 2.089,-0.509 3.153,-0.954 a 34.318,34.318 0 0 0 1.926,-0.879 l 0.24,-0.121 -5.535,-0.223 c -0.342,-0.107 -0.652,-0.2 -0.969,-0.296 0.287,-0.046 0.579,-0.091 0.815,-0.147 2.076,-0.49 5.863,-2.247 5.863,-2.247 z m -25.616,-16.128 c 1.7,3.815 1.737,5.912 1.624,9.7 a 53.843,53.843 0 0 1 -6.941,1.749 c -6.223,1.031 -12.44,0.576 -18.662,-1.879 -0.002,0 -0.003,0 -0.004,-0.003 l -0.102,0.246 h 0.004 c 4.16,1.802 8.455,2.486 12.803,2.695 h 0.016 c 2.006,-0.144 4.013,-0.435 6.02,-0.802 2.672,-0.521 5.282,-1.147 7.474,-1.895 v -0.002 h 0.002 c 0.262,-3.628 -0.105,-7.67 -2.172,-9.838 z m -22.491,21.85 -0.092,0.24 c 0,0 1.553,0.752 3.302,1.492 1.135,0.48 2.347,0.952 3.285,1.215 a 67.809,67.809 0 0 0 -6.498,1.867 l -0.018,0.006 -2.07,1.478 0.421,-0.01 c 0,0 3.373,-0.093 5.37,0.045 2.508,0.172 4.914,-0.523 7.307,-1.265 2.393,-0.742 4.775,-1.53 7.236,-1.57 1.329,-0.022 3.47,0.453 5.264,0.937 1.795,0.484 3.251,0.974 3.251,0.974 l 0.12,-0.224 c -3.003,-2.358 -8.264,-4.574 -18.154,-2.718 z"
     style="color:#000000;font-weight:400;line-height:normal;font-family:sans-serif;font-variant-ligatures:normal;font-variant-position:normal;font-variant-caps:normal;font-variant-numeric:normal;font-variant-alternates:normal;font-feature-settings:normal;text-indent:0;text-align:start;text-decoration:none;text-decoration-line:none;text-decoration-style:solid;text-decoration-color:#000000;text-transform:none;text-orientation:mixed;white-space:normal;shape-padding:0;overflow:visible;isolation:auto;mix-blend-mode:normal"
     font-weight="400"
     overflow="visible"
     id="path77"
     inkscape:connector-curvature="0" />
</svg>
