<?xml version="1.0" encoding="UTF-8" standalone="no"?>
<svg
   xmlns:dc="http://purl.org/dc/elements/1.1/"
   xmlns:cc="http://creativecommons.org/ns#"
   xmlns:rdf="http://www.w3.org/1999/02/22-rdf-syntax-ns#"
   xmlns:svg="http://www.w3.org/2000/svg"
   xmlns="http://www.w3.org/2000/svg"
   xmlns:xlink="http://www.w3.org/1999/xlink"
   id="svg1676"
   version="1.1"
   viewBox="0 0 152.118 290">
  <metadata
     id="metadata1680">
    <rdf:RDF>
      <cc:Work
         rdf:about="">
        <dc:format>image/svg+xml</dc:format>
        <dc:type
           rdf:resource="http://purl.org/dc/dcmitype/StillImage" />
        <dc:title></dc:title>
      </cc:Work>
    </rdf:RDF>
  </metadata>
  <defs
     id="defs1630">
    <radialGradient
       r="24.784"
       fy="59.864"
       fx="248.841"
       cy="59.864"
       cx="248.841"
       gradientTransform="matrix(-0.54156,0.01237,0.0157,0.68692,247.90758,8.467)"
       gradientUnits="userSpaceOnUse"
       id="c"
       xlink:href="#a" />
    <radialGradient
       gradientUnits="userSpaceOnUse"
       gradientTransform="matrix(-0.54156,0.01237,0.0157,0.68692,247.90758,8.467)"
       r="24.784"
       fy="58.803"
       fx="289.817"
       cy="58.803"
       cx="289.817"
       id="b"
       xlink:href="#a" />
    <linearGradient
       id="a">
      <stop
         id="stop1625"
         stop-color="#ea957d"
         offset="0" />
      <stop
         id="stop1627"
         stop-opacity="0"
         stop-color="#ea957d"
         offset="1" />
    </linearGradient>
  </defs>
  <path
     style="stroke:#000000;stroke-width:0.27700001"
     id="path1632"
     d="m 54.853577,234.94 78.016003,12.533 c -0.756,2.773 -5.344,20.488 -5.547,21.886 l -3,20.641 H 92.471577 l -1.03,-18.727 c -0.03,-0.045 -0.06,-0.09 -0.092,-0.132 l -1.796,18.859 h -28.807 l -0.7,-7.371 c -1.561,-16.472 -4.26,-32.156 -5.193,-47.69 z" />
  <path
     style="stroke:#000000;stroke-width:0.26499999"
     id="path1634"
     d="m 102.25058,288.939 -22.545003,-7.693 9.59,-11.33 18.924003,11.86 z" />
  <path
     id="path1636"
     d="m 121.10258,73.332 c -6.117,-0.906 -20.414,1.496 -26.702003,4.078 -2.11,3.654 -2.637,9.65 1.21,13.383 7.503003,0.384 15.020003,3.709 20.767003,-1.216 8.833,-9.292 6.61,-8.698 4.725,-16.245 z" />
  <path
     id="path1638"
     d="m 115.65758,70.58 c -6.725,28.81 24.265,20.204 30.403,33.677 1.474,3.237 2,8.066 2.338,13.938 -0.043,2.802 2.849,7.594 3.555,15.716 0.465,5.35 -0.218,56.168 -0.084,64.436 0.204,12.529 -4.134,53.32 -15.742,69.057 -13.053,17.695 -35.713,7.842 -46.831003,2.513 -24.523,-7.592 -44.11,-30.971 -70.644,-27.65 -3.242,6.127 -4.6,8.014 -5.027,7.807 C 9.0835767,247.853 4.5415767,244.752 -4.2333988e-4,240.416 22.671577,215.548 30.299577,196.144 41.383577,175.444 c 4.736,-8.845 4.784,-20.316 14.838,-39.076 6.489,-12.107 10.248,-25.28 16.032,-33.514 7.07,-10.065 24.815,-0.426 27.876003,-23.76 z" />
  <path
     style="fill:#d50c12"
     id="path1640"
     d="m 60.511577,127.49 c -2.012,15.997 2.862,37.496 3.252,55.909 0.245,11.55 4.31,50.133 4.84,58.527 1.862,0.1 2.466,-0.311 3.463,-1.375 -1.114,1.858 -2.6,3.132 -2.093,5.7 0.09,0.455 0.008,1.098 0.877,1.41 13.638,4.883 23.428,11.63 24.555,11.74 0.72,0.068 1.067,-0.18 1.246,-0.605 4.030003,-9.616 16.960003,-28.922 30.419003,-80.92 16.13,-32.556 15.32,-33.635 21.36,-46.336 2.917,82.817 -3.875,115.03 -14.288,134.409 -4.92,2.867 -10.194,6.018 -18.074,6.763 -57.396003,-4.965 -55.503003,-39.968 -115.76200334,-32.008 -0.103,-0.096 -0.205,-0.19 -0.30699999988,-0.288 C 22.671577,215.548 30.299577,196.144 41.383577,175.444 c 4.736,-8.845 4.784,-20.316 14.838,-39.076 1.568,-2.925 2.974,-5.912 4.29,-8.877 z" />
  <path
     id="path1642"
     d="m 85.194577,55.473 c -3.284,2.365 -8.81,6.58 -7.276,12.945 1.704,7.07 13.59,5.973 14.93,11.245 l 28.254003,-6.331 c 9.713,2.59 18.47,-2.942 19.655,-15.592 -4.582,-8.542 -5.667,-18.563 -7.087,-28.442 z" />
  <path
     style="fill:#ad2422"
     id="path1644"
     d="m 115.65758,70.58 c -1.746,7.483 -0.95,12.44 1.296,15.918 0.575,8.52 -18.741003,6.607 -20.297003,3.18 1.622,-2.461 2.85,-5.842 3.473003,-10.584 z" />
  <path
     id="path1646"
     d="m 117.87458,65.349 c 0,2.394 -6.128,15.248 -13.751,15.248 -3.242,0 -9.261003,-5.386 -9.261003,-7.764 z" />
  <path
     style="fill:#e9b296"
     id="path1648"
     d="m 83.881577,38.09 c 0.746,3.835 -0.95,13.503 -0.122,18.38 1.19,7.016 12.018,18.724 18.140003,18.648 4.633,-0.058 15.057,-7.148 18.476,-13.303 0.254,-1.4 1.44,-1.337 2.405,-0.602 2.907,3.79 9.485,0.373 10.023,-4.476 0.889,-8.015 -7.228,-10.28 -9.305,-7.476 9.584,-53.992 -46.446003,-52.068 -39.617003,-11.171 z" />
  <path
     style="fill:url(#b)"
     id="path1650"
     d="m 83.881577,38.09 c 0.746,3.835 -0.95,13.503 -0.122,18.38 1.19,7.016 12.018,18.724 18.140003,18.648 4.633,-0.058 15.057,-7.148 18.476,-13.303 0.254,-1.4 1.44,-1.337 2.405,-0.602 2.907,3.79 9.485,0.373 10.023,-4.476 0.889,-8.015 -7.228,-10.28 -9.305,-7.476 9.584,-53.992 -46.446003,-52.068 -39.617003,-11.171 z" />
  <path
     style="fill:url(#c)"
     id="path1652"
     d="m 83.881577,38.09 c 0.746,3.835 -0.95,13.503 -0.122,18.38 1.19,7.016 12.018,18.724 18.140003,18.648 4.633,-0.058 15.057,-7.148 18.476,-13.303 0.254,-1.4 1.44,-1.337 2.405,-0.602 2.907,3.79 9.485,0.373 10.023,-4.476 0.889,-8.015 -7.228,-10.28 -9.305,-7.476 9.584,-53.992 -46.446003,-52.068 -39.617003,-11.171 z" />
  <path
     style="fill:#bf292c"
     id="path1654"
     d="m 122.39358,52.433 c 3.18,-0.893 5.314,-1.12 6.504,-0.951 3.749,4.432 -1.802,14.225 -5.943,6.096 -1.553,-1.774 -0.97,-3.455 -0.561,-5.144 z" />
  <path
     style="fill:#d20918"
     id="path1656"
     d="m 138.10758,102.947 c 7.832,-2.587 7.77,9.89 4.66,28.779 -2.712,16.47 -10.045,30.96 -16.231,39.832 -6.954,26.926 -16.213,53.57 -26.780003,77.225 -7.85,-3.995 -11.858,-9.748 -24.837,-11.74 -1.175,0.494 -2.045,1.67 -2.853,3.508 -3.771,-18.776 -4.33,-42.926 -5.882,-68.636 -1.45,-23.985 -8.14,-36.83 0.34,-57.242 5.668,-2.536 6.163,-4.793 8.749,-6.912 4.756,2.027 8.848,1.595 12.237,3.935 8.99,11.027 13.130003,1.02 20.570003,-1.455 6.515,0.474 17.139,8.375 30.028,-7.294 z" />
  <path
     style="fill:#fcf3e3"
     id="path1658"
     d="m 121.10258,73.332 c 5.639,2.305 15.718,8.704 13.702,12.5 -4.943,9.314 7.36,5.897 7.904,12.073 0.194,2.205 -1.11,1.715 -4.332,5.457 -10.454,12.136 -19.332,11.572 -30.295,6.88 -3.731,3.442 -7.867,5.772 -12.303003,7.275 -3.54,-1.51 -6.91,-3.523 -9.922,-6.614 -1.86,-1.638 -4.397,-3 -9.922,-3.043 -3.115,2.74 -6.565,6.46 -8.863,6.747 -5.027,1.777 -10.61,11.144 -22.622,23.15 -1.34,1.34 -2.154,1.832 -2.646,1.324 -6.78,-7.007 -11.298,-14.146 -13.825,-19.447 -1.987,-4.17 1.43,-5.33 3.506,-8.037 -0.567,-2.93 -0.923,-12.585 -0.066,-13.328 12.848,-10.48 27.9,-11.594 45.178,-5.49 -0.225,-2.6 0.258,-5.536 0.467,-7.581 0.292,-2.872 13.077,-7.788 17.337,-7.788 0,2.467 1.13,4.974 6.793003,4.974 2.355,0 19.91,-1.272 19.91,-9.052 z" />
  <path
     style="fill-opacity:0.94499996"
     id="path1660"
     d="m 121.10258,73.332 c 0.834,0.34 1.77,0.78 2.745,1.278 3.595,5.532 -9.807,13.658 -39.050003,10.43 -2.614,-0.29 -5.23,0.495 -7.844,1.115 0.038,-0.324 0.08,-0.666 0.11,-0.957 0.292,-2.872 13.077,-7.788 17.337,-7.788 0,2.466 1.13,4.974 6.793003,4.974 2.355,0 19.91,-1.272 19.91,-9.052 z m 10.79,6.588 c 2.362,2.095 3.793,4.253 2.91,5.914 -4.941,9.313 7.363,5.896 7.906,12.07 0.194,2.206 -1.11,1.716 -4.332,5.458 -10.453,12.137 -19.332,11.572 -30.295,6.88 -3.731,3.442 -7.867,5.772 -12.303003,7.275 -3.54,-1.51 -6.91,-3.522 -9.922,-6.614 -1.86,-1.638 -4.396,-3 -9.922,-3.043 -3.115,2.74 -6.565,6.46 -8.863,6.747 -5.027,1.777 -10.61,11.144 -22.622,23.15 -1.34,1.34 -2.154,1.832 -2.646,1.324 -6.78,-7.007 -11.298,-14.146 -13.825,-19.447 -1.987,-4.17 1.43,-5.33 3.506,-8.037 -0.567,-2.93 -0.923,-12.585 -0.066,-13.328 10.816,-8.823 23.195,-11.006 37.147,-7.835 0.14,0.647 0.36,1.393 0.755,2.345 -6.202,-3.1 -18.186,-0.7 -36.116,4.3 -0.845,3.51 -1.088,7.786 0,13.758 9.912,-7.313 21.512,-12.1 30.202,-13.74 3.195,-1.851 8.89,-4.267 12.694,-0.697 l -0.083,-2.794 c 8.365,2.3 -1.682,9.79 14.524,17.83 1.319,1.404 2.583,3.002 4.326,2.877 3.416,-1.395 6.412003,-4.017 10.039003,-5.858 1.2,-0.608 2.69,0.087 4.035,-0.727 6.354,2.703 10.709,-0.593 15.478,-2.646 1.83,-2.92 5.132,-3.485 5.49,-6.085 0.384,-2.788 -2.677,-4.028 -3.473,-5.987 -1.266,-3.12 4.218,-6.294 5.458,-13.09 z m -73.500003,22.889 c -5.422,0.06 -9.95,2.277 -18.47,6.824 -2.436,1.3 -12.1,7.133 -8.844,11.575 l 11.849,16.164 c 1.906,-0.517 0.71,-2.944 2.13,-6.68 1.049,-2.753 3.267,-5.382 4.932,-8.194 -2.164,1.967 -3.15,4.8 -6.454,7.063 -3.83,-2.16 -6.726,-5.15 -7.203,-10.29 4.532,-5.14 17.427,-9.595 26.754,-16.043 -1.493,-0.26 -2.86,-0.4 -4.166,-0.42 h -0.527 z" />
  <path
     id="path1662"
     d="m 91.149577,253.834 c 0.773,0 -4.644,21.152 -7.253,21.904 -4.238,1.22 -3.218,0.563 -5.47,0.547 -2.291,-0.017 -5.156,-1.648 -7.53,-2.62 -2.781,-1.137 -5.321,-2.598 -6.454,-5.284 -1.006,-2.388 -0.413,-4.775 0.608,-7.157 2.204,-5.136 7.774,-16.857 7.484,-17.212 z" />
  <path
     style="fill:#c90606"
     id="path1664"
     d="m 98.821577,250.007 c -0.307,-1.515 -12.106,-6.765 -23.387,-12.122 -1.926,5.235 -3.208,5.527 -4.687,8.796 10.36,1.97 19.118,7.91 24.568,10.735 0.62,-2.268 2.735,-5.136 3.506,-7.41 z" />
  <path
     style="fill:#ffffff"
     id="path1666"
     d="m 77.895577,270.587 c -0.354,0.029 -3.535,0.656 -5.224,-0.614 -1.094,-0.337 -1.221,-1.43 -1.617,-1.958 -0.177,-0.025 -2.512,0.433 -3.173,-1.13 -0.218,0.422 -0.578,0.504 -0.074,2.156 1.203,0.25 3.667,1.365 3.57,2.216 3.006,0.53 2.847,1.72 3.322,1.947 0.41,-0.516 2.703,-0.954 4.78,-0.31 0.412,0.128 0.898,0.82 1.147,0.972 0.993,-1.372 -1.713,-2.34 -2.73,-3.28 z" />
  <path
     style="fill:#020202"
     id="path1668"
     d="m 127.60158,52.523 c -1.853,-1.71 -3.006,0.565 -4.505,1.957 1.354,1.513 2.753,-0.21 4.505,-1.957 z m -13.434,-11.273 c -0.802,0.01 -1.197,1.487 -1.224,3.043 -0.038,2.127 0.957,3.3 1.422,3.257 0.837,-0.076 1.395,-1.853 1.372,-3.175 -0.02,-1.126 -0.777,-3.135 -1.57,-3.125 z M 93.580577,40.792 c -0.72,-0.018 -1.35,1.38 -1.37,2.987 -0.016,1.355 0.107,3.303 0.969,3.354 0.683,0.04 1.443,-1.427 1.494,-3.256 0.05,-1.816 -0.505,-3.072 -1.093,-3.086 z m 6.679003,3.55 c -0.475003,3.11 -1.005003,7.863 -1.255003,11.534 -0.03,0.435 -0.035,1.065 0.645,1.015 1.986003,-0.144 2.243003,-0.51 2.148003,-0.957 -0.13,0.106 -1.326,0.887 -1.39,-0.05 -0.231,-3.44 0.455,-7.864 0.646,-11.46 0.057,-1.072 -0.74,-0.434 -0.794,-0.082 z m 7.227,16.81 c -1.53,1.596 -8.296003,1.483 -9.393003,0.537 -0.33,0.164 -0.336,0.436 -0.295,0.723 2.757003,0.475 4.972003,1.475 9.886003,-0.458 0.354,-0.424 0.15,-0.62 -0.198,-0.802 z m 13.096,-22.547 c -1.406,-1.768 -9.367,-1.9 -10.424,-1.73 l -0.023,-1.04 c 4.055,0.143 7.88,0.257 10.646,1.38 z m -23.726003,-3.98 c 0,0 0.143,1.105 -0.386,0.972 -2.447,-0.553 -8.19,0.468 -8.19,0.468 l -0.214,-0.653 c 3.072,-0.45 5.966,-1.085 8.79,-0.787 z" />
  <path
     id="path1670"
     d="m 106.36158,18.147 c -2.52,2.425 -3.366,6.86 -4.725,10.678 -0.46,-3.381 0.403,-7.424 0.945,-11.056 -6.655003,6.58 -9.610003,13.95 -12.850003,21.26 l -0.38,-2.266 c -5.575,2.36 -8.646,1.787 -14.93,4.063 -2.141,-16.996 7.186,-42.02 27.405003,-35.436 4.798,-1.833 12.939,-1.658 20.228,2.812 5.037,3.089 11.385,13.574 11.617,21.095 1.435,7.93 -4.608,22.002 -11.023,20.436 0.077,-2.921 1.139,-3.94 0.61,-7.306 -2.528,0.253 -1.786,-0.06 -6.313,-2.358 -0.935,-7.918 -2.016,-15.494 -4.44,-17.954 0.188,5.078 1.279,11.623 -0.38,13.702 -1.22,-8.976 -3.286,-14.223 -5.763,-17.67 z m 14.816,97.616 -44.118003,119.494 -2.183,-0.595 10.286,-30.406 -0.935,-2.993 2.82,-76.867 0.926,0.133 -0.133,72.099 31.279003,-80.631 z" />
  <path
     id="path1672"
     d="m 101.40058,126.976 c -2.015003,-0.061 -3.385003,1.672 -3.506003,3.374 -0.12,1.7 1.543,4.125 3.308003,4.233 1.765,0.108 3.657,-1.958 3.704,-3.704 0.047,-1.747 -1.491,-3.842 -3.506,-3.903 z m -3.440003,25.929 c -1.68,0.053 -2.834,2.046 -2.778,3.572 0.057,1.526 1.573,3.323 3.11,3.44 1.536,0.117 3.403003,-0.992 3.570003,-2.91 0.169,-1.92 -2.222003,-4.154 -3.901003,-4.102 z" />
  <path
     style="fill-opacity:0.94499996"
     id="path1674"
     d="m 121.10258,73.332 c 0.834,0.34 1.77,0.78 2.745,1.278 3.595,5.532 -9.807,13.658 -39.050003,10.43 -2.614,-0.29 -5.23,0.495 -7.844,1.115 0.038,-0.324 0.08,-0.666 0.11,-0.957 0.292,-2.872 13.077,-7.788 17.337,-7.788 0,2.466 1.13,4.974 6.793003,4.974 2.355,0 19.91,-1.272 19.91,-9.052 z m 10.79,6.588 c 2.362,2.095 3.793,4.253 2.91,5.914 -4.941,9.313 7.363,5.896 7.906,12.07 0.194,2.206 -1.11,1.716 -4.332,5.458 -10.453,12.137 -19.332,11.572 -30.295,6.88 -3.731,3.442 -7.867,5.772 -12.303003,7.275 -3.54,-1.51 -6.91,-3.522 -9.922,-6.614 -1.86,-1.638 -4.396,-3 -9.922,-3.043 -3.115,2.74 -6.565,6.46 -8.863,6.747 -5.027,1.777 -10.61,11.144 -22.622,23.15 -1.34,1.34 -2.154,1.832 -2.646,1.324 -6.78,-7.007 -11.298,-14.146 -13.825,-19.447 -1.987,-4.17 1.43,-5.33 3.506,-8.037 -0.567,-2.93 -0.923,-12.585 -0.066,-13.328 10.816,-8.823 23.195,-11.006 37.147,-7.835 0.14,0.647 0.36,1.393 0.755,2.345 -6.202,-3.1 -18.186,-0.7 -36.116,4.3 -0.845,3.51 -1.088,7.786 0,13.758 9.912,-7.313 21.512,-12.1 30.202,-13.74 3.195,-1.851 8.89,-4.267 12.694,-0.697 l -0.083,-2.794 c 8.365,2.3 -1.682,9.79 14.524,17.83 1.319,1.404 2.583,3.002 4.326,2.877 3.416,-1.395 6.412003,-4.017 10.039003,-5.858 1.2,-0.608 2.69,0.087 4.035,-0.727 6.354,2.703 10.709,-0.593 15.478,-2.646 1.83,-2.92 5.132,-3.485 5.49,-6.085 0.384,-2.788 -2.677,-4.028 -3.473,-5.987 -1.266,-3.12 4.218,-6.294 5.458,-13.09 z m -73.500003,22.889 c -5.422,0.06 -9.95,2.277 -18.47,6.824 -2.436,1.3 -12.1,7.133 -8.844,11.575 l 11.849,16.164 c 1.906,-0.517 0.71,-2.944 2.13,-6.68 1.049,-2.753 3.267,-5.382 4.932,-8.194 -2.164,1.967 -3.15,4.8 -6.454,7.063 -3.83,-2.16 -6.726,-5.15 -7.203,-10.29 4.532,-5.14 17.427,-9.595 26.754,-16.043 -1.493,-0.26 -2.86,-0.4 -4.166,-0.42 h -0.527 z" />
</svg>
