<svg xmlns="http://www.w3.org/2000/svg" xmlns:xlink="http://www.w3.org/1999/xlink" viewBox="0 0 152.118 441.479">
  <defs>
    <radialGradient xlink:href="#a" id="c" gradientUnits="userSpaceOnUse" gradientTransform="matrix(.54156 .01237 -.0157 .68692 -95.79 4.17)" cx="248.841" cy="59.864" fx="248.841" fy="59.864" r="24.784"/>
    <radialGradient xlink:href="#a" id="b" cx="289.817" cy="58.803" fx="289.817" fy="58.803" r="24.784" gradientTransform="matrix(.54156 .01237 -.0157 .68692 -95.79 4.17)" gradientUnits="userSpaceOnUse"/>
    <linearGradient id="a">
      <stop offset="0" stop-color="#ea957d"/>
      <stop offset="1" stop-color="#ea957d" stop-opacity="0"/>
    </linearGradient>
  </defs>
  <path d="M97.263 230.642l-78.016 12.534c.756 2.773 5.344 20.488 5.547 21.886l11.903 81.883c-6.645 23.416 3.952 39.988 5.576 59.09l14.567-.42v-68.8l3.835-69.838c.03-.045.06-.09.092-.133l5.98 62.79 2.947 68.74 13.85-.075c.725-19.142 10.08-36.06 2.765-59.23l5.76-60.736c1.562-16.472 4.262-32.157 5.194-47.69z" stroke="#000" stroke-width=".277"/>
  <path d="M88.22 434.532l-32.206.98-.065.41s2.69.97 6.045 1.925c3.355.954 7.365 1.898 10.068 1.834 2.842-.068 6.887-1.257 10.24-2.424a97.124 97.124 0 006.01-2.318z" style="line-height:normal;font-variant-ligatures:normal;font-variant-position:normal;font-variant-caps:normal;font-variant-numeric:normal;font-variant-alternates:normal;font-feature-settings:normal;text-indent:0;text-align:start;text-decoration-line:none;text-decoration-style:solid;text-decoration-color:#000;text-transform:none;text-orientation:mixed;white-space:normal;shape-padding:0;isolation:auto;mix-blend-mode:normal" font-weight="400" overflow="visible" color="#000" font-family="sans-serif"/>
  <path d="M56.438 436.78c-4.516-.39-10.61.263-18.91 2.932h-.003l-2.279.254-.014.26s4.032.88 6.182 1.02c5.246.341 10.35.23 15.605.148 2.905-.045 8.827-1.069 8.827-1.069l.304-.052-.248-.184c-2-1.486-4.943-2.918-9.465-3.309z" style="line-height:normal;font-variant-ligatures:normal;font-variant-position:normal;font-variant-caps:normal;font-variant-numeric:normal;font-variant-alternates:normal;font-feature-settings:normal;text-indent:0;text-align:start;text-decoration-line:none;text-decoration-style:solid;text-decoration-color:#000;text-transform:none;text-orientation:mixed;white-space:normal;shape-padding:0;isolation:auto;mix-blend-mode:normal" font-weight="400" overflow="visible" color="#000" font-family="sans-serif"/>
  <path d="M69.123 402.387c-.068 5.278-1.812 12.705-2.895 18.371-1.184.3-2.216.72-3 1.303-3.464 2.575-3.924 11.344-3.924 11.344s4.403 3.72 8.314 4.368c6.458 1.07 20.61-3.029 20.61-3.029l-.62-6.577c.152-6.988-3.303-24.446-.685-24.67zm17.8 1.11l.214.013a.673.673 0 00-.214-.014z" fill="#d50c12"/>
  <path d="M40.263 409.65l.204.016a.63.63 0 00-.204-.017zm.204.016c2.802.664-7.495 22.402-7.196 26.89-.014.051-.03.103-.037.154l.071.12c.05.23.142.39.282.47l1.674 2.797 30.562.098-.734-8.657c-.469-1.52-3.075-2.156-6.608-2.187-.272-5.715-.902-13.106-.229-18.242z" fill="#d50c12"/>
  <path d="M49.867 284.642l22.545-7.693-9.59-11.329-18.924 11.86z" stroke="#000" stroke-width=".265"/>
  <path d="M31.015 69.035c6.117-.906 20.414 1.496 26.702 4.078 2.11 3.654 2.637 9.651-1.21 13.383-7.503.384-15.02 3.71-20.767-1.216-8.833-9.292-6.61-8.698-4.725-16.245z"/>
  <path d="M36.46 66.284c6.725 28.81-24.265 20.203-30.403 33.676-1.474 3.237-2 8.066-2.338 13.938.043 2.802-2.849 7.594-3.555 15.716-.465 5.35.218 56.168.084 64.436-.204 12.53 4.134 53.32 15.742 69.057 13.053 17.695 35.713 7.842 46.831 2.513 24.523-7.592 44.11-30.97 70.644-27.649 3.242 6.126 4.6 8.013 5.027 7.806 4.542-2.22 9.084-5.322 13.626-9.658-22.672-24.868-30.3-44.272-41.384-64.972-4.736-8.845-4.784-20.316-14.838-39.076-6.489-12.107-10.248-25.28-16.032-33.514-7.07-10.065-24.815-.426-27.876-23.76z"/>
  <path d="M91.606 123.194c2.012 15.996-2.862 37.495-3.252 55.908-.245 11.551-4.31 50.133-4.84 58.527-1.862.1-2.466-.31-3.463-1.375 1.114 1.858 2.6 3.132 2.093 5.7-.09.455-.008 1.098-.877 1.41-13.638 4.883-23.428 11.631-24.555 11.74-.72.068-1.067-.18-1.246-.605-4.03-9.616-16.96-28.922-30.419-80.92-16.13-32.556-15.32-33.635-21.36-46.336-2.917 82.817 3.875 115.03 14.288 134.41 4.92 2.866 10.194 6.017 18.074 6.762 57.396-4.965 55.503-39.968 115.762-32.008.103-.096.205-.19.307-.288-22.672-24.868-30.3-44.272-41.384-64.972-4.736-8.845-4.784-20.316-14.838-39.076-1.568-2.925-2.974-5.912-4.29-8.877z" fill="#d50c12"/>
  <path d="M66.923 51.176c3.284 2.365 8.81 6.581 7.276 12.945-1.704 7.07-13.59 5.973-14.93 11.245l-28.254-6.33c-9.713 2.59-18.47-2.943-19.655-15.593 4.582-8.542 5.667-18.563 7.087-28.442z"/>
  <path d="M36.46 66.284c1.746 7.482.95 12.44-1.296 15.917-.575 8.52 18.741 6.607 20.297 3.18-1.622-2.46-2.85-5.842-3.473-10.584z" fill="#ad2422"/>
  <path d="M34.243 61.052c0 2.394 6.128 15.248 13.751 15.248 3.242 0 9.261-5.386 9.261-7.764z"/>
  <path d="M68.236 33.793c-.746 3.835.95 13.503.122 18.38-1.19 7.016-12.018 18.724-18.14 18.648-4.633-.058-15.057-7.148-18.476-13.303-.254-1.399-1.44-1.337-2.405-.602-2.907 3.791-9.485.373-10.023-4.476-.889-8.015 7.228-10.28 9.305-7.476-9.584-53.992 46.446-52.068 39.617-11.17z" fill="#e9b296"/>
  <path d="M68.236 33.793c-.746 3.835.95 13.503.122 18.38-1.19 7.016-12.018 18.724-18.14 18.648-4.633-.058-15.057-7.148-18.476-13.303-.254-1.399-1.44-1.337-2.405-.602-2.907 3.791-9.485.373-10.023-4.476-.889-8.015 7.228-10.28 9.305-7.476-9.584-53.992 46.446-52.068 39.617-11.17z" fill="url(#b)"/>
  <path d="M68.236 33.793c-.746 3.835.95 13.503.122 18.38-1.19 7.016-12.018 18.724-18.14 18.648-4.633-.058-15.057-7.148-18.476-13.303-.254-1.399-1.44-1.337-2.405-.602-2.907 3.791-9.485.373-10.023-4.476-.889-8.015 7.228-10.28 9.305-7.476-9.584-53.992 46.446-52.068 39.617-11.17z" fill="url(#c)"/>
  <path d="M29.724 48.136c-3.18-.893-5.314-1.12-6.504-.95-3.749 4.431 1.802 14.224 5.943 6.095 1.553-1.774.97-3.455.561-5.144z" fill="#bf292c"/>
  <path d="M14.01 98.65c-7.832-2.587-7.77 9.89-4.66 28.78 2.712 16.47 10.045 30.96 16.231 39.831 6.954 26.926 16.213 53.571 26.78 77.225 7.85-3.995 11.858-9.748 24.837-11.74 1.175.494 2.045 1.67 2.853 3.508 3.771-18.776 4.33-42.926 5.882-68.636 1.45-23.985 8.14-36.83-.34-57.242-5.668-2.536-6.163-4.793-8.749-6.912-4.756 2.027-8.848 1.595-12.237 3.935-8.99 11.027-13.13 1.02-20.57-1.455-6.515.474-17.139 8.375-30.028-7.294z" fill="#d20918"/>
  <path d="M31.015 69.035c-5.639 2.305-15.718 8.704-13.702 12.501 4.943 9.313-7.36 5.896-7.904 12.072-.194 2.205 1.11 1.715 4.332 5.457 10.454 12.136 19.332 11.572 30.295 6.88 3.731 3.442 7.867 5.772 12.303 7.275 3.54-1.509 6.91-3.523 9.922-6.614 1.86-1.638 4.397-2.999 9.922-3.043 3.115 2.74 6.565 6.46 8.863 6.747 5.027 1.777 10.61 11.144 22.622 23.15 1.34 1.34 2.154 1.832 2.646 1.324 6.78-7.007 11.298-14.146 13.825-19.447 1.987-4.169-1.43-5.33-3.506-8.037.567-2.93.923-12.585.066-13.328-12.848-10.48-27.9-11.594-45.178-5.49.225-2.599-.258-5.536-.467-7.58-.292-2.873-13.077-7.789-17.337-7.789 0 2.467-1.13 4.974-6.793 4.974-2.355 0-19.91-1.272-19.91-9.052z" fill="#fcf3e3"/>
  <path d="M31.015 69.035c-.834.341-1.77.78-2.745 1.278-3.595 5.532 9.807 13.658 39.05 10.43 2.614-.289 5.23.495 7.844 1.115-.038-.324-.08-.666-.11-.957-.292-2.872-13.077-7.788-17.337-7.788 0 2.466-1.13 4.974-6.793 4.974-2.355 0-19.91-1.272-19.91-9.052zm-10.79 6.588c-2.362 2.095-3.793 4.253-2.91 5.914 4.941 9.313-7.363 5.896-7.906 12.071-.194 2.205 1.11 1.715 4.332 5.457 10.453 12.137 19.332 11.572 30.295 6.88 3.731 3.442 7.867 5.772 12.303 7.275 3.54-1.509 6.91-3.522 9.922-6.614 1.86-1.638 4.396-2.999 9.922-3.043 3.115 2.741 6.565 6.46 8.863 6.747 5.027 1.777 10.61 11.144 22.622 23.151 1.34 1.34 2.154 1.831 2.646 1.323 6.78-7.007 11.298-14.146 13.825-19.447 1.987-4.169-1.43-5.329-3.506-8.037.567-2.93.923-12.585.066-13.328-10.816-8.823-23.195-11.006-37.147-7.835-.14.647-.36 1.393-.755 2.345 6.202-3.099 18.186-.699 36.116 4.3.845 3.51 1.088 7.786 0 13.758-9.912-7.313-21.512-12.1-30.202-13.74-3.195-1.85-8.89-4.267-12.694-.697l.083-2.794c-8.365 2.3 1.682 9.79-14.524 17.83-1.319 1.404-2.583 3.002-4.326 2.877-3.416-1.395-6.412-4.017-10.039-5.858-1.2-.608-2.69.087-4.035-.727-6.354 2.703-10.709-.593-15.478-2.646-1.83-2.919-5.132-3.485-5.49-6.085-.384-2.788 2.677-4.028 3.473-5.987 1.266-3.12-4.218-6.294-5.458-13.09zm73.5 22.89c5.422.06 9.95 2.276 18.47 6.823 2.436 1.3 12.1 7.133 8.844 11.575l-11.849 16.164c-1.906-.517-.71-2.944-2.13-6.68-1.049-2.753-3.267-5.382-4.932-8.194 2.164 1.967 3.15 4.8 6.454 7.063 3.83-2.16 6.726-5.15 7.203-10.29-4.532-5.139-17.427-9.595-26.754-16.043 1.493-.26 2.86-.4 4.166-.419.177-.002.353-.002.527 0z" fill-opacity=".945"/>
  <path d="M60.968 249.537c-.773.001 4.644 21.152 7.253 21.904 4.238 1.22 3.218.563 5.47.547 2.291-.017 5.156-1.648 7.53-2.62 2.781-1.137 5.321-2.598 6.454-5.284 1.006-2.388.413-4.775-.608-7.157-2.204-5.136-7.774-16.857-7.484-17.212z"/>
  <path d="M53.296 245.71c.307-1.515 12.106-6.765 23.387-12.122 1.926 5.235 3.208 5.527 4.687 8.796-10.36 1.97-19.118 7.91-24.568 10.735-.62-2.268-2.735-5.136-3.506-7.409z" fill="#c90606"/>
  <path d="M74.222 266.29c.354.03 3.535.656 5.224-.614 1.094-.337 1.221-1.43 1.617-1.958.177-.025 2.512.433 3.173-1.129.218.421.578.503.074 2.155-1.203.251-3.667 1.365-3.57 2.216-3.006.53-2.847 1.72-3.322 1.947-.41-.516-2.703-.954-4.78-.31-.412.128-.898.82-1.147.972-.993-1.372 1.713-2.34 2.73-3.28z" fill="#fff"/>
  <path d="M24.516 48.226c1.853-1.71 3.006.565 4.505 1.957-1.354 1.513-2.753-.21-4.505-1.957zM37.95 36.954c.802.01 1.197 1.487 1.224 3.043.038 2.127-.957 3.3-1.422 3.257-.837-.076-1.395-1.853-1.372-3.175.02-1.126.777-3.135 1.57-3.125zm20.587-.458c.72-.018 1.35 1.38 1.37 2.987.016 1.355-.107 3.303-.969 3.354-.683.04-1.443-1.427-1.494-3.256-.05-1.816.505-3.072 1.093-3.086zm-6.679 3.55c.475 3.11 1.005 7.863 1.255 11.534.03.435.035 1.065-.645 1.015-1.986-.144-2.243-.51-2.148-.957.13.106 1.326.887 1.39-.05.231-3.44-.455-7.864-.646-11.46-.057-1.072.74-.434.794-.082zm-7.227 16.81c1.53 1.596 8.296 1.483 9.393.537.33.164.336.436.295.723-2.757.475-4.972 1.475-9.886-.458-.354-.424-.15-.62.198-.802zM31.535 34.308c1.406-1.768 9.367-1.899 10.424-1.73l.023-1.04c-4.055.143-7.88.257-10.646 1.381zm23.726-3.98s-.143 1.105.386.972c2.447-.553 8.19.468 8.19.468l.214-.653c-3.072-.449-5.966-1.085-8.79-.787z" fill="#020202"/>
  <path d="M45.756 13.85c2.52 2.425 3.366 6.86 4.725 10.678.46-3.38-.403-7.424-.945-11.056 6.655 6.58 9.61 13.951 12.85 21.261l.38-2.267c5.575 2.361 8.646 1.787 14.93 4.063C79.837 19.533 70.51-5.49 50.291 1.094 45.494-.739 37.353-.564 30.064 3.906 25.027 6.996 18.68 17.48 18.447 25.001c-1.435 7.93 4.608 22.002 11.023 20.436-.077-2.92-1.139-3.939-.61-7.306 2.528.253 1.786-.06 6.313-2.358.935-7.918 2.016-15.494 4.44-17.954-.188 5.078-1.279 11.623.38 13.702 1.22-8.976 3.286-14.223 5.763-17.67zM30.94 111.466L75.058 230.96l2.183-.595-10.286-30.406.935-2.993-2.82-76.867-.926.133.133 72.1L32.998 111.7z"/>
  <path d="M50.717 122.68c2.015-.062 3.385 1.671 3.506 3.373.12 1.701-1.543 4.125-3.308 4.233-1.765.108-3.657-1.958-3.704-3.704-.047-1.747 1.491-3.842 3.506-3.903zm3.44 25.928c1.68.053 2.834 2.046 2.778 3.572-.057 1.526-1.573 3.323-3.11 3.44-1.536.117-3.403-.992-3.57-2.91-.169-1.919 2.222-4.154 3.901-4.102z"/>
  <path d="M31.015 69.035c-.834.341-1.77.78-2.745 1.278-3.595 5.532 9.807 13.658 39.05 10.43 2.614-.289 5.23.495 7.844 1.115-.038-.324-.08-.666-.11-.957-.292-2.872-13.077-7.788-17.337-7.788 0 2.466-1.13 4.974-6.793 4.974-2.355 0-19.91-1.272-19.91-9.052zm-10.79 6.588c-2.362 2.095-3.793 4.253-2.91 5.914 4.941 9.313-7.363 5.896-7.906 12.071-.194 2.205 1.11 1.715 4.332 5.457 10.453 12.137 19.332 11.572 30.295 6.88 3.731 3.442 7.867 5.772 12.303 7.275 3.54-1.509 6.91-3.522 9.922-6.614 1.86-1.638 4.396-2.999 9.922-3.043 3.115 2.741 6.565 6.46 8.863 6.747 5.027 1.777 10.61 11.144 22.622 23.151 1.34 1.34 2.154 1.831 2.646 1.323 6.78-7.007 11.298-14.146 13.825-19.447 1.987-4.169-1.43-5.329-3.506-8.037.567-2.93.923-12.585.066-13.328-10.816-8.823-23.195-11.006-37.147-7.835-.14.647-.36 1.393-.755 2.345 6.202-3.099 18.186-.699 36.116 4.3.845 3.51 1.088 7.786 0 13.758-9.912-7.313-21.512-12.1-30.202-13.74-3.195-1.85-8.89-4.267-12.694-.697l.083-2.794c-8.365 2.3 1.682 9.79-14.524 17.83-1.319 1.404-2.583 3.002-4.326 2.877-3.416-1.395-6.412-4.017-10.039-5.858-1.2-.608-2.69.087-4.035-.727-6.354 2.703-10.709-.593-15.478-2.646-1.83-2.919-5.132-3.485-5.49-6.085-.384-2.788 2.677-4.028 3.473-5.987 1.266-3.12-4.218-6.294-5.458-13.09zm73.5 22.89c5.422.06 9.95 2.276 18.47 6.823 2.436 1.3 12.1 7.133 8.844 11.575l-11.849 16.164c-1.906-.517-.71-2.944-2.13-6.68-1.049-2.753-3.267-5.382-4.932-8.194 2.164 1.967 3.15 4.8 6.454 7.063 3.83-2.16 6.726-5.15 7.203-10.29-4.532-5.139-17.427-9.595-26.754-16.043 1.493-.26 2.86-.4 4.166-.419.177-.002.353-.002.527 0z" fill-opacity=".945"/>
  <path d="M57.76 414.91c-.2.05-.4.1-.6.148.017.814.104 4.733.112 7.365.008 2.487 1.698 7.095 1.698 7.095-.447-4.19-.647-12.21-1.21-14.608z" stroke="#000" stroke-width=".156"/>
  <path d="M38.41 403.476c8.777 1.935 14.51 1.36 21.942.273 2.934 3.54 2.11 7.036 1.817 9.831-8.756 3.066-17.388 3.694-25.747 0-.118-2.546-.705-4.186 1.987-10.104z" fill="#d50c12"/>
  <path d="M38.558 403.551c-.34-.288 2.19-1.36 5.178-2.43l10.744.148c1.958.824 4.106 1.04 5.872 2.63-.373.82-6.543 3.36-10.946 3.19-3.908-.15-8.877-2.284-10.848-3.538z" stroke="#000" stroke-width=".265"/>
  <path d="M66.49 396.837c8.104 1.516 13.75-.077 20.47-1.516 2.165 3.564 1.901 7.017 2.167 9.732-7.856-.176-15.702-.169-23.476 1.223.15-3.157.06-5.24.838-9.439z" fill="#d50c12"/>
  <path d="M66.926 396.864l7.69-3.612h5.553s6.633 1.7 6.633 2.068c0 0-5.79 3.403-9.03 3.716-3.67.354-10.846-2.172-10.846-2.172z" stroke="#000" stroke-width=".26"/>
  <path d="M86.974 395.21l-.388.214c.16.314.294.64.463.95.402.863.75 1.75 1.076 2.643.242.69.46 1.392.597 2.111.113.49.155.99.235 1.486.034.63.002 1.264-.008 1.896-6.194.223-12.392.398-18.587.603-1.273.063-2.642-.025-3.8.591l-.79.496c.108.078 1.458-.208 2.018-.26 6.917-.24 13.835-.443 20.753-.67.402.064.642-.272.74-.618l.058-.028c.006-.685.036-1.37.026-2.054-.1-.73-.188-1.466-.372-2.182-.277-1.113-.696-2.182-1.13-3.242-.253-.665-.594-1.29-.89-1.937z"/>
  <path d="M86.07 420.016l-8.34 2.016c-4.898-1.424-7.682-1.875-9.73-1.662-2.053.213-3.357 1.092-5.284 2.298l.057.127s1.167-.34 2.606-.674c1.44-.336 3.154-.666 4.23-.65 1.847-.19 3.586 1.033 4.78 1.597 2.002.947 3.98 2.08 6.233 1.947.828-.05 2.09-.509 3.153-.954a34.318 34.318 0 001.926-.879l.24-.12-5.535-.224c-.342-.107-.652-.2-.969-.296.287-.046.58-.09.815-.147 2.076-.49 5.863-2.247 5.863-2.247zm-25.616-16.128c1.7 3.815 1.737 5.912 1.624 9.7a53.843 53.843 0 01-6.94 1.75c-6.224 1.03-12.44.575-18.663-1.88-.002 0-.003 0-.004-.003l-.102.246h.004c4.16 1.802 8.455 2.486 12.803 2.695h.016c2.006-.144 4.013-.435 6.02-.802 2.672-.52 5.282-1.147 7.474-1.895v-.002h.002c.262-3.628-.105-7.67-2.172-9.838zm-22.49 21.85l-.093.24s1.553.752 3.302 1.492c1.135.48 2.347.952 3.285 1.215a67.809 67.809 0 00-6.498 1.867l-.018.006-2.07 1.478.421-.01s3.373-.093 5.37.045c2.508.172 4.914-.523 7.307-1.265 2.393-.742 4.775-1.53 7.236-1.57 1.33-.022 3.47.453 5.264.937 1.795.484 3.251.974 3.251.974l.12-.224c-3.003-2.358-8.264-4.574-18.154-2.718z" style="line-height:normal;font-variant-ligatures:normal;font-variant-position:normal;font-variant-caps:normal;font-variant-numeric:normal;font-variant-alternates:normal;font-feature-settings:normal;text-indent:0;text-align:start;text-decoration-line:none;text-decoration-style:solid;text-decoration-color:#000;text-transform:none;text-orientation:mixed;white-space:normal;shape-padding:0;isolation:auto;mix-blend-mode:normal" font-weight="400" overflow="visible" color="#000" font-family="sans-serif"/>
</svg>

