<?xml version="1.0" encoding="UTF-8" standalone="no"?>
<svg
   xmlns:dc="http://purl.org/dc/elements/1.1/"
   xmlns:cc="http://creativecommons.org/ns#"
   xmlns:rdf="http://www.w3.org/1999/02/22-rdf-syntax-ns#"
   xmlns:svg="http://www.w3.org/2000/svg"
   xmlns="http://www.w3.org/2000/svg"
   xmlns:xlink="http://www.w3.org/1999/xlink"
   xmlns:sodipodi="http://sodipodi.sourceforge.net/DTD/sodipodi-0.dtd"
   xmlns:inkscape="http://www.inkscape.org/namespaces/inkscape"
   viewBox="0 0 152.11843 290"
   version="1.1"
   id="svg79"
   sodipodi:docname="redgirl-final-crop.svg"
   width="152.11842"
   height="290"
   inkscape:version="0.92.4 (5da689c313, 2019-01-14)">
  <metadata
     id="metadata83">
    <rdf:RDF>
      <cc:Work
         rdf:about="">
        <dc:format>image/svg+xml</dc:format>
        <dc:type
           rdf:resource="http://purl.org/dc/dcmitype/StillImage" />
        <dc:title></dc:title>
      </cc:Work>
    </rdf:RDF>
  </metadata>
  <sodipodi:namedview
     pagecolor="#ffffff"
     bordercolor="#666666"
     borderopacity="1"
     objecttolerance="10"
     gridtolerance="10"
     guidetolerance="10"
     inkscape:pageopacity="0"
     inkscape:pageshadow="2"
     inkscape:window-width="1920"
     inkscape:window-height="1163"
     id="namedview81"
     showgrid="false"
     fit-margin-top="0"
     fit-margin-left="0"
     fit-margin-right="0"
     fit-margin-bottom="-100"
     inkscape:zoom="1.3202858"
     inkscape:cx="-46.625194"
     inkscape:cy="40.342311"
     inkscape:window-x="0"
     inkscape:window-y="0"
     inkscape:window-maximized="1"
     inkscape:current-layer="svg79" />
  <defs
     id="defs9">
    <radialGradient
       xlink:href="#a"
       id="c"
       gradientUnits="userSpaceOnUse"
       gradientTransform="matrix(0.54156,0.01237,-0.0157,0.68692,-95.789576,8.4665825)"
       cx="248.841"
       cy="59.863998"
       fx="248.841"
       fy="59.863998"
       r="24.784" />
    <linearGradient
       id="a">
      <stop
         offset="0"
         stop-color="#ea957d"
         id="stop3" />
      <stop
         offset="1"
         stop-color="#ea957d"
         stop-opacity="0"
         id="stop5" />
    </linearGradient>
    <radialGradient
       xlink:href="#a"
       id="b"
       cx="289.81699"
       cy="58.803001"
       fx="289.81699"
       fy="58.803001"
       r="24.784"
       gradientTransform="matrix(0.54156,0.01237,-0.0157,0.68692,-95.789576,8.4665825)"
       gradientUnits="userSpaceOnUse" />
  </defs>
  <path
     style="stroke:#000000;stroke-width:0.27675068"
     d="M 97.263672 234.93945 L 19.248047 247.47266 C 20.004047 250.24566 24.591922 267.96137 24.794922 269.35938 L 27.794922 290 L 59.646484 290 L 60.675781 271.27344 C 60.705781 271.22844 60.735578 271.18362 60.767578 271.14062 L 62.564453 290 L 91.371094 290 L 92.070312 282.62891 C 93.632312 266.15691 96.331672 250.47345 97.263672 234.93945 z "
     id="path11" />
  <path
     d="m 49.867424,288.93857 22.545,-7.693 -9.59,-11.329 -18.924,11.86 z"
     id="path21"
     inkscape:connector-curvature="0"
     style="stroke:#000000;stroke-width:0.26499999" />
  <path
     d="m 31.015424,73.331583 c 6.117,-0.906 20.414,1.496 26.702,4.078 2.11,3.654 2.637,9.651 -1.21,13.383 -7.503,0.384 -15.021,3.709 -20.767,-1.216 -8.833,-9.292 -6.61,-8.698 -4.725,-16.245 z"
     id="path23"
     inkscape:connector-curvature="0" />
  <path
     d="m 36.460424,70.580583 c 6.725,28.809995 -24.265,20.203 -30.4030009,33.675997 -1.4739998,3.23699 -1.9999998,8.06599 -2.3379998,13.93799 0.043,2.802 -2.84899996,7.594 -3.55499996,15.716 -0.465,5.35 0.218,56.168 0.084,64.436 -0.204,12.529 4.13399996,53.32 15.74200066,69.057 13.053,17.695 35.713,7.842 46.831,2.513 24.523,-7.592 44.109996,-30.971 70.643996,-27.649 3.242,6.126 4.6,8.013 5.027,7.806 4.542,-2.221 9.084,-5.322 13.626,-9.658 -22.672,-24.868 -30.301,-44.272 -41.384,-64.972 -4.736,-8.845 -4.784,-20.316 -14.837997,-39.076 -6.488999,-12.107 -10.247999,-25.28 -16.031999,-33.51399 -7.07,-10.064997 -24.815,-0.426 -27.876,-23.759997 z"
     id="path25"
     inkscape:connector-curvature="0" />
  <path
     d="m 91.606424,127.49057 c 2.012,15.996 -2.862,37.495 -3.252,55.908 -0.245,11.551 -4.31,50.133 -4.841,58.527 -1.861,0.1 -2.465,-0.311 -3.462,-1.375 1.114,1.858 2.599,3.132 2.093,5.7 -0.09,0.455 -0.008,1.098 -0.877,1.41 -13.638,4.883 -23.428,11.631 -24.555,11.74 -0.721,0.068 -1.067,-0.18 -1.246,-0.605 -4.03,-9.616 -16.96,-28.922 -30.419,-80.92 -16.1300005,-32.556 -15.3200005,-33.635 -21.3600007,-46.336 -2.91699996,82.817 3.8749998,115.03 14.2880007,134.409 4.92,2.867 10.194,6.018 18.074,6.763 57.396,-4.965 55.503,-39.968 115.761996,-32.008 0.103,-0.096 0.205,-0.19 0.307,-0.288 -22.672,-24.868 -30.301,-44.272 -41.384,-64.972 -4.736,-8.845 -4.784,-20.316 -14.837997,-39.076 -1.567999,-2.925 -2.973999,-5.912 -4.289999,-8.877 z"
     id="path27"
     inkscape:connector-curvature="0"
     style="fill:#d50c12" />
  <path
     d="m 66.923424,55.472583 c 3.284,2.365 8.809,6.581 7.276,12.945 -1.704,7.07 -13.591,5.973 -14.93,11.245 l -28.254,-6.331 c -9.713,2.59 -18.47,-2.942 -19.655,-15.592 4.582,-8.542 5.667,-18.563 7.087,-28.442 z"
     id="path29"
     inkscape:connector-curvature="0" />
  <path
     d="m 36.460424,70.580583 c 1.746,7.482 0.949,12.44 -1.296,15.917 -0.575,8.52 18.741,6.607 20.297,3.18 -1.622,-2.461 -2.851,-5.842 -3.473,-10.584 z"
     id="path31"
     inkscape:connector-curvature="0"
     style="fill:#ad2422" />
  <path
     d="m 34.243424,65.348583 c 0,2.394 6.128,15.248 13.751,15.248 3.242,0 9.261,-5.386 9.261,-7.764 z"
     id="path33"
     inkscape:connector-curvature="0" />
  <path
     d="m 68.236424,38.089573 c -0.746,3.835 0.95,13.503 0.122,18.38 -1.191,7.016 -12.018,18.724 -18.141,18.648 -4.632,-0.058 -15.056,-7.148 -18.475,-13.303 -0.254,-1.399 -1.44,-1.337 -2.405,-0.602 -2.907,3.791 -9.485,0.373 -10.023,-4.476 -0.889,-8.015 7.228,-10.28 9.305,-7.476 -9.584,-53.9919905 46.446,-52.0679905 39.617,-11.171 z"
     id="path35"
     inkscape:connector-curvature="0"
     style="fill:#e9b296" />
  <path
     d="m 68.236424,38.089573 c -0.746,3.835 0.95,13.503 0.122,18.38 -1.191,7.016 -12.018,18.724 -18.141,18.648 -4.632,-0.058 -15.056,-7.148 -18.475,-13.303 -0.254,-1.399 -1.44,-1.337 -2.405,-0.602 -2.907,3.791 -9.485,0.373 -10.023,-4.476 -0.889,-8.015 7.228,-10.28 9.305,-7.476 -9.584,-53.9919905 46.446,-52.0679905 39.617,-11.171 z"
     id="path37"
     inkscape:connector-curvature="0"
     style="fill:url(#b)" />
  <path
     d="m 68.236424,38.089573 c -0.746,3.835 0.95,13.503 0.122,18.38 -1.191,7.016 -12.018,18.724 -18.141,18.648 -4.632,-0.058 -15.056,-7.148 -18.475,-13.303 -0.254,-1.399 -1.44,-1.337 -2.405,-0.602 -2.907,3.791 -9.485,0.373 -10.023,-4.476 -0.889,-8.015 7.228,-10.28 9.305,-7.476 -9.584,-53.9919905 46.446,-52.0679905 39.617,-11.171 z"
     id="path39"
     inkscape:connector-curvature="0"
     style="fill:url(#c)" />
  <path
     d="m 29.724424,52.432583 c -3.18,-0.893 -5.314,-1.12 -6.504,-0.951 -3.749,4.432 1.802,14.225 5.943,6.096 1.553,-1.774 0.969,-3.455 0.561,-5.144 z"
     id="path41"
     inkscape:connector-curvature="0"
     style="fill:#bf292c" />
  <path
     d="m 14.009424,102.94658 c -7.8310009,-2.587 -7.7690009,9.88999 -4.6590005,28.77899 2.7120005,16.47 10.0450005,30.96 16.2310005,39.832 6.954,26.926 16.213,53.571 26.78,77.225 7.849,-3.995 11.858,-9.748 24.837,-11.74 1.175,0.494 2.045,1.67 2.853,3.508 3.771,-18.776 4.33,-42.926 5.882,-68.636 1.45,-23.985 8.14,-36.83 -0.34,-57.242 -5.668,-2.536 -6.163,-4.793 -8.749,-6.912 -4.756,2.027 -8.848,1.595 -12.237,3.935 -8.99,11.027 -13.13,1.02 -20.57,-1.455 -6.515,0.474 -17.139,8.375 -30.028,-7.29399 z"
     id="path43"
     inkscape:connector-curvature="0"
     style="fill:#d20918" />
  <path
     d="m 31.015424,73.331583 c -5.639,2.305 -15.718,8.704 -13.702,12.501 4.943,9.313 -7.3610005,5.896 -7.9040005,12.071995 -0.194,2.205002 1.1100005,1.715 4.3320005,5.457002 10.454,12.13599 19.332,11.57199 30.295,6.87999 3.731,3.442 7.867,5.772 12.303,7.275 3.54,-1.509 6.91,-3.523 9.922,-6.614 1.86,-1.638 4.397,-2.999 9.922,-3.043 3.115,2.74 6.565,6.46 8.863,6.747 5.027,1.777 10.61,11.144 22.621996,23.15 1.34,1.34 2.154,1.832 2.646,1.324 6.78,-7.007 11.298,-14.146 13.825,-19.447 1.987,-4.169 -1.431,-5.33 -3.506,-8.037 0.567,-2.93 0.923,-12.584992 0.066,-13.327992 -12.848,-10.479995 -27.899996,-11.593995 -45.177996,-5.489995 0.225,-2.599 -0.258,-5.536 -0.467,-7.581 -0.292,-2.872 -13.077,-7.788 -17.337,-7.788 0,2.467 -1.131,4.974 -6.793,4.974 -2.355,0 -19.91,-1.272 -19.91,-9.052 z"
     id="path45"
     inkscape:connector-curvature="0"
     style="fill:#fcf3e3" />
  <path
     d="m 31.015424,73.331583 c -0.834,0.341 -1.77,0.78 -2.745,1.278 -3.595,5.532 9.807,13.658 39.05,10.43 2.614,-0.289 5.229,0.495 7.844,1.115 -0.038,-0.324 -0.08,-0.666 -0.11,-0.957 -0.292,-2.872 -13.077,-7.788 -17.337,-7.788 0,2.466 -1.131,4.974 -6.793,4.974 -2.355,0 -19.91,-1.272 -19.91,-9.052 z m -10.791,6.588 c -2.361,2.095 -3.792,4.253 -2.91,5.914 4.942,9.313 -7.3620005,5.896 -7.9050005,12.070995 -0.194,2.205002 1.1100005,1.715 4.3320005,5.457002 10.453,12.13699 19.332,11.57199 30.295,6.87999 3.731,3.442 7.867,5.772 12.303,7.275 3.54,-1.509 6.91,-3.522 9.922,-6.614 1.86,-1.638 4.396,-2.999 9.922,-3.043 3.115,2.741 6.565,6.46 8.863,6.747 5.027,1.777 10.61,11.144 22.621996,23.151 1.34,1.34 2.154,1.831 2.646,1.323 6.78,-7.007 11.298,-14.146 13.825,-19.447 1.987,-4.169 -1.431,-5.329 -3.506,-8.037 0.567,-2.93 0.923,-12.584992 0.066,-13.327992 -10.816,-8.822995 -23.194997,-11.005995 -37.146996,-7.834995 -0.14,0.647 -0.361,1.393 -0.755,2.345 6.202,-3.099 18.185996,-0.699 36.115996,4.3 0.845,3.509997 1.088,7.785987 0,13.757987 -9.912,-7.31299 -21.511997,-12.099992 -30.201996,-13.739987 -3.195,-1.851 -8.89,-4.267 -12.694,-0.697 l 0.083,-2.794 c -8.365,2.3 1.682,9.789997 -14.524,17.829987 -1.319,1.404 -2.583,3.002 -4.326,2.877 -3.416,-1.395 -6.412,-4.017 -10.039,-5.858 -1.2,-0.608 -2.69,0.087 -4.035,-0.727 -6.354,2.703 -10.709,-0.593 -15.478,-2.646 -1.83,-2.91899 -5.132,-3.48499 -5.49,-6.084992 -0.384,-2.787995 2.677,-4.027995 3.473,-5.986995 1.266,-3.12 -4.218,-6.294 -5.458,-13.09 z m 73.5,22.888997 c 5.422998,0.061 9.949996,2.27699 18.469996,6.82399 2.437,1.3 12.1,7.133 8.845,11.575 l -11.849,16.164 c -1.906,-0.517 -0.71,-2.944 -2.131,-6.68 -1.048,-2.753 -3.266,-5.382 -4.931,-8.194 2.164,1.967 3.15,4.8 6.454,7.063 3.83,-2.16 6.726,-5.15 7.203,-10.29 -4.532,-5.139 -17.426998,-9.595 -26.753996,-16.04299 1.493,-0.26 2.86,-0.4 4.166,-0.419 0.177,-0.002 0.353,-0.002 0.527,0 z"
     id="path47"
     inkscape:connector-curvature="0"
     style="fill-opacity:0.94499966" />
  <path
     d="m 60.968424,253.83357 c -0.773,0.001 4.644,21.152 7.253,21.904 4.238,1.22 3.218,0.563 5.469,0.547 2.292,-0.017 5.157,-1.648 7.53,-2.62 2.782,-1.137 5.322,-2.598 6.455,-5.284 1.006,-2.388 0.413,-4.775 -0.608,-7.157 -2.204,-5.136 -7.774,-16.857 -7.484,-17.212 z"
     id="path49"
     inkscape:connector-curvature="0" />
  <path
     d="m 53.296424,250.00657 c 0.307,-1.515 12.106,-6.765 23.387,-12.122 1.926,5.235 3.208,5.527 4.687,8.796 -10.36,1.97 -19.118,7.91 -24.568,10.735 -0.621,-2.268 -2.735,-5.136 -3.506,-7.409 z"
     id="path51"
     inkscape:connector-curvature="0"
     style="fill:#c90606" />
  <path
     d="m 74.222424,270.58657 c 0.354,0.029 3.535,0.656 5.224,-0.614 1.094,-0.337 1.221,-1.43 1.617,-1.958 0.177,-0.025 2.512,0.433 3.173,-1.129 0.218,0.421 0.578,0.503 0.074,2.155 -1.203,0.251 -3.667,1.365 -3.571,2.216 -3.005,0.53 -2.846,1.72 -3.321,1.947 -0.41,-0.516 -2.703,-0.954 -4.78,-0.31 -0.412,0.128 -0.898,0.82 -1.147,0.972 -0.993,-1.372 1.713,-2.34 2.73,-3.28 z"
     id="path53"
     inkscape:connector-curvature="0"
     style="fill:#ffffff" />
  <g
     id="g57"
     style="fill:#020202"
     transform="translate(-55.499576,-37.487417)">
    <path
       d="m 80.016,90.01 c 1.853,-1.71 3.006,0.565 4.505,1.957 -1.354,1.513 -2.753,-0.21 -4.505,-1.957 z M 93.45,78.738 c 0.802,0.01 1.197,1.487 1.224,3.043 0.038,2.127 -0.957,3.3 -1.422,3.257 -0.837,-0.076 -1.395,-1.853 -1.372,-3.175 0.02,-1.126 0.777,-3.135 1.57,-3.125 z m 20.587,-0.458 c 0.72,-0.018 1.35,1.38 1.37,2.987 0.016,1.355 -0.107,3.303 -0.969,3.354 -0.683,0.04 -1.443,-1.427 -1.494,-3.256 -0.05,-1.816 0.505,-3.072 1.093,-3.086 z m -6.679,3.55 c 0.475,3.11 1.005,7.863 1.255,11.534 0.03,0.435 0.035,1.065 -0.645,1.015 -1.986,-0.144 -2.243,-0.51 -2.148,-0.957 0.13,0.106 1.326,0.887 1.389,-0.05 0.232,-3.44 -0.454,-7.864 -0.645,-11.46 -0.057,-1.072 0.74,-0.434 0.794,-0.082 z m -7.227,16.81 c 1.53,1.596 8.296,1.483 9.393,0.537 0.329,0.164 0.336,0.436 0.295,0.723 -2.757,0.475 -4.972,1.475 -9.886,-0.458 -0.354,-0.424 -0.15,-0.62 0.198,-0.802 z M 87.035,76.092 c 1.406,-1.768 9.367,-1.899 10.424,-1.73 l 0.023,-1.04 c -4.055,0.143 -7.88,0.257 -10.646,1.381 z m 23.726,-3.98 c 0,0 -0.143,1.105 0.386,0.972 2.447,-0.553 8.19,0.468 8.19,0.468 l 0.214,-0.653 c -3.072,-0.449 -5.966,-1.085 -8.79,-0.787 z"
       id="path55"
       inkscape:connector-curvature="0" />
  </g>
  <path
     d="m 45.756424,18.146583 c 2.52,2.425 3.366,6.86 4.725,10.678 0.459,-3.381 -0.403,-7.424 -0.945,-11.056 6.655,6.58 9.609,13.951 12.85,21.26099 l 0.379,-2.267 c 5.576,2.361 8.647,1.787 14.93,4.063 2.143,-16.99599 -7.184,-42.0189908 -27.403,-35.4349908 -4.798,-1.833 -12.939,-1.658 -20.228,2.8120003 -5.037,3.0890005 -11.385,13.5740005 -11.617,21.0950005 -1.435,7.92999 4.608,22.00199 11.023,20.43599 -0.077,-2.921 -1.139,-3.939 -0.61,-7.306 2.528,0.253 1.786,-0.06 6.313,-2.358 0.935,-7.91799 2.016,-15.49399 4.44,-17.95399 -0.188,5.078 -1.279,11.623 0.379,13.702 1.22,-8.976 3.287,-14.223 5.764,-17.67 z m -14.816,97.615987 44.118,119.494 2.183,-0.595 -10.286,-30.406 0.935,-2.993 -2.82,-76.867 -0.926,0.133 0.133,72.099 -31.279,-80.631 z"
     id="path59"
     inkscape:connector-curvature="0" />
  <path
     d="m 50.717424,126.97557 c 2.015,-0.061 3.385,1.672 3.506,3.374 0.12,1.701 -1.543,4.125 -3.308,4.233 -1.765,0.108 -3.657,-1.958 -3.704,-3.704 -0.047,-1.747 1.491,-3.842 3.506,-3.903 z m 3.439,25.929 c 1.68,0.053 2.835,2.046 2.779,3.572 -0.057,1.526 -1.573,3.323 -3.11,3.44 -1.536,0.117 -3.403,-0.992 -3.571,-2.91 -0.168,-1.919 2.223,-4.154 3.902,-4.102 z"
     id="path61"
     inkscape:connector-curvature="0" />
  <path
     d="m 31.015424,73.331583 c -0.834,0.341 -1.77,0.78 -2.745,1.278 -3.595,5.532 9.807,13.658 39.05,10.43 2.614,-0.289 5.229,0.495 7.844,1.115 -0.038,-0.324 -0.08,-0.666 -0.11,-0.957 -0.292,-2.872 -13.077,-7.788 -17.337,-7.788 0,2.466 -1.131,4.974 -6.793,4.974 -2.355,0 -19.91,-1.272 -19.91,-9.052 z m -10.791,6.588 c -2.361,2.095 -3.792,4.253 -2.91,5.914 4.942,9.313 -7.3620005,5.896 -7.9050005,12.070995 -0.194,2.205002 1.1100005,1.715 4.3320005,5.457002 10.453,12.13699 19.332,11.57199 30.295,6.87999 3.731,3.442 7.867,5.772 12.303,7.275 3.54,-1.509 6.91,-3.522 9.922,-6.614 1.86,-1.638 4.396,-2.999 9.922,-3.043 3.115,2.741 6.565,6.46 8.863,6.747 5.027,1.777 10.61,11.144 22.621996,23.151 1.34,1.34 2.154,1.831 2.646,1.323 6.78,-7.007 11.298,-14.146 13.825,-19.447 1.987,-4.169 -1.431,-5.329 -3.506,-8.037 0.567,-2.93 0.923,-12.584992 0.066,-13.327992 -10.816,-8.822995 -23.194997,-11.005995 -37.146996,-7.834995 -0.14,0.647 -0.361,1.393 -0.755,2.345 6.202,-3.099 18.185996,-0.699 36.115996,4.3 0.845,3.509997 1.088,7.785987 0,13.757987 -9.912,-7.31299 -21.511997,-12.099992 -30.201996,-13.739987 -3.195,-1.851 -8.89,-4.267 -12.694,-0.697 l 0.083,-2.794 c -8.365,2.3 1.682,9.789997 -14.524,17.829987 -1.319,1.404 -2.583,3.002 -4.326,2.877 -3.416,-1.395 -6.412,-4.017 -10.039,-5.858 -1.2,-0.608 -2.69,0.087 -4.035,-0.727 -6.354,2.703 -10.709,-0.593 -15.478,-2.646 -1.83,-2.91899 -5.132,-3.48499 -5.49,-6.084992 -0.384,-2.787995 2.677,-4.027995 3.473,-5.986995 1.266,-3.12 -4.218,-6.294 -5.458,-13.09 z m 73.5,22.888997 c 5.422998,0.061 9.949996,2.27699 18.469996,6.82399 2.437,1.3 12.1,7.133 8.845,11.575 l -11.849,16.164 c -1.906,-0.517 -0.71,-2.944 -2.131,-6.68 -1.048,-2.753 -3.266,-5.382 -4.931,-8.194 2.164,1.967 3.15,4.8 6.454,7.063 3.83,-2.16 6.726,-5.15 7.203,-10.29 -4.532,-5.139 -17.426998,-9.595 -26.753996,-16.04299 1.493,-0.26 2.86,-0.4 4.166,-0.419 0.177,-0.002 0.353,-0.002 0.527,0 z"
     id="path63"
     inkscape:connector-curvature="0"
     style="fill-opacity:0.94499966" />
</svg>
