<svg xmlns="http://www.w3.org/2000/svg" viewBox="0 0 45.09 45.37"><defs><style>.cls-1{fill:#ac1a17;}</style></defs><g id="Layer_2" data-name="Layer 2"><g id="Layer_1-2" data-name="Layer 1"><path class="cls-1" d="M24.25,20.47V20.4a.18.18,0,0,0-.05.07Z"/><path class="cls-1" d="M41.76,0H3.33A3.29,3.29,0,0,0,0,3.25V42.12a3.29,3.29,0,0,0,3.33,3.25H41.76a3.29,3.29,0,0,0,3.33-3.25V3.25A3.29,3.29,0,0,0,41.76,0ZM13.67,38H6.86V17.49h6.81ZM10.26,14.7h0a3.55,3.55,0,1,1,.09-7.08,3.55,3.55,0,1,1-.05,7.08ZM38.22,38H31.41V27c0-2.75-1-4.63-3.45-4.63a3.73,3.73,0,0,0-3.49,2.49,4.67,4.67,0,0,0-.22,1.66V38H17.44s.08-18.56,0-20.49h6.81V20.4A6.74,6.74,0,0,1,30.38,17c4.48,0,7.84,2.93,7.84,9.23Z"/></g></g></svg>