<svg xmlns="http://www.w3.org/2000/svg" viewBox="0 0 344.32 101.29"><defs><style>.cls-1{fill:#fff;}.cls-2{fill:#ac1a17;}</style></defs><g id="Layer_2" data-name="Layer 2"><g id="Layer_1-2" data-name="Layer 1"><path class="cls-1" d="M39.67,99.79A15.7,15.7,0,0,1,24,84.12V69.35a5.53,5.53,0,0,1-1.27-.67L3.6,54.92a5.05,5.05,0,0,1-.15-8.09L22.57,32A5.2,5.2,0,0,1,24,31.21v-14A15.7,15.7,0,0,1,39.67,1.5H327.15a15.69,15.69,0,0,1,15.67,15.67v67a15.69,15.69,0,0,1-15.67,15.67Z"/><path class="cls-2" d="M327.15,3a14.18,14.18,0,0,1,14.17,14.17v67a14.17,14.17,0,0,1-14.17,14.17H39.67A14.17,14.17,0,0,1,25.49,84.12v-16a3.47,3.47,0,0,1-1.89-.67L4.48,53.71A3.55,3.55,0,0,1,4.37,48L23.49,33.17a3.5,3.5,0,0,1,2-.74V17.17A14.18,14.18,0,0,1,39.67,3H327.15m0-3H39.67A17.19,17.19,0,0,0,22.49,17.17V30.24a7.66,7.66,0,0,0-.84.56L2.53,45.65a6.55,6.55,0,0,0,.2,10.49L21.85,69.9c.21.15.42.28.64.41V84.12a17.19,17.19,0,0,0,17.18,17.17H327.15a17.19,17.19,0,0,0,17.17-17.17V17.17A17.19,17.19,0,0,0,327.15,0Z"/></g></g></svg>