<svg xmlns="http://www.w3.org/2000/svg" viewBox="0 0 45.65 37.1"><defs><style>.cls-1{fill:#ac1a17;}</style></defs><g id="Layer_2" data-name="Layer 2"><g id="Layer_1-2" data-name="Layer 1"><path class="cls-1" d="M45.65,4.39a18.73,18.73,0,0,1-5.38,1.48A9.37,9.37,0,0,0,44.38.68,18.6,18.6,0,0,1,38.44,3a9.38,9.38,0,0,0-16,8.54A26.58,26.58,0,0,1,3.18,1.71a9.38,9.38,0,0,0,2.9,12.51,9.4,9.4,0,0,1-4.25-1.17v.11a9.38,9.38,0,0,0,7.52,9.19,9.61,9.61,0,0,1-2.47.32,9.22,9.22,0,0,1-1.76-.16A9.37,9.37,0,0,0,13.86,29,18.78,18.78,0,0,1,2.23,33,20.54,20.54,0,0,1,0,32.89,26.51,26.51,0,0,0,14.36,37.1C31.58,37.1,41,22.83,41,10.45c0-.4,0-.81,0-1.21A19.1,19.1,0,0,0,45.65,4.39Z"/></g></g></svg>