<svg xmlns="http://www.w3.org/2000/svg" xmlns:xlink="http://www.w3.org/1999/xlink" width="378" height="185" viewBox="0 0 378 185"><defs><clipPath id="clip-back-wave-s"><rect width="378" height="185"></rect></clipPath></defs><g id="back-wave-s" clip-path="url(#clip-back-wave-s)"><path id="Subtraction_188" d="M448.387,235.8H.317L0,221.986H43.061V59.049c1.814.983,3.679,1.925,5.544,2.795a113.266,113.266,0,0,0,23.9,7.985,140.31,140.31,0,0,0,29.653,3.027,185.844,185.844,0,0,0,26.571-2.007,248.234,248.234,0,0,0,30.414-6.49,341.49,341.49,0,0,0,34.5-11.7c12.457-4.944,25.52-10.871,38.824-17.611,12.271-6.222,24.458-11.686,36.22-16.239a312.156,312.156,0,0,1,33.2-10.852,249.649,249.649,0,0,1,30.27-6.073A206.662,206.662,0,0,1,359.585,0a177.421,177.421,0,0,1,26.808,2A160.966,160.966,0,0,1,410.05,7.471,152.454,152.454,0,0,1,448.392,25.71l0,210.093Z" transform="matrix(0.996, -0.087, 0.087, 0.996, -54.164, 37.909)" fill="#8dc0d5"></path></g></svg>