<svg xmlns="http://www.w3.org/2000/svg" xmlns:xlink="http://www.w3.org/1999/xlink" width="48" height="31" viewBox="0 0 48 31"><defs><clipPath id="clip-trees-icon"><rect width="48" height="31"></rect></clipPath></defs><g id="trees-icon" clip-path="url(#clip-trees-icon)"><path id="Subtraction_173" d="M6.705,26.5h0a12.982,12.982,0,0,1-4.211-.626,5.129,5.129,0,0,1-1.513-.808,2.425,2.425,0,0,1-.828-1.161c-.387-1.261-.037-4.4.988-8.85l1.64-.456L1.553,13.347c.35-1.394.739-2.808,1.155-4.2l1.1-.305-.766-.781c.418-1.345.837-2.583,1.243-3.682l.961-.267-.619-.631c.788-2,1.433-3.191,1.866-3.438A.292.292,0,0,1,6.638,0c.624,0,1.554,1.874,2.224,3.446l-.514.7.849.106c.406,1.009.828,2.156,1.256,3.411L9.673,8.731l1.183.148c.464,1.427.906,2.9,1.314,4.364l-1.038,1.419,1.469.184c.561,2.163.985,4.117,1.225,5.651a8.875,8.875,0,0,1,.121,3.409c-.259.776-1.155,1.439-2.592,1.917A15.207,15.207,0,0,1,6.705,26.5Z" transform="translate(17 2)" fill="#80b58e"></path><path id="Subtraction_174" d="M5.275,20.5h0a10.371,10.371,0,0,1-3.313-.484,4.057,4.057,0,0,1-1.19-.625,1.877,1.877,0,0,1-.651-.9c-.3-.976-.029-3.407.777-6.846l1.29-.353-.966-.969c.276-1.078.581-2.173.909-3.252l.863-.236-.6-.6c.329-1.04.658-2,.978-2.848l.756-.207L3.638,2.69A6.762,6.762,0,0,1,5.106.03.233.233,0,0,1,5.222,0c.491,0,1.222,1.45,1.75,2.666l-.4.543.668.082c.319.78.652,1.668.988,2.639l-.613.823.93.115c.365,1.1.713,2.24,1.033,3.376l-.817,1.1,1.155.142c.441,1.673.775,3.185.964,4.372a6.754,6.754,0,0,1,.1,2.637c-.2.6-.909,1.113-2.039,1.483A12.15,12.15,0,0,1,5.275,20.5Z" transform="translate(2 8)" fill="#80b58e"></path><path id="Subtraction_175" d="M5.275,20.5h0a10.371,10.371,0,0,1-3.313-.484,4.057,4.057,0,0,1-1.19-.625,1.877,1.877,0,0,1-.651-.9c-.3-.976-.029-3.407.777-6.846l1.29-.353-.966-.969c.276-1.078.581-2.173.909-3.252l.863-.236-.6-.6c.329-1.04.658-2,.978-2.848l.756-.207L3.638,2.69A6.762,6.762,0,0,1,5.106.03.233.233,0,0,1,5.222,0c.491,0,1.222,1.45,1.75,2.666l-.4.543.668.082c.319.78.652,1.668.988,2.639l-.613.823.93.115c.365,1.1.713,2.24,1.033,3.376l-.817,1.1,1.155.142c.441,1.673.775,3.185.964,4.372a6.754,6.754,0,0,1,.1,2.637c-.2.6-.909,1.113-2.039,1.483A12.15,12.15,0,0,1,5.275,20.5Z" transform="translate(35 8)" fill="#80b58e"></path></g></svg>