<svg width="48" height="48" viewBox="0 0 48 48" fill="none" xmlns="http://www.w3.org/2000/svg">
<circle cx="24" cy="24" r="23" stroke="#FF194E" stroke-width="2"/>
<path fill-rule="evenodd" clip-rule="evenodd" d="M11.8728 15.1379C14.7233 12.2874 19.3564 12.2874 22.207 15.1379L23.9252 16.8561L23.927 16.8579L24.0049 16.9354L24.0828 16.8579L24.0845 16.8561L25.8028 15.1379C28.6533 12.2874 33.2864 12.2874 36.137 15.1379C38.9874 17.9883 38.9875 22.6212 36.1373 25.4718C36.1372 25.4719 36.1374 25.4717 36.1373 25.4718L24.0102 37.6095L11.8728 25.4721C9.02223 22.6216 9.02223 17.9884 11.8728 15.1379ZM24.0049 19.7569L26.5745 22.3139L27.9852 20.8961L25.4226 18.3461L25.4952 18.2739L25.497 18.2721L27.217 16.5521C29.2864 14.4826 32.6533 14.4826 34.7228 16.5521C36.7922 18.6216 36.7922 21.9884 34.7228 24.0579L24.0096 34.7805L13.287 24.0579C11.2175 21.9884 11.2175 18.6216 13.287 16.5521C15.3564 14.4826 18.7233 14.4826 20.7928 16.5521L22.5128 18.2721L22.5145 18.2739L22.5871 18.3461L20.0245 20.8961L21.4352 22.3139L24.0049 19.7569Z" fill="#FF194E"/>
</svg>
